<svg width="168" height="174" viewBox="0 0 168 174" fill="none" xmlns="http://www.w3.org/2000/svg">
<circle cx="83.8202" cy="83.7577" r="81.7635" fill="#FAF4E7" stroke="#D1E5D8" stroke-width="3.98846"/>
<mask id="mask0_14430_38965" style="mask-type:alpha" maskUnits="userSpaceOnUse" x="8" y="13" width="151" height="152">
<circle cx="83.3213" cy="89.2412" r="75.2822" fill="#D9D9D9"/>
</mask>
<g mask="url(#mask0_14430_38965)">
<path fill-rule="evenodd" clip-rule="evenodd" d="M117.856 28.3593C117.856 28.3591 117.856 28.3589 117.856 28.3587C117.856 23.7148 100.539 19.9502 79.1772 19.9502C57.8153 19.9502 40.498 23.7148 40.498 28.3587C40.498 28.3589 40.498 28.3591 40.498 28.3593V184.758H117.856V28.3593Z" fill="#D1D5DC"/>
<rect x="45.5391" y="104.034" width="67.2681" height="80.7217" fill="#0F28A4"/>
<rect x="45.5391" y="33.4014" width="67.2681" height="60.5413" fill="#0F28A4"/>
<rect x="50.5879" y="45.1748" width="57.1779" height="36.9974" fill="#3B4EC5"/>
<path d="M50.588 82.1689L47.2246 93.9409H111.129L107.766 82.1689H50.588Z" fill="#9AA2B1"/>
<path d="M50.588 45.1748L47.2246 33.4029H111.129L107.766 45.1748H50.588Z" fill="#071B7C"/>
<path d="M63.1983 83.8496L62.3574 85.5313H67.4025" stroke="black" stroke-width="0.418788"/>
<path d="M63.1983 87.2158L62.3574 88.8975H67.4025" stroke="black" stroke-width="0.418788"/>
<path d="M71.6084 83.8496L70.7676 85.5313H75.8127" stroke="black" stroke-width="0.418788"/>
<path d="M71.6084 87.2158L70.7676 88.8975H75.8127" stroke="black" stroke-width="0.418788"/>
<path d="M80.0166 83.8496L79.1758 85.5313H84.2209" stroke="black" stroke-width="0.418788"/>
<path d="M80.0166 87.2158L79.1758 88.8975H84.2209" stroke="black" stroke-width="0.418788"/>
<path d="M88.4268 83.8496L87.5859 85.5313H92.631" stroke="black" stroke-width="0.418788"/>
<path d="M88.4268 87.2158L87.5859 88.8975H92.631" stroke="black" stroke-width="0.418788"/>
<rect x="64.043" y="24.9922" width="30.2706" height="5.04511" fill="#687083"/>
<rect x="60.6797" y="50.2178" width="36.9974" height="25.2255" fill="#F8F8F8"/>
<path d="M76.326 66.3751C78.052 68.1076 79.2701 70.0742 79.915 71.9644C80.5671 70.0766 81.7925 68.1147 83.5251 66.3887C85.2576 64.6627 87.2241 63.4446 89.1144 62.7997C87.2266 62.1476 85.2646 60.9222 83.5386 59.1896C81.8126 57.4571 80.5945 55.4906 79.9496 53.6003C79.2976 55.4881 78.0721 57.4501 76.3396 59.1761C74.6071 60.9021 72.6405 62.1201 70.7503 62.7651C72.6381 63.4171 74.6 64.6426 76.326 66.3751Z" fill="#121827"/>
<rect x="53.9492" y="68.7168" width="5.04511" height="3.3634" fill="#9AA2B1"/>
<rect x="99.3574" y="68.7168" width="5.04511" height="3.3634" fill="#9AA2B1"/>
<rect x="53.9492" y="61.9922" width="5.04511" height="3.3634" fill="#9AA2B1"/>
<rect x="99.3574" y="61.9922" width="5.04511" height="3.3634" fill="#9AA2B1"/>
<rect x="53.9492" y="55.2646" width="5.04511" height="3.3634" fill="#9AA2B1"/>
<rect x="99.3574" y="55.2646" width="5.04511" height="3.3634" fill="#9AA2B1"/>
<path d="M64.2524 117.278V114.333H94.1042V117.278H64.2524Z" fill="#EAECF0" stroke="black" stroke-width="0.418788"/>
<path d="M60.6797 50.2178V75.4433H97.6771" stroke="black" stroke-width="0.418788"/>
<path d="M50.5879 45.1748V82.1722H107.766" stroke="black" stroke-width="0.418788"/>
<path d="M104.403 77.126H84.2227V78.8077H104.403V77.126Z" fill="#677AEC"/>
<path d="M117.852 28.3564L117.852 184.755" stroke="black" stroke-width="0.418788"/>
<path d="M78.5265 40.019C78.5265 40.019 79.3167 39.7699 79.3167 38.7347C79.3167 37.6026 78.5304 37.0557 77.0565 37.0557H74.1289V41.8183C74.1289 42.1261 74.3807 42.3741 74.6882 42.3741H75.5273V40.6945L77.208 40.6947C77.889 40.6947 78.324 40.9374 78.324 41.5341C78.324 42.1035 77.8889 42.3739 77.208 42.3739H75.5273V43.4935H77.4006C78.6162 43.4935 79.7784 43.0476 79.7784 41.5343C79.7785 40.5733 79.1002 40.1155 78.5265 40.019ZM76.7392 39.575L75.5275 39.5748V38.1752H76.7392C77.4393 38.1752 77.846 38.3405 77.846 38.864C77.846 39.4335 77.4391 39.575 76.7392 39.575Z" fill="#FCFCFD"/>
<path d="M80.8566 39.0283C80.5533 39.0283 80.3047 39.2799 80.3047 39.5867V43.4954H81.6842V39.0283H80.8566Z" fill="#FCFCFD"/>
<path d="M80.5807 37.0557C80.429 37.0557 80.3047 37.1814 80.3047 37.3349V38.1724H81.4082C81.5599 38.1724 81.6842 38.0467 81.6842 37.8932V37.0558H80.5807V37.0557Z" fill="#3EC1D1"/>
<path d="M83.9152 35.084H82.24C81.933 35.084 81.6816 35.3376 81.6816 35.647V37.0547H83.3568C83.6638 37.0547 83.9152 36.8013 83.9152 36.4919V35.084Z" fill="#FDBF0F"/>
<path d="M40.4941 28.3555L40.4941 184.754" stroke="black" stroke-width="0.418788"/>
</g>
<path d="M129.42 173.101C141.242 173.101 150.825 163.518 150.825 151.697C150.825 139.875 141.242 130.292 129.42 130.292C117.599 130.292 108.016 139.875 108.016 151.697C108.016 163.518 117.599 173.101 129.42 173.101Z" fill="#CEFF5A" stroke="black" stroke-width="1.41099" stroke-miterlimit="10"/>
<path d="M119.027 153.043L125.906 159.921L142.09 143.744" stroke="black" stroke-width="1.41099" stroke-miterlimit="10"/>
</svg>
