<?xml version="1.0" standalone="no"?>
<!DOCTYPE svg PUBLIC "-//W3C//DTD SVG 20010904//EN"
 "http://www.w3.org/TR/2001/REC-SVG-20010904/DTD/svg10.dtd">
<svg version="1.0" xmlns="http://www.w3.org/2000/svg"
 width="308.000000pt" height="233.000000pt" viewBox="0 0 308.000000 233.000000"
 preserveAspectRatio="xMidYMid meet">

<g transform="translate(0.000000,233.000000) scale(0.100000,-0.100000)"
fill="#000000" stroke="none">
<path d="M0 1165 l0 -1165 1540 0 1540 0 0 1165 0 1165 -1540 0 -1540 0 0
-1165z m2515 952 c92 -30 183 -82 238 -135 68 -66 69 -62 -50 -150 l-106 -79
-32 41 c-79 105 -317 162 -505 123 -53 -12 -55 -13 -61 -51 -8 -49 -47 -86
-90 -86 -20 0 -29 4 -26 13 2 6 10 12 18 12 8 0 18 6 22 13 19 29 -5 23 -66
-17 -84 -54 -140 -54 -90 1 16 18 16 19 -7 10 -14 -5 -31 -7 -37 -5 -15 5 -17
39 -3 48 6 4 5 13 -2 24 -7 11 -8 26 -3 37 4 11 7 27 6 36 -3 23 183 132 271
159 106 33 154 38 303 35 118 -3 153 -7 220 -29z m-2029 -42 l29 -12 -28 -7
c-17 -4 -32 -17 -39 -34 l-10 -27 -10 28 c-6 16 -20 30 -34 33 -27 7 -23 24 7
24 14 0 21 9 26 33 l7 32 11 -29 c7 -16 25 -34 41 -41z m-71 -413 l-23 -23
-24 23 -23 23 25 21 24 22 22 -21 22 -21 -23 -24z m745 -88 c0 -7 7 -15 15
-18 13 -4 8 -13 -20 -37 -20 -18 -47 -51 -61 -75 -21 -35 -29 -42 -42 -35 -10
5 -57 32 -105 60 -48 28 -85 47 -82 42 3 -5 48 -33 100 -63 52 -29 94 -57 92
-63 -7 -20 -49 -16 -94 9 -25 15 -48 24 -51 21 -3 -3 -1 -5 4 -5 5 0 20 -9 34
-20 l25 -20 -49 0 c-47 0 -49 1 -30 15 17 15 16 15 -12 1 -20 -10 -63 -15
-129 -15 -97 -1 -98 0 -135 33 -35 32 -36 34 -21 54 9 11 62 45 118 75 l101
54 19 -25 19 -26 48 86 48 85 104 -61 c57 -34 104 -66 104 -72z m308 38 c4
-13 -57 -54 -73 -49 -19 7 -10 27 20 47 32 21 46 21 53 2z m452 -40 c58 3 60
2 70 -26 15 -44 13 -49 -27 -44 -31 4 -45 -1 -75 -25 -21 -17 -38 -34 -38 -39
0 -5 18 6 41 25 36 32 43 34 73 25 l33 -10 -10 -44 -10 -44 -41 8 c-23 4 -62
7 -88 6 -52 -1 -57 6 -36 51 6 14 14 21 18 15 4 -6 22 3 46 24 l39 34 -59 0
c-55 -1 -63 -4 -101 -39 -36 -33 -65 -49 -65 -35 0 2 18 22 40 44 25 25 40 49
40 65 0 24 1 24 45 15 25 -5 72 -8 105 -6z m-86 -60 c3 -5 -4 -16 -14 -25 -13
-11 -20 -12 -23 -4 -3 7 -19 -1 -41 -22 -19 -19 -38 -32 -42 -29 -5 6 95 88
108 88 4 0 9 -4 12 -8z m302 -47 c13 -20 14 -30 4 -60 -13 -40 -35 -55 -79
-55 -39 0 -45 12 -31 58 27 84 72 109 106 57z m-356 -44 c0 -5 -7 -11 -15 -15
-15 -5 -20 5 -8 17 9 10 23 9 23 -2z m251 -168 c-1 -40 2 -63 8 -63 19 0 12
-29 -9 -40 -14 -8 -20 -8 -20 0 0 20 -31 23 -50 5 -15 -14 -23 -15 -34 -6 -11
9 -15 9 -18 0 -3 -9 -13 -7 -36 7 -27 15 -34 16 -41 5 -6 -10 -10 -10 -16 -1
-4 6 0 19 9 29 9 10 16 25 16 34 0 22 38 47 72 47 18 0 40 13 65 38 47 46 58
35 54 -55z m-214 -135 c-3 -8 -6 -5 -6 6 -1 11 2 17 5 13 3 -3 4 -12 1 -19z
m210 -9 c-11 -29 -12 -29 -15 -9 -3 18 10 38 25 40 1 0 -4 -14 -10 -31z m-63
-51 c19 -13 34 -26 33 -29 -1 -3 -36 -97 -77 -209 l-75 -202 -6 68 c-4 38 -10
139 -14 224 -6 140 -6 153 9 141 13 -11 20 -10 42 8 34 26 44 26 88 -1z
m-1013 -22 c17 13 73 -7 82 -29 3 -7 1 -35 -4 -61 -13 -70 18 -122 160 -269
106 -110 119 -128 130 -175 12 -48 11 -56 -10 -100 l-24 -47 -60 1 c-73 1
-150 37 -192 88 -15 19 -57 115 -94 213 -63 166 -71 181 -114 220 l-47 41 56
4 c31 1 56 -1 56 -6 0 -20 18 9 22 34 2 16 11 26 28 31 l25 6 -27 11 c-21 9
-28 18 -28 39 0 25 1 26 14 8 10 -14 17 -17 27 -9z m1770 -532 c9 -11 22 -14
48 -9 l36 7 -22 -24 c-20 -21 -21 -29 -13 -57 l9 -34 -23 22 c-20 19 -31 22
-58 16 -33 -7 -33 -7 -14 13 13 16 17 30 13 52 -7 33 3 39 24 14z m-214 -228
c1 -1 -2 -18 -8 -37 -10 -32 -14 -34 -46 -31 -30 4 -34 7 -29 26 3 11 6 29 6
38 0 14 7 16 38 11 20 -3 38 -7 39 -7z m-717 -105 c0 -10 3 -39 6 -65 l7 -46
-38 0 c-26 0 -36 4 -32 13 2 6 13 36 23 65 19 53 34 68 34 33z"/>
<path d="M956 1673 c-12 -12 -5 -23 14 -23 11 0 20 4 20 9 0 11 -26 22 -34 14z"/>
<path d="M1037 1620 c6 -21 18 -26 28 -11 3 6 -3 15 -14 20 -16 9 -18 8 -14
-9z"/>
<path d="M964 1586 c-8 -22 3 -33 18 -18 9 9 9 15 0 24 -9 9 -13 7 -18 -6z"/>
<path d="M790 1550 c-12 -8 -12 -10 3 -16 21 -8 35 2 21 16 -5 5 -15 6 -24 0z"/>
<path d="M728 1519 c-19 -11 -24 -29 -8 -29 5 0 14 9 20 20 12 23 12 23 -12 9z"/>
<path d="M782 1464 c1 -9 9 -19 16 -22 9 -3 13 2 10 14 -1 9 -9 19 -16 22 -9
3 -13 -2 -10 -14z"/>
<path d="M1900 1455 l-34 -35 27 0 c17 0 32 9 43 26 28 42 3 49 -36 9z"/>
<path d="M2082 1433 c-15 -28 -15 -28 8 -30 22 -2 23 1 11 32 -8 19 -8 19 -19
-2z"/>
<path d="M1890 980 c0 -5 5 -10 10 -10 6 0 10 5 10 10 0 6 -4 10 -10 10 -5 0
-10 -4 -10 -10z"/>
<path d="M1875 861 c-3 -5 -1 -12 5 -16 5 -3 10 1 10 9 0 18 -6 21 -15 7z"/>
</g>
</svg>
