<svg width="183" height="121" viewBox="0 0 183 121" fill="none" xmlns="http://www.w3.org/2000/svg">
<g clip-path="url(#clip0_13926_72204)">
<path d="M111.641 106.147C111.641 106.147 113.958 105.432 113.958 102.456C113.958 99.2032 111.652 97.6289 107.33 97.6289H98.7441V111.316C98.7441 112.2 99.4826 112.912 100.385 112.912H102.844V108.085H107.774C109.771 108.085 111.048 108.782 111.048 110.496C111.048 112.211 109.771 112.912 107.774 112.912H102.844V116.128H108.337C111.903 116.128 115.311 114.845 115.311 110.496C115.311 107.736 113.321 106.42 111.641 106.14M106.398 104.864H102.844V100.842H106.398C108.45 100.842 109.643 101.317 109.643 102.823C109.643 104.458 108.45 104.868 106.398 104.868" fill="#9AA2B1"/>
<path d="M118.432 103.262C117.53 103.262 116.791 103.984 116.791 104.872V116.136H120.891V103.262H118.432Z" fill="#9AA2B1"/>
<path d="M117.61 97.6325C117.158 97.6325 116.791 97.9955 116.791 98.4376V100.849H120.072C120.524 100.849 120.891 100.486 120.891 100.044V97.6289H117.61V97.6325Z" fill="#9AA2B1"/>
<path d="M127.452 91.998H122.529C121.627 91.998 120.889 92.7241 120.889 93.6083V97.6302H125.811C126.713 97.6302 127.452 96.9078 127.452 96.0236V91.998Z" fill="#9AA2B1"/>
<path d="M127.439 108.197V103.283H129.382C130.721 103.283 131.318 103.65 131.318 104.473C131.318 104.796 131.259 105.249 130.75 105.458L130.539 105.544L130.757 105.605C131.405 105.788 131.67 106.133 131.67 106.791C131.67 107.726 131.023 108.197 129.742 108.197H127.439ZM128.411 107.456H129.742C130.343 107.456 130.688 107.187 130.688 106.719C130.688 106.252 130.353 105.957 129.742 105.957H128.411V107.456ZM128.411 105.267H129.386C129.873 105.267 130.328 105.192 130.328 104.638C130.328 104.085 129.826 104.024 129.386 104.024H128.411V105.267Z" fill="#9AA2B1"/>
<path d="M137.476 108.197L136.927 106.978H134.639L134.071 108.197H133.078L135.308 103.283H136.33L138.51 108.197H137.48H137.476ZM134.93 106.288H136.625L135.785 104.264L134.93 106.288Z" fill="#9AA2B1"/>
<path d="M143.696 108.196L141.212 104.62V108.196H140.24V103.279H141.295L143.769 106.841V103.279H144.74V108.196H143.696Z" fill="#9AA2B1"/>
<path d="M149.327 108.283C148.77 108.283 146.951 108.103 146.951 105.767C146.951 103.431 148.745 103.193 149.52 103.193C150.098 103.193 150.575 103.301 151.2 103.582L150.924 104.236C150.287 103.984 149.767 103.948 149.512 103.948C149.141 103.948 147.933 104.078 147.933 105.767C147.933 107.456 149.119 107.528 149.359 107.528C149.851 107.528 150.422 107.363 150.967 107.057L151.36 107.733C150.771 108.089 150.051 108.283 149.33 108.283" fill="#9AA2B1"/>
<path d="M155.496 108.283C154.489 108.283 152.797 107.952 152.797 105.738C152.797 103.524 154.489 103.193 155.496 103.193C156.504 103.193 158.21 103.524 158.21 105.738C158.21 107.952 156.511 108.283 155.496 108.283ZM155.496 103.948C154.354 103.948 153.775 104.548 153.775 105.738C153.775 106.928 154.354 107.528 155.496 107.528C156.639 107.528 157.228 106.91 157.228 105.738C157.228 104.566 156.628 103.948 155.496 103.948Z" fill="#9AA2B1"/>
<path d="M128.428 111.209H127.457V116.126H128.428V111.209Z" fill="#9AA2B1"/>
<path d="M134.378 116.132L131.897 112.556V116.132H130.926V111.219H131.981L134.455 114.777V111.219H135.426V116.132H134.378Z" fill="#9AA2B1"/>
<path d="M137.92 116.126V111.209H139.692C140.961 111.209 142.478 111.637 142.478 113.667C142.478 115.698 140.961 116.126 139.692 116.126H137.92ZM138.891 115.385H139.706C140.372 115.385 141.492 115.163 141.492 113.667C141.492 112.172 140.372 111.949 139.706 111.949H138.891V115.382V115.385Z" fill="#9AA2B1"/>
<path d="M146.782 116.212C145.239 116.212 144.613 115.651 144.613 114.282V111.209H145.585V114.318C145.585 115.141 145.919 115.461 146.782 115.461C147.644 115.461 148.022 115.13 148.022 114.318V111.209H148.935V114.282C148.935 115.651 148.309 116.212 146.782 116.212Z" fill="#9AA2B1"/>
<path d="M152.947 116.216C152.132 116.216 151.477 116.044 150.771 115.638L151.204 114.944C151.859 115.307 152.369 115.458 152.896 115.458C153.507 115.458 154.158 115.271 154.158 114.743C154.158 114.258 153.609 114.114 153.078 113.977C151.648 113.603 151.015 113.402 151.015 112.518C151.015 111.368 152.121 111.127 153.052 111.127C153.733 111.127 154.326 111.256 154.919 111.537L154.631 112.227C154.148 112.036 153.678 111.882 152.998 111.882C152.565 111.882 151.99 111.932 151.99 112.374C151.99 112.73 152.045 112.892 153.416 113.283L153.569 113.327C154.413 113.564 155.144 113.769 155.144 114.736C155.144 115.958 153.947 116.216 152.947 116.216Z" fill="#9AA2B1"/>
<path d="M158.36 116.132V111.923H156.705V111.219H160.951V111.923H159.324V116.132H158.36Z" fill="#9AA2B1"/>
<path d="M167.074 116.229C166.525 116.229 166.227 116.085 166.005 115.715L165.077 114.148H163.917V116.136H162.945V111.219H165.146C166.532 111.219 167.071 111.632 167.071 112.685C167.071 113.39 166.776 113.843 166.19 114.037L166.099 114.069L166.707 115.108C166.878 115.402 167.1 115.528 167.445 115.528C167.475 115.528 167.504 115.528 167.536 115.528V116.211L167.22 116.233H167.078L167.074 116.229ZM163.913 113.4H165.139C165.63 113.4 166.085 113.311 166.085 112.678C166.085 112.045 165.605 111.959 165.139 111.959H163.913V113.4Z" fill="#9AA2B1"/>
<path d="M170.413 111.209H169.441V116.126H170.413V111.209Z" fill="#9AA2B1"/>
<path d="M176.544 116.126L175.992 114.907H173.703L173.136 116.126H172.143L174.373 111.209H175.395L177.574 116.126H176.544ZM173.998 114.217H175.693L174.853 112.19L173.998 114.217Z" fill="#9AA2B1"/>
<path d="M179.311 116.132V111.219H180.282V115.392H182.737V116.132H179.311Z" fill="#9AA2B1"/>
</g>
<path d="M5.63057 113.599C4.61864 113.599 3.74425 113.378 3.00741 112.936C2.28039 112.484 1.71548 111.86 1.31267 111.064C0.909866 110.258 0.708463 109.325 0.708463 108.264C0.708463 107.213 0.909866 106.289 1.31267 105.493C1.71548 104.688 2.28039 104.059 3.00741 103.607C3.74425 103.155 4.61864 102.929 5.63057 102.929C6.80952 102.929 7.76741 103.214 8.50425 103.784C9.25092 104.344 9.72741 105.13 9.93373 106.142H8.5632C8.40601 105.503 8.0818 104.992 7.59057 104.609C7.10916 104.216 6.45583 104.02 5.63057 104.02C4.89373 104.02 4.25022 104.192 3.70004 104.536C3.14987 104.87 2.7225 105.356 2.41794 105.995C2.1232 106.623 1.97583 107.38 1.97583 108.264C1.97583 109.148 2.1232 109.91 2.41794 110.548C2.7225 111.177 3.14987 111.663 3.70004 112.007C4.25022 112.341 4.89373 112.508 5.63057 112.508C6.45583 112.508 7.10916 112.322 7.59057 111.948C8.0818 111.565 8.40601 111.059 8.5632 110.43H9.93373C9.72741 111.423 9.25092 112.199 8.50425 112.759C7.76741 113.319 6.80952 113.599 5.63057 113.599ZM14.9697 113.599C14.282 113.599 13.663 113.442 13.1129 113.127C12.5627 112.813 12.1255 112.371 11.8013 111.801C11.4869 111.221 11.3297 110.543 11.3297 109.767C11.3297 108.991 11.4918 108.318 11.816 107.748C12.1402 107.169 12.5774 106.722 13.1276 106.407C13.6876 106.093 14.3115 105.936 14.9992 105.936C15.6869 105.936 16.3058 106.093 16.856 106.407C17.4062 106.722 17.8385 107.169 18.1529 107.748C18.4771 108.318 18.6392 108.991 18.6392 109.767C18.6392 110.543 18.4771 111.221 18.1529 111.801C17.8286 112.371 17.3865 112.813 16.8265 113.127C16.2764 113.442 15.6574 113.599 14.9697 113.599ZM14.9697 112.538C15.3922 112.538 15.7851 112.435 16.1486 112.228C16.5122 112.022 16.8069 111.712 17.0329 111.3C17.2588 110.887 17.3718 110.376 17.3718 109.767C17.3718 109.158 17.2588 108.647 17.0329 108.235C16.8167 107.822 16.5269 107.512 16.1634 107.306C15.7999 107.1 15.4118 106.997 14.9992 106.997C14.5767 106.997 14.1837 107.1 13.8202 107.306C13.4567 107.512 13.162 107.822 12.936 108.235C12.71 108.647 12.5971 109.158 12.5971 109.767C12.5971 110.376 12.71 110.887 12.936 111.3C13.162 111.712 13.4518 112.022 13.8055 112.228C14.169 112.435 14.5571 112.538 14.9697 112.538ZM20.3604 113.422V106.112H21.4804L21.5541 107.424C21.7899 106.962 22.1288 106.599 22.5709 106.333C23.013 106.068 23.5141 105.936 24.0741 105.936C24.9386 105.936 25.6264 106.201 26.1372 106.731C26.6579 107.252 26.9183 108.058 26.9183 109.148V113.422H25.6804V109.281C25.6804 107.758 25.0516 106.997 23.7941 106.997C23.1653 106.997 22.6397 107.227 22.2172 107.689C21.8046 108.141 21.5983 108.79 21.5983 109.635V113.422H20.3604ZM32.6939 113.422V106.112H33.8139L33.917 107.512C34.143 107.031 34.4868 106.648 34.9486 106.363C35.4103 106.078 35.9802 105.936 36.6581 105.936V107.232H36.3191C35.8868 107.232 35.4889 107.311 35.1254 107.468C34.7619 107.616 34.4721 107.871 34.256 108.235C34.0398 108.598 33.9318 109.099 33.9318 109.738V113.422H32.6939ZM41.0604 113.599C40.3628 113.599 39.7439 113.442 39.2035 113.127C38.6632 112.803 38.2358 112.356 37.9214 111.786C37.6168 111.216 37.4646 110.543 37.4646 109.767C37.4646 109.001 37.6168 108.333 37.9214 107.763C38.226 107.183 38.6484 106.736 39.1888 106.422C39.7389 106.098 40.3726 105.936 41.0898 105.936C41.7972 105.936 42.4063 106.098 42.9172 106.422C43.4379 106.736 43.8358 107.154 44.1109 107.675C44.386 108.195 44.5235 108.755 44.5235 109.355C44.5235 109.463 44.5186 109.571 44.5088 109.679C44.5088 109.787 44.5088 109.91 44.5088 110.047H38.6877C38.7172 110.607 38.8449 111.074 39.0709 111.447C39.3067 111.811 39.5965 112.086 39.9404 112.272C40.294 112.459 40.6674 112.552 41.0604 112.552C41.5712 112.552 41.9986 112.435 42.3425 112.199C42.6863 111.963 42.9368 111.644 43.094 111.241H44.3172C44.1207 111.919 43.7425 112.484 43.1825 112.936C42.6323 113.378 41.9249 113.599 41.0604 113.599ZM41.0604 106.982C40.4709 106.982 39.9453 107.164 39.4835 107.527C39.0316 107.881 38.7712 108.402 38.7025 109.089H43.3004C43.2709 108.431 43.0449 107.915 42.6225 107.542C42.2 107.169 41.6793 106.982 41.0604 106.982ZM48.9643 113.599C48.0899 113.599 47.3629 113.378 46.7832 112.936C46.2036 112.493 45.8646 111.894 45.7664 111.138H47.0337C47.1123 111.521 47.3137 111.855 47.6379 112.14C47.972 112.415 48.419 112.552 48.979 112.552C49.4997 112.552 49.8829 112.444 50.1285 112.228C50.3741 112.002 50.4969 111.737 50.4969 111.432C50.4969 110.99 50.3348 110.696 50.0106 110.548C49.6962 110.401 49.2492 110.268 48.6695 110.15C48.2765 110.072 47.8836 109.959 47.4906 109.811C47.0976 109.664 46.7685 109.458 46.5032 109.192C46.2379 108.917 46.1053 108.559 46.1053 108.117C46.1053 107.478 46.3411 106.957 46.8127 106.555C47.2941 106.142 47.9425 105.936 48.7579 105.936C49.5341 105.936 50.1678 106.132 50.659 106.525C51.16 106.908 51.4499 107.458 51.5285 108.176H50.3053C50.2562 107.802 50.0941 107.512 49.819 107.306C49.5537 107.09 49.1951 106.982 48.7432 106.982C48.3011 106.982 47.9572 107.075 47.7116 107.262C47.4758 107.449 47.3579 107.694 47.3579 107.999C47.3579 108.293 47.5102 108.524 47.8148 108.691C48.1292 108.858 48.5516 109.001 49.0821 109.119C49.5341 109.217 49.9614 109.34 50.3643 109.487C50.7769 109.625 51.1109 109.836 51.3664 110.121C51.6316 110.396 51.7643 110.799 51.7643 111.329C51.7741 111.987 51.5236 112.533 51.0127 112.965C50.5116 113.387 49.8288 113.599 48.9643 113.599ZM53.5327 116.664V106.112H54.6527L54.7706 107.321C55.0064 106.967 55.3404 106.648 55.7727 106.363C56.2148 106.078 56.7748 105.936 57.4527 105.936C58.1797 105.936 58.8134 106.103 59.3537 106.437C59.8941 106.771 60.3116 107.227 60.6064 107.807C60.9109 108.387 61.0632 109.045 61.0632 109.782C61.0632 110.519 60.9109 111.177 60.6064 111.757C60.3116 112.326 59.8892 112.778 59.339 113.112C58.7986 113.437 58.165 113.599 57.4379 113.599C56.8386 113.599 56.3032 113.476 55.8316 113.23C55.3699 112.985 55.0162 112.641 54.7706 112.199V116.664H53.5327ZM57.3053 112.523C57.7965 112.523 58.2288 112.41 58.6021 112.184C58.9755 111.948 59.2702 111.624 59.4864 111.211C59.7025 110.799 59.8106 110.317 59.8106 109.767C59.8106 109.217 59.7025 108.736 59.4864 108.323C59.2702 107.91 58.9755 107.591 58.6021 107.365C58.2288 107.129 57.7965 107.011 57.3053 107.011C56.8141 107.011 56.3818 107.129 56.0085 107.365C55.6351 107.591 55.3404 107.91 55.1243 108.323C54.9081 108.736 54.8 109.217 54.8 109.767C54.8 110.317 54.9081 110.799 55.1243 111.211C55.3404 111.624 55.6351 111.948 56.0085 112.184C56.3818 112.41 56.8141 112.523 57.3053 112.523ZM65.218 113.599C64.6088 113.599 64.1029 113.496 63.7001 113.289C63.2973 113.083 62.9976 112.808 62.8011 112.464C62.6046 112.12 62.5064 111.747 62.5064 111.344C62.5064 110.597 62.7913 110.023 63.3611 109.62C63.9309 109.217 64.7071 109.016 65.6895 109.016H67.6643V108.927C67.6643 108.289 67.4973 107.807 67.1632 107.483C66.8292 107.149 66.3822 106.982 65.8222 106.982C65.3408 106.982 64.9232 107.105 64.5695 107.35C64.2257 107.586 64.0095 107.935 63.9211 108.397H62.6537C62.7029 107.866 62.8797 107.419 63.1843 107.056C63.4987 106.692 63.8867 106.417 64.3485 106.23C64.8102 106.034 65.3015 105.936 65.8222 105.936C66.8439 105.936 67.6102 106.211 68.1211 106.761C68.6418 107.301 68.9022 108.023 68.9022 108.927V113.422H67.7969L67.7232 112.11C67.5169 112.523 67.2123 112.877 66.8095 113.171C66.4165 113.456 65.886 113.599 65.218 113.599ZM65.4095 112.552C65.8811 112.552 66.2839 112.43 66.618 112.184C66.9618 111.938 67.2222 111.619 67.399 111.226C67.5758 110.833 67.6643 110.42 67.6643 109.988V109.973H65.7927C65.0657 109.973 64.5499 110.101 64.2453 110.357C63.9506 110.602 63.8032 110.912 63.8032 111.285C63.8032 111.668 63.9408 111.978 64.2158 112.213C64.5008 112.439 64.8987 112.552 65.4095 112.552ZM70.7592 113.422V102.811H71.9971V113.422H70.7592ZM77.3419 113.599C76.6149 113.599 75.9763 113.432 75.4261 113.098C74.8857 112.764 74.4633 112.307 74.1587 111.727C73.864 111.147 73.7166 110.489 73.7166 109.752C73.7166 109.016 73.8689 108.362 74.1735 107.792C74.478 107.213 74.9005 106.761 75.4408 106.437C75.9812 106.103 76.6198 105.936 77.3566 105.936C77.9559 105.936 78.4864 106.058 78.9482 106.304C79.41 106.55 79.7686 106.893 80.024 107.336V102.811H81.2619V113.422H80.1419L80.024 112.213C79.7882 112.567 79.4493 112.886 79.0071 113.171C78.565 113.456 78.01 113.599 77.3419 113.599ZM77.4745 112.523C77.9657 112.523 78.398 112.41 78.7714 112.184C79.1545 111.948 79.4493 111.624 79.6556 111.211C79.8717 110.799 79.9798 110.317 79.9798 109.767C79.9798 109.217 79.8717 108.736 79.6556 108.323C79.4493 107.91 79.1545 107.591 78.7714 107.365C78.398 107.129 77.9657 107.011 77.4745 107.011C76.9931 107.011 76.5608 107.129 76.1777 107.365C75.8043 107.591 75.5096 107.91 75.2935 108.323C75.0871 108.736 74.984 109.217 74.984 109.767C74.984 110.317 75.0871 110.799 75.2935 111.211C75.5096 111.624 75.8043 111.948 76.1777 112.184C76.5608 112.41 76.9931 112.523 77.4745 112.523ZM86.6103 113.599C85.9226 113.599 85.3037 113.442 84.7535 113.127C84.2033 112.813 83.7661 112.371 83.4419 111.801C83.1275 111.221 82.9703 110.543 82.9703 109.767C82.9703 108.991 83.1324 108.318 83.4566 107.748C83.7808 107.169 84.218 106.722 84.7682 106.407C85.3282 106.093 85.9521 105.936 86.6398 105.936C87.3275 105.936 87.9465 106.093 88.4966 106.407C89.0468 106.722 89.4791 107.169 89.7935 107.748C90.1177 108.318 90.2798 108.991 90.2798 109.767C90.2798 110.543 90.1177 111.221 89.7935 111.801C89.4693 112.371 89.0272 112.813 88.4672 113.127C87.917 113.442 87.298 113.599 86.6103 113.599ZM86.6103 112.538C87.0328 112.538 87.4258 112.435 87.7893 112.228C88.1528 112.022 88.4475 111.712 88.6735 111.3C88.8994 110.887 89.0124 110.376 89.0124 109.767C89.0124 109.158 88.8994 108.647 88.6735 108.235C88.4573 107.822 88.1675 107.512 87.804 107.306C87.4405 107.1 87.0524 106.997 86.6398 106.997C86.2173 106.997 85.8244 107.1 85.4608 107.306C85.0973 107.512 84.8026 107.822 84.5766 108.235C84.3507 108.647 84.2377 109.158 84.2377 109.767C84.2377 110.376 84.3507 110.887 84.5766 111.3C84.8026 111.712 85.0924 112.022 85.4461 112.228C85.8096 112.435 86.1977 112.538 86.6103 112.538Z" fill="#9AA2B1"/>
<g clip-path="url(#clip1_13926_72204)">
<path d="M89.2953 28.7543C89.2953 38.784 82.2461 42.4 75.6495 44.7497C82.2461 47.0994 89.2953 50.352 89.2953 60.8343V75.5634H70.1387V12.3086H89.2953V28.7543Z" fill="#CEFF5A"/>
<path d="M65.5274 12.3086H18.3572V28.3932H39.2326L15.2852 75.5634H66.1606V59.2983H42.9377L65.5274 12.3086Z" fill="#CEFF5A"/>
</g>
<g clip-path="url(#clip2_13926_72204)">
<path d="M169.546 12.3086H151.834V75.5634H169.546V12.3086Z" fill="#CEFF5A"/>
<path d="M110.537 44.9305C110.537 53.9659 115.687 59.479 125.538 59.479C127.166 59.479 128.61 59.207 129.696 58.8459V41.8562H146.503V71.0447C142.708 73.847 134.574 76.5579 124.635 76.5579C109.092 76.5579 93.7301 68.5145 93.7301 57.5819C93.7301 51.6185 100.96 46.1967 106.29 44.7499C100.777 42.8527 93.6387 38.0619 93.6387 31.4653C93.6387 20.0802 110.084 11.3145 127.163 11.3145C136.29 11.3145 142.887 13.4836 146.5 15.9225V32.9122C142.706 30.8345 136.107 28.5739 129.241 28.5739C116.409 28.5739 110.535 34.4482 110.535 44.9305" fill="#CEFF5A"/>
</g>
<defs>
<clipPath id="clip0_13926_72204">
<rect width="83.993" height="24.2287" fill="white" transform="translate(98.7422 92)"/>
</clipPath>
<clipPath id="clip1_13926_72204">
<rect width="84" height="84" fill="white" transform="translate(7)"/>
</clipPath>
<clipPath id="clip2_13926_72204">
<rect width="84" height="84" fill="white" transform="translate(91)"/>
</clipPath>
</defs>
</svg>
