<svg width="299" height="233" viewBox="0 0 299 233" fill="none" xmlns="http://www.w3.org/2000/svg">
<mask id="mask0_15574_13588" style="mask-type:alpha" maskUnits="userSpaceOnUse" x="23" y="1" width="253" height="232">
<rect x="23.9258" y="1.08057" width="252.014" height="231.012" fill="#D9D9D9"/>
</mask>
<g mask="url(#mask0_15574_13588)">
<path d="M193.526 71.3043C172.601 49.5423 157.919 24.8542 150.006 1.08057C142.181 24.8542 127.41 49.5423 106.485 71.3043C85.5599 93.0663 61.822 108.336 38.9628 116.566C61.822 124.703 85.5599 140.065 106.485 161.827C127.41 183.589 142.093 208.277 150.006 232.051C157.919 208.277 172.601 183.589 193.526 161.827C214.451 140.065 238.19 124.795 261.049 116.566C238.19 108.428 214.451 93.0663 193.526 71.3043Z" fill="#FAF4E7"/>
<mask id="mask1_15574_13588" style="mask-type:alpha" maskUnits="userSpaceOnUse" x="0" y="12" width="307" height="223">
<rect x="0.124512" y="12.6104" width="306.367" height="222.284" fill="#D9D9D9"/>
</mask>
<g mask="url(#mask1_15574_13588)">
<path d="M137.478 79.915L137.291 79.5017C136.319 77.9802 135.786 77.0216 135.407 75.3077C135.101 73.9073 135.026 72.4677 135.141 71.0423L135.541 66.0644L149.387 64.8101L147.259 80.1538L137.482 79.915H137.478Z" fill="#FB8E65"/>
<path d="M137.479 79.9134L133.136 76.7919C129.737 74.0945 126.669 71.7855 127.468 70.8804C127.886 70.4064 129.956 69.3838 133.525 72.4518C136.28 69.4051 140.432 72.0313 140.432 72.0313" fill="#FB8E65"/>
<path d="M127.471 70.8804C127.889 70.4064 129.96 69.3838 133.528 72.4518C136.283 69.4051 140.435 72.0313 140.435 72.0313" stroke="black" stroke-width="0.712667" stroke-miterlimit="10"/>
<path d="M135.404 67.7186C135.404 67.7186 135.537 56.5618 137.806 56.5333C140.074 56.5048 138.501 67.4478 138.501 67.4478" fill="#FB8E65"/>
<path d="M138.763 66.4631C138.763 66.4631 139.62 54.6185 142.101 54.7219C144.582 54.8252 142.583 66.8051 142.583 66.8051" fill="#FB8E65"/>
<path d="M142.664 66.4331C142.664 66.4331 143.935 56.47 146.286 56.7159C148.641 56.9618 146.182 67.3881 146.182 67.3881" fill="#FB8E65"/>
<path d="M146.287 66.9482C146.287 66.9482 147.227 59.6434 149.168 59.875C151.113 60.1066 148.563 70.451 148.563 70.451" fill="#FB8E65"/>
<path d="M137.498 65.465C137.498 65.465 142.284 64.7808 147.261 66.7442" stroke="black" stroke-width="0.712667" stroke-miterlimit="10"/>
<path d="M136.78 78.4171L122.772 109.293L102.738 118.765C93.1918 122.791 88.2583 131.489 91.1716 136.382L102.101 149.221L134.85 123.778C137.587 121.651 139.466 118.629 140.151 115.251L147.302 79.9351L136.784 78.4136L136.78 78.4171Z" fill="#FB8E65"/>
<path d="M112.332 114.229L102.738 118.766C93.1918 122.792 88.2583 131.49 91.1716 136.383L102.101 149.221L123.891 132.292L112.332 114.229Z" fill="#829C8B"/>
<path d="M116.657 257.213C112.598 225.596 108.018 184.863 108.061 184.29L85.1613 187.675L78.6108 212.818L86.7098 257.213H116.657Z" fill="#CEFF5A"/>
<path d="M57.3322 191.78C57.3322 191.78 55.7009 207.548 61.8336 218.052L48.7183 310.489C48.7183 310.489 59.7521 316.055 62.1757 307.118L97.9133 216.167V186.834L57.3286 191.773L57.3322 191.78Z" fill="#FB8E65"/>
<path d="M57.3286 191.776C57.3286 191.776 53.3781 207.544 59.5145 218.049L53.7778 257.213H87.3368L97.9097 216.167V186.834L57.325 191.773L57.3286 191.776Z" fill="#CEFF5A"/>
<path d="M68.2396 196.22L70.2742 217.45L63.0396 253.429" stroke="black" stroke-width="0.712667" stroke-miterlimit="10"/>
<path d="M77.1861 197.125C77.1861 197.125 79.2208 215.537 70.272 217.451" stroke="black" stroke-width="0.712667" stroke-miterlimit="10"/>
<path d="M87.3384 257.21L97.9113 216.167V186.834" stroke="black" stroke-width="0.712667" stroke-miterlimit="10"/>
<path d="M96.3373 121.037V127.294L80.7012 121.037V100.929H96.3373V121.037Z" fill="#FB8E65"/>
<path d="M96.3372 107.973V113.311L93.5571 108.319L96.3372 107.973Z" fill="black"/>
<path d="M80.7109 102.637V107.212L83.4946 102.982L80.7109 102.637Z" fill="black"/>
<path d="M83.4926 102.982C85.999 106.111 89.8846 109.531 93.8711 110.148C104.494 111.787 106.216 103.363 105.207 97.4267C103.616 88.0552 98.5634 81.0283 98.5634 81.0283C98.5634 81.0283 80.9719 68.8666 77.3563 91.0163C76.7837 95.9871 80.9322 99.7821 83.4926 102.982Z" fill="#FB8E65"/>
<path d="M91.5098 96.4319C91.8951 95.7727 92.6081 95.313 93.3751 95.2382C94.1386 95.1598 94.9344 95.4662 95.4458 96.0364" stroke="black" stroke-width="0.712667" stroke-miterlimit="10"/>
<path d="M102.431 93.828C102.488 93.3006 102.827 92.8088 103.306 92.5665C103.785 92.3242 104.386 92.3385 104.851 92.6057" stroke="black" stroke-width="0.712667" stroke-miterlimit="10"/>
<path d="M101.27 89.8255C101.623 89.0629 102.322 88.4679 103.135 88.2327C103.949 87.9975 104.86 88.1258 105.573 88.5783" stroke="black" stroke-width="0.712667" stroke-miterlimit="10"/>
<path d="M90.0127 91.8006C90.3656 91.038 91.0642 90.443 91.8781 90.2078C92.6919 89.9726 93.603 90.1009 94.3161 90.5534" stroke="black" stroke-width="0.712667" stroke-miterlimit="10"/>
<path d="M97.3681 77.0136C97.3681 77.0136 83.7918 70.1578 73.1001 82.1199C71.1158 84.3399 70.5685 88.4092 71.8145 91.1031L73.9967 95.8281L77.3134 95.2259L80.7633 98.6965C81.4907 99.427 85.2287 98.3117 83.9647 94.8588C83.1292 92.5676 82.6071 91.153 82.8915 88.5339C83.0572 87.0088 87.2957 83.7626 92.2221 82.4192C92.2149 82.4263 92.2077 82.437 92.1969 82.4442C91.5811 83.0571 91.0697 83.8481 91.5883 84.5002C92.1105 85.1523 94.2351 85.2093 95.3515 84.0904C95.4451 83.9978 95.5315 83.9051 95.6144 83.816C97.7318 86.8698 103.634 80.242 97.3573 77.0136H97.3681Z" fill="#405FF4"/>
<path d="M98.7002 92.9634C98.7002 92.9634 102.795 98.116 101.848 100.368C100.9 102.62 98.8262 101.312 98.8262 101.312" stroke="black" stroke-width="0.712667" stroke-miterlimit="10"/>
<path d="M75.2157 94.8532C73.2495 95.9542 72.3528 98.2775 72.7813 100.187C73.2098 102.097 77.3403 108.355 83.4983 102.985L81.2656 96.9555C79.8575 94.3792 77.1027 93.7984 75.2193 94.8532H75.2157Z" fill="#FB8E65"/>
<path d="M79.6772 100.055L75.8096 98.0527" stroke="black" stroke-width="0.712667" stroke-miterlimit="10"/>
<path d="M77.3925 99.1816C77.3925 99.1816 76.0925 100.635 77.731 101.737" stroke="black" stroke-width="0.712667" stroke-miterlimit="10"/>
<path d="M91.7788 189.086L96.093 216.171H100.274H104.739" stroke="black" stroke-width="0.712667" stroke-miterlimit="10"/>
<path d="M97.9146 216.175H86.6431" stroke="black" stroke-width="0.712667" stroke-miterlimit="10"/>
<path d="M109.859 191.463C109.859 191.463 108.379 148.931 108.379 138.501C108.379 130.483 103.654 124.187 101.393 121.621C100.961 121.129 100.474 120.687 99.9486 120.296L96.3114 117.595L95.4436 125.698L80.7113 116.618L69.9223 119.989C63.0442 122.597 55.8419 131.83 56.2777 147.462C57.0555 175.338 57.0951 193.055 57.0951 193.055C57.0951 193.055 54.0594 199.669 54.974 205.905C54.974 205.905 97.2261 209.885 111.699 204.28C111.699 204.28 110.741 197.125 109.859 191.463Z" fill="#829C8B"/>
<path d="M108.374 138.499C108.374 130.482 103.649 124.185 101.387 121.62C100.955 121.128 100.469 120.686 99.9433 120.294L96.3062 117.593" stroke="black" stroke-width="0.712667" stroke-miterlimit="10"/>
<path d="M129.56 157.065L131.76 152.379C133.863 149.846 135.764 146.956 136.787 147.54C137.324 147.846 138.314 147.989 136.02 151.934C139.477 153.965 137.716 158.383 137.716 158.383" fill="#FB8E65"/>
<path d="M140.558 166.868H149.572C150.748 166.868 151.478 165.916 151.208 164.741L146.904 146.11C146.632 144.935 145.463 143.984 144.287 143.984H135.273C134.097 143.984 133.367 144.935 133.637 146.11L137.94 164.741C138.213 165.916 139.382 166.868 140.558 166.868Z" fill="black"/>
<path d="M149.646 165.012L145.342 146.381C145.198 145.753 144.504 145.182 143.891 145.182H134.583" stroke="#CEFF5A" stroke-width="0.598189" stroke-miterlimit="10"/>
<path d="M129.56 157.067L129.923 156.81C131.209 155.606 132.034 154.922 133.618 154.248C134.911 153.696 136.286 153.357 137.684 153.197L139.455 152.88L141.065 165.658L135.642 166.096L129.56 157.067Z" fill="#FB8E65"/>
<path d="M137.131 153.246C137.131 153.246 147.794 151.307 148.237 153.424C148.683 155.537 138.028 156.385 138.028 156.385" fill="#FB8E65"/>
<path d="M139.332 159.775C139.332 159.775 151.122 159.426 150.762 157.092C150.402 154.758 138.95 156.144 138.95 156.144" fill="#FB8E65"/>
<path d="M139.7 159.786C139.7 159.786 149.434 159.13 149.632 161.371C149.83 163.613 139.44 163.246 139.44 163.246" fill="#FB8E65"/>
<path d="M139.881 163.261C139.881 163.261 147.018 162.787 147.159 164.643C147.299 166.5 137.007 165.976 137.007 165.976" fill="#FB8E65"/>
<path d="M136.028 154.825C135.189 158.649 134.984 161.717 136.791 164.881" stroke="black" stroke-width="0.712667" stroke-miterlimit="10"/>
<path d="M135.639 166.093L129.556 157.063L96.6421 155.72L88.0966 138.359C83.7176 129.052 74.7688 124.455 69.9217 127.495L65.3555 150.119L83.2351 170.529C86.2492 174.823 91.6365 176.811 96.7537 175.522L135.635 166.093H135.639Z" fill="#FB8E65"/>
<path d="M93.5775 149.495L88.0966 138.359C83.7177 129.052 74.7688 124.455 69.9217 127.495L65.3555 150.119L78.4312 165.042L93.5775 149.491V149.495Z" fill="#829C8B"/>
<path d="M96.6423 155.72L88.0968 138.359C83.7178 129.052 74.769 124.455 69.9219 127.495" stroke="black" stroke-width="0.712667" stroke-miterlimit="10"/>
<path d="M96.7586 175.523C91.6414 176.813 86.2505 174.821 83.2399 170.53L68.7886 154.032" stroke="black" stroke-width="0.712667" stroke-miterlimit="10"/>
<path d="M92.2529 155.597L109.862 156.306" stroke="black" stroke-width="0.712667" stroke-miterlimit="10"/>
<path d="M109.857 115.398L128.807 106.579" stroke="black" stroke-width="0.712667" stroke-miterlimit="10"/>
<path d="M122.771 109.289L136.44 79.1641" stroke="black" stroke-width="0.712667" stroke-miterlimit="10"/>
<path d="M65.3516 185.141C65.3516 185.141 82.7666 204.258 103.639 198.094" stroke="black" stroke-width="0.712667" stroke-miterlimit="10"/>
<path d="M232.293 130.846C230.136 126.93 227.233 123.274 226.372 118.894C225.594 114.925 226.599 110.852 226.779 106.815C227.024 101.366 226.949 94.7171 223.059 91.0861C223.059 91.0861 214.521 90.1525 209.231 92.2584C203.937 94.3643 200.199 99.4136 198.777 104.88C197.272 110.659 198.057 116.913 196.033 122.536C194.736 126.131 192.345 129.299 191.312 132.977C190.073 137.381 191.074 142.48 194.337 145.719C197.329 148.687 201.715 149.796 205.925 150.273C211.943 150.957 218.079 150.615 223.981 149.265C227.737 148.406 231.72 146.888 233.625 143.57C235.851 139.694 234.45 134.758 232.293 130.846Z" fill="#405FF4"/>
<path d="M201.333 129.062V135.074L216.357 129.062V109.746H201.333V124.174V129.062Z" fill="#FB8E65"/>
<path d="M201.333 116.518V121.642L204.005 116.849L201.333 116.518Z" fill="black"/>
<path d="M216.343 111.384V115.778L213.671 111.716L216.343 111.384Z" fill="black"/>
<path d="M213.672 111.717C211.262 114.724 207.532 118.01 203.7 118.601C193.494 120.176 191.842 112.084 192.81 106.382C194.341 97.3779 199.191 90.6289 199.191 90.6289C199.191 90.6289 216.092 78.9483 219.563 100.225C220.114 105 216.128 108.649 213.668 111.72L213.672 111.717Z" fill="#FB8E65"/>
<path d="M223.656 91.6797C213.385 80.1879 200.342 86.773 200.342 86.773C198.722 87.6068 197.245 88.8361 197.558 90.0762C197.558 90.0762 198.891 98.6246 205.758 98.7779C207.76 98.8242 208.729 97.9512 209.107 96.6969C209.536 98.5534 210.652 101.158 213.519 103.075C213.425 103.342 213.324 103.62 213.216 103.913C212.003 107.23 215.596 108.299 216.291 107.601L219.608 104.265L222.795 104.846L224.891 100.307C226.087 97.7195 225.561 93.807 223.656 91.6761V91.6797Z" fill="#405FF4"/>
<path d="M217.018 99.5306C217.184 105.834 216.903 106.985 216.348 112.23C219.406 109.34 220.979 110.167 222.355 106.212C223.734 102.257 227.296 97.4318 230.371 97.7062C228.077 82.6689 207.173 82.5014 204.875 85.32C211.328 84.3045 216.762 89.9523 217.014 99.5306H217.018Z" fill="#F5009E"/>
<path d="M205.972 105.424C205.605 104.79 204.917 104.352 204.182 104.277C203.447 104.202 202.684 104.498 202.194 105.043" stroke="black" stroke-width="0.712667" stroke-miterlimit="10"/>
<path d="M195.48 102.923C195.426 102.417 195.098 101.943 194.641 101.712C194.18 101.48 193.604 101.495 193.157 101.751" stroke="black" stroke-width="0.712667" stroke-miterlimit="10"/>
<path d="M196.595 99.0786C196.253 98.3481 195.583 97.7744 194.801 97.5499C194.02 97.3254 193.145 97.4466 192.457 97.8813" stroke="black" stroke-width="0.712667" stroke-miterlimit="10"/>
<path d="M207.409 100.979C207.067 100.249 206.397 99.6753 205.615 99.4508C204.834 99.2263 203.959 99.3475 203.271 99.7822" stroke="black" stroke-width="0.712667" stroke-miterlimit="10"/>
<path d="M199.061 102.098C199.061 102.098 195.128 107.047 196.039 109.21C196.95 111.373 198.942 110.119 198.942 110.119" stroke="black" stroke-width="0.712667" stroke-miterlimit="10"/>
<path d="M221.63 103.913C223.517 104.972 224.381 107.202 223.971 109.038C223.56 110.873 219.592 116.884 213.679 111.724L215.825 105.93C217.175 103.454 219.822 102.894 221.634 103.91L221.63 103.913Z" fill="#FB8E65"/>
<path d="M217.339 108.912L221.055 106.988" stroke="black" stroke-width="0.712667" stroke-miterlimit="10"/>
<path d="M219.536 108.077C219.536 108.077 220.786 109.474 219.212 110.532" stroke="black" stroke-width="0.712667" stroke-miterlimit="10"/>
<path d="M204.15 112.562C204.15 112.562 203.462 115.178 200.239 114.494" stroke="black" stroke-width="0.712667" stroke-miterlimit="10"/>
<path d="M100.192 104.998C100.192 104.998 98.3802 107.006 95.8313 104.918" stroke="black" stroke-width="0.712667" stroke-miterlimit="10"/>
<path d="M148.759 73.0335C149.083 70.0902 149.533 64.1394 147.891 64.1573C145.709 64.1822 145.583 74.9007 145.583 74.9007H145.587L145.331 78.0899C145.324 78.1754 145.273 78.8917 145.266 78.9772C143.462 78.6992 138.363 77.4806 137.959 77.9367C137.192 78.8061 140.138 81.0261 143.404 83.6131L147.574 86.6134L156.966 86.8415L159.012 72.1035L148.756 73.0335H148.759Z" fill="#FB8E65"/>
<path d="M148.813 73.6888C148.813 73.6888 149.638 62.3075 152.022 62.4109C154.406 62.5142 152.483 74.0166 152.483 74.0166" fill="#FB8E65"/>
<path d="M152.561 73.6576C152.561 73.6576 153.782 64.0865 156.043 64.3252C158.305 64.5639 155.943 74.5769 155.943 74.5769" fill="#FB8E65"/>
<path d="M156.039 74.151C156.039 74.151 156.939 67.1348 158.808 67.3557C160.677 67.5766 158.228 77.5148 158.228 77.5148" fill="#FB8E65"/>
<path d="M147.603 72.7389C147.603 72.7389 152.202 72.0796 156.98 73.9682" stroke="black" stroke-width="0.712667" stroke-miterlimit="10"/>
<path d="M157.19 85.2607L171.259 114.833L190.504 123.934C199.676 127.803 204.415 136.156 201.617 140.859L191.12 153.196L159.66 128.751C157.031 126.709 155.227 123.805 154.568 120.563L147.697 86.6362L157.19 85.2643V85.2607Z" fill="#FB8E65"/>
<path d="M181.291 119.571L190.507 123.929C199.679 127.799 204.418 136.152 201.62 140.855L191.122 153.191L170.189 136.928L181.295 119.575L181.291 119.571Z" fill="#CEFF5A"/>
<mask id="mask2_15574_13588" style="mask-type:luminance" maskUnits="userSpaceOnUse" x="170" y="119" width="33" height="35">
<path d="M181.294 119.577L190.509 123.935C199.681 127.805 204.42 136.157 201.622 140.861L191.125 153.197L170.191 136.934L181.297 119.581L181.294 119.577Z" fill="white"/>
</mask>
<g mask="url(#mask2_15574_13588)">
<path d="M198.874 148.015C200.192 149.319 201.686 150.235 203.123 150.727C201.683 151.219 200.192 152.134 198.874 153.439C197.556 154.743 196.63 156.222 196.133 157.643C195.636 156.218 194.711 154.743 193.393 153.439C192.075 152.134 190.58 151.219 189.144 150.727C190.584 150.235 192.075 149.319 193.393 148.015C194.711 146.711 195.636 145.232 196.133 143.811C196.63 145.236 197.556 146.711 198.874 148.015Z" fill="white"/>
<path d="M198.874 132.214C200.192 133.518 201.686 134.433 203.123 134.925C201.683 135.417 200.192 136.333 198.874 137.637C197.556 138.941 196.63 140.42 196.133 141.842C195.636 140.416 194.711 138.941 193.393 137.637C192.075 136.333 190.58 135.417 189.144 134.925C190.584 134.433 192.075 133.518 193.393 132.214C194.711 130.909 195.636 129.431 196.133 128.009C196.63 129.434 197.556 130.909 198.874 132.214Z" fill="white"/>
<path d="M181.125 148.015C182.443 149.319 183.937 150.235 185.374 150.727C183.934 151.219 182.443 152.134 181.125 153.439C179.807 154.743 178.881 156.222 178.384 157.643C177.887 156.218 176.962 154.743 175.644 153.439C174.326 152.134 172.831 151.219 171.395 150.727C172.835 150.235 174.326 149.319 175.644 148.015C176.962 146.711 177.887 145.232 178.384 143.811C178.881 145.236 179.807 146.711 181.125 148.015Z" fill="white"/>
<path d="M181.125 132.214C182.443 133.518 183.937 134.433 185.374 134.925C183.934 135.417 182.443 136.333 181.125 137.637C179.807 138.941 178.881 140.42 178.384 141.842C177.887 140.416 176.962 138.941 175.644 137.637C174.326 136.333 172.831 135.417 171.395 134.925C172.835 134.433 174.326 133.518 175.644 132.214C176.962 130.909 177.887 129.431 178.384 128.009C178.881 129.434 179.807 130.909 181.125 132.214Z" fill="white"/>
<path d="M198.874 116.199C200.192 117.504 201.686 118.419 203.123 118.911C201.683 119.403 200.192 120.319 198.874 121.623C197.556 122.927 196.63 124.406 196.133 125.828C195.636 124.402 194.711 122.927 193.393 121.623C192.075 120.319 190.58 119.403 189.144 118.911C190.584 118.419 192.075 117.504 193.393 116.199C194.711 114.895 195.636 113.416 196.133 111.995C196.63 113.42 197.556 114.895 198.874 116.199Z" fill="white"/>
<path d="M181.125 116.199C182.443 117.504 183.937 118.419 185.374 118.911C183.934 119.403 182.443 120.319 181.125 121.623C179.807 122.927 178.881 124.406 178.384 125.828C177.887 124.402 176.962 122.927 175.644 121.623C174.326 120.319 172.831 119.403 171.395 118.911C172.835 118.419 174.326 117.504 175.644 116.199C176.962 114.895 177.887 113.416 178.384 111.995C178.881 113.42 179.807 114.895 181.125 116.199Z" fill="white"/>
</g>
<path d="M143.406 83.6131C140.14 81.0225 137.194 78.8061 137.961 77.9367C138.365 77.4805 143.464 78.6992 145.268 78.9771C145.275 78.8916 145.326 78.1754 145.333 78.0899L145.588 74.9007H145.585C145.585 74.9007 145.715 64.1822 147.893 64.1572" stroke="black" stroke-width="0.712667" stroke-miterlimit="10"/>
<path d="M183.67 120.699L165.466 112.225" stroke="black" stroke-width="0.712667" stroke-miterlimit="10"/>
<path d="M171.26 114.836L157.187 85.2607" stroke="black" stroke-width="0.712667" stroke-miterlimit="10"/>
<path d="M191.522 132.761C190.334 134.379 190.625 136.653 192.221 137.878C193.614 138.951 195.994 139.906 200.046 140.07C221.685 141.171 221.055 127.655 221.055 127.655L212.941 124.27L196.682 125.749L191.522 132.761Z" fill="#FB8E65"/>
<path d="M221.697 198.825L189.762 310.721C189.762 310.721 179.553 316.052 176.597 307.492L185.092 197.446L221.694 198.825H221.697Z" fill="#405FF4"/>
<path d="M234.129 197.015C234.129 197.015 235.695 212.163 229.804 222.254L242.404 311.056C242.404 311.056 231.806 316.401 229.476 307.821L195.143 220.451V192.272L234.129 197.019V197.015Z" fill="#405FF4"/>
<path d="M229.476 307.816L195.143 220.446V192.268" stroke="black" stroke-width="0.712667" stroke-miterlimit="10"/>
<path d="M201.035 194.431L196.89 220.45H192.875H188.582" stroke="black" stroke-width="0.712667" stroke-miterlimit="10"/>
<path d="M195.143 220.45H205.972" stroke="black" stroke-width="0.712667" stroke-miterlimit="10"/>
<path d="M222.035 128.051L218.87 126.626C218.87 126.626 214.801 141.346 195.481 138.26C185.927 136.735 199.521 125.493 199.521 125.493L197.252 125.689C195.344 125.853 193.615 126.868 192.553 128.443C192.135 129.06 191.671 129.772 191.177 130.553L191.149 130.264C191.149 130.264 173.453 148.562 179.135 158.507C180.709 161.261 182.697 162.822 184.717 163.66C184.296 178.697 183.669 196.71 183.669 196.71C182.823 202.151 234.621 197.016 234.621 197.016C235.5 191.022 234.358 187.153 234.358 187.153C234.358 187.153 234.395 181.223 235.144 154.445C235.561 139.429 228.647 130.556 222.035 128.051Z" fill="#CEFF5A"/>
<mask id="mask3_15574_13588" style="mask-type:luminance" maskUnits="userSpaceOnUse" x="178" y="125" width="58" height="75">
<path d="M222.038 128.051L218.872 126.626C218.872 126.626 214.803 141.346 195.483 138.26C185.929 136.735 199.524 125.493 199.524 125.493L197.255 125.689C195.346 125.853 193.618 126.868 192.555 128.443C192.138 129.06 191.673 129.772 191.18 130.553L191.151 130.264C191.151 130.264 173.455 148.562 179.138 158.507C180.711 161.261 182.699 162.822 184.719 163.66C184.298 178.697 183.671 196.71 183.671 196.71C182.825 202.151 234.624 197.016 234.624 197.016C235.502 191.022 234.361 187.153 234.361 187.153C234.361 187.153 234.397 181.223 235.146 154.445C235.564 139.429 228.65 130.556 222.038 128.051Z" fill="white"/>
</mask>
<g mask="url(#mask3_15574_13588)">
<path d="M234.367 195.406C235.685 196.71 237.18 197.626 238.617 198.118C237.176 198.609 235.685 199.525 234.367 200.829C233.049 202.133 232.124 203.612 231.627 205.034C231.13 203.609 230.205 202.133 228.887 200.829C227.569 199.525 226.074 198.609 224.637 198.118C226.078 197.626 227.569 196.71 228.887 195.406C230.205 194.102 231.13 192.623 231.627 191.201C232.124 192.627 233.049 194.102 234.367 195.406Z" fill="white"/>
<path d="M234.367 179.604C235.685 180.908 237.18 181.824 238.617 182.316C237.176 182.808 235.685 183.723 234.367 185.028C233.049 186.332 232.124 187.811 231.627 189.232C231.13 187.807 230.205 186.332 228.887 185.028C227.569 183.723 226.074 182.808 224.637 182.316C226.078 181.824 227.569 180.908 228.887 179.604C230.205 178.3 231.13 176.821 231.627 175.399C232.124 176.825 233.049 178.3 234.367 179.604Z" fill="white"/>
<path d="M234.367 163.808C235.685 165.112 237.18 166.028 238.617 166.519C237.176 167.011 235.685 167.927 234.367 169.231C233.049 170.535 232.124 172.014 231.627 173.436C231.13 172.011 230.205 170.535 228.887 169.231C227.569 167.927 226.074 167.011 224.637 166.519C226.078 166.028 227.569 165.112 228.887 163.808C230.205 162.504 231.13 161.025 231.627 159.603C232.124 161.028 233.049 162.504 234.367 163.808Z" fill="white"/>
<path d="M234.367 148.016C235.685 149.32 237.18 150.236 238.617 150.728C237.176 151.22 235.685 152.135 234.367 153.44C233.049 154.744 232.124 156.223 231.627 157.644C231.13 156.219 230.205 154.744 228.887 153.44C227.569 152.135 226.074 151.22 224.637 150.728C226.078 150.236 227.569 149.32 228.887 148.016C230.205 146.712 231.13 145.233 231.627 143.812C232.124 145.237 233.049 146.712 234.367 148.016Z" fill="white"/>
<path d="M234.367 132.214C235.685 133.519 237.18 134.434 238.617 134.926C237.176 135.418 235.685 136.334 234.367 137.638C233.049 138.942 232.124 140.421 231.627 141.843C231.13 140.417 230.205 138.942 228.887 137.638C227.569 136.334 226.074 135.418 224.637 134.926C226.078 134.434 227.569 133.519 228.887 132.214C230.205 130.91 231.13 129.432 231.627 128.01C232.124 129.435 233.049 130.91 234.367 132.214Z" fill="white"/>
<path d="M216.62 195.406C217.938 196.71 219.433 197.626 220.87 198.118C219.429 198.609 217.938 199.525 216.62 200.829C215.302 202.133 214.377 203.612 213.88 205.034C213.383 203.609 212.458 202.133 211.139 200.829C209.821 199.525 208.327 198.609 206.89 198.118C208.331 197.626 209.821 196.71 211.139 195.406C212.458 194.102 213.383 192.623 213.88 191.201C214.377 192.627 215.302 194.102 216.62 195.406Z" fill="white"/>
<path d="M216.62 179.604C217.938 180.908 219.433 181.824 220.87 182.316C219.429 182.808 217.938 183.723 216.62 185.028C215.302 186.332 214.377 187.811 213.88 189.232C213.383 187.807 212.458 186.332 211.139 185.028C209.821 183.723 208.327 182.808 206.89 182.316C208.331 181.824 209.821 180.908 211.139 179.604C212.458 178.3 213.383 176.821 213.88 175.399C214.377 176.825 215.302 178.3 216.62 179.604Z" fill="white"/>
<path d="M216.62 163.808C217.938 165.112 219.433 166.028 220.87 166.519C219.429 167.011 217.938 167.927 216.62 169.231C215.302 170.535 214.377 172.014 213.88 173.436C213.383 172.011 212.458 170.535 211.139 169.231C209.821 167.927 208.327 167.011 206.89 166.519C208.331 166.028 209.821 165.112 211.139 163.808C212.458 162.504 213.383 161.025 213.88 159.603C214.377 161.028 215.302 162.504 216.62 163.808Z" fill="white"/>
<path d="M216.62 148.016C217.938 149.32 219.433 150.236 220.87 150.728C219.429 151.22 217.938 152.135 216.62 153.44C215.302 154.744 214.377 156.223 213.88 157.644C213.383 156.219 212.458 154.744 211.139 153.44C209.821 152.135 208.327 151.22 206.89 150.728C208.331 150.236 209.821 149.32 211.139 148.016C212.458 146.712 213.383 145.233 213.88 143.812C214.377 145.237 215.302 146.712 216.62 148.016Z" fill="white"/>
<path d="M216.62 132.214C217.938 133.519 219.433 134.434 220.87 134.926C219.429 135.418 217.938 136.334 216.62 137.638C215.302 138.942 214.377 140.421 213.88 141.843C213.383 140.417 212.458 138.942 211.139 137.638C209.821 136.334 208.327 135.418 206.89 134.926C208.331 134.434 209.821 133.519 211.139 132.214C212.458 130.91 213.383 129.432 213.88 128.01C214.377 129.435 215.302 130.91 216.62 132.214Z" fill="white"/>
<path d="M198.878 195.406C200.196 196.71 201.691 197.626 203.128 198.118C201.687 198.609 200.196 199.525 198.878 200.829C197.56 202.133 196.635 203.612 196.138 205.034C195.641 203.609 194.715 202.133 193.397 200.829C192.079 199.525 190.585 198.609 189.148 198.118C190.588 197.626 192.079 196.71 193.397 195.406C194.715 194.102 195.641 192.623 196.138 191.201C196.635 192.627 197.56 194.102 198.878 195.406Z" fill="white"/>
<path d="M198.878 179.604C200.196 180.908 201.691 181.824 203.128 182.316C201.687 182.808 200.196 183.723 198.878 185.028C197.56 186.332 196.635 187.811 196.138 189.232C195.641 187.807 194.715 186.332 193.397 185.028C192.079 183.723 190.585 182.808 189.148 182.316C190.588 181.824 192.079 180.908 193.397 179.604C194.715 178.3 195.641 176.821 196.138 175.399C196.635 176.825 197.56 178.3 198.878 179.604Z" fill="white"/>
<path d="M198.878 163.808C200.196 165.112 201.691 166.028 203.128 166.519C201.687 167.011 200.196 167.927 198.878 169.231C197.56 170.535 196.635 172.014 196.138 173.436C195.641 172.011 194.715 170.535 193.397 169.231C192.079 167.927 190.585 167.011 189.148 166.519C190.588 166.028 192.079 165.112 193.397 163.808C194.715 162.504 195.641 161.025 196.138 159.603C196.635 161.028 197.56 162.504 198.878 163.808Z" fill="white"/>
<path d="M198.878 148.016C200.196 149.32 201.691 150.236 203.128 150.728C201.687 151.22 200.196 152.135 198.878 153.44C197.56 154.744 196.635 156.223 196.138 157.644C195.641 156.219 194.715 154.744 193.397 153.44C192.079 152.135 190.585 151.22 189.148 150.728C190.588 150.236 192.079 149.32 193.397 148.016C194.715 146.712 195.641 145.233 196.138 143.812C196.635 145.237 197.56 146.712 198.878 148.016Z" fill="white"/>
<path d="M198.878 132.214C200.196 133.519 201.691 134.434 203.128 134.926C201.687 135.418 200.196 136.334 198.878 137.638C197.56 138.942 196.635 140.421 196.138 141.843C195.641 140.417 194.715 138.942 193.397 137.638C192.079 136.334 190.585 135.418 189.148 134.926C190.588 134.434 192.079 133.519 193.397 132.214C194.715 130.91 195.641 129.432 196.138 128.01C196.635 129.435 197.56 130.91 198.878 132.214Z" fill="white"/>
<path d="M181.132 195.406C182.45 196.71 183.944 197.626 185.381 198.118C183.94 198.609 182.45 199.525 181.132 200.829C179.814 202.133 178.888 203.612 178.391 205.034C177.894 203.609 176.969 202.133 175.651 200.829C174.333 199.525 172.838 198.609 171.401 198.118C172.842 197.626 174.333 196.71 175.651 195.406C176.969 194.102 177.894 192.623 178.391 191.201C178.888 192.627 179.814 194.102 181.132 195.406Z" fill="white"/>
<path d="M181.132 179.604C182.45 180.908 183.944 181.824 185.381 182.316C183.94 182.808 182.45 183.723 181.132 185.028C179.814 186.332 178.888 187.811 178.391 189.232C177.894 187.807 176.969 186.332 175.651 185.028C174.333 183.723 172.838 182.808 171.401 182.316C172.842 181.824 174.333 180.908 175.651 179.604C176.969 178.3 177.894 176.821 178.391 175.399C178.888 176.825 179.814 178.3 181.132 179.604Z" fill="white"/>
<path d="M181.132 163.808C182.45 165.112 183.944 166.028 185.381 166.519C183.94 167.011 182.45 167.927 181.132 169.231C179.814 170.535 178.888 172.014 178.391 173.436C177.894 172.011 176.969 170.535 175.651 169.231C174.333 167.927 172.838 167.011 171.401 166.519C172.842 166.028 174.333 165.112 175.651 163.808C176.969 162.504 177.894 161.025 178.391 159.603C178.888 161.028 179.814 162.504 181.132 163.808Z" fill="white"/>
<path d="M181.132 148.016C182.45 149.32 183.944 150.236 185.381 150.728C183.94 151.22 182.45 152.135 181.132 153.44C179.814 154.744 178.888 156.223 178.391 157.644C177.894 156.219 176.969 154.744 175.651 153.44C174.333 152.135 172.838 151.22 171.401 150.728C172.842 150.236 174.333 149.32 175.651 148.016C176.969 146.712 177.894 145.233 178.391 143.812C178.888 145.237 179.814 146.712 181.132 148.016Z" fill="white"/>
<path d="M181.132 132.214C182.45 133.519 183.944 134.434 185.381 134.926C183.94 135.418 182.45 136.334 181.132 137.638C179.814 138.942 178.888 140.421 178.391 141.843C177.894 140.417 176.969 138.942 175.651 137.638C174.333 136.334 172.838 135.418 171.401 134.926C172.842 134.434 174.333 133.519 175.651 132.214C176.969 130.91 177.894 129.432 178.391 128.01C178.888 129.435 179.814 130.91 181.132 132.214Z" fill="white"/>
<path d="M234.367 116.2C235.685 117.505 237.18 118.42 238.617 118.912C237.176 119.404 235.685 120.32 234.367 121.624C233.049 122.928 232.124 124.407 231.627 125.828C231.13 124.403 230.205 122.928 228.887 121.624C227.569 120.32 226.074 119.404 224.637 118.912C226.078 118.42 227.569 117.505 228.887 116.2C230.205 114.896 231.13 113.417 231.627 111.996C232.124 113.421 233.049 114.896 234.367 116.2Z" fill="white"/>
<path d="M216.62 116.2C217.938 117.505 219.433 118.42 220.87 118.912C219.429 119.404 217.938 120.32 216.62 121.624C215.302 122.928 214.377 124.407 213.88 125.828C213.383 124.403 212.458 122.928 211.139 121.624C209.821 120.32 208.327 119.404 206.89 118.912C208.331 118.42 209.821 117.505 211.139 116.2C212.458 114.896 213.383 113.417 213.88 111.996C214.377 113.421 215.302 114.896 216.62 116.2Z" fill="white"/>
<path d="M198.878 116.2C200.196 117.505 201.691 118.42 203.128 118.912C201.687 119.404 200.196 120.32 198.878 121.624C197.56 122.928 196.635 124.407 196.138 125.828C195.641 124.403 194.715 122.928 193.397 121.624C192.079 120.32 190.585 119.404 189.148 118.912C190.588 118.42 192.079 117.505 193.397 116.2C194.715 114.896 195.641 113.417 196.138 111.996C196.635 113.421 197.56 114.896 198.878 116.2Z" fill="white"/>
<path d="M181.132 116.2C182.45 117.505 183.944 118.42 185.381 118.912C183.94 119.404 182.45 120.32 181.132 121.624C179.814 122.928 178.888 124.407 178.391 125.828C177.894 124.403 176.969 122.928 175.651 121.624C174.333 120.32 172.838 119.404 171.401 118.912C172.842 118.42 174.333 117.505 175.651 116.2C176.969 114.896 177.894 113.417 178.391 111.996C178.888 113.421 179.814 114.896 181.132 116.2Z" fill="white"/>
</g>
<path d="M191.149 130.265C191.149 130.265 173.453 148.562 179.135 158.508C181.116 161.971 183.745 163.557 186.273 164.177" stroke="black" stroke-width="0.712667" stroke-miterlimit="10"/>
<path d="M173.021 173.531L169.996 169.572C167.504 167.612 165.127 165.281 164.285 166.033C163.845 166.429 162.945 166.76 165.905 170.006C163.075 172.608 165.632 176.403 165.632 176.403" fill="#FB8E65"/>
<path d="M161.632 185.613H153.215C152.117 185.613 151.436 184.725 151.687 183.628L155.706 166.231C155.96 165.134 157.052 164.246 158.149 164.246H166.567C167.664 164.246 168.346 165.134 168.094 166.231L164.076 183.628C163.822 184.725 162.73 185.613 161.632 185.613Z" fill="black"/>
<path d="M153.145 183.88L157.163 166.484C157.297 165.898 157.945 165.364 158.518 165.364H167.209" stroke="#405FF4" stroke-width="0.558556" stroke-miterlimit="10"/>
<path d="M173.024 173.532L172.628 173.364C171.173 172.491 170.258 172.014 168.634 171.697C167.305 171.437 165.947 171.394 164.601 171.526L162.872 171.583L163.974 183.905L169.156 183.228L173.02 173.532H173.024Z" fill="#FB8E65"/>
<path d="M165.134 171.458C165.134 171.458 154.727 171.775 154.741 173.849C154.756 175.923 164.932 174.587 164.932 174.587" fill="#FB8E65"/>
<path d="M164.404 178.039C164.404 178.039 153.262 180.073 153.121 177.81C152.981 175.548 164.018 174.557 164.018 174.557" fill="#FB8E65"/>
<path d="M164.054 178.121C164.054 178.121 154.781 179.454 155.051 181.599C155.325 183.744 165.008 181.317 165.008 181.317" fill="#FB8E65"/>
<path d="M164.598 181.418C164.598 181.418 157.799 182.402 158.047 184.173C158.296 185.944 167.853 183.393 167.853 183.393" fill="#FB8E65"/>
<path d="M166.491 172.72C168.057 176.141 168.878 178.981 167.83 182.316" stroke="black" stroke-width="0.712667" stroke-miterlimit="10"/>
<path d="M169.155 183.226L173.019 173.53L203.654 165.677L208.127 147.661C210.338 138.043 217.796 131.936 222.974 133.821L231.891 154.153L219.272 176.901C217.32 181.537 212.668 184.484 207.597 184.299L169.155 183.23V183.226Z" fill="#FB8E65"/>
<path d="M205.258 159.217L208.128 147.661C210.339 138.043 217.797 131.936 222.976 133.821L231.892 154.153L222.666 170.787L205.262 159.217H205.258Z" fill="#CEFF5A"/>
<mask id="mask4_15574_13588" style="mask-type:luminance" maskUnits="userSpaceOnUse" x="205" y="133" width="27" height="38">
<path d="M205.266 159.224L208.136 147.668C210.347 138.051 217.805 131.943 222.983 133.828L231.9 154.161L222.673 170.795L205.269 159.224H205.266Z" fill="white"/>
</mask>
<g mask="url(#mask4_15574_13588)">
<path d="M234.373 163.813C235.691 165.117 237.186 166.033 238.623 166.524C237.182 167.016 235.691 167.932 234.373 169.236C233.055 170.54 232.13 172.019 231.633 173.441C231.136 172.015 230.21 170.54 228.892 169.236C227.574 167.932 226.08 167.016 224.643 166.524C226.084 166.033 227.574 165.117 228.892 163.813C230.21 162.508 231.136 161.03 231.633 159.608C232.13 161.033 233.055 162.508 234.373 163.813Z" fill="white"/>
<path d="M234.373 148.021C235.691 149.325 237.186 150.241 238.623 150.733C237.182 151.225 235.691 152.14 234.373 153.445C233.055 154.749 232.13 156.228 231.633 157.649C231.136 156.224 230.21 154.749 228.892 153.445C227.574 152.14 226.08 151.225 224.643 150.733C226.084 150.241 227.574 149.325 228.892 148.021C230.21 146.717 231.136 145.238 231.633 143.816C232.13 145.242 233.055 146.717 234.373 148.021Z" fill="white"/>
<path d="M234.373 132.22C235.691 133.524 237.186 134.44 238.623 134.932C237.182 135.423 235.691 136.339 234.373 137.643C233.055 138.947 232.13 140.426 231.633 141.848C231.136 140.423 230.21 138.947 228.892 137.643C227.574 136.339 226.08 135.423 224.643 134.932C226.084 134.44 227.574 133.524 228.892 132.22C230.21 130.916 231.136 129.437 231.633 128.015C232.13 129.44 233.055 130.916 234.373 132.22Z" fill="white"/>
<path d="M216.627 163.813C217.945 165.117 219.439 166.033 220.876 166.524C219.436 167.016 217.945 167.932 216.627 169.236C215.309 170.54 214.383 172.019 213.886 173.441C213.389 172.015 212.464 170.54 211.146 169.236C209.828 167.932 208.333 167.016 206.896 166.524C208.337 166.033 209.828 165.117 211.146 163.813C212.464 162.508 213.389 161.03 213.886 159.608C214.383 161.033 215.309 162.508 216.627 163.813Z" fill="white"/>
<path d="M216.627 148.021C217.945 149.325 219.439 150.241 220.876 150.733C219.436 151.225 217.945 152.14 216.627 153.445C215.309 154.749 214.383 156.228 213.886 157.649C213.389 156.224 212.464 154.749 211.146 153.445C209.828 152.14 208.333 151.225 206.896 150.733C208.337 150.241 209.828 149.325 211.146 148.021C212.464 146.717 213.389 145.238 213.886 143.816C214.383 145.242 215.309 146.717 216.627 148.021Z" fill="white"/>
<path d="M216.627 132.22C217.945 133.524 219.439 134.44 220.876 134.932C219.436 135.423 217.945 136.339 216.627 137.643C215.309 138.947 214.383 140.426 213.886 141.848C213.389 140.423 212.464 138.947 211.146 137.643C209.828 136.339 208.333 135.423 206.896 134.932C208.337 134.44 209.828 133.524 211.146 132.22C212.464 130.916 213.389 129.437 213.886 128.015C214.383 129.44 215.309 130.916 216.627 132.22Z" fill="white"/>
</g>
<path d="M203.654 165.677L208.127 147.661C210.338 138.043 217.796 131.936 222.974 133.821" stroke="black" stroke-width="0.712667" stroke-miterlimit="10"/>
<path d="M207.6 184.297C212.67 184.483 217.323 181.536 219.274 176.9L229.473 158.513" stroke="black" stroke-width="0.712667" stroke-miterlimit="10"/>
<path d="M207.754 164.681L191.365 168.872" stroke="black" stroke-width="0.712667" stroke-miterlimit="10"/>
<path d="M229.473 191.075C229.473 191.075 199.061 194.431 188.582 193.191" stroke="black" stroke-width="0.712667" stroke-miterlimit="10"/>
<path d="M137.434 51.6217C136.17 48.2935 134.91 44.9654 133.646 41.6372" stroke="#405FF4" stroke-width="1.41408" stroke-miterlimit="10"/>
<path d="M148.836 50.4858C149.596 45.7822 150.356 41.0786 151.115 36.375" stroke="#405FF4" stroke-width="1.41408" stroke-miterlimit="10"/>
<path d="M159.043 54.8769C162 51.1176 164.957 47.3583 167.913 43.6025" stroke="#405FF4" stroke-width="1.41408" stroke-miterlimit="10"/>
<path d="M165.981 63.8989C169.302 62.5413 172.622 61.1837 175.942 59.8296" stroke="#405FF4" stroke-width="1.41408" stroke-miterlimit="10"/>
<path d="M93.0438 44.6978L91.9455 49.3301L87.3433 47.9546L90.8508 51.208L87.3433 54.4649L91.9455 53.0894L93.0438 57.7217L94.1386 53.0894L98.7445 54.4649L95.237 51.208L98.7445 47.9546L94.1386 49.3301L93.0438 44.6978Z" fill="#F5009E"/>
<path d="M247.636 94.4287L246.89 96.8268L244.467 97.5644L246.89 98.3056L247.636 100.704L248.385 98.3056L250.808 97.5644L248.385 96.8268L247.636 94.4287Z" fill="#D1E5D8"/>
<path d="M54.3691 60.4496C54.3691 59.6835 54.9957 59.0635 55.77 59.0635C56.5442 59.0635 57.1708 59.6835 57.1708 60.4496C57.1708 61.2157 56.5442 61.8358 55.77 61.8358C54.9957 61.8358 54.3691 61.2157 54.3691 60.4496Z" fill="white"/>
<path d="M232.391 67.0563C232.758 66.6928 233.018 66.2795 233.154 65.8804C233.291 66.2795 233.551 66.6892 233.918 67.0563C234.285 67.4197 234.703 67.6763 235.106 67.8117C234.703 67.9471 234.289 68.2037 233.918 68.5671C233.551 68.9306 233.291 69.3439 233.154 69.743C233.018 69.3439 232.758 68.9342 232.391 68.5671C232.024 68.2037 231.606 67.9471 231.203 67.8117C231.606 67.6763 232.02 67.4197 232.391 67.0563Z" fill="#F5009E"/>
<path d="M46.8209 99.9329C47.6779 99.0849 48.2793 98.1228 48.6034 97.1963C48.9239 98.1228 49.5289 99.0849 50.386 99.9329C51.2431 100.781 52.2153 101.376 53.1516 101.697C52.2153 102.014 51.2431 102.613 50.386 103.461C49.5289 104.309 48.9275 105.271 48.6034 106.197C48.2793 105.271 47.6779 104.309 46.8209 103.461C45.9638 102.613 44.9915 102.017 44.0552 101.697C44.9915 101.38 45.9638 100.781 46.8209 99.9329Z" fill="#CEFF5A"/>
<path d="M159.012 146.63C160.089 145.561 160.848 144.353 161.255 143.188C161.662 144.353 162.419 145.561 163.495 146.63C164.572 147.696 165.796 148.447 166.974 148.847C165.796 149.249 164.572 149.998 163.495 151.067C162.419 152.132 161.659 153.344 161.255 154.509C160.848 153.344 160.092 152.136 159.012 151.067C157.935 150.001 156.711 149.249 155.533 148.847C156.711 148.444 157.935 147.696 159.012 146.63Z" fill="black"/>
<path d="M233.58 32.4866L229.537 28.4854L225.493 32.4866L229.537 36.4878L233.58 32.4866Z" fill="#405FF4"/>
</g>
</g>
<path d="M274.875 61.6604C277.516 58.7769 280.506 56.7524 283.389 55.6727C280.506 54.5868 277.516 52.5623 274.875 49.685C272.233 46.8016 270.379 43.5378 269.39 40.3906C268.395 43.5378 266.54 46.8016 263.904 49.685C261.263 52.5684 258.273 54.5929 255.39 55.6727C258.273 56.7586 261.263 58.7831 263.904 61.6604C266.546 64.5438 268.4 67.8075 269.39 70.9547C270.384 67.8075 272.239 64.5438 274.875 61.6604Z" fill="#CEFF5A"/>
<path d="M10.9999 57.1965L8.88372 47.3363L0 50.2665L6.76753 43.3365L0 36.3987L8.88372 39.3289L10.9999 29.4688L13.1161 39.3289L21.9998 36.3987L15.2323 43.3365L21.9998 50.2665L13.1161 47.3363L10.9999 57.1965Z" fill="#3664FF"/>
<path d="M292.887 122.253L291.829 117.207L287.387 118.706L290.771 115.16L287.387 111.609L291.829 113.109L292.887 108.062L293.945 113.109L298.387 111.609L295.003 115.16L298.387 118.706L293.945 117.207L292.887 122.253Z" fill="white"/>
<path d="M81.8403 8.42346L74.1235 0L66.4068 8.42346L74.1235 16.8469L81.8403 8.42346Z" fill="white"/>
</svg>
