<svg width="309" height="240" viewBox="0 0 309 240" fill="none" xmlns="http://www.w3.org/2000/svg">
<path d="M195.402 76.2237C174.477 54.4617 159.794 29.7736 151.882 6C144.057 29.7736 129.285 54.4617 108.36 76.2237C87.4353 97.9857 63.6975 113.256 40.8382 121.485C63.6975 129.623 87.4353 144.984 108.36 166.746C129.285 188.508 143.969 213.196 151.882 236.97C159.794 213.196 174.477 188.508 195.402 166.746C216.327 144.984 240.066 129.714 262.925 121.485C240.066 113.347 216.327 97.9857 195.402 76.2237Z" fill="white"/>
<mask id="mask0_2274_9811" style="mask-type:alpha" maskUnits="userSpaceOnUse" x="2" y="17" width="307" height="223">
<rect x="2" y="17.5298" width="306.367" height="222.284" fill="#FAF4E7"/>
</mask>
<g mask="url(#mask0_2274_9811)">
<path d="M139.354 84.8345L139.166 84.4211C138.194 82.8996 137.661 81.9411 137.283 80.2271C136.977 78.8267 136.901 77.3871 137.016 75.9618L137.416 70.9838L151.263 69.7295L149.134 85.0732L139.357 84.8345H139.354Z" fill="white"/>
<path d="M139.355 84.8329L135.012 81.7114C131.612 79.0139 128.544 76.7049 129.343 75.7998C129.761 75.3259 131.832 74.3032 135.401 77.3712C138.155 74.3246 142.308 76.9508 142.308 76.9508" fill="white"/>
<path d="M129.347 75.7998C129.764 75.3259 131.835 74.3032 135.404 77.3712C138.159 74.3246 142.311 76.9508 142.311 76.9508" fill="white"/>
<path d="M129.347 75.7998C129.764 75.3259 131.835 74.3032 135.404 77.3712C138.159 74.3246 142.311 76.9508 142.311 76.9508" stroke="black" stroke-width="0.712667" stroke-miterlimit="10"/>
<path d="M137.279 72.638C137.279 72.638 137.413 61.4812 139.681 61.4527C141.95 61.4242 140.376 72.3672 140.376 72.3672" fill="white"/>
<path d="M140.638 71.3825C140.638 71.3825 141.495 59.538 143.976 59.6413C146.458 59.7446 144.459 71.7246 144.459 71.7246" fill="white"/>
<path d="M144.539 71.3526C144.539 71.3526 145.81 61.3895 148.162 61.6353C150.517 61.8812 148.057 72.3075 148.057 72.3075" fill="white"/>
<path d="M148.163 71.8677C148.163 71.8677 149.102 64.5628 151.044 64.7945C152.988 65.0261 150.439 75.3704 150.439 75.3704" fill="white"/>
<path d="M139.374 70.3844C139.374 70.3844 144.159 69.7003 149.136 71.6637Z" fill="white"/>
<path d="M139.374 70.3844C139.374 70.3844 144.159 69.7003 149.136 71.6637" stroke="black" stroke-width="0.712667" stroke-miterlimit="10"/>
<path d="M138.655 83.3366L124.647 114.213L104.614 123.684C95.0673 127.711 90.1337 136.409 93.0471 141.301L103.977 154.14L136.725 128.698C139.462 126.571 141.342 123.549 142.026 120.171L149.178 84.8545L138.659 83.333L138.655 83.3366Z" fill="white"/>
<path d="M114.207 119.149L104.614 123.685C95.0673 127.712 90.1337 136.41 93.0471 141.302L103.977 154.141L125.767 137.211L114.207 119.149Z" fill="white"/>
<path d="M118.532 262.133C114.474 230.515 109.893 189.783 109.936 189.209L87.0368 192.594L80.4863 217.737L88.5853 262.133H118.532Z" fill="white"/>
<path d="M59.2077 196.699C59.2077 196.699 57.5764 212.467 63.7091 222.972L50.5938 315.408C50.5938 315.408 61.6276 320.974 64.0512 312.037L99.7888 221.087V191.753L59.2041 196.692L59.2077 196.699Z" fill="white"/>
<path d="M59.2041 196.696C59.2041 196.696 55.2536 212.464 61.3899 222.968L55.6533 262.133H89.2123L99.7852 221.087V191.753L59.2004 196.692L59.2041 196.696Z" fill="white"/>
<path d="M70.1151 201.139L72.1497 222.37L64.915 258.349" fill="white"/>
<path d="M70.1151 201.139L72.1497 222.37L64.915 258.349" stroke="black" stroke-width="0.712667" stroke-miterlimit="10"/>
<path d="M79.0616 202.045C79.0616 202.045 81.0963 220.457 72.1475 222.37Z" fill="white"/>
<path d="M79.0616 202.045C79.0616 202.045 81.0963 220.457 72.1475 222.37" stroke="black" stroke-width="0.712667" stroke-miterlimit="10"/>
<path d="M89.2139 262.129L99.7868 221.087V191.753" fill="white"/>
<path d="M89.2139 262.129L99.7868 221.087V191.753" stroke="black" stroke-width="0.712667" stroke-miterlimit="10"/>
<path d="M98.2128 125.956V132.213L82.5767 125.956V105.848H98.2128V125.956Z" fill="white"/>
<path d="M98.2127 112.893V118.23L95.4326 113.238L98.2127 112.893Z" fill="white"/>
<path d="M82.5864 107.556V112.131L85.3701 107.902L82.5864 107.556Z" fill="white"/>
<path d="M85.3681 107.901C87.8745 111.03 91.7601 114.451 95.7466 115.067C106.37 116.706 108.091 108.283 107.083 102.346C105.491 92.9746 100.439 85.9477 100.439 85.9477C100.439 85.9477 82.8473 73.786 79.2318 95.9357C78.6592 100.907 82.8077 104.702 85.3681 107.901Z" fill="white"/>
<path d="M93.3853 101.351C93.7706 100.692 94.4836 100.232 95.2506 100.158C96.0141 100.079 96.8099 100.386 97.3213 100.956" fill="white"/>
<path d="M93.3853 101.351C93.7706 100.692 94.4836 100.232 95.2506 100.158C96.0141 100.079 96.8099 100.386 97.3213 100.956" stroke="black" stroke-width="0.712667" stroke-miterlimit="10"/>
<path d="M104.306 98.7474C104.364 98.22 104.702 97.7283 105.181 97.486C105.66 97.2437 106.262 97.2579 106.726 97.5252" fill="white"/>
<path d="M104.306 98.7474C104.364 98.22 104.702 97.7283 105.181 97.486C105.66 97.2437 106.262 97.2579 106.726 97.5252" stroke="black" stroke-width="0.712667" stroke-miterlimit="10"/>
<path d="M103.146 94.7449C103.498 93.9824 104.197 93.3873 105.011 93.1521C105.825 92.9169 106.736 93.0452 107.449 93.4978" fill="white"/>
<path d="M103.146 94.7449C103.498 93.9824 104.197 93.3873 105.011 93.1521C105.825 92.9169 106.736 93.0452 107.449 93.4978" stroke="black" stroke-width="0.712667" stroke-miterlimit="10"/>
<path d="M91.8882 96.72C92.2411 95.9575 92.9397 95.3624 93.7536 95.1272C94.5674 94.892 95.4785 95.0203 96.1915 95.4729" fill="white"/>
<path d="M91.8882 96.72C92.2411 95.9575 92.9397 95.3624 93.7536 95.1272C94.5674 94.892 95.4785 95.0203 96.1915 95.4729" stroke="black" stroke-width="0.712667" stroke-miterlimit="10"/>
<path d="M99.2436 81.9331C99.2436 81.9331 85.6673 75.0772 74.9756 87.0393C72.9913 89.2593 72.444 93.3286 73.6899 96.0225L75.8722 100.747L79.1889 100.145L82.6388 103.616C83.3662 104.346 87.1042 103.231 85.8402 99.7783C85.0047 97.487 84.4825 96.0724 84.767 93.4533C84.9327 91.9282 89.1712 88.682 94.0976 87.3386C94.0904 87.3458 94.0832 87.3565 94.0724 87.3636C93.4566 87.9765 92.9452 88.7675 93.4638 89.4196C93.9859 90.0717 96.1106 90.1287 97.227 89.0099C97.3206 88.9172 97.407 88.8246 97.4898 88.7355C99.6073 91.7893 105.51 85.1615 99.2328 81.9331H99.2436Z" fill="white"/>
<path d="M100.576 97.8828C100.576 97.8828 104.67 103.035 103.723 105.287C102.776 107.539 100.702 106.232 100.702 106.232" fill="white"/>
<path d="M100.576 97.8828C100.576 97.8828 104.67 103.035 103.723 105.287C102.776 107.539 100.702 106.232 100.702 106.232" stroke="black" stroke-width="0.712667" stroke-miterlimit="10"/>
<path d="M77.0912 99.7726C75.1249 100.874 74.2283 103.197 74.6568 105.107C75.0853 107.017 79.2158 113.274 85.3738 107.904L83.1411 101.875C81.733 99.2987 78.9782 98.7179 77.0948 99.7726H77.0912Z" fill="white"/>
<path d="M81.5527 104.975L77.6851 102.972" stroke="black" stroke-width="0.712667" stroke-miterlimit="10"/>
<path d="M79.268 104.101C79.268 104.101 77.968 105.555 79.6065 106.656Z" fill="white"/>
<path d="M79.268 104.101C79.268 104.101 77.968 105.555 79.6065 106.656" stroke="black" stroke-width="0.712667" stroke-miterlimit="10"/>
<path d="M93.6543 194.005L97.9684 221.09H102.149H106.615" fill="white"/>
<path d="M93.6543 194.005L97.9684 221.09H102.149H106.615" stroke="black" stroke-width="0.712667" stroke-miterlimit="10"/>
<path d="M99.7901 221.094H88.5186" stroke="black" stroke-width="0.712667" stroke-miterlimit="10"/>
<path d="M111.734 196.382C111.734 196.382 110.254 153.85 110.254 143.42C110.254 135.403 105.53 129.106 103.268 126.541C102.836 126.049 102.35 125.607 101.824 125.215L98.1869 122.514L97.3191 130.617L82.5868 121.538L71.7978 124.909C64.9197 127.517 57.7174 136.749 58.1532 152.382C58.931 180.258 58.9706 197.975 58.9706 197.975C58.9706 197.975 55.9348 204.588 56.8495 210.824C56.8495 210.824 99.1016 214.804 113.575 209.199C113.575 209.199 112.617 202.044 111.734 196.382Z" fill="white"/>
<path d="M110.249 143.419C110.249 135.401 105.524 129.105 103.263 126.539C102.831 126.048 102.345 125.606 101.819 125.214L98.1816 122.513" fill="white"/>
<path d="M110.249 143.419C110.249 135.401 105.524 129.105 103.263 126.539C102.831 126.048 102.345 125.606 101.819 125.214L98.1816 122.513" stroke="black" stroke-width="0.712667" stroke-miterlimit="10"/>
<path d="M131.435 161.984L133.635 157.298C135.738 154.765 137.64 151.875 138.663 152.459C139.199 152.766 140.189 152.908 137.895 156.853C141.353 158.884 139.592 163.303 139.592 163.303" fill="white"/>
<path d="M142.433 171.787H151.448C152.623 171.787 153.353 170.836 153.084 169.66L148.78 151.03C148.508 149.854 147.338 148.903 146.163 148.903H137.148C135.973 148.903 135.243 149.854 135.512 151.03L139.816 169.66C140.088 170.836 141.258 171.787 142.433 171.787Z" fill="white"/>
<path d="M151.521 169.932L147.217 151.301C147.073 150.673 146.38 150.102 145.766 150.102H136.459" fill="white"/>
<path d="M151.521 169.932L147.217 151.301C147.073 150.673 146.38 150.102 145.766 150.102H136.459" stroke="#CEFF5A" stroke-width="0.598189" stroke-miterlimit="10"/>
<path d="M131.435 161.986L131.799 161.73C133.084 160.525 133.909 159.841 135.494 159.168C136.786 158.615 138.162 158.277 139.559 158.116L141.331 157.799L142.941 170.577L137.517 171.016L131.435 161.986Z" fill="white"/>
<path d="M139.006 158.165C139.006 158.165 149.669 156.227 150.112 158.343C150.559 160.456 139.903 161.304 139.903 161.304" fill="white"/>
<path d="M141.207 164.695C141.207 164.695 152.998 164.346 152.637 162.012C152.277 159.678 140.826 161.064 140.826 161.064" fill="white"/>
<path d="M141.575 164.705C141.575 164.705 151.309 164.049 151.507 166.291C151.705 168.532 141.316 168.165 141.316 168.165" fill="white"/>
<path d="M141.757 168.18C141.757 168.18 148.894 167.706 149.034 169.563C149.175 171.419 138.883 170.895 138.883 170.895" fill="white"/>
<path d="M137.903 159.745C137.064 163.568 136.859 166.636 138.667 169.8Z" fill="white"/>
<path d="M137.903 159.745C137.064 163.568 136.859 166.636 138.667 169.8" stroke="black" stroke-width="0.712667" stroke-miterlimit="10"/>
<path d="M137.514 171.012L131.432 161.983L98.5176 160.64L89.9721 143.279C85.5931 133.971 76.6443 129.375 71.7972 132.414L67.231 155.038L85.1106 175.449C88.1247 179.743 93.512 181.731 98.6292 180.441L137.511 171.012H137.514Z" fill="white"/>
<path d="M95.453 154.414L89.9721 143.279C85.5931 133.971 76.6443 129.375 71.7972 132.414L67.231 155.038L80.3067 169.961L95.453 154.411V154.414Z" fill="white"/>
<path d="M98.5178 160.639L89.9723 143.279C85.5933 133.971 76.6445 129.375 71.7974 132.414" fill="white"/>
<path d="M98.5178 160.639L89.9723 143.279C85.5933 133.971 76.6445 129.375 71.7974 132.414" stroke="black" stroke-width="0.712667" stroke-miterlimit="10"/>
<path d="M98.634 180.442C93.5168 181.732 88.126 179.74 85.1154 175.45L70.6641 158.952" fill="white"/>
<path d="M98.634 180.442C93.5168 181.732 88.126 179.74 85.1154 175.45L70.6641 158.952" stroke="black" stroke-width="0.712667" stroke-miterlimit="10"/>
<path d="M94.1284 160.516L111.738 161.225" stroke="black" stroke-width="0.712667" stroke-miterlimit="10"/>
<path d="M111.733 120.318L130.682 111.499" stroke="black" stroke-width="0.712667" stroke-miterlimit="10"/>
<path d="M124.646 114.208L138.316 84.0835" stroke="black" stroke-width="0.712667" stroke-miterlimit="10"/>
<path d="M67.2271 190.061C67.2271 190.061 84.6421 209.178 105.514 203.013Z" fill="white"/>
<path d="M67.2271 190.061C67.2271 190.061 84.6421 209.178 105.514 203.013" stroke="black" stroke-width="0.712667" stroke-miterlimit="10"/>
<path d="M234.168 135.765C232.011 131.849 229.108 128.193 228.248 123.814C227.47 119.844 228.475 115.771 228.655 111.734C228.9 106.286 228.824 99.6365 224.935 96.0055C224.935 96.0055 216.397 95.0719 211.106 97.1778C205.813 99.2838 202.075 104.333 200.652 109.799C199.147 115.579 199.932 121.833 197.908 127.456C196.612 131.051 194.221 134.219 193.187 137.896C191.948 142.3 192.95 147.4 196.212 150.639C199.205 153.607 203.591 154.715 207.801 155.193C213.818 155.877 219.954 155.535 225.857 154.184C229.613 153.325 233.596 151.807 235.501 148.49C237.726 144.613 236.325 139.678 234.168 135.765Z" fill="white"/>
<path d="M203.208 133.982V139.993L218.232 133.982V114.665H203.208V129.093V133.982Z" fill="white"/>
<path d="M203.208 121.437V126.561L205.881 121.768L203.208 121.437Z" fill="white"/>
<path d="M218.219 116.304V120.697L215.547 116.635L218.219 116.304Z" fill="white"/>
<path d="M215.547 116.636C213.138 119.644 209.407 122.929 205.576 123.521C195.37 125.096 193.717 117.003 194.686 111.302C196.216 102.297 201.067 95.5484 201.067 95.5484C201.067 95.5484 217.967 83.8678 221.439 105.144C221.99 109.919 218.003 113.568 215.544 116.64L215.547 116.636Z" fill="white"/>
<path d="M225.531 96.5991C215.261 85.1074 202.218 91.6924 202.218 91.6924C200.597 92.5262 199.121 93.7556 199.434 94.9956C199.434 94.9956 200.766 103.544 207.634 103.697C209.636 103.744 210.605 102.871 210.983 101.616C211.411 103.473 212.528 106.078 215.394 107.995C215.3 108.262 215.2 108.54 215.092 108.832C213.878 112.15 217.472 113.219 218.167 112.52L221.484 109.185L224.671 109.766L226.766 105.226C227.962 102.639 227.436 98.7264 225.531 96.5956V96.5991Z" fill="white"/>
<path d="M218.893 104.45C219.059 110.754 218.778 111.905 218.223 117.15C221.281 114.26 222.854 115.087 224.23 111.131C225.609 107.176 229.171 102.351 232.246 102.626C229.952 87.5883 209.048 87.4208 206.75 90.2394C213.203 89.2239 218.637 94.8718 218.889 104.45H218.893Z" fill="white"/>
<path d="M207.847 110.344C207.48 109.71 206.792 109.271 206.058 109.197C205.323 109.122 204.56 109.417 204.07 109.963" fill="white"/>
<path d="M207.847 110.344C207.48 109.71 206.792 109.271 206.058 109.197C205.323 109.122 204.56 109.417 204.07 109.963" stroke="black" stroke-width="0.712667" stroke-miterlimit="10"/>
<path d="M197.355 107.843C197.301 107.337 196.974 106.863 196.516 106.631C196.055 106.4 195.479 106.414 195.033 106.67" fill="white"/>
<path d="M197.355 107.843C197.301 107.337 196.974 106.863 196.516 106.631C196.055 106.4 195.479 106.414 195.033 106.67" stroke="black" stroke-width="0.712667" stroke-miterlimit="10"/>
<path d="M198.47 103.998C198.128 103.268 197.458 102.694 196.677 102.469C195.895 102.245 195.02 102.366 194.333 102.801" fill="white"/>
<path d="M198.47 103.998C198.128 103.268 197.458 102.694 196.677 102.469C195.895 102.245 195.02 102.366 194.333 102.801" stroke="black" stroke-width="0.712667" stroke-miterlimit="10"/>
<path d="M209.284 105.899C208.942 105.168 208.272 104.595 207.491 104.37C206.709 104.146 205.834 104.267 205.146 104.702" fill="white"/>
<path d="M209.284 105.899C208.942 105.168 208.272 104.595 207.491 104.37C206.709 104.146 205.834 104.267 205.146 104.702" stroke="black" stroke-width="0.712667" stroke-miterlimit="10"/>
<path d="M200.936 107.017C200.936 107.017 197.003 111.967 197.914 114.13C198.825 116.292 200.817 115.038 200.817 115.038" fill="white"/>
<path d="M200.936 107.017C200.936 107.017 197.003 111.967 197.914 114.13C198.825 116.292 200.817 115.038 200.817 115.038" stroke="black" stroke-width="0.712667" stroke-miterlimit="10"/>
<path d="M223.505 108.833C225.392 109.891 226.257 112.122 225.846 113.957C225.436 115.792 221.467 121.803 215.554 116.644L217.7 110.85C219.051 108.373 221.698 107.814 223.509 108.829L223.505 108.833Z" fill="white"/>
<path d="M219.214 113.832L222.931 111.908" stroke="black" stroke-width="0.712667" stroke-miterlimit="10"/>
<path d="M221.412 112.997C221.412 112.997 222.662 114.393 221.088 115.452Z" fill="white"/>
<path d="M221.412 112.997C221.412 112.997 222.662 114.393 221.088 115.452" stroke="black" stroke-width="0.712667" stroke-miterlimit="10"/>
<path d="M206.025 117.482C206.025 117.482 205.337 120.097 202.114 119.413Z" fill="white"/>
<path d="M206.025 117.482C206.025 117.482 205.337 120.097 202.114 119.413" stroke="black" stroke-width="0.712667" stroke-miterlimit="10"/>
<path d="M102.068 109.918C102.068 109.918 100.256 111.925 97.7068 109.837Z" fill="white"/>
<path d="M102.068 109.918C102.068 109.918 100.256 111.925 97.7068 109.837" stroke="black" stroke-width="0.712667" stroke-miterlimit="10"/>
<path d="M150.635 77.953C150.959 75.0097 151.409 69.0589 149.767 69.0767C147.584 69.1016 147.458 79.8202 147.458 79.8202H147.462L147.206 83.0094C147.199 83.0949 147.149 83.8111 147.142 83.8966C145.337 83.6187 140.238 82.4 139.835 82.8561C139.068 83.7256 142.013 85.9455 145.28 88.5325L149.45 91.5329L158.842 91.7609L160.887 77.0229L150.631 77.953H150.635Z" fill="white"/>
<path d="M150.689 78.6082C150.689 78.6082 151.514 67.227 153.898 67.3303C156.282 67.4336 154.359 78.9361 154.359 78.9361" fill="white"/>
<path d="M154.437 78.577C154.437 78.577 155.657 69.0059 157.919 69.2446C160.18 69.4834 157.818 79.4963 157.818 79.4963" fill="white"/>
<path d="M157.914 79.0704C157.914 79.0704 158.814 72.0542 160.683 72.2751C162.552 72.4961 160.104 82.4342 160.104 82.4342" fill="white"/>
<path d="M149.479 77.6583C149.479 77.6583 154.077 76.9991 158.856 78.8876Z" fill="white"/>
<path d="M149.479 77.6583C149.479 77.6583 154.077 76.9991 158.856 78.8876" stroke="black" stroke-width="0.712667" stroke-miterlimit="10"/>
<path d="M159.065 90.1802L173.135 119.752L192.379 128.853C201.551 132.723 206.291 141.075 203.492 145.779L192.995 158.115L161.536 133.671C158.907 131.629 157.103 128.725 156.444 125.482L149.573 91.5556L159.065 90.1837V90.1802Z" fill="white"/>
<path d="M183.167 124.491L192.382 128.849C201.554 132.718 206.293 141.071 203.495 145.775L192.998 158.111L172.064 141.848L183.17 124.494L183.167 124.491Z" fill="white"/>
<mask id="mask1_2274_9811" style="mask-type:luminance" maskUnits="userSpaceOnUse" x="172" y="124" width="33" height="35">
<path d="M183.169 124.497L192.384 128.855C201.557 132.724 206.296 141.077 203.498 145.78L193 158.117L172.067 141.854L183.173 124.5L183.169 124.497Z" fill="white"/>
</mask>
<g mask="url(#mask1_2274_9811)">
<path d="M200.749 152.935C202.067 154.239 203.562 155.155 204.999 155.646C203.558 156.138 202.067 157.054 200.749 158.358C199.431 159.662 198.506 161.141 198.009 162.563C197.512 161.138 196.586 159.662 195.268 158.358C193.95 157.054 192.456 156.138 191.019 155.646C192.459 155.155 193.95 154.239 195.268 152.935C196.586 151.631 197.512 150.152 198.009 148.73C198.506 150.155 199.431 151.631 200.749 152.935Z" fill="white"/>
<path d="M200.749 137.133C202.067 138.437 203.562 139.353 204.999 139.845C203.558 140.336 202.067 141.252 200.749 142.556C199.431 143.861 198.506 145.339 198.009 146.761C197.512 145.336 196.586 143.861 195.268 142.556C193.95 141.252 192.456 140.336 191.019 139.845C192.459 139.353 193.95 138.437 195.268 137.133C196.586 135.829 197.512 134.35 198.009 132.928C198.506 134.354 199.431 135.829 200.749 137.133Z" fill="white"/>
<path d="M183 152.935C184.318 154.239 185.812 155.155 187.249 155.646C185.809 156.138 184.318 157.054 183 158.358C181.682 159.662 180.756 161.141 180.259 162.563C179.762 161.138 178.837 159.662 177.519 158.358C176.201 157.054 174.706 156.138 173.27 155.646C174.71 155.155 176.201 154.239 177.519 152.935C178.837 151.631 179.762 150.152 180.259 148.73C180.756 150.155 181.682 151.631 183 152.935Z" fill="white"/>
<path d="M183 137.133C184.318 138.437 185.812 139.353 187.249 139.845C185.809 140.336 184.318 141.252 183 142.556C181.682 143.861 180.756 145.339 180.259 146.761C179.762 145.336 178.837 143.861 177.519 142.556C176.201 141.252 174.706 140.336 173.27 139.845C174.71 139.353 176.201 138.437 177.519 137.133C178.837 135.829 179.762 134.35 180.259 132.928C180.756 134.354 181.682 135.829 183 137.133Z" fill="white"/>
<path d="M200.749 121.119C202.067 122.423 203.562 123.339 204.999 123.831C203.558 124.322 202.067 125.238 200.749 126.542C199.431 127.846 198.506 129.325 198.009 130.747C197.512 129.322 196.586 127.846 195.268 126.542C193.95 125.238 192.456 124.322 191.019 123.831C192.459 123.339 193.95 122.423 195.268 121.119C196.586 119.815 197.512 118.336 198.009 116.914C198.506 118.339 199.431 119.815 200.749 121.119Z" fill="white"/>
<path d="M183 121.119C184.318 122.423 185.812 123.339 187.249 123.831C185.809 124.322 184.318 125.238 183 126.542C181.682 127.846 180.756 129.325 180.259 130.747C179.762 129.322 178.837 127.846 177.519 126.542C176.201 125.238 174.706 124.322 173.27 123.831C174.71 123.339 176.201 122.423 177.519 121.119C178.837 119.815 179.762 118.336 180.259 116.914C180.756 118.339 181.682 119.815 183 121.119Z" fill="white"/>
</g>
<path d="M145.282 88.5325C142.015 85.9419 139.07 83.7255 139.837 82.8561C140.24 82.4 145.339 83.6186 147.143 83.8966C147.151 83.8111 147.201 83.0948 147.208 83.0093L147.464 79.8201H147.46C147.46 79.8201 147.59 69.1016 149.769 69.0767" fill="white"/>
<path d="M145.282 88.5325C142.015 85.9419 139.07 83.7255 139.837 82.8561C140.24 82.4 145.339 83.6186 147.143 83.8966C147.151 83.8111 147.201 83.0948 147.208 83.0093L147.464 79.8201H147.46C147.46 79.8201 147.59 69.1016 149.769 69.0767" stroke="black" stroke-width="0.712667" stroke-miterlimit="10"/>
<path d="M185.546 125.618L167.342 117.145" stroke="black" stroke-width="0.712667" stroke-miterlimit="10"/>
<path d="M173.136 119.756L159.062 90.1802" stroke="black" stroke-width="0.712667" stroke-miterlimit="10"/>
<path d="M193.397 137.681C192.209 139.299 192.501 141.572 194.096 142.798C195.49 143.87 197.87 144.825 201.921 144.989C223.56 146.09 222.93 132.575 222.93 132.575L214.817 129.189L198.558 130.668L193.397 137.681Z" fill="white"/>
<path d="M223.573 203.744L191.638 315.64C191.638 315.64 181.429 320.971 178.472 312.412L186.967 202.365L223.569 203.744H223.573Z" fill="white"/>
<path d="M236.004 201.935C236.004 201.935 237.571 217.082 231.679 227.174L244.28 315.976C244.28 315.976 233.682 321.321 231.352 312.74L197.019 225.371V197.192L236.004 201.938V201.935Z" fill="white"/>
<path d="M231.352 312.735L197.019 225.366V197.187" fill="white"/>
<path d="M231.352 312.735L197.019 225.366V197.187" stroke="black" stroke-width="0.712667" stroke-miterlimit="10"/>
<path d="M202.91 199.35L198.765 225.37H194.75H190.457" fill="white"/>
<path d="M202.91 199.35L198.765 225.37H194.75H190.457" stroke="black" stroke-width="0.712667" stroke-miterlimit="10"/>
<path d="M197.019 225.369H207.847" stroke="black" stroke-width="0.712667" stroke-miterlimit="10"/>
<path d="M223.911 132.971L220.746 131.545C220.746 131.545 216.676 146.265 197.356 143.18C187.802 141.654 201.397 130.412 201.397 130.412L199.128 130.608C197.219 130.772 195.491 131.788 194.428 133.363C194.011 133.979 193.546 134.692 193.053 135.472L193.024 135.183C193.024 135.183 175.328 153.481 181.011 163.426C182.584 166.181 184.572 167.742 186.592 168.579C186.171 183.616 185.544 201.629 185.544 201.629C184.698 207.07 236.497 201.935 236.497 201.935C237.376 195.942 236.234 192.072 236.234 192.072C236.234 192.072 236.27 186.143 237.019 159.364C237.437 144.348 230.523 135.476 223.911 132.971Z" fill="white"/>
<mask id="mask2_2274_9811" style="mask-type:luminance" maskUnits="userSpaceOnUse" x="179" y="130" width="59" height="75">
<path d="M223.913 132.971L220.748 131.545C220.748 131.545 216.679 146.265 197.359 143.18C187.805 141.654 201.399 130.412 201.399 130.412L199.13 130.608C197.222 130.772 195.493 131.788 194.431 133.363C194.013 133.979 193.549 134.692 193.055 135.472L193.026 135.183C193.026 135.183 175.33 153.481 181.013 163.426C182.587 166.181 184.575 167.742 186.595 168.579C186.173 183.616 185.547 201.629 185.547 201.629C184.701 207.07 236.499 201.935 236.499 201.935C237.378 195.942 236.236 192.072 236.236 192.072C236.236 192.072 236.272 186.143 237.021 159.364C237.439 144.348 230.525 135.476 223.913 132.971Z" fill="white"/>
</mask>
<g mask="url(#mask2_2274_9811)">
<path d="M236.243 200.325C237.561 201.63 239.055 202.545 240.492 203.037C239.052 203.529 237.561 204.445 236.243 205.749C234.925 207.053 233.999 208.532 233.503 209.953C233.006 208.528 232.08 207.053 230.762 205.749C229.444 204.445 227.95 203.529 226.513 203.037C227.953 202.545 229.444 201.63 230.762 200.325C232.08 199.021 233.006 197.542 233.503 196.121C233.999 197.546 234.925 199.021 236.243 200.325Z" fill="white"/>
<path d="M236.243 184.524C237.561 185.828 239.055 186.744 240.492 187.235C239.052 187.727 237.561 188.643 236.243 189.947C234.925 191.251 233.999 192.73 233.503 194.152C233.006 192.726 232.08 191.251 230.762 189.947C229.444 188.643 227.95 187.727 226.513 187.235C227.953 186.744 229.444 185.828 230.762 184.524C232.08 183.219 233.006 181.741 233.503 180.319C233.999 181.744 234.925 183.219 236.243 184.524Z" fill="white"/>
<path d="M236.243 168.727C237.561 170.031 239.055 170.947 240.492 171.439C239.052 171.931 237.561 172.846 236.243 174.151C234.925 175.455 233.999 176.934 233.503 178.355C233.006 176.93 232.08 175.455 230.762 174.151C229.444 172.846 227.95 171.931 226.513 171.439C227.953 170.947 229.444 170.031 230.762 168.727C232.08 167.423 233.006 165.944 233.503 164.522C233.999 165.948 234.925 167.423 236.243 168.727Z" fill="white"/>
<path d="M236.243 152.936C237.561 154.24 239.055 155.156 240.492 155.647C239.052 156.139 237.561 157.055 236.243 158.359C234.925 159.663 233.999 161.142 233.503 162.564C233.006 161.138 232.08 159.663 230.762 158.359C229.444 157.055 227.95 156.139 226.513 155.647C227.953 155.156 229.444 154.24 230.762 152.936C232.08 151.632 233.006 150.153 233.503 148.731C233.999 150.156 234.925 151.632 236.243 152.936Z" fill="white"/>
<path d="M236.243 137.134C237.561 138.438 239.055 139.354 240.492 139.846C239.052 140.337 237.561 141.253 236.243 142.557C234.925 143.862 233.999 145.34 233.503 146.762C233.006 145.337 232.08 143.862 230.762 142.557C229.444 141.253 227.95 140.337 226.513 139.846C227.953 139.354 229.444 138.438 230.762 137.134C232.08 135.83 233.006 134.351 233.503 132.929C233.999 134.355 234.925 135.83 236.243 137.134Z" fill="white"/>
<path d="M218.496 200.325C219.814 201.63 221.308 202.545 222.745 203.037C221.305 203.529 219.814 204.445 218.496 205.749C217.178 207.053 216.252 208.532 215.755 209.953C215.258 208.528 214.333 207.053 213.015 205.749C211.697 204.445 210.202 203.529 208.766 203.037C210.206 202.545 211.697 201.63 213.015 200.325C214.333 199.021 215.258 197.542 215.755 196.121C216.252 197.546 217.178 199.021 218.496 200.325Z" fill="white"/>
<path d="M218.496 184.524C219.814 185.828 221.308 186.744 222.745 187.235C221.305 187.727 219.814 188.643 218.496 189.947C217.178 191.251 216.252 192.73 215.755 194.152C215.258 192.726 214.333 191.251 213.015 189.947C211.697 188.643 210.202 187.727 208.766 187.235C210.206 186.744 211.697 185.828 213.015 184.524C214.333 183.219 215.258 181.741 215.755 180.319C216.252 181.744 217.178 183.219 218.496 184.524Z" fill="white"/>
<path d="M218.496 168.727C219.814 170.031 221.308 170.947 222.745 171.439C221.305 171.931 219.814 172.846 218.496 174.151C217.178 175.455 216.252 176.934 215.755 178.355C215.258 176.93 214.333 175.455 213.015 174.151C211.697 172.846 210.202 171.931 208.766 171.439C210.206 170.947 211.697 170.031 213.015 168.727C214.333 167.423 215.258 165.944 215.755 164.522C216.252 165.948 217.178 167.423 218.496 168.727Z" fill="white"/>
<path d="M218.496 152.936C219.814 154.24 221.308 155.156 222.745 155.647C221.305 156.139 219.814 157.055 218.496 158.359C217.178 159.663 216.252 161.142 215.755 162.564C215.258 161.138 214.333 159.663 213.015 158.359C211.697 157.055 210.202 156.139 208.766 155.647C210.206 155.156 211.697 154.24 213.015 152.936C214.333 151.632 215.258 150.153 215.755 148.731C216.252 150.156 217.178 151.632 218.496 152.936Z" fill="white"/>
<path d="M218.496 137.134C219.814 138.438 221.308 139.354 222.745 139.846C221.305 140.337 219.814 141.253 218.496 142.557C217.178 143.862 216.252 145.34 215.755 146.762C215.258 145.337 214.333 143.862 213.015 142.557C211.697 141.253 210.202 140.337 208.766 139.846C210.206 139.354 211.697 138.438 213.015 137.134C214.333 135.83 215.258 134.351 215.755 132.929C216.252 134.355 217.178 135.83 218.496 137.134Z" fill="white"/>
<path d="M200.754 200.325C202.072 201.63 203.566 202.545 205.003 203.037C203.563 203.529 202.072 204.445 200.754 205.749C199.436 207.053 198.51 208.532 198.013 209.953C197.516 208.528 196.591 207.053 195.273 205.749C193.955 204.445 192.46 203.529 191.023 203.037C192.464 202.545 193.955 201.63 195.273 200.325C196.591 199.021 197.516 197.542 198.013 196.121C198.51 197.546 199.436 199.021 200.754 200.325Z" fill="white"/>
<path d="M200.754 184.524C202.072 185.828 203.566 186.744 205.003 187.235C203.563 187.727 202.072 188.643 200.754 189.947C199.436 191.251 198.51 192.73 198.013 194.152C197.516 192.726 196.591 191.251 195.273 189.947C193.955 188.643 192.46 187.727 191.023 187.235C192.464 186.744 193.955 185.828 195.273 184.524C196.591 183.219 197.516 181.741 198.013 180.319C198.51 181.744 199.436 183.219 200.754 184.524Z" fill="white"/>
<path d="M200.754 168.727C202.072 170.031 203.566 170.947 205.003 171.439C203.563 171.931 202.072 172.846 200.754 174.151C199.436 175.455 198.51 176.934 198.013 178.355C197.516 176.93 196.591 175.455 195.273 174.151C193.955 172.846 192.46 171.931 191.023 171.439C192.464 170.947 193.955 170.031 195.273 168.727C196.591 167.423 197.516 165.944 198.013 164.522C198.51 165.948 199.436 167.423 200.754 168.727Z" fill="white"/>
<path d="M200.754 152.936C202.072 154.24 203.566 155.156 205.003 155.647C203.563 156.139 202.072 157.055 200.754 158.359C199.436 159.663 198.51 161.142 198.013 162.564C197.516 161.138 196.591 159.663 195.273 158.359C193.955 157.055 192.46 156.139 191.023 155.647C192.464 155.156 193.955 154.24 195.273 152.936C196.591 151.632 197.516 150.153 198.013 148.731C198.51 150.156 199.436 151.632 200.754 152.936Z" fill="white"/>
<path d="M200.754 137.134C202.072 138.438 203.566 139.354 205.003 139.846C203.563 140.337 202.072 141.253 200.754 142.557C199.436 143.862 198.51 145.34 198.013 146.762C197.516 145.337 196.591 143.862 195.273 142.557C193.955 141.253 192.46 140.337 191.023 139.846C192.464 139.354 193.955 138.438 195.273 137.134C196.591 135.83 197.516 134.351 198.013 132.929C198.51 134.355 199.436 135.83 200.754 137.134Z" fill="white"/>
<path d="M183.007 200.325C184.325 201.63 185.819 202.545 187.256 203.037C185.815 203.529 184.325 204.445 183.007 205.749C181.689 207.053 180.763 208.532 180.266 209.953C179.769 208.528 178.844 207.053 177.526 205.749C176.208 204.445 174.713 203.529 173.276 203.037C174.717 202.545 176.208 201.63 177.526 200.325C178.844 199.021 179.769 197.542 180.266 196.121C180.763 197.546 181.689 199.021 183.007 200.325Z" fill="white"/>
<path d="M183.007 184.524C184.325 185.828 185.819 186.744 187.256 187.235C185.815 187.727 184.325 188.643 183.007 189.947C181.689 191.251 180.763 192.73 180.266 194.152C179.769 192.726 178.844 191.251 177.526 189.947C176.208 188.643 174.713 187.727 173.276 187.235C174.717 186.744 176.208 185.828 177.526 184.524C178.844 183.219 179.769 181.741 180.266 180.319C180.763 181.744 181.689 183.219 183.007 184.524Z" fill="white"/>
<path d="M183.007 168.727C184.325 170.031 185.819 170.947 187.256 171.439C185.815 171.931 184.325 172.846 183.007 174.151C181.689 175.455 180.763 176.934 180.266 178.355C179.769 176.93 178.844 175.455 177.526 174.151C176.208 172.846 174.713 171.931 173.276 171.439C174.717 170.947 176.208 170.031 177.526 168.727C178.844 167.423 179.769 165.944 180.266 164.522C180.763 165.948 181.689 167.423 183.007 168.727Z" fill="white"/>
<path d="M183.007 152.936C184.325 154.24 185.819 155.156 187.256 155.647C185.815 156.139 184.325 157.055 183.007 158.359C181.689 159.663 180.763 161.142 180.266 162.564C179.769 161.138 178.844 159.663 177.526 158.359C176.208 157.055 174.713 156.139 173.276 155.647C174.717 155.156 176.208 154.24 177.526 152.936C178.844 151.632 179.769 150.153 180.266 148.731C180.763 150.156 181.689 151.632 183.007 152.936Z" fill="white"/>
<path d="M183.007 137.134C184.325 138.438 185.819 139.354 187.256 139.846C185.815 140.337 184.325 141.253 183.007 142.557C181.689 143.862 180.763 145.34 180.266 146.762C179.769 145.337 178.844 143.862 177.526 142.557C176.208 141.253 174.713 140.337 173.276 139.846C174.717 139.354 176.208 138.438 177.526 137.134C178.844 135.83 179.769 134.351 180.266 132.929C180.763 134.355 181.689 135.83 183.007 137.134Z" fill="white"/>
<path d="M236.243 121.12C237.561 122.424 239.055 123.34 240.492 123.831C239.052 124.323 237.561 125.239 236.243 126.543C234.925 127.847 233.999 129.326 233.503 130.748C233.006 129.323 232.08 127.847 230.762 126.543C229.444 125.239 227.95 124.323 226.513 123.831C227.953 123.34 229.444 122.424 230.762 121.12C232.08 119.816 233.006 118.337 233.503 116.915C233.999 118.34 234.925 119.816 236.243 121.12Z" fill="white"/>
<path d="M218.496 121.12C219.814 122.424 221.308 123.34 222.745 123.831C221.305 124.323 219.814 125.239 218.496 126.543C217.178 127.847 216.252 129.326 215.755 130.748C215.258 129.323 214.333 127.847 213.015 126.543C211.697 125.239 210.202 124.323 208.766 123.831C210.206 123.34 211.697 122.424 213.015 121.12C214.333 119.816 215.258 118.337 215.755 116.915C216.252 118.34 217.178 119.816 218.496 121.12Z" fill="white"/>
<path d="M200.754 121.12C202.072 122.424 203.566 123.34 205.003 123.831C203.563 124.323 202.072 125.239 200.754 126.543C199.436 127.847 198.51 129.326 198.013 130.748C197.516 129.323 196.591 127.847 195.273 126.543C193.955 125.239 192.46 124.323 191.023 123.831C192.464 123.34 193.955 122.424 195.273 121.12C196.591 119.816 197.516 118.337 198.013 116.915C198.51 118.34 199.436 119.816 200.754 121.12Z" fill="white"/>
<path d="M183.007 121.12C184.325 122.424 185.819 123.34 187.256 123.831C185.815 124.323 184.325 125.239 183.007 126.543C181.689 127.847 180.763 129.326 180.266 130.748C179.769 129.323 178.844 127.847 177.526 126.543C176.208 125.239 174.713 124.323 173.276 123.831C174.717 123.34 176.208 122.424 177.526 121.12C178.844 119.816 179.769 118.337 180.266 116.915C180.763 118.34 181.689 119.816 183.007 121.12Z" fill="white"/>
</g>
<path d="M193.024 135.184C193.024 135.184 175.328 153.482 181.011 163.427C182.991 166.891 185.62 168.476 188.148 169.096" fill="white"/>
<path d="M193.024 135.184C193.024 135.184 175.328 153.482 181.011 163.427C182.991 166.891 185.62 168.476 188.148 169.096" stroke="black" stroke-width="0.712667" stroke-miterlimit="10"/>
<path d="M174.897 178.45L171.872 174.491C169.38 172.531 167.003 170.201 166.16 170.953C165.721 171.348 164.821 171.68 167.781 174.926C164.95 177.527 167.507 181.322 167.507 181.322" fill="white"/>
<path d="M163.507 190.533H155.09C153.992 190.533 153.311 189.645 153.562 188.547L157.581 171.151C157.835 170.053 158.927 169.165 160.025 169.165H168.442C169.54 169.165 170.221 170.053 169.97 171.151L165.951 188.547C165.697 189.645 164.605 190.533 163.507 190.533Z" fill="white"/>
<path d="M155.02 188.8L159.039 171.404C159.173 170.817 159.821 170.284 160.393 170.284H169.084" fill="white"/>
<path d="M155.02 188.8L159.039 171.404C159.173 170.817 159.821 170.284 160.393 170.284H169.084" stroke="#405FF4" stroke-width="0.558556" stroke-miterlimit="10"/>
<path d="M174.899 178.451L174.503 178.284C173.048 177.411 172.133 176.933 170.509 176.616C169.181 176.356 167.823 176.313 166.476 176.445L164.748 176.502L165.85 188.824L171.032 188.147L174.896 178.451H174.899Z" fill="white"/>
<path d="M167.01 176.377C167.01 176.377 156.602 176.695 156.617 178.768C156.631 180.842 166.808 179.506 166.808 179.506" fill="white"/>
<path d="M166.279 182.958C166.279 182.958 155.137 184.993 154.997 182.73C154.856 180.467 165.894 179.477 165.894 179.477" fill="white"/>
<path d="M165.93 183.041C165.93 183.041 156.657 184.373 156.927 186.518C157.2 188.663 166.884 186.237 166.884 186.237" fill="white"/>
<path d="M166.473 186.338C166.473 186.338 159.674 187.321 159.923 189.092C160.171 190.863 169.729 188.312 169.729 188.312" fill="white"/>
<path d="M168.366 177.64C169.933 181.06 170.754 183.9 169.706 187.236Z" fill="white"/>
<path d="M168.366 177.64C169.933 181.06 170.754 183.9 169.706 187.236" stroke="black" stroke-width="0.712667" stroke-miterlimit="10"/>
<path d="M171.031 188.146L174.895 178.45L205.53 170.596L210.002 152.58C212.213 142.963 219.671 136.855 224.85 138.74L233.766 159.072L221.148 181.821C219.196 186.457 214.543 189.404 209.473 189.218L171.031 188.149V188.146Z" fill="white"/>
<path d="M207.134 164.136L210.004 152.58C212.215 142.963 219.673 136.855 224.851 138.74L233.768 159.072L224.542 175.706L207.137 164.136H207.134Z" fill="white"/>
<mask id="mask3_2274_9811" style="mask-type:luminance" maskUnits="userSpaceOnUse" x="207" y="138" width="27" height="38">
<path d="M207.141 164.144L210.011 152.588C212.222 142.97 219.68 136.863 224.859 138.748L233.775 159.08L224.549 175.714L207.145 164.144H207.141Z" fill="white"/>
</mask>
<g mask="url(#mask3_2274_9811)">
<path d="M236.249 168.732C237.567 170.036 239.061 170.952 240.498 171.444C239.058 171.936 237.567 172.851 236.249 174.155C234.931 175.46 234.005 176.938 233.508 178.36C233.011 176.935 232.086 175.46 230.768 174.155C229.45 172.851 227.955 171.936 226.519 171.444C227.959 170.952 229.45 170.036 230.768 168.732C232.086 167.428 233.011 165.949 233.508 164.527C234.005 165.953 234.931 167.428 236.249 168.732Z" fill="white"/>
<path d="M236.249 152.941C237.567 154.245 239.061 155.161 240.498 155.652C239.058 156.144 237.567 157.06 236.249 158.364C234.931 159.668 234.005 161.147 233.508 162.569C233.011 161.143 232.086 159.668 230.768 158.364C229.45 157.06 227.955 156.144 226.519 155.652C227.959 155.161 229.45 154.245 230.768 152.941C232.086 151.636 233.011 150.158 233.508 148.736C234.005 150.161 234.931 151.636 236.249 152.941Z" fill="white"/>
<path d="M236.249 137.139C237.567 138.443 239.061 139.359 240.498 139.851C239.058 140.343 237.567 141.259 236.249 142.563C234.931 143.867 234.005 145.346 233.508 146.767C233.011 145.342 232.086 143.867 230.768 142.563C229.45 141.259 227.955 140.343 226.519 139.851C227.959 139.359 229.45 138.443 230.768 137.139C232.086 135.835 233.011 134.356 233.508 132.935C234.005 134.36 234.931 135.835 236.249 137.139Z" fill="white"/>
<path d="M218.502 168.732C219.82 170.036 221.315 170.952 222.752 171.444C221.311 171.936 219.82 172.851 218.502 174.155C217.184 175.46 216.259 176.938 215.762 178.36C215.265 176.935 214.339 175.46 213.021 174.155C211.703 172.851 210.209 171.936 208.772 171.444C210.212 170.952 211.703 170.036 213.021 168.732C214.339 167.428 215.265 165.949 215.762 164.527C216.259 165.953 217.184 167.428 218.502 168.732Z" fill="white"/>
<path d="M218.502 152.941C219.82 154.245 221.315 155.161 222.752 155.652C221.311 156.144 219.82 157.06 218.502 158.364C217.184 159.668 216.259 161.147 215.762 162.569C215.265 161.143 214.339 159.668 213.021 158.364C211.703 157.06 210.209 156.144 208.772 155.652C210.212 155.161 211.703 154.245 213.021 152.941C214.339 151.636 215.265 150.158 215.762 148.736C216.259 150.161 217.184 151.636 218.502 152.941Z" fill="white"/>
<path d="M218.502 137.139C219.82 138.443 221.315 139.359 222.752 139.851C221.311 140.343 219.82 141.259 218.502 142.563C217.184 143.867 216.259 145.346 215.762 146.767C215.265 145.342 214.339 143.867 213.021 142.563C211.703 141.259 210.209 140.343 208.772 139.851C210.212 139.359 211.703 138.443 213.021 137.139C214.339 135.835 215.265 134.356 215.762 132.935C216.259 134.36 217.184 135.835 218.502 137.139Z" fill="white"/>
</g>
<path d="M205.53 170.596L210.002 152.58C212.214 142.963 219.671 136.855 224.85 138.74" fill="white"/>
<path d="M205.53 170.596L210.002 152.58C212.214 142.963 219.671 136.855 224.85 138.74" stroke="black" stroke-width="0.712667" stroke-miterlimit="10"/>
<path d="M209.475 189.217C214.545 189.402 219.198 186.455 221.15 181.819L231.348 163.433" fill="white"/>
<path d="M209.475 189.217C214.545 189.402 219.198 186.455 221.15 181.819L231.348 163.433" stroke="black" stroke-width="0.712667" stroke-miterlimit="10"/>
<path d="M209.629 169.601L193.241 173.791" stroke="black" stroke-width="0.712667" stroke-miterlimit="10"/>
<path d="M231.348 195.994C231.348 195.994 200.936 199.351 190.457 198.111Z" fill="white"/>
<path d="M231.348 195.994C231.348 195.994 200.936 199.351 190.457 198.111" stroke="black" stroke-width="0.712667" stroke-miterlimit="10"/>
<path d="M139.31 56.5411C138.046 53.213 136.785 49.8848 135.521 46.5566Z" fill="white"/>
<path d="M139.31 56.5411C138.046 53.213 136.785 49.8848 135.521 46.5566" stroke="#405FF4" stroke-width="1.41408" stroke-miterlimit="10"/>
<path d="M150.711 55.4052C151.471 50.7016 152.231 45.998 152.991 41.2944Z" fill="white"/>
<path d="M150.711 55.4052C151.471 50.7016 152.231 45.998 152.991 41.2944" stroke="#405FF4" stroke-width="1.41408" stroke-miterlimit="10"/>
<path d="M160.919 59.7964C163.875 56.0371 166.832 52.2777 169.789 48.522Z" fill="white"/>
<path d="M160.919 59.7964C163.875 56.0371 166.832 52.2777 169.789 48.522" stroke="#405FF4" stroke-width="1.41408" stroke-miterlimit="10"/>
<path d="M167.857 68.8184C171.177 67.4607 174.497 66.1031 177.818 64.749Z" fill="white"/>
<path d="M167.857 68.8184C171.177 67.4607 174.497 66.1031 177.818 64.749" stroke="#405FF4" stroke-width="1.41408" stroke-miterlimit="10"/>
<path d="M94.9193 49.6172L93.821 54.2495L89.2188 52.8741L92.7262 56.1274L89.2188 59.3843L93.821 58.0088L94.9193 62.6412L96.0141 58.0088L100.62 59.3843L97.1124 56.1274L100.62 52.8741L96.0141 54.2495L94.9193 49.6172Z" fill="white"/>
<path d="M249.511 99.3481L248.766 101.746L246.342 102.484L248.766 103.225L249.511 105.623L250.26 103.225L252.684 102.484L250.26 101.746L249.511 99.3481Z" fill="white"/>
<path d="M56.2446 65.369C56.2446 64.6029 56.8712 63.9829 57.6455 63.9829C58.4197 63.9829 59.0463 64.6029 59.0463 65.369C59.0463 66.1352 58.4197 66.7552 57.6455 66.7552C56.8712 66.7552 56.2446 66.1352 56.2446 65.369Z" fill="white"/>
<path d="M234.267 71.9757C234.634 71.6122 234.893 71.1989 235.03 70.7998C235.167 71.1989 235.426 71.6087 235.793 71.9757C236.161 72.3392 236.578 72.5957 236.982 72.7311C236.578 72.8665 236.164 73.1231 235.793 73.4866C235.426 73.85 235.167 74.2634 235.03 74.6625C234.893 74.2634 234.634 73.8536 234.267 73.4866C233.899 73.1231 233.481 72.8665 233.078 72.7311C233.481 72.5957 233.896 72.3392 234.267 71.9757Z" fill="white"/>
<path d="M48.6964 104.852C49.5534 104.004 50.1548 103.042 50.4789 102.115C50.7994 103.042 51.4044 104.004 52.2615 104.852C53.1186 105.7 54.0908 106.295 55.0271 106.616C54.0908 106.933 53.1186 107.532 52.2615 108.38C51.4044 109.228 50.803 110.19 50.4789 111.116C50.1548 110.19 49.5534 109.228 48.6964 108.38C47.8393 107.532 46.867 106.936 45.9307 106.616C46.867 106.299 47.8393 105.7 48.6964 104.852Z" fill="white"/>
<path d="M160.887 151.55C161.964 150.481 162.724 149.273 163.131 148.107C163.538 149.273 164.294 150.481 165.371 151.55C166.448 152.615 167.672 153.367 168.849 153.766C167.672 154.169 166.448 154.917 165.371 155.986C164.294 157.051 163.534 158.263 163.131 159.428C162.724 158.263 161.968 157.055 160.887 155.986C159.811 154.921 158.586 154.169 157.409 153.766C158.586 153.363 159.811 152.615 160.887 151.55Z" fill="white"/>
<path d="M235.456 37.406L231.412 33.4048L227.368 37.406L231.412 41.4072L235.456 37.406Z" fill="white"/>
</g>
<path d="M274.875 61.6604C277.516 58.7769 280.506 56.7524 283.389 55.6727C280.506 54.5868 277.516 52.5623 274.875 49.685C272.233 46.8016 270.379 43.5378 269.39 40.3906C268.395 43.5378 266.54 46.8016 263.904 49.685C261.263 52.5684 258.273 54.5929 255.39 55.6727C258.273 56.7586 261.263 58.7831 263.904 61.6604C266.546 64.5438 268.4 67.8075 269.39 70.9547C270.384 67.8075 272.239 64.5438 274.875 61.6604Z" fill="#CEFF5A"/>
<path d="M10.9999 57.1965L8.88372 47.3363L0 50.2665L6.76753 43.3365L0 36.3987L8.88372 39.3289L10.9999 29.4688L13.1161 39.3289L21.9998 36.3987L15.2323 43.3365L21.9998 50.2665L13.1161 47.3363L10.9999 57.1965Z" fill="#3664FF"/>
<path d="M292.887 122.253L291.829 117.207L287.387 118.706L290.771 115.16L287.387 111.609L291.829 113.109L292.887 108.062L293.945 113.109L298.387 111.609L295.003 115.16L298.387 118.706L293.945 117.207L292.887 122.253Z" fill="white"/>
<path d="M81.8403 8.42346L74.1235 0L66.4068 8.42346L74.1235 16.8469L81.8403 8.42346Z" fill="white"/>
<mask id="mask4_2274_9811" style="mask-type:alpha" maskUnits="userSpaceOnUse" x="28" y="6" width="253" height="232">
<rect x="28.9258" y="6.08057" width="252.014" height="231.012" fill="#D9D9D9"/>
</mask>
<g mask="url(#mask4_2274_9811)">
<path d="M195.402 76.2237C174.477 54.4617 159.794 29.7736 151.882 6C144.057 29.7736 129.285 54.4617 108.36 76.2237C87.4353 97.9857 63.6975 113.256 40.8382 121.485C63.6975 129.623 87.4353 144.984 108.36 166.746C129.285 188.508 143.969 213.196 151.882 236.97C159.794 213.196 174.477 188.508 195.402 166.746C216.327 144.984 240.066 129.714 262.925 121.485C240.066 113.347 216.327 97.9857 195.402 76.2237Z" fill="#FAF4E7"/>
<mask id="mask5_2274_9811" style="mask-type:alpha" maskUnits="userSpaceOnUse" x="2" y="17" width="307" height="223">
<rect x="2" y="17.5298" width="306.367" height="222.284" fill="#D9D9D9"/>
</mask>
<g mask="url(#mask5_2274_9811)">
<path d="M139.354 84.8345L139.166 84.4211C138.194 82.8996 137.661 81.9411 137.283 80.2271C136.977 78.8267 136.901 77.3871 137.016 75.9618L137.416 70.9838L151.263 69.7295L149.134 85.0732L139.357 84.8345H139.354Z" fill="#FB8E65"/>
<path d="M139.355 84.8329L135.012 81.7114C131.612 79.0139 128.544 76.7049 129.343 75.7998C129.761 75.3259 131.832 74.3032 135.401 77.3712C138.155 74.3246 142.308 76.9508 142.308 76.9508" fill="#FB8E65"/>
<path d="M129.347 75.7998C129.764 75.3259 131.835 74.3032 135.404 77.3712C138.159 74.3246 142.311 76.9508 142.311 76.9508" stroke="black" stroke-width="0.712667" stroke-miterlimit="10"/>
<path d="M137.279 72.638C137.279 72.638 137.413 61.4812 139.681 61.4527C141.95 61.4242 140.376 72.3672 140.376 72.3672" fill="#FB8E65"/>
<path d="M140.638 71.3825C140.638 71.3825 141.495 59.538 143.976 59.6413C146.458 59.7446 144.459 71.7246 144.459 71.7246" fill="#FB8E65"/>
<path d="M144.539 71.3526C144.539 71.3526 145.81 61.3895 148.162 61.6353C150.517 61.8812 148.057 72.3075 148.057 72.3075" fill="#FB8E65"/>
<path d="M148.163 71.8677C148.163 71.8677 149.102 64.5628 151.044 64.7945C152.988 65.0261 150.439 75.3704 150.439 75.3704" fill="#FB8E65"/>
<path d="M139.374 70.3844C139.374 70.3844 144.159 69.7003 149.136 71.6637" stroke="black" stroke-width="0.712667" stroke-miterlimit="10"/>
<path d="M138.655 83.3366L124.647 114.213L104.614 123.684C95.0673 127.711 90.1337 136.409 93.0471 141.301L103.977 154.14L136.725 128.698C139.462 126.571 141.342 123.549 142.026 120.171L149.178 84.8545L138.659 83.333L138.655 83.3366Z" fill="#FB8E65"/>
<path d="M114.207 119.149L104.614 123.685C95.0673 127.712 90.1337 136.41 93.0471 141.302L103.977 154.141L125.767 137.211L114.207 119.149Z" fill="#829C8B"/>
<path d="M118.532 262.133C114.474 230.515 109.893 189.783 109.936 189.209L87.0368 192.594L80.4863 217.737L88.5853 262.133H118.532Z" fill="#CEFF5A"/>
<path d="M59.2077 196.699C59.2077 196.699 57.5764 212.467 63.7091 222.972L50.5938 315.408C50.5938 315.408 61.6276 320.974 64.0512 312.037L99.7888 221.087V191.753L59.2041 196.692L59.2077 196.699Z" fill="#FB8E65"/>
<path d="M59.2041 196.696C59.2041 196.696 55.2536 212.464 61.3899 222.968L55.6533 262.133H89.2123L99.7852 221.087V191.753L59.2004 196.692L59.2041 196.696Z" fill="#CEFF5A"/>
<path d="M70.1151 201.139L72.1497 222.37L64.915 258.349" stroke="black" stroke-width="0.712667" stroke-miterlimit="10"/>
<path d="M79.0616 202.045C79.0616 202.045 81.0963 220.457 72.1475 222.37" stroke="black" stroke-width="0.712667" stroke-miterlimit="10"/>
<path d="M89.2139 262.129L99.7868 221.087V191.753" stroke="black" stroke-width="0.712667" stroke-miterlimit="10"/>
<path d="M98.2128 125.956V132.213L82.5767 125.956V105.848H98.2128V125.956Z" fill="#FB8E65"/>
<path d="M98.2127 112.893V118.23L95.4326 113.238L98.2127 112.893Z" fill="black"/>
<path d="M82.5864 107.556V112.131L85.3701 107.902L82.5864 107.556Z" fill="black"/>
<path d="M85.3681 107.901C87.8745 111.03 91.7601 114.451 95.7466 115.067C106.37 116.706 108.091 108.283 107.083 102.346C105.491 92.9746 100.439 85.9477 100.439 85.9477C100.439 85.9477 82.8473 73.786 79.2318 95.9357C78.6592 100.907 82.8077 104.702 85.3681 107.901Z" fill="#FB8E65"/>
<path d="M93.3853 101.351C93.7706 100.692 94.4836 100.232 95.2506 100.158C96.0141 100.079 96.8099 100.386 97.3213 100.956" stroke="black" stroke-width="0.712667" stroke-miterlimit="10"/>
<path d="M104.306 98.7474C104.364 98.22 104.702 97.7283 105.181 97.486C105.66 97.2437 106.262 97.2579 106.726 97.5252" stroke="black" stroke-width="0.712667" stroke-miterlimit="10"/>
<path d="M103.146 94.7449C103.498 93.9824 104.197 93.3873 105.011 93.1521C105.825 92.9169 106.736 93.0452 107.449 93.4978" stroke="black" stroke-width="0.712667" stroke-miterlimit="10"/>
<path d="M91.8882 96.72C92.2411 95.9575 92.9397 95.3624 93.7536 95.1272C94.5674 94.892 95.4785 95.0203 96.1915 95.4729" stroke="black" stroke-width="0.712667" stroke-miterlimit="10"/>
<path d="M99.2436 81.9331C99.2436 81.9331 85.6673 75.0772 74.9756 87.0393C72.9913 89.2593 72.444 93.3286 73.6899 96.0225L75.8722 100.747L79.1889 100.145L82.6388 103.616C83.3662 104.346 87.1042 103.231 85.8402 99.7783C85.0047 97.487 84.4825 96.0724 84.767 93.4533C84.9327 91.9282 89.1712 88.682 94.0976 87.3386C94.0904 87.3458 94.0832 87.3565 94.0724 87.3636C93.4566 87.9765 92.9452 88.7675 93.4638 89.4196C93.9859 90.0717 96.1106 90.1287 97.227 89.0099C97.3206 88.9172 97.407 88.8246 97.4898 88.7355C99.6073 91.7893 105.51 85.1615 99.2328 81.9331H99.2436Z" fill="#405FF4"/>
<path d="M100.576 97.8828C100.576 97.8828 104.67 103.035 103.723 105.287C102.776 107.539 100.702 106.232 100.702 106.232" stroke="black" stroke-width="0.712667" stroke-miterlimit="10"/>
<path d="M77.0912 99.7726C75.1249 100.874 74.2283 103.197 74.6568 105.107C75.0853 107.017 79.2158 113.274 85.3738 107.904L83.1411 101.875C81.733 99.2987 78.9782 98.7179 77.0948 99.7726H77.0912Z" fill="#FB8E65"/>
<path d="M81.5527 104.975L77.6851 102.972" stroke="black" stroke-width="0.712667" stroke-miterlimit="10"/>
<path d="M79.268 104.101C79.268 104.101 77.968 105.555 79.6065 106.656" stroke="black" stroke-width="0.712667" stroke-miterlimit="10"/>
<path d="M93.6543 194.005L97.9684 221.09H102.149H106.615" stroke="black" stroke-width="0.712667" stroke-miterlimit="10"/>
<path d="M99.7901 221.094H88.5186" stroke="black" stroke-width="0.712667" stroke-miterlimit="10"/>
<path d="M111.734 196.382C111.734 196.382 110.254 153.85 110.254 143.42C110.254 135.403 105.53 129.106 103.268 126.541C102.836 126.049 102.35 125.607 101.824 125.215L98.1869 122.514L97.3191 130.617L82.5868 121.538L71.7978 124.909C64.9197 127.517 57.7174 136.749 58.1532 152.382C58.931 180.258 58.9706 197.975 58.9706 197.975C58.9706 197.975 55.9348 204.588 56.8495 210.824C56.8495 210.824 99.1016 214.804 113.575 209.199C113.575 209.199 112.617 202.044 111.734 196.382Z" fill="#829C8B"/>
<path d="M110.249 143.419C110.249 135.401 105.524 129.105 103.263 126.539C102.831 126.048 102.345 125.606 101.819 125.214L98.1816 122.513" stroke="black" stroke-width="0.712667" stroke-miterlimit="10"/>
<path d="M131.435 161.984L133.635 157.298C135.738 154.765 137.64 151.875 138.663 152.459C139.199 152.766 140.189 152.908 137.895 156.853C141.353 158.884 139.592 163.303 139.592 163.303" fill="#FB8E65"/>
<path d="M142.433 171.787H151.448C152.623 171.787 153.353 170.836 153.084 169.66L148.78 151.03C148.508 149.854 147.338 148.903 146.163 148.903H137.148C135.973 148.903 135.243 149.854 135.512 151.03L139.816 169.66C140.088 170.836 141.258 171.787 142.433 171.787Z" fill="black"/>
<path d="M151.521 169.932L147.217 151.301C147.073 150.673 146.38 150.102 145.766 150.102H136.459" stroke="#CEFF5A" stroke-width="0.598189" stroke-miterlimit="10"/>
<path d="M131.435 161.986L131.799 161.73C133.084 160.525 133.909 159.841 135.494 159.168C136.786 158.615 138.162 158.277 139.559 158.116L141.331 157.799L142.941 170.577L137.517 171.016L131.435 161.986Z" fill="#FB8E65"/>
<path d="M139.006 158.165C139.006 158.165 149.669 156.227 150.112 158.343C150.559 160.456 139.903 161.304 139.903 161.304" fill="#FB8E65"/>
<path d="M141.207 164.695C141.207 164.695 152.998 164.346 152.637 162.012C152.277 159.678 140.826 161.064 140.826 161.064" fill="#FB8E65"/>
<path d="M141.575 164.705C141.575 164.705 151.309 164.049 151.507 166.291C151.705 168.532 141.316 168.165 141.316 168.165" fill="#FB8E65"/>
<path d="M141.757 168.18C141.757 168.18 148.894 167.706 149.034 169.563C149.175 171.419 138.883 170.895 138.883 170.895" fill="#FB8E65"/>
<path d="M137.903 159.745C137.064 163.568 136.859 166.636 138.667 169.8" stroke="black" stroke-width="0.712667" stroke-miterlimit="10"/>
<path d="M137.514 171.012L131.432 161.983L98.5176 160.64L89.9721 143.279C85.5931 133.971 76.6443 129.375 71.7972 132.414L67.231 155.038L85.1106 175.449C88.1247 179.743 93.512 181.731 98.6292 180.441L137.511 171.012H137.514Z" fill="#FB8E65"/>
<path d="M95.453 154.414L89.9721 143.279C85.5931 133.971 76.6443 129.375 71.7972 132.414L67.231 155.038L80.3067 169.961L95.453 154.411V154.414Z" fill="#829C8B"/>
<path d="M98.5178 160.639L89.9723 143.279C85.5933 133.971 76.6445 129.375 71.7974 132.414" stroke="black" stroke-width="0.712667" stroke-miterlimit="10"/>
<path d="M98.634 180.442C93.5168 181.732 88.126 179.74 85.1154 175.45L70.6641 158.952" stroke="black" stroke-width="0.712667" stroke-miterlimit="10"/>
<path d="M94.1284 160.516L111.738 161.225" stroke="black" stroke-width="0.712667" stroke-miterlimit="10"/>
<path d="M111.733 120.318L130.682 111.499" stroke="black" stroke-width="0.712667" stroke-miterlimit="10"/>
<path d="M124.646 114.208L138.316 84.0835" stroke="black" stroke-width="0.712667" stroke-miterlimit="10"/>
<path d="M67.2271 190.061C67.2271 190.061 84.6421 209.178 105.514 203.013" stroke="black" stroke-width="0.712667" stroke-miterlimit="10"/>
<path d="M234.168 135.765C232.011 131.849 229.108 128.193 228.248 123.814C227.47 119.844 228.475 115.771 228.655 111.734C228.9 106.286 228.824 99.6365 224.935 96.0055C224.935 96.0055 216.397 95.0719 211.106 97.1778C205.813 99.2838 202.075 104.333 200.652 109.799C199.147 115.579 199.932 121.833 197.908 127.456C196.612 131.051 194.221 134.219 193.187 137.896C191.948 142.3 192.95 147.4 196.212 150.639C199.205 153.607 203.591 154.715 207.801 155.193C213.818 155.877 219.954 155.535 225.857 154.184C229.613 153.325 233.596 151.807 235.501 148.49C237.726 144.613 236.325 139.678 234.168 135.765Z" fill="#405FF4"/>
<path d="M203.208 133.982V139.993L218.232 133.982V114.665H203.208V129.093V133.982Z" fill="#FB8E65"/>
<path d="M203.208 121.437V126.561L205.881 121.768L203.208 121.437Z" fill="black"/>
<path d="M218.219 116.304V120.697L215.547 116.635L218.219 116.304Z" fill="black"/>
<path d="M215.547 116.636C213.138 119.644 209.407 122.929 205.576 123.521C195.37 125.096 193.717 117.003 194.686 111.302C196.216 102.297 201.067 95.5484 201.067 95.5484C201.067 95.5484 217.967 83.8678 221.439 105.144C221.99 109.919 218.003 113.568 215.544 116.64L215.547 116.636Z" fill="#FB8E65"/>
<path d="M225.531 96.5991C215.261 85.1074 202.218 91.6924 202.218 91.6924C200.597 92.5262 199.121 93.7556 199.434 94.9956C199.434 94.9956 200.766 103.544 207.634 103.697C209.636 103.744 210.605 102.871 210.983 101.616C211.411 103.473 212.528 106.078 215.394 107.995C215.3 108.262 215.2 108.54 215.092 108.832C213.878 112.15 217.472 113.219 218.167 112.52L221.484 109.185L224.671 109.766L226.766 105.226C227.962 102.639 227.436 98.7264 225.531 96.5956V96.5991Z" fill="#405FF4"/>
<path d="M218.893 104.45C219.059 110.754 218.778 111.905 218.223 117.15C221.281 114.26 222.854 115.087 224.23 111.131C225.609 107.176 229.171 102.351 232.246 102.626C229.952 87.5883 209.048 87.4208 206.75 90.2394C213.203 89.2239 218.637 94.8718 218.889 104.45H218.893Z" fill="#F5009E"/>
<path d="M207.847 110.344C207.48 109.71 206.792 109.271 206.058 109.197C205.323 109.122 204.56 109.417 204.07 109.963" stroke="black" stroke-width="0.712667" stroke-miterlimit="10"/>
<path d="M197.355 107.843C197.301 107.337 196.974 106.863 196.516 106.631C196.055 106.4 195.479 106.414 195.033 106.67" stroke="black" stroke-width="0.712667" stroke-miterlimit="10"/>
<path d="M198.47 103.998C198.128 103.268 197.458 102.694 196.677 102.469C195.895 102.245 195.02 102.366 194.333 102.801" stroke="black" stroke-width="0.712667" stroke-miterlimit="10"/>
<path d="M209.284 105.899C208.942 105.168 208.272 104.595 207.491 104.37C206.709 104.146 205.834 104.267 205.146 104.702" stroke="black" stroke-width="0.712667" stroke-miterlimit="10"/>
<path d="M200.936 107.017C200.936 107.017 197.003 111.967 197.914 114.13C198.825 116.292 200.817 115.038 200.817 115.038" stroke="black" stroke-width="0.712667" stroke-miterlimit="10"/>
<path d="M223.505 108.833C225.392 109.891 226.257 112.122 225.846 113.957C225.436 115.792 221.467 121.803 215.554 116.644L217.7 110.85C219.051 108.373 221.698 107.814 223.509 108.829L223.505 108.833Z" fill="#FB8E65"/>
<path d="M219.214 113.832L222.931 111.908" stroke="black" stroke-width="0.712667" stroke-miterlimit="10"/>
<path d="M221.412 112.997C221.412 112.997 222.662 114.393 221.088 115.452" stroke="black" stroke-width="0.712667" stroke-miterlimit="10"/>
<path d="M206.025 117.482C206.025 117.482 205.337 120.097 202.114 119.413" stroke="black" stroke-width="0.712667" stroke-miterlimit="10"/>
<path d="M102.068 109.918C102.068 109.918 100.256 111.925 97.7068 109.837" stroke="black" stroke-width="0.712667" stroke-miterlimit="10"/>
<path d="M150.635 77.953C150.959 75.0097 151.409 69.0589 149.767 69.0767C147.584 69.1016 147.458 79.8202 147.458 79.8202H147.462L147.206 83.0094C147.199 83.0949 147.149 83.8111 147.142 83.8966C145.337 83.6187 140.238 82.4 139.835 82.8561C139.068 83.7256 142.013 85.9455 145.28 88.5325L149.45 91.5329L158.842 91.7609L160.887 77.0229L150.631 77.953H150.635Z" fill="#FB8E65"/>
<path d="M150.689 78.6082C150.689 78.6082 151.514 67.227 153.898 67.3303C156.282 67.4336 154.359 78.9361 154.359 78.9361" fill="#FB8E65"/>
<path d="M154.437 78.577C154.437 78.577 155.657 69.0059 157.919 69.2446C160.18 69.4834 157.818 79.4963 157.818 79.4963" fill="#FB8E65"/>
<path d="M157.914 79.0704C157.914 79.0704 158.814 72.0542 160.683 72.2751C162.552 72.4961 160.104 82.4342 160.104 82.4342" fill="#FB8E65"/>
<path d="M149.479 77.6583C149.479 77.6583 154.077 76.9991 158.856 78.8876" stroke="black" stroke-width="0.712667" stroke-miterlimit="10"/>
<path d="M159.065 90.1802L173.135 119.752L192.379 128.853C201.551 132.723 206.291 141.075 203.492 145.779L192.995 158.115L161.536 133.671C158.907 131.629 157.103 128.725 156.444 125.482L149.573 91.5556L159.065 90.1837V90.1802Z" fill="#FB8E65"/>
<path d="M183.167 124.491L192.382 128.849C201.554 132.718 206.293 141.071 203.495 145.775L192.998 158.111L172.064 141.848L183.17 124.494L183.167 124.491Z" fill="#CEFF5A"/>
<mask id="mask6_2274_9811" style="mask-type:luminance" maskUnits="userSpaceOnUse" x="172" y="124" width="33" height="35">
<path d="M183.169 124.497L192.384 128.855C201.557 132.724 206.296 141.077 203.498 145.78L193 158.117L172.067 141.854L183.173 124.5L183.169 124.497Z" fill="white"/>
</mask>
<g mask="url(#mask6_2274_9811)">
<path d="M200.749 152.935C202.067 154.239 203.562 155.155 204.999 155.646C203.558 156.138 202.067 157.054 200.749 158.358C199.431 159.662 198.506 161.141 198.009 162.563C197.512 161.138 196.586 159.662 195.268 158.358C193.95 157.054 192.456 156.138 191.019 155.646C192.459 155.155 193.95 154.239 195.268 152.935C196.586 151.631 197.512 150.152 198.009 148.73C198.506 150.155 199.431 151.631 200.749 152.935Z" fill="white"/>
<path d="M200.749 137.133C202.067 138.437 203.562 139.353 204.999 139.845C203.558 140.336 202.067 141.252 200.749 142.556C199.431 143.861 198.506 145.339 198.009 146.761C197.512 145.336 196.586 143.861 195.268 142.556C193.95 141.252 192.456 140.336 191.019 139.845C192.459 139.353 193.95 138.437 195.268 137.133C196.586 135.829 197.512 134.35 198.009 132.928C198.506 134.354 199.431 135.829 200.749 137.133Z" fill="white"/>
<path d="M183 152.935C184.318 154.239 185.812 155.155 187.249 155.646C185.809 156.138 184.318 157.054 183 158.358C181.682 159.662 180.756 161.141 180.259 162.563C179.762 161.138 178.837 159.662 177.519 158.358C176.201 157.054 174.706 156.138 173.27 155.646C174.71 155.155 176.201 154.239 177.519 152.935C178.837 151.631 179.762 150.152 180.259 148.73C180.756 150.155 181.682 151.631 183 152.935Z" fill="white"/>
<path d="M183 137.133C184.318 138.437 185.812 139.353 187.249 139.845C185.809 140.336 184.318 141.252 183 142.556C181.682 143.861 180.756 145.339 180.259 146.761C179.762 145.336 178.837 143.861 177.519 142.556C176.201 141.252 174.706 140.336 173.27 139.845C174.71 139.353 176.201 138.437 177.519 137.133C178.837 135.829 179.762 134.35 180.259 132.928C180.756 134.354 181.682 135.829 183 137.133Z" fill="white"/>
<path d="M200.749 121.119C202.067 122.423 203.562 123.339 204.999 123.831C203.558 124.322 202.067 125.238 200.749 126.542C199.431 127.846 198.506 129.325 198.009 130.747C197.512 129.322 196.586 127.846 195.268 126.542C193.95 125.238 192.456 124.322 191.019 123.831C192.459 123.339 193.95 122.423 195.268 121.119C196.586 119.815 197.512 118.336 198.009 116.914C198.506 118.339 199.431 119.815 200.749 121.119Z" fill="white"/>
<path d="M183 121.119C184.318 122.423 185.812 123.339 187.249 123.831C185.809 124.322 184.318 125.238 183 126.542C181.682 127.846 180.756 129.325 180.259 130.747C179.762 129.322 178.837 127.846 177.519 126.542C176.201 125.238 174.706 124.322 173.27 123.831C174.71 123.339 176.201 122.423 177.519 121.119C178.837 119.815 179.762 118.336 180.259 116.914C180.756 118.339 181.682 119.815 183 121.119Z" fill="white"/>
</g>
<path d="M145.282 88.5325C142.015 85.9419 139.07 83.7255 139.837 82.8561C140.24 82.4 145.339 83.6186 147.143 83.8966C147.151 83.8111 147.201 83.0948 147.208 83.0093L147.464 79.8201H147.46C147.46 79.8201 147.59 69.1016 149.769 69.0767" stroke="black" stroke-width="0.712667" stroke-miterlimit="10"/>
<path d="M185.546 125.618L167.342 117.145" stroke="black" stroke-width="0.712667" stroke-miterlimit="10"/>
<path d="M173.136 119.756L159.062 90.1802" stroke="black" stroke-width="0.712667" stroke-miterlimit="10"/>
<path d="M193.397 137.681C192.209 139.299 192.501 141.572 194.096 142.798C195.49 143.87 197.87 144.825 201.921 144.989C223.56 146.09 222.93 132.575 222.93 132.575L214.817 129.189L198.558 130.668L193.397 137.681Z" fill="#FB8E65"/>
<path d="M223.573 203.744L191.638 315.64C191.638 315.64 181.429 320.971 178.472 312.412L186.967 202.365L223.569 203.744H223.573Z" fill="#405FF4"/>
<path d="M236.004 201.935C236.004 201.935 237.571 217.082 231.679 227.174L244.28 315.976C244.28 315.976 233.682 321.321 231.352 312.74L197.019 225.371V197.192L236.004 201.938V201.935Z" fill="#405FF4"/>
<path d="M231.352 312.735L197.019 225.366V197.187" stroke="black" stroke-width="0.712667" stroke-miterlimit="10"/>
<path d="M202.91 199.35L198.765 225.37H194.75H190.457" stroke="black" stroke-width="0.712667" stroke-miterlimit="10"/>
<path d="M197.019 225.369H207.847" stroke="black" stroke-width="0.712667" stroke-miterlimit="10"/>
<path d="M223.911 132.971L220.746 131.545C220.746 131.545 216.676 146.265 197.356 143.18C187.802 141.654 201.397 130.412 201.397 130.412L199.128 130.608C197.219 130.772 195.491 131.788 194.428 133.363C194.011 133.979 193.546 134.692 193.053 135.472L193.024 135.183C193.024 135.183 175.328 153.481 181.011 163.426C182.584 166.181 184.572 167.742 186.592 168.579C186.171 183.616 185.544 201.629 185.544 201.629C184.698 207.07 236.497 201.935 236.497 201.935C237.376 195.942 236.234 192.072 236.234 192.072C236.234 192.072 236.27 186.143 237.019 159.364C237.437 144.348 230.523 135.476 223.911 132.971Z" fill="#CEFF5A"/>
<mask id="mask7_2274_9811" style="mask-type:luminance" maskUnits="userSpaceOnUse" x="179" y="130" width="59" height="75">
<path d="M223.913 132.971L220.748 131.545C220.748 131.545 216.679 146.265 197.359 143.18C187.805 141.654 201.399 130.412 201.399 130.412L199.13 130.608C197.222 130.772 195.493 131.788 194.431 133.363C194.013 133.979 193.549 134.692 193.055 135.472L193.026 135.183C193.026 135.183 175.33 153.481 181.013 163.426C182.587 166.181 184.575 167.742 186.595 168.579C186.173 183.616 185.547 201.629 185.547 201.629C184.701 207.07 236.499 201.935 236.499 201.935C237.378 195.942 236.236 192.072 236.236 192.072C236.236 192.072 236.272 186.143 237.021 159.364C237.439 144.348 230.525 135.476 223.913 132.971Z" fill="white"/>
</mask>
<g mask="url(#mask7_2274_9811)">
<path d="M236.243 200.325C237.561 201.63 239.055 202.545 240.492 203.037C239.052 203.529 237.561 204.445 236.243 205.749C234.925 207.053 233.999 208.532 233.503 209.953C233.006 208.528 232.08 207.053 230.762 205.749C229.444 204.445 227.95 203.529 226.513 203.037C227.953 202.545 229.444 201.63 230.762 200.325C232.08 199.021 233.006 197.542 233.503 196.121C233.999 197.546 234.925 199.021 236.243 200.325Z" fill="white"/>
<path d="M236.243 184.524C237.561 185.828 239.055 186.744 240.492 187.235C239.052 187.727 237.561 188.643 236.243 189.947C234.925 191.251 233.999 192.73 233.503 194.152C233.006 192.726 232.08 191.251 230.762 189.947C229.444 188.643 227.95 187.727 226.513 187.235C227.953 186.744 229.444 185.828 230.762 184.524C232.08 183.219 233.006 181.741 233.503 180.319C233.999 181.744 234.925 183.219 236.243 184.524Z" fill="white"/>
<path d="M236.243 168.727C237.561 170.031 239.055 170.947 240.492 171.439C239.052 171.931 237.561 172.846 236.243 174.151C234.925 175.455 233.999 176.934 233.503 178.355C233.006 176.93 232.08 175.455 230.762 174.151C229.444 172.846 227.95 171.931 226.513 171.439C227.953 170.947 229.444 170.031 230.762 168.727C232.08 167.423 233.006 165.944 233.503 164.522C233.999 165.948 234.925 167.423 236.243 168.727Z" fill="white"/>
<path d="M236.243 152.936C237.561 154.24 239.055 155.156 240.492 155.647C239.052 156.139 237.561 157.055 236.243 158.359C234.925 159.663 233.999 161.142 233.503 162.564C233.006 161.138 232.08 159.663 230.762 158.359C229.444 157.055 227.95 156.139 226.513 155.647C227.953 155.156 229.444 154.24 230.762 152.936C232.08 151.632 233.006 150.153 233.503 148.731C233.999 150.156 234.925 151.632 236.243 152.936Z" fill="white"/>
<path d="M236.243 137.134C237.561 138.438 239.055 139.354 240.492 139.846C239.052 140.337 237.561 141.253 236.243 142.557C234.925 143.862 233.999 145.34 233.503 146.762C233.006 145.337 232.08 143.862 230.762 142.557C229.444 141.253 227.95 140.337 226.513 139.846C227.953 139.354 229.444 138.438 230.762 137.134C232.08 135.83 233.006 134.351 233.503 132.929C233.999 134.355 234.925 135.83 236.243 137.134Z" fill="white"/>
<path d="M218.496 200.325C219.814 201.63 221.308 202.545 222.745 203.037C221.305 203.529 219.814 204.445 218.496 205.749C217.178 207.053 216.252 208.532 215.755 209.953C215.258 208.528 214.333 207.053 213.015 205.749C211.697 204.445 210.202 203.529 208.766 203.037C210.206 202.545 211.697 201.63 213.015 200.325C214.333 199.021 215.258 197.542 215.755 196.121C216.252 197.546 217.178 199.021 218.496 200.325Z" fill="white"/>
<path d="M218.496 184.524C219.814 185.828 221.308 186.744 222.745 187.235C221.305 187.727 219.814 188.643 218.496 189.947C217.178 191.251 216.252 192.73 215.755 194.152C215.258 192.726 214.333 191.251 213.015 189.947C211.697 188.643 210.202 187.727 208.766 187.235C210.206 186.744 211.697 185.828 213.015 184.524C214.333 183.219 215.258 181.741 215.755 180.319C216.252 181.744 217.178 183.219 218.496 184.524Z" fill="white"/>
<path d="M218.496 168.727C219.814 170.031 221.308 170.947 222.745 171.439C221.305 171.931 219.814 172.846 218.496 174.151C217.178 175.455 216.252 176.934 215.755 178.355C215.258 176.93 214.333 175.455 213.015 174.151C211.697 172.846 210.202 171.931 208.766 171.439C210.206 170.947 211.697 170.031 213.015 168.727C214.333 167.423 215.258 165.944 215.755 164.522C216.252 165.948 217.178 167.423 218.496 168.727Z" fill="white"/>
<path d="M218.496 152.936C219.814 154.24 221.308 155.156 222.745 155.647C221.305 156.139 219.814 157.055 218.496 158.359C217.178 159.663 216.252 161.142 215.755 162.564C215.258 161.138 214.333 159.663 213.015 158.359C211.697 157.055 210.202 156.139 208.766 155.647C210.206 155.156 211.697 154.24 213.015 152.936C214.333 151.632 215.258 150.153 215.755 148.731C216.252 150.156 217.178 151.632 218.496 152.936Z" fill="white"/>
<path d="M218.496 137.134C219.814 138.438 221.308 139.354 222.745 139.846C221.305 140.337 219.814 141.253 218.496 142.557C217.178 143.862 216.252 145.34 215.755 146.762C215.258 145.337 214.333 143.862 213.015 142.557C211.697 141.253 210.202 140.337 208.766 139.846C210.206 139.354 211.697 138.438 213.015 137.134C214.333 135.83 215.258 134.351 215.755 132.929C216.252 134.355 217.178 135.83 218.496 137.134Z" fill="white"/>
<path d="M200.754 200.325C202.072 201.63 203.566 202.545 205.003 203.037C203.563 203.529 202.072 204.445 200.754 205.749C199.436 207.053 198.51 208.532 198.013 209.953C197.516 208.528 196.591 207.053 195.273 205.749C193.955 204.445 192.46 203.529 191.023 203.037C192.464 202.545 193.955 201.63 195.273 200.325C196.591 199.021 197.516 197.542 198.013 196.121C198.51 197.546 199.436 199.021 200.754 200.325Z" fill="white"/>
<path d="M200.754 184.524C202.072 185.828 203.566 186.744 205.003 187.235C203.563 187.727 202.072 188.643 200.754 189.947C199.436 191.251 198.51 192.73 198.013 194.152C197.516 192.726 196.591 191.251 195.273 189.947C193.955 188.643 192.46 187.727 191.023 187.235C192.464 186.744 193.955 185.828 195.273 184.524C196.591 183.219 197.516 181.741 198.013 180.319C198.51 181.744 199.436 183.219 200.754 184.524Z" fill="white"/>
<path d="M200.754 168.727C202.072 170.031 203.566 170.947 205.003 171.439C203.563 171.931 202.072 172.846 200.754 174.151C199.436 175.455 198.51 176.934 198.013 178.355C197.516 176.93 196.591 175.455 195.273 174.151C193.955 172.846 192.46 171.931 191.023 171.439C192.464 170.947 193.955 170.031 195.273 168.727C196.591 167.423 197.516 165.944 198.013 164.522C198.51 165.948 199.436 167.423 200.754 168.727Z" fill="white"/>
<path d="M200.754 152.936C202.072 154.24 203.566 155.156 205.003 155.647C203.563 156.139 202.072 157.055 200.754 158.359C199.436 159.663 198.51 161.142 198.013 162.564C197.516 161.138 196.591 159.663 195.273 158.359C193.955 157.055 192.46 156.139 191.023 155.647C192.464 155.156 193.955 154.24 195.273 152.936C196.591 151.632 197.516 150.153 198.013 148.731C198.51 150.156 199.436 151.632 200.754 152.936Z" fill="white"/>
<path d="M200.754 137.134C202.072 138.438 203.566 139.354 205.003 139.846C203.563 140.337 202.072 141.253 200.754 142.557C199.436 143.862 198.51 145.34 198.013 146.762C197.516 145.337 196.591 143.862 195.273 142.557C193.955 141.253 192.46 140.337 191.023 139.846C192.464 139.354 193.955 138.438 195.273 137.134C196.591 135.83 197.516 134.351 198.013 132.929C198.51 134.355 199.436 135.83 200.754 137.134Z" fill="white"/>
<path d="M183.007 200.325C184.325 201.63 185.819 202.545 187.256 203.037C185.815 203.529 184.325 204.445 183.007 205.749C181.689 207.053 180.763 208.532 180.266 209.953C179.769 208.528 178.844 207.053 177.526 205.749C176.208 204.445 174.713 203.529 173.276 203.037C174.717 202.545 176.208 201.63 177.526 200.325C178.844 199.021 179.769 197.542 180.266 196.121C180.763 197.546 181.689 199.021 183.007 200.325Z" fill="white"/>
<path d="M183.007 184.524C184.325 185.828 185.819 186.744 187.256 187.235C185.815 187.727 184.325 188.643 183.007 189.947C181.689 191.251 180.763 192.73 180.266 194.152C179.769 192.726 178.844 191.251 177.526 189.947C176.208 188.643 174.713 187.727 173.276 187.235C174.717 186.744 176.208 185.828 177.526 184.524C178.844 183.219 179.769 181.741 180.266 180.319C180.763 181.744 181.689 183.219 183.007 184.524Z" fill="white"/>
<path d="M183.007 168.727C184.325 170.031 185.819 170.947 187.256 171.439C185.815 171.931 184.325 172.846 183.007 174.151C181.689 175.455 180.763 176.934 180.266 178.355C179.769 176.93 178.844 175.455 177.526 174.151C176.208 172.846 174.713 171.931 173.276 171.439C174.717 170.947 176.208 170.031 177.526 168.727C178.844 167.423 179.769 165.944 180.266 164.522C180.763 165.948 181.689 167.423 183.007 168.727Z" fill="white"/>
<path d="M183.007 152.936C184.325 154.24 185.819 155.156 187.256 155.647C185.815 156.139 184.325 157.055 183.007 158.359C181.689 159.663 180.763 161.142 180.266 162.564C179.769 161.138 178.844 159.663 177.526 158.359C176.208 157.055 174.713 156.139 173.276 155.647C174.717 155.156 176.208 154.24 177.526 152.936C178.844 151.632 179.769 150.153 180.266 148.731C180.763 150.156 181.689 151.632 183.007 152.936Z" fill="white"/>
<path d="M183.007 137.134C184.325 138.438 185.819 139.354 187.256 139.846C185.815 140.337 184.325 141.253 183.007 142.557C181.689 143.862 180.763 145.34 180.266 146.762C179.769 145.337 178.844 143.862 177.526 142.557C176.208 141.253 174.713 140.337 173.276 139.846C174.717 139.354 176.208 138.438 177.526 137.134C178.844 135.83 179.769 134.351 180.266 132.929C180.763 134.355 181.689 135.83 183.007 137.134Z" fill="white"/>
<path d="M236.243 121.12C237.561 122.424 239.055 123.34 240.492 123.831C239.052 124.323 237.561 125.239 236.243 126.543C234.925 127.847 233.999 129.326 233.503 130.748C233.006 129.323 232.08 127.847 230.762 126.543C229.444 125.239 227.95 124.323 226.513 123.831C227.953 123.34 229.444 122.424 230.762 121.12C232.08 119.816 233.006 118.337 233.503 116.915C233.999 118.34 234.925 119.816 236.243 121.12Z" fill="white"/>
<path d="M218.496 121.12C219.814 122.424 221.308 123.34 222.745 123.831C221.305 124.323 219.814 125.239 218.496 126.543C217.178 127.847 216.252 129.326 215.755 130.748C215.258 129.323 214.333 127.847 213.015 126.543C211.697 125.239 210.202 124.323 208.766 123.831C210.206 123.34 211.697 122.424 213.015 121.12C214.333 119.816 215.258 118.337 215.755 116.915C216.252 118.34 217.178 119.816 218.496 121.12Z" fill="white"/>
<path d="M200.754 121.12C202.072 122.424 203.566 123.34 205.003 123.831C203.563 124.323 202.072 125.239 200.754 126.543C199.436 127.847 198.51 129.326 198.013 130.748C197.516 129.323 196.591 127.847 195.273 126.543C193.955 125.239 192.46 124.323 191.023 123.831C192.464 123.34 193.955 122.424 195.273 121.12C196.591 119.816 197.516 118.337 198.013 116.915C198.51 118.34 199.436 119.816 200.754 121.12Z" fill="white"/>
<path d="M183.007 121.12C184.325 122.424 185.819 123.34 187.256 123.831C185.815 124.323 184.325 125.239 183.007 126.543C181.689 127.847 180.763 129.326 180.266 130.748C179.769 129.323 178.844 127.847 177.526 126.543C176.208 125.239 174.713 124.323 173.276 123.831C174.717 123.34 176.208 122.424 177.526 121.12C178.844 119.816 179.769 118.337 180.266 116.915C180.763 118.34 181.689 119.816 183.007 121.12Z" fill="white"/>
</g>
<path d="M193.024 135.184C193.024 135.184 175.328 153.482 181.011 163.427C182.991 166.891 185.62 168.476 188.148 169.096" stroke="black" stroke-width="0.712667" stroke-miterlimit="10"/>
<path d="M174.897 178.45L171.872 174.491C169.38 172.531 167.003 170.201 166.16 170.953C165.721 171.348 164.821 171.68 167.781 174.926C164.95 177.527 167.507 181.322 167.507 181.322" fill="#FB8E65"/>
<path d="M163.507 190.533H155.09C153.992 190.533 153.311 189.645 153.562 188.547L157.581 171.151C157.835 170.053 158.927 169.165 160.025 169.165H168.442C169.54 169.165 170.221 170.053 169.97 171.151L165.951 188.547C165.697 189.645 164.605 190.533 163.507 190.533Z" fill="black"/>
<path d="M155.02 188.8L159.039 171.404C159.173 170.817 159.821 170.284 160.393 170.284H169.084" stroke="#405FF4" stroke-width="0.558556" stroke-miterlimit="10"/>
<path d="M174.899 178.451L174.503 178.284C173.048 177.411 172.133 176.933 170.509 176.616C169.181 176.356 167.823 176.313 166.476 176.445L164.748 176.502L165.85 188.824L171.032 188.147L174.896 178.451H174.899Z" fill="#FB8E65"/>
<path d="M167.01 176.377C167.01 176.377 156.602 176.695 156.617 178.768C156.631 180.842 166.808 179.506 166.808 179.506" fill="#FB8E65"/>
<path d="M166.279 182.958C166.279 182.958 155.137 184.993 154.997 182.73C154.856 180.467 165.894 179.477 165.894 179.477" fill="#FB8E65"/>
<path d="M165.93 183.041C165.93 183.041 156.657 184.373 156.927 186.518C157.2 188.663 166.884 186.237 166.884 186.237" fill="#FB8E65"/>
<path d="M166.473 186.338C166.473 186.338 159.674 187.321 159.923 189.092C160.171 190.863 169.729 188.312 169.729 188.312" fill="#FB8E65"/>
<path d="M168.366 177.64C169.933 181.06 170.754 183.9 169.706 187.236" stroke="black" stroke-width="0.712667" stroke-miterlimit="10"/>
<path d="M171.031 188.146L174.895 178.45L205.53 170.596L210.002 152.58C212.213 142.963 219.671 136.855 224.85 138.74L233.766 159.072L221.148 181.821C219.196 186.457 214.543 189.404 209.473 189.218L171.031 188.149V188.146Z" fill="#FB8E65"/>
<path d="M207.134 164.136L210.004 152.58C212.215 142.963 219.673 136.855 224.851 138.74L233.768 159.072L224.542 175.706L207.137 164.136H207.134Z" fill="#CEFF5A"/>
<mask id="mask8_2274_9811" style="mask-type:luminance" maskUnits="userSpaceOnUse" x="207" y="138" width="27" height="38">
<path d="M207.141 164.144L210.011 152.588C212.222 142.97 219.68 136.863 224.859 138.748L233.775 159.08L224.549 175.714L207.145 164.144H207.141Z" fill="white"/>
</mask>
<g mask="url(#mask8_2274_9811)">
<path d="M236.249 168.732C237.567 170.036 239.061 170.952 240.498 171.444C239.058 171.936 237.567 172.851 236.249 174.155C234.931 175.46 234.005 176.938 233.508 178.36C233.011 176.935 232.086 175.46 230.768 174.155C229.45 172.851 227.955 171.936 226.519 171.444C227.959 170.952 229.45 170.036 230.768 168.732C232.086 167.428 233.011 165.949 233.508 164.527C234.005 165.953 234.931 167.428 236.249 168.732Z" fill="white"/>
<path d="M236.249 152.941C237.567 154.245 239.061 155.161 240.498 155.652C239.058 156.144 237.567 157.06 236.249 158.364C234.931 159.668 234.005 161.147 233.508 162.569C233.011 161.143 232.086 159.668 230.768 158.364C229.45 157.06 227.955 156.144 226.519 155.652C227.959 155.161 229.45 154.245 230.768 152.941C232.086 151.636 233.011 150.158 233.508 148.736C234.005 150.161 234.931 151.636 236.249 152.941Z" fill="white"/>
<path d="M236.249 137.139C237.567 138.443 239.061 139.359 240.498 139.851C239.058 140.343 237.567 141.259 236.249 142.563C234.931 143.867 234.005 145.346 233.508 146.767C233.011 145.342 232.086 143.867 230.768 142.563C229.45 141.259 227.955 140.343 226.519 139.851C227.959 139.359 229.45 138.443 230.768 137.139C232.086 135.835 233.011 134.356 233.508 132.935C234.005 134.36 234.931 135.835 236.249 137.139Z" fill="white"/>
<path d="M218.502 168.732C219.82 170.036 221.315 170.952 222.752 171.444C221.311 171.936 219.82 172.851 218.502 174.155C217.184 175.46 216.259 176.938 215.762 178.36C215.265 176.935 214.339 175.46 213.021 174.155C211.703 172.851 210.209 171.936 208.772 171.444C210.212 170.952 211.703 170.036 213.021 168.732C214.339 167.428 215.265 165.949 215.762 164.527C216.259 165.953 217.184 167.428 218.502 168.732Z" fill="white"/>
<path d="M218.502 152.941C219.82 154.245 221.315 155.161 222.752 155.652C221.311 156.144 219.82 157.06 218.502 158.364C217.184 159.668 216.259 161.147 215.762 162.569C215.265 161.143 214.339 159.668 213.021 158.364C211.703 157.06 210.209 156.144 208.772 155.652C210.212 155.161 211.703 154.245 213.021 152.941C214.339 151.636 215.265 150.158 215.762 148.736C216.259 150.161 217.184 151.636 218.502 152.941Z" fill="white"/>
<path d="M218.502 137.139C219.82 138.443 221.315 139.359 222.752 139.851C221.311 140.343 219.82 141.259 218.502 142.563C217.184 143.867 216.259 145.346 215.762 146.767C215.265 145.342 214.339 143.867 213.021 142.563C211.703 141.259 210.209 140.343 208.772 139.851C210.212 139.359 211.703 138.443 213.021 137.139C214.339 135.835 215.265 134.356 215.762 132.935C216.259 134.36 217.184 135.835 218.502 137.139Z" fill="white"/>
</g>
<path d="M205.53 170.596L210.002 152.58C212.214 142.963 219.671 136.855 224.85 138.74" stroke="black" stroke-width="0.712667" stroke-miterlimit="10"/>
<path d="M209.475 189.217C214.545 189.402 219.198 186.455 221.15 181.819L231.348 163.433" stroke="black" stroke-width="0.712667" stroke-miterlimit="10"/>
<path d="M209.629 169.601L193.241 173.791" stroke="black" stroke-width="0.712667" stroke-miterlimit="10"/>
<path d="M231.348 195.994C231.348 195.994 200.936 199.351 190.457 198.111" stroke="black" stroke-width="0.712667" stroke-miterlimit="10"/>
<path d="M139.31 56.5411C138.046 53.213 136.785 49.8848 135.521 46.5566" stroke="#405FF4" stroke-width="1.41408" stroke-miterlimit="10"/>
<path d="M150.711 55.4052C151.471 50.7016 152.231 45.998 152.991 41.2944" stroke="#405FF4" stroke-width="1.41408" stroke-miterlimit="10"/>
<path d="M160.919 59.7964C163.875 56.0371 166.832 52.2777 169.789 48.522" stroke="#405FF4" stroke-width="1.41408" stroke-miterlimit="10"/>
<path d="M167.857 68.8184C171.177 67.4607 174.497 66.1031 177.818 64.749" stroke="#405FF4" stroke-width="1.41408" stroke-miterlimit="10"/>
<path d="M94.9193 49.6172L93.821 54.2495L89.2188 52.8741L92.7262 56.1274L89.2188 59.3843L93.821 58.0088L94.9193 62.6412L96.0141 58.0088L100.62 59.3843L97.1124 56.1274L100.62 52.8741L96.0141 54.2495L94.9193 49.6172Z" fill="#F5009E"/>
<path d="M249.511 99.3481L248.766 101.746L246.342 102.484L248.766 103.225L249.511 105.623L250.26 103.225L252.684 102.484L250.26 101.746L249.511 99.3481Z" fill="#D1E5D8"/>
<path d="M56.2446 65.369C56.2446 64.6029 56.8712 63.9829 57.6455 63.9829C58.4197 63.9829 59.0463 64.6029 59.0463 65.369C59.0463 66.1352 58.4197 66.7552 57.6455 66.7552C56.8712 66.7552 56.2446 66.1352 56.2446 65.369Z" fill="white"/>
<path d="M234.267 71.9757C234.634 71.6122 234.893 71.1989 235.03 70.7998C235.167 71.1989 235.426 71.6087 235.793 71.9757C236.161 72.3392 236.578 72.5957 236.982 72.7311C236.578 72.8665 236.164 73.1231 235.793 73.4866C235.426 73.85 235.167 74.2634 235.03 74.6625C234.893 74.2634 234.634 73.8536 234.267 73.4866C233.899 73.1231 233.481 72.8665 233.078 72.7311C233.481 72.5957 233.896 72.3392 234.267 71.9757Z" fill="#F5009E"/>
<path d="M48.6964 104.852C49.5534 104.004 50.1548 103.042 50.4789 102.115C50.7994 103.042 51.4044 104.004 52.2615 104.852C53.1186 105.7 54.0908 106.295 55.0271 106.616C54.0908 106.933 53.1186 107.532 52.2615 108.38C51.4044 109.228 50.803 110.19 50.4789 111.116C50.1548 110.19 49.5534 109.228 48.6964 108.38C47.8393 107.532 46.867 106.936 45.9307 106.616C46.867 106.299 47.8393 105.7 48.6964 104.852Z" fill="#CEFF5A"/>
<path d="M160.887 151.55C161.964 150.481 162.724 149.273 163.131 148.107C163.538 149.273 164.294 150.481 165.371 151.55C166.448 152.615 167.672 153.367 168.849 153.766C167.672 154.169 166.448 154.917 165.371 155.986C164.294 157.051 163.534 158.263 163.131 159.428C162.724 158.263 161.968 157.055 160.887 155.986C159.811 154.921 158.586 154.169 157.409 153.766C158.586 153.363 159.811 152.615 160.887 151.55Z" fill="black"/>
<path d="M235.456 37.406L231.412 33.4048L227.368 37.406L231.412 41.4072L235.456 37.406Z" fill="#405FF4"/>
</g>
</g>
</svg>
