<svg width="307" height="245" viewBox="0 0 307 245" fill="none" xmlns="http://www.w3.org/2000/svg">
<path d="M197.924 73.5681C176.003 50.7697 160.621 24.9058 152.332 0C144.134 24.9058 128.659 50.7697 106.738 73.5681C84.8163 96.3666 59.9479 112.364 36 120.985C59.9479 129.51 84.8163 145.603 106.738 168.402C128.659 191.2 144.042 217.064 152.332 241.97C160.621 217.064 176.003 191.2 197.924 168.402C219.846 145.603 244.716 129.606 268.663 120.985C244.716 112.46 219.846 96.3666 197.924 73.5681Z" fill="#FAF4E7"/>
<mask id="mask0_16387_11873" style="mask-type:alpha" maskUnits="userSpaceOnUse" x="0" y="22" width="307" height="223">
<rect y="22.5308" width="306.367" height="222.284" fill="#D9D9D9"/>
</mask>
<g mask="url(#mask0_16387_11873)">
<path d="M61.7006 30L60.6023 34.6323L56 33.2569L59.5075 36.5102L56 39.7671L60.6023 38.3917L61.7006 43.024L62.7953 38.3917L67.4012 39.7671L63.8937 36.5102L67.4012 33.2569L62.7953 34.6323L61.7006 30Z" fill="#F5009E"/>
<path d="M297.169 57L296.424 59.3981L294 60.1357L296.424 60.8769L297.169 63.275L297.918 60.8769L300.342 60.1357L297.918 59.3981L297.169 57Z" fill="#D1E5D8"/>
<path d="M47 71.3861C47 70.62 47.6266 70 48.4008 70C49.1751 70 49.8017 70.62 49.8017 71.3861C49.8017 72.1523 49.1751 72.7723 48.4008 72.7723C47.6266 72.7723 47 72.1523 47 71.3861Z" fill="white"/>
<path d="M262 46.3861C262 45.62 262.627 45 263.401 45C264.175 45 264.802 45.62 264.802 46.3861C264.802 47.1523 264.175 47.7723 263.401 47.7723C262.627 47.7723 262 47.1523 262 46.3861Z" fill="white"/>
<path d="M10.7657 76.7366C11.6228 75.8886 12.2241 74.9265 12.5482 74C12.8687 74.9265 13.4737 75.8886 14.3308 76.7366C15.1879 77.5847 16.1602 78.1798 17.0965 78.5005C16.1602 78.8176 15.1879 79.4163 14.3308 80.2643C13.4737 81.1124 12.8723 82.0745 12.5482 83.001C12.2241 82.0745 11.6228 81.1124 10.7657 80.2643C9.90862 79.4163 8.93629 78.8212 8 78.5005C8.93629 78.1834 9.90862 77.5847 10.7657 76.7366Z" fill="#CEFF5A"/>
</g>
<path d="M19.0443 42.893C18.7678 42.6156 18.5732 42.3018 18.4683 41.9995C18.3643 42.3018 18.1697 42.6156 17.8933 42.893C17.6168 43.1695 17.3031 43.3642 17 43.4683C17.3022 43.5723 17.6159 43.767 17.8933 44.0444C18.1697 44.3209 18.3643 44.6347 18.4683 44.937C18.5723 44.6347 18.767 44.3209 19.0443 44.0444C19.3207 43.7679 19.6344 43.5732 19.9375 43.4683C19.6353 43.3642 19.3216 43.1695 19.0443 42.893Z" fill="#F3019C"/>
<path d="M248.22 79.7181C247.379 78.8741 246.787 77.9192 246.467 76.9995C246.151 77.9192 245.559 78.8741 244.718 79.7181C243.877 80.5594 242.922 81.1518 242 81.4683C242.919 81.7848 243.874 82.3772 244.718 83.2211C245.559 84.0624 246.151 85.0173 246.467 85.937C246.784 85.0173 247.376 84.0624 248.22 83.2211C249.061 82.3799 250.015 81.7875 250.938 81.4683C250.018 81.1518 249.063 80.5594 248.22 79.7181Z" fill="#405FF4"/>
<path d="M216.707 12.9995L218.382 20.2269L225.417 18.0812L220.061 23.1593L225.417 28.2375L218.382 26.0917L216.707 33.3191L215.031 26.0917L208 28.2375L213.356 23.1593L208 18.0812L215.031 20.2269L216.707 12.9995Z" fill="#CEFF5A"/>
<path d="M228.196 242.035L225.022 202.674L155.271 204.239L152.469 242.035H228.196Z" fill="#C7FF5A"/>
<path d="M179.735 226.1L179.687 225.579C179.687 225.484 178.549 216.759 178.644 203.15V202.628H179.687V203.15C179.592 216.712 180.683 225.342 180.683 225.436L180.778 225.958L179.735 226.1Z" fill="black"/>
<path d="M180.103 223.4L179.629 223.163C175.835 221.076 174.128 215.054 174.318 204.148V203.674H175.361V204.195C175.171 214.675 176.689 220.412 180.15 222.262L180.577 222.499L180.103 223.4Z" fill="black"/>
<path d="M222.294 240.916L215.292 200.542L216.335 200.447L223.337 240.821L222.294 240.916Z" fill="black"/>
<path d="M221.311 223.589L220.837 223.447C216.569 222.214 212.681 219.653 209.836 216.287C206.99 212.92 205.141 208.605 204.62 204.242L204.525 203.721L205.568 203.579L205.615 204.1C206.137 208.32 207.891 212.398 210.594 215.623C213.344 218.847 217.043 221.266 221.121 222.451L221.595 222.593L221.311 223.589Z" fill="black"/>
<path d="M225.012 202.676L222.357 109.879L184.233 104.379L142.695 114.479L155.26 204.241C165.408 212.492 225.012 202.676 225.012 202.676Z" fill="white"/>
<path d="M238.989 220.467C239.605 227.011 233.915 229.429 233.915 229.429C235.527 231.184 232.967 239.103 227.229 234.219C224.906 236.258 223.151 234.645 223.151 234.645C221.349 236.874 218.504 234.645 218.504 234.645C215.517 236.542 210.823 227.675 211.724 222.981C212.577 218.286 225.522 215.014 225.522 215.014C225.522 215.014 231.734 171.58 231.876 169.446C231.924 168.403 229.932 163.898 227.846 159.583C225.712 155.078 223.531 150.763 223.531 150.763L238.373 141.232L240.032 140.142L240.696 140.284L246.054 141.28C246.054 141.28 254.305 158.635 255.206 170.062C256.154 181.49 238.989 220.467 238.989 220.467Z" fill="#EF8D64"/>
<path d="M227.181 234.641L226.754 234.356C223.719 232.365 223.482 229.615 223.482 229.52L223.435 228.998L224.478 228.903V229.425C224.525 229.52 224.715 231.796 227.323 233.455L227.75 233.74L227.181 234.641Z" fill="black"/>
<path d="M223.16 235.071L222.733 234.834C220.979 233.839 219.604 230.472 219.509 230.33L219.319 229.855L220.315 229.476L220.505 229.95C220.836 230.851 222.022 233.27 223.207 233.933L223.682 234.17L223.16 235.071Z" fill="black"/>
<path d="M218.269 235.11L217.937 234.684C216.799 233.309 215.993 230.416 215.993 230.274L215.851 229.8L216.847 229.515L216.989 230.037C216.989 230.037 217.748 232.834 218.744 234.02L219.075 234.399L218.269 235.11Z" fill="black"/>
<path d="M230.454 230.801L230.407 229.757L230.928 229.71C231.782 229.663 232.636 229.425 233.394 229.094L233.868 228.856L234.295 229.757L233.868 229.994C232.967 230.421 231.972 230.706 230.976 230.753L230.454 230.801Z" fill="black"/>
<path d="M246.063 141.281C231.316 146.686 227.997 159.916 227.902 159.631C227.902 159.631 227.886 159.616 227.855 159.584C225.721 155.079 223.54 150.764 223.54 150.764L238.381 141.233L240.705 140.285L243.408 139.194L246.063 141.281Z" fill="black"/>
<path d="M222.363 109.883C232.794 111.401 246.071 141.274 246.071 141.274C237.584 142.886 222.363 153.128 222.363 153.128V109.883Z" fill="white"/>
<path d="M224.261 176.223C224.072 176.223 223.929 176.08 223.929 175.891L222.459 131.555C222.459 131.365 222.602 131.176 222.791 131.176C222.981 131.176 223.123 131.318 223.171 131.508L224.593 175.891C224.641 176.08 224.451 176.223 224.261 176.223Z" fill="black"/>
<path d="M162.582 200.877C170.027 241.277 163.796 209.231 171.087 242.04H92.1039C101.303 189.833 93.9209 238.764 97.2401 200.877H162.582Z" fill="#EE0197"/>
<path d="M135.344 226.101L134.301 225.958L134.348 225.437C134.395 225.389 135.249 218.277 132.688 204.62L132.594 204.099L133.589 203.909L133.684 204.431C136.292 218.277 135.439 225.295 135.391 225.579L135.344 226.101Z" fill="black"/>
<path d="M134.987 219.654L134.323 218.847L134.703 218.516C134.75 218.516 138.543 215.101 136.931 204.812L136.836 204.29L137.88 204.148L137.927 204.67C139.634 215.576 135.556 219.179 135.414 219.322L134.987 219.654Z" fill="black"/>
<path d="M94.8485 238.15L94.0898 237.439L94.4692 237.059C94.5166 237.012 99.4481 231.369 100.491 215.01L100.539 214.488L101.534 214.536V215.057C100.444 231.891 95.4176 237.533 95.2279 237.77L94.8485 238.15Z" fill="black"/>
<path d="M163.668 199.781L96.3816 202.674C96.3816 202.674 94.5323 208.316 95.4806 209.834C96.3816 211.351 125.069 209.786 132.941 209.644C140.86 209.502 164.521 210.023 165.944 208.838C167.414 207.605 163.668 199.781 163.668 199.781Z" fill="#C7FF5A"/>
<path d="M98.7538 111.385C83.3904 108.777 94.3439 105.789 94.3439 105.789C86.2355 92.7022 96.5726 95.405 96.5726 95.405C96.0036 89.7148 117.436 94.3143 117.436 94.3143C117.436 94.3143 126.636 78.951 136.498 79.5674C146.361 80.1838 140.719 89.3355 140.719 89.3355C140.719 89.3355 145.081 86.8223 147.926 87.9603C150.724 89.0984 147.12 94.3143 147.12 94.3143L98.7538 111.385Z" fill="#C7FF5A"/>
<path d="M92.0706 161.278C92.0706 161.278 93.8251 189.113 93.7303 191.578C89.5575 195.135 90.8852 201.346 97.3814 204.334C103.925 207.274 158.408 203.812 164.43 200.872C170.452 197.885 166.991 189.113 165.142 187.074C161.158 173.797 161.158 125.051 161.158 125.051L173.724 109.308L174.862 84.0347L119.241 101.674C119.241 101.674 95.3425 106.274 84.0096 118.223C72.7242 130.125 55.3692 164.93 55.6537 179.25C55.9856 193.522 66.465 220.883 77.7978 221.973C88.941 218.701 93.7303 209.645 94.0148 205.472C94.3467 201.252 92.4974 188.496 85.1476 178.823L92.0706 161.278Z" fill="#3664FF"/>
<path d="M92.065 161.271L91.4011 139.696L85.9955 176.635L92.065 161.271Z" fill="black"/>
<path d="M110.639 175.27C127.71 171.572 144.116 172.805 144.116 172.805C145.444 180.771 154.216 187.077 154.216 187.077V196.988C121.688 203.105 103.005 199.738 103.005 199.738V192.388C107.083 190.254 110.639 175.27 110.639 175.27Z" fill="#C7FF5A"/>
<path d="M94.4384 213.34L83.7219 224.009C86.8515 233.588 95.7187 236.196 95.7187 236.196C98.3741 231.976 99.7966 225.716 100.698 218.699L94.4384 213.34Z" fill="#EF8D64"/>
<path d="M92.3502 208.375C90.4061 207.711 78.3619 218.048 78.5042 220.134C78.6939 222.268 81.0648 224.639 82.8666 224.734C84.6211 224.829 95.1479 214.776 95.1953 212.974C95.2427 211.173 93.1089 208.659 92.3502 208.375Z" fill="#C7FF5A"/>
<path d="M110.28 106.91L108.81 90.6931L102.931 69.2602L126.023 60.3931C131.286 71.6785 133.231 89.0809 125.312 90.2663L129.485 101.931L121.945 111.415L110.28 106.91Z" fill="#EF8D64"/>
<path d="M101.567 68.2605C99.2911 72.1014 96.9202 75.9897 96.1141 80.3521C95.9719 81.1108 95.9245 82.0118 96.446 82.5808C96.9202 83.0549 97.6315 83.1024 98.2953 83.0549C100.002 82.9601 101.615 82.3911 103.037 81.4901C103.037 82.3437 102.753 83.1023 102.658 83.9084C102.563 84.7145 102.658 85.6155 103.179 86.2319C103.701 86.8484 104.554 87.038 105.361 86.9906C106.167 86.8958 106.878 86.5639 107.684 86.3742L104.128 73.9033C106.214 73.2394 108.158 71.9592 109.533 70.2521C110.908 68.5451 111.762 66.4113 111.904 64.1826L101.567 68.2605Z" fill="#3664FF"/>
<path d="M126.557 75.7695L126.66 75.814V75.7091L126.662 75.7042C126.665 75.6952 126.67 75.6823 126.676 75.6652C126.682 75.6483 126.69 75.6291 126.698 75.6072C126.707 75.5836 126.717 75.5569 126.728 75.5263C126.772 75.4108 126.828 75.2536 126.882 75.0767C126.989 74.7262 127.089 74.2856 127.039 73.936L127.039 73.936L127.039 73.9352C127.012 73.7578 126.88 73.563 126.709 73.3736C126.535 73.1812 126.311 72.9827 126.081 72.7979C125.723 72.5089 125.344 72.2481 125.118 72.0926C125.056 72.0495 125.005 72.0145 124.97 71.9892L124.903 71.9413L124.862 72.0129L124.672 72.3448L124.637 72.407L124.697 72.4449C125.074 72.6804 125.522 72.9986 125.887 73.2987C126.069 73.4488 126.23 73.5934 126.35 73.7199C126.41 73.7832 126.459 73.8411 126.495 73.8921C126.53 73.9406 126.551 73.9794 126.56 74.0085C126.58 74.2304 126.525 74.5358 126.443 74.8274C126.361 75.1203 126.256 75.3883 126.187 75.5254L126.152 75.5961L126.225 75.6272L126.557 75.7695ZM126.659 75.7127L126.659 75.7127C126.659 75.7134 126.659 75.7138 126.659 75.7138C126.659 75.7138 126.659 75.7135 126.659 75.7127Z" fill="#010000" stroke="black" stroke-width="0.148959"/>
<path d="M128.092 77.8311C125.152 77.594 121.501 78.8268 121.501 78.8268C123.066 83.2367 128.471 82.8099 128.092 77.8311Z" fill="white"/>
<path d="M111.43 115.435L110.955 115.245C110.861 115.245 103.843 112.447 94.454 111.025L93.9324 110.93L94.0746 109.934L94.5962 109.981C104.08 111.451 111.287 114.249 111.335 114.297L111.809 114.486L111.43 115.435Z" fill="black"/>
<path d="M140.531 107.133L139.582 106.706L139.819 106.232C139.867 106.137 143.328 98.3131 147.311 93.0972L147.596 92.6704L148.449 93.3343L148.117 93.7136C144.229 98.8348 140.815 106.564 140.768 106.659L140.531 107.133Z" fill="black"/>
<path d="M158.603 128.759L157.797 128.095L173.634 108.606L174.441 109.27L158.603 128.759Z" fill="black"/>
<path d="M85.0953 179.645L84.716 179.265C83.3883 177.89 81.8709 176.752 80.1165 175.946L79.6897 175.709L80.1165 174.761L80.5906 174.998C82.4399 175.899 84.0521 177.084 85.4747 178.554L85.854 178.886L85.0953 179.645Z" fill="black"/>
<path d="M120.949 153.941L120.807 153.42C118.009 140.712 117.108 127.672 118.104 114.679L118.151 114.158L119.195 114.253L119.147 114.774C118.151 127.672 119.052 140.569 121.85 153.183L121.945 153.704L120.949 153.941Z" fill="black"/>
<path d="M137.686 147.684L137.639 147.163C136.548 135.451 132.66 124.023 126.306 114.113L126.069 113.686L126.922 113.117L127.207 113.543C133.608 123.596 137.591 135.213 138.682 147.068L138.729 147.59L137.686 147.684Z" fill="black"/>
<path d="M121.946 111.926C121.883 111.926 121.82 111.911 121.757 111.879L108.954 106.9L109.333 105.952L121.804 110.788L129.77 100.736L130.576 101.352L122.373 111.737C122.278 111.879 122.136 111.926 121.946 111.926Z" fill="black"/>
<path d="M122.134 153.566C122.134 154.041 121.802 154.42 121.328 154.42C120.901 154.42 120.522 154.041 120.522 153.566C120.522 153.14 120.901 152.76 121.328 152.76C121.802 152.76 122.134 153.14 122.134 153.566Z" fill="#C7FF5A"/>
<path d="M138.958 147.354C138.958 147.828 138.579 148.16 138.152 148.16C137.678 148.16 137.346 147.828 137.346 147.354C137.346 146.927 137.678 146.547 138.152 146.547C138.579 146.547 138.958 146.927 138.958 147.354Z" fill="#C7FF5A"/>
<path d="M195.001 164.556L201.307 154.124C202.777 151.658 202.018 148.481 199.553 147.012L175.038 132.122C172.572 130.652 169.395 131.458 167.925 133.877L161.571 144.309C160.101 146.774 160.907 149.951 163.325 151.421L187.888 166.311C190.354 167.781 193.531 166.974 195.001 164.556Z" fill="#4C6700"/>
<path d="M174.218 134.565C172.811 133.712 170.979 134.162 170.126 135.569L164.109 145.504C163.257 146.911 163.706 148.743 165.113 149.596L188.658 163.863C190.065 164.716 191.897 164.266 192.75 162.858L198.767 152.923C199.62 151.516 199.17 149.684 197.763 148.832L174.218 134.565Z" fill="#FAF4E7"/>
<path d="M176.754 148.774C176.422 147.398 175.853 146.26 175.094 145.359C176.232 145.597 177.512 145.597 178.888 145.265C180.215 144.933 181.353 144.364 182.254 143.605C182.017 144.743 182.017 146.023 182.349 147.398C182.681 148.726 183.25 149.912 184.009 150.765C182.871 150.528 181.59 150.528 180.215 150.86C178.888 151.192 177.749 151.808 176.849 152.52C177.086 151.382 177.086 150.101 176.754 148.774Z" fill="black"/>
<path d="M204.494 62.5642C203.925 61.1417 202.502 60.0985 200.985 60.0511C201.554 58.9605 201.411 57.5379 200.7 56.5421C199.989 55.5464 198.566 54.7877 197.333 54.9299C197.95 53.46 198.566 51.9426 198.661 50.3304C198.756 48.7656 198.234 47.0112 196.954 46.0628C196.243 45.5886 195.389 45.3515 194.583 45.2093C192.402 44.8299 190.173 45.067 188.087 45.8257C188.182 44.6877 188.182 43.4074 187.471 42.5065C186.664 41.5581 185.242 41.3684 184.056 41.7003C182.871 42.0323 181.78 42.791 180.785 43.5496C179.836 42.6961 178.509 42.3168 177.276 42.5065C176.043 42.7436 174.905 43.5022 174.288 44.5928C172.439 42.6961 169.262 42.2219 166.939 43.5022C164.615 44.7825 163.335 47.675 163.904 50.2355C162.718 50.5675 161.96 51.7529 161.723 52.9858C161.485 54.1713 161.77 55.4041 162.007 56.637C160.016 56.7792 158.214 58.1543 157.36 59.9562C156.554 61.7581 156.649 63.9393 157.645 65.6938C158.593 67.4482 160.347 68.7285 162.292 69.1553C161.723 69.9614 161.675 71.0046 162.055 71.8581C162.481 72.7116 163.382 73.2807 164.331 73.3281C163.524 73.9445 163.524 75.3196 164.283 76.0309C164.994 76.7421 166.132 76.8844 167.128 76.5525C168.077 76.2205 168.883 75.5093 169.499 74.7032L188.514 81.5787C190.695 81.8633 192.924 80.4407 193.587 78.4018C194.583 79.1605 196.148 78.8285 197.001 77.8802C197.808 76.9318 198.045 75.6041 197.95 74.3713C198.566 74.798 199.515 74.6557 200.178 74.1816C200.795 73.66 201.079 72.8539 201.127 72.0952C201.174 71.2891 201.079 70.483 200.795 69.7717C202.17 69.2027 203.403 68.2069 204.162 66.8792C204.92 65.5989 205.063 63.9393 204.494 62.5642Z" fill="#D8FE74"/>
<path d="M173.719 109.319L174.62 91.3007C166.274 89.3566 168.124 66.596 168.503 60.3843L191.074 61.0955L195.863 107.992C193.018 113.919 178.84 115.673 173.719 109.319Z" fill="#EF8D64"/>
<path d="M194.199 60.143C192.112 57.8196 189.172 56.4445 186.185 55.7806C180.21 54.5003 173.761 55.828 168.783 59.337L167.976 59.0524C166.744 59.4792 165.985 60.8543 166.175 62.1346C166.364 63.4623 167.55 64.5055 168.877 64.5529C170.158 64.6478 171.438 63.6994 171.77 62.4191C172.292 63.1304 173.382 63.2252 174.188 62.8933C174.994 62.5614 175.611 61.8975 176.227 61.2337C176.227 62.0398 176.891 62.751 177.65 62.8458C178.408 62.9881 179.262 62.5139 179.499 61.7553C180.021 63.2252 181.822 63.9365 183.34 63.652C184.857 63.3675 186.09 62.2769 187.086 61.044C186.801 61.8975 186.944 62.8933 187.418 63.652C187.892 64.4107 188.698 64.9323 189.599 65.0271C188.082 66.3548 187.702 68.7731 188.745 70.4802C189.789 72.1872 192.207 72.8984 194.009 71.9975C195.242 71.3337 196.048 70.0534 196.475 68.7257C197.328 65.7383 196.285 62.4191 194.199 60.143Z" fill="#D8FE74"/>
<path d="M174.615 91.2956C177.84 91.7224 182.297 91.1534 183.435 90.2524C180.163 94.7097 174.425 95.4684 174.425 95.4684L174.615 91.2956Z" fill="black"/>
<path d="M179.025 73.7779L179.148 73.8307L179.201 73.7075C179.466 73.0882 180.043 72.642 180.712 72.5067C181.383 72.4186 182.091 72.6442 182.531 73.1715L182.62 73.279L182.724 73.1849L183.246 72.7107L183.343 72.6226L183.257 72.5237C182.608 71.7747 181.565 71.4295 180.575 71.578C179.581 71.7271 178.689 72.4208 178.291 73.3157L178.236 73.4399L178.361 73.4934L179.025 73.7779Z" fill="#010000" stroke="black" stroke-width="0.268126"/>
<path d="M166.499 70.5968L166.61 70.6568L166.677 70.549C167.037 69.9642 167.668 69.5128 168.389 69.3776C169.106 69.2432 169.872 69.4676 170.412 69.9179L170.516 70.0045L170.602 69.8998L171.029 69.3782L171.111 69.2773L171.013 69.192C170.272 68.5502 169.189 68.2529 168.246 68.45C167.256 68.5999 166.372 69.2416 165.833 70.0739L165.755 70.1959L165.882 70.2648L166.499 70.5968Z" fill="#010000" stroke="black" stroke-width="0.268126"/>
<path d="M178.346 69.8791L178.457 69.9438L178.527 69.8358C178.933 69.2044 179.564 68.798 180.288 68.6622L180.288 68.6622L180.29 68.6619C180.956 68.5286 181.723 68.7504 182.315 69.2057L182.423 69.2885L182.504 69.1799L182.931 68.6109L183.012 68.5036L182.904 68.4232C182.12 67.8353 181.088 67.5376 180.098 67.7345C179.111 67.8835 178.222 68.476 177.728 69.3663L177.664 69.481L177.777 69.5472L178.346 69.8791Z" fill="#010000" stroke="black" stroke-width="0.268126"/>
<path d="M168.381 75.7126L168.503 75.7781L168.565 75.6545C168.827 75.1291 169.402 74.7278 170.024 74.6374C170.653 74.5938 171.319 74.8207 171.712 75.2575L171.802 75.3576L171.902 75.267L172.423 74.7928L172.523 74.7017L172.431 74.6024C171.787 73.9081 170.843 73.5589 169.897 73.7072C168.998 73.8082 168.157 74.4048 167.712 75.1969L167.645 75.316L167.765 75.3807L168.381 75.7126Z" fill="#010000" stroke="black" stroke-width="0.268126"/>
<path d="M205.244 138.665L191.398 135.535C191.398 135.535 184.475 145.872 184.855 150.756C185.234 155.593 188.364 163.038 191.256 161.757C193.342 165.361 195.476 163.701 195.476 163.701C197.563 165.74 199.08 164.081 199.08 164.081C199.08 164.081 200.882 165.74 201.403 165.171C202.352 164.176 199.744 155.972 199.744 155.972C204.533 152.938 206.003 148.622 205.244 138.665Z" fill="#EF8D64"/>
<path d="M190.839 162.228L190.649 161.753C189.796 159.809 189.132 157.818 188.515 155.874C188.326 155.273 188.136 154.672 187.946 154.072L187.757 153.598L188.752 153.266L188.895 153.74C189.116 154.34 189.321 154.941 189.511 155.542C190.128 157.533 190.744 159.43 191.598 161.327L191.787 161.801L190.839 162.228Z" fill="black"/>
<path d="M195.056 164.032L194.819 163.605C193.776 161.377 192.969 159.148 192.211 156.967C191.958 156.303 191.721 155.623 191.499 154.928L191.31 154.454L192.258 154.122L192.448 154.596C192.701 155.26 192.938 155.923 193.159 156.587C193.965 158.863 194.771 160.997 195.767 163.131L196.004 163.605L195.056 164.032Z" fill="black"/>
<path d="M198.514 164.366L198.325 163.845C198.104 163.181 197.882 162.517 197.661 161.853C197.045 159.957 196.333 158.012 195.907 156.068L195.764 155.594L196.807 155.31L196.902 155.831C197.377 157.681 197.993 159.625 198.657 161.521C198.878 162.217 199.099 162.881 199.321 163.513L199.463 164.034L198.514 164.366Z" fill="black"/>
<path d="M193.156 81.4252C201.975 80.2397 217.765 79.5758 221.891 95.4608C225.969 111.393 217.481 137.473 212.17 139.322C206.859 141.172 190.453 135.671 188.698 130.977C186.991 126.282 194.388 93.8012 194.388 93.8012L193.156 81.4252Z" fill="#3664FF"/>
<path d="M191.062 130.938C189.639 131.413 188.975 135.728 189.687 136.676C190.35 137.577 204.813 143.457 206.188 143.22C207.563 142.935 208.559 138.857 208.559 137.909C208.511 136.96 196.278 129.374 191.062 130.938Z" fill="#C7FF5A"/>
<path d="M191.826 108.749L190.783 108.559L190.878 108.085C193.296 92.6266 195.904 88.6435 197.469 86.32L197.896 85.7036L198.749 86.2726L198.37 86.8891C196.805 89.1651 194.245 93.006 191.921 108.227L191.826 108.749Z" fill="black"/>
<path d="M190.448 137.954C190.416 137.954 190.4 137.938 190.4 137.907C190.306 137.907 190.306 137.812 190.306 137.765L192.582 130.273C192.582 130.225 192.676 130.178 192.724 130.225C192.819 130.225 192.819 130.32 192.819 130.367L190.543 137.859C190.543 137.907 190.495 137.954 190.448 137.954Z" fill="black"/>
<path d="M193.397 139.422C193.302 139.422 193.254 139.327 193.302 139.28L195.91 131.076C195.957 131.029 196.005 130.981 196.099 130.981C196.147 131.029 196.194 131.076 196.147 131.171L193.539 139.327C193.539 139.422 193.492 139.422 193.397 139.422Z" fill="black"/>
<path d="M196.817 141.272C196.817 141.272 196.801 141.272 196.77 141.272C196.722 141.225 196.675 141.177 196.722 141.082L200.231 132.073C200.279 132.025 200.326 131.978 200.421 132.026C200.468 132.026 200.516 132.12 200.468 132.168L196.959 141.177C196.928 141.24 196.88 141.272 196.817 141.272Z" fill="black"/>
<path d="M200.646 143.171C200.615 143.171 200.599 143.171 200.599 143.171C200.504 143.123 200.504 143.028 200.504 142.981L201.357 140.942C201.405 140.895 201.452 140.847 201.547 140.895C201.594 140.895 201.642 140.989 201.594 141.037L200.741 143.076C200.709 143.139 200.678 143.171 200.646 143.171Z" fill="black"/>
<path d="M201.46 141.136C201.46 141.136 201.444 141.136 201.412 141.136C201.365 141.089 201.317 141.042 201.365 140.947L204.115 134.308C204.163 134.213 204.21 134.213 204.305 134.213C204.352 134.261 204.4 134.308 204.352 134.403L201.602 141.042C201.57 141.105 201.523 141.136 201.46 141.136Z" fill="black"/>
<path d="M203.684 143.649C203.653 143.649 203.637 143.649 203.637 143.649C203.542 143.602 203.542 143.507 203.542 143.46L207.383 136.252C207.383 136.205 207.478 136.157 207.525 136.205C207.62 136.205 207.62 136.3 207.573 136.347L203.779 143.602C203.748 143.633 203.716 143.649 203.684 143.649Z" fill="black"/>
<path d="M127.429 71.4111L127.547 71.4655L127.605 71.3493C127.775 71.0103 128.116 70.751 128.504 70.6629C128.844 70.6227 129.267 70.7531 129.517 71.0447L129.607 71.1495L129.709 71.0566L130.231 70.5825L130.335 70.4879L130.235 70.3885C129.733 69.8861 129.028 69.633 128.32 69.7341C127.611 69.8352 126.999 70.2915 126.744 70.9567L126.698 71.0739L126.812 71.1266L127.429 71.4111Z" fill="#010000" stroke="black" stroke-width="0.268126"/>
<path d="M114.901 68.269L115.021 68.3487L115.092 68.224C115.45 67.5978 116.125 67.146 116.799 67.0096C117.526 66.92 118.291 67.1037 118.826 67.5492L118.924 67.6314L119.011 67.5364L119.485 67.0148L119.58 66.9099L119.47 66.8206C118.68 66.1785 117.645 65.9334 116.663 66.0808C115.672 66.2294 114.784 66.8717 114.291 67.7101L114.227 67.8194L114.332 67.8896L114.901 68.269Z" fill="#010000" stroke="black" stroke-width="0.268126"/>
<path d="M126.804 67.5196L126.915 67.5796L126.982 67.4718C127.342 66.8871 127.973 66.4356 128.694 66.3004C129.411 66.166 130.177 66.3905 130.718 66.8407L130.821 66.9273L130.907 66.8226L131.334 66.301L131.416 66.2002L131.318 66.1148C130.577 65.4731 129.494 65.1758 128.551 65.3729C127.561 65.5227 126.677 66.1644 126.139 66.9968L126.06 67.1188L126.188 67.1877L126.804 67.5196Z" fill="#010000" stroke="black" stroke-width="0.268126"/>
<path d="M116.911 73.4594L116.975 73.3414C117.288 72.7594 117.867 72.3644 118.432 72.3209L118.432 72.3212L118.441 72.32C119.063 72.2311 119.732 72.4541 120.176 72.8984L120.271 72.9932L120.366 72.8984L120.84 72.4243L120.931 72.3332L120.844 72.2385C120.244 71.5887 119.252 71.2435 118.359 71.3427L118.359 71.3426L118.353 71.3435C117.416 71.4916 116.571 72.0355 116.122 72.8832L116.06 73.0008L116.177 73.064L116.793 73.3959L116.911 73.4594Z" fill="#010000" stroke="black" stroke-width="0.268126"/>
<path d="M111.124 52.2225C111.267 52.6967 110.84 53.2183 110.129 53.4554C109.417 53.6925 108.706 53.5028 108.564 53.076C108.422 52.6493 108.896 52.0803 109.607 51.8432C110.318 51.6535 110.982 51.7958 111.124 52.2225Z" fill="#010000"/>
<path d="M114.823 50.801L104.818 54.0728C100.693 55.4479 97.2313 59.0517 97.5158 63.6038L98.1322 70.9061L126.63 61.5648L124.781 55.8747C123.453 51.7493 118.949 49.4733 114.823 50.801Z" fill="#C6F75A"/>
<path d="M97.9833 66.9719C84.1847 71.4766 85.0856 75.1277 85.0856 75.1277C85.0856 75.1277 92.388 72.7569 93.6682 72.3775L116.998 64.7432C116.998 64.7432 112.066 62.3724 97.9833 66.9719Z" fill="#C6F75A"/>
<path d="M98.0823 67.2006L97.8926 66.7264C97.94 66.7264 101.354 65.5409 105.385 64.64C110.838 63.4546 114.773 63.4071 117.097 64.4977L116.907 64.9719C111.549 62.4588 98.1771 67.1532 98.0823 67.2006Z" fill="#010000"/>
<path d="M85.1795 75.3555L85.0372 74.8813L126.575 61.3198L126.718 61.794L85.1795 75.3555Z" fill="#010000"/>
<path d="M124.44 61.1788L122.781 61.7005C122.496 61.7953 122.212 61.653 122.117 61.3685L121.974 60.9418C121.88 60.6572 122.022 60.3728 122.306 60.2779L123.966 59.7563C124.203 59.6615 124.535 59.8038 124.582 60.0883L124.725 60.515C124.819 60.7995 124.677 61.084 124.44 61.1788Z" fill="#010000"/>
<path d="M172.081 79.3103L172.081 79.3103L172.083 79.313C172.382 79.8779 172.805 80.2389 173.354 80.3761C173.488 80.4095 173.61 80.4275 173.719 80.4275C174.076 80.4275 174.391 80.3258 174.622 80.2197C174.738 80.1665 174.834 80.1115 174.905 80.0663C174.972 80.0233 175.024 79.9843 175.046 79.9615L175.128 79.8802L175.06 79.7874L174.538 79.0762L174.462 78.9728L174.356 79.0439C174.294 79.0853 174.173 79.1512 174.03 79.2006C173.89 79.2494 173.739 79.278 173.605 79.261C173.434 79.2089 173.255 79.0543 173.077 78.7579C172.981 78.5732 172.966 78.2827 173.032 77.904C173.097 77.5288 173.237 77.091 173.422 76.6332C173.792 75.7182 174.333 74.742 174.779 74.0603L174.854 73.9458L174.738 73.8732L173.979 73.399L173.86 73.3242L173.791 73.4476C173.772 73.4825 173.737 73.5412 173.69 73.6204C173.461 74.0051 172.943 74.8733 172.523 75.8483C172.269 76.437 172.047 77.0717 171.943 77.6707C171.839 78.2672 171.849 78.8462 172.081 79.3103Z" fill="#010000" stroke="black" stroke-width="0.268126"/>
<path d="M175.668 82.997V83.1339L175.805 83.1311C176.979 83.1066 177.751 82.6645 178.228 82.1061C178.701 81.5525 178.876 80.8926 178.876 80.4365V80.3025H178.742H177.889H177.755V80.4365C177.755 80.4878 177.724 80.8614 177.466 81.2241C177.213 81.5785 176.732 81.9394 175.799 81.9621L175.668 81.9653V82.0961V82.997Z" fill="#010000" stroke="black" stroke-width="0.268126"/>
<path d="M78.3577 126.476L77.4568 125.954L77.6939 125.527C86.5136 109.595 109.653 103.668 109.891 103.573L110.365 103.478L110.649 104.474L110.128 104.616C109.891 104.663 87.1774 110.496 78.5948 126.002L78.3577 126.476Z" fill="black"/>
<path d="M94.8962 111.112L94.3746 111.017C91.3873 110.401 89.9647 109.595 89.9173 108.504C89.8699 108.077 90.107 106.75 93.5211 105.517C93.0943 104.948 92.383 103.762 91.7666 102.387C90.4863 99.6844 90.2492 97.6455 91.0553 96.3178C91.8614 94.9427 93.7582 94.4685 96.6032 94.8953L97.1248 94.9427L96.9826 95.9858L96.461 95.9384C94.0427 95.5591 92.5253 95.891 91.9089 96.8394C90.676 98.9258 93.4737 103.715 94.6591 105.375L94.754 105.517C94.8488 105.659 94.8488 105.801 94.8014 105.991C94.7539 106.133 94.6117 106.276 94.4694 106.323C92.7624 106.845 90.9131 107.84 90.9605 108.457C90.9605 108.504 91.1028 109.263 94.5643 109.974L95.0859 110.116L94.8962 111.112Z" fill="black"/>
<path d="M125.338 90.2477C123.015 90.8168 119.648 90.6745 118.795 90.1055C121.545 93.9463 126.097 92.4764 126.097 92.4764L125.338 90.2477Z" fill="black"/>
</svg>
