<svg width="61" height="65" viewBox="0 0 61 65" fill="none" xmlns="http://www.w3.org/2000/svg">
<mask id="mask0_16408_34794" style="mask-type:alpha" maskUnits="userSpaceOnUse" x="3" y="9" width="58" height="56">
<ellipse cx="31.5854" cy="37" rx="28.4746" ry="28" fill="#EAECF0"/>
</mask>
<g mask="url(#mask0_16408_34794)">
<ellipse cx="31.5854" cy="37" rx="28.4746" ry="28" fill="#C2CDFF"/>
</g>
<path d="M41.3906 47.6395C48.1141 41.0896 48.1141 30.4701 41.3906 23.9202C34.6671 17.3703 23.7661 17.3703 17.0426 23.9202C10.3191 30.4701 10.3191 41.0896 17.0426 47.6395C23.7661 54.1894 34.6671 54.1894 41.3906 47.6395Z" fill="#405FF4"/>
<mask id="mask1_16408_34794" style="mask-type:luminance" maskUnits="userSpaceOnUse" x="12" y="19" width="35" height="34">
<path d="M29.2235 52.5441C38.732 52.5441 46.4401 45.035 46.4401 35.7721C46.4401 26.5091 38.732 19 29.2235 19C19.715 19 12.0068 26.5091 12.0068 35.7721C12.0068 45.035 19.715 52.5441 29.2235 52.5441Z" fill="white"/>
</mask>
<g mask="url(#mask1_16408_34794)">
<path d="M41.8187 38.7627C40.7081 38.8803 39.7307 38.9753 38.755 39.0928C38.2849 39.1499 37.8644 39.0807 37.5061 38.7679C36.9544 38.2892 36.4027 37.8105 35.8563 37.3283C35.4287 36.9516 35.3525 36.4763 35.4749 35.9527C35.686 35.0402 35.9077 34.1295 36.1029 33.2135C36.227 32.6311 36.5357 32.2423 37.1194 32.028C38.2246 31.6219 39.3262 31.2036 40.4154 30.7526C41.0949 30.4709 41.7442 30.7077 42.3952 30.7889C43.7027 30.9531 45.003 31.1777 46.3069 31.3592C46.4843 31.3834 46.7646 31.5873 46.8373 31.2157C46.8976 30.9064 46.7859 30.7336 46.4275 30.7128C46.1401 30.6956 45.8598 30.5763 45.5742 30.5538C44.3484 30.4605 43.2893 29.9939 42.3757 29.211C42.0245 28.9103 41.7034 28.9103 41.2918 29.1056C40.5112 29.4755 39.7058 29.8004 38.904 30.1287C37.9017 30.5383 37.114 30.1114 36.9331 29.0728C36.69 27.6747 36.7681 27.4327 38.0472 26.7708C38.998 26.28 39.7289 25.5594 40.5006 24.8664C40.7206 24.6676 40.7507 24.4879 40.6425 24.239C40.529 23.9798 40.4261 23.7154 40.3303 23.4493C40.1369 22.9118 40.2114 22.4227 40.623 21.9976C41.4692 21.1266 42.3101 20.2521 43.1545 19.3777C43.6548 18.8592 44.2331 18.8074 44.8611 19.1132C45.6186 19.4848 46.3778 19.8529 47.1158 20.2573C47.4706 20.4509 47.7775 20.4733 48.1039 20.2452C48.1217 20.2331 48.1394 20.2176 48.1607 20.2106C50.2842 19.4813 51.863 18.1316 53.0356 16.2669C53.5714 15.4166 54.2615 14.6597 54.8682 13.8509C55.2141 13.3912 55.647 13.1544 56.243 13.2011C56.5553 13.2253 56.8693 13.2201 57.1832 13.227C58.5865 13.2581 59.0459 13.7801 58.8242 15.154C60.4084 14.9725 61.9784 14.7928 63.5483 14.6113C66.1685 14.3089 68.787 13.9874 71.4089 13.7057C73.0392 13.5312 74.4992 14.6441 74.6784 16.222C74.8682 17.8931 74.7937 19.5764 74.7742 21.2545C74.7689 21.7781 74.4513 22.1739 73.9493 22.3467C73.4295 22.5247 72.9239 22.4383 72.539 22.0131C71.9819 21.3945 71.4373 20.7637 70.7898 20.0275C70.678 21.2251 69.8318 21.5828 68.9466 21.8438C68.418 21.9993 68.3506 22.3432 68.3062 22.7753C68.2565 23.2557 68.7018 23.1537 68.9253 23.2989C69.1276 23.4285 69.383 23.4769 69.5941 23.5962C70.1547 23.9141 70.4208 24.379 70.2629 25.0202C70.1902 25.3157 70.0589 25.6009 70.0163 25.8998C69.7662 27.6695 68.8898 28.9708 67.1389 29.6414C66.8072 29.7675 66.7309 29.9507 66.9384 30.2773C67.1957 30.6817 67.3837 31.1293 67.6143 31.551C67.962 32.1939 67.8716 32.7607 67.3429 33.2723C67.1052 33.5021 66.8586 33.7303 66.6564 33.9895C66.1153 34.6825 65.4376 35.0592 64.5223 34.9555C64.1497 34.9123 64.0096 35.0005 64.0043 35.4394C63.9918 36.4902 62.8955 37.0121 61.9766 36.4349C61.3575 36.046 60.7543 35.6278 60.1724 35.1871C59.846 34.9383 59.6757 34.9314 59.5001 35.3288C59.2801 35.8266 59.0229 36.3122 58.7479 36.784C58.237 37.6636 57.1637 37.7448 56.5322 36.943C56.0834 36.3727 55.615 35.8006 55.2797 35.1681C54.4566 33.611 52.8866 32.9733 51.5331 32.0643C51.4923 32.1058 51.4497 32.1472 51.4089 32.1887C51.7672 32.5205 52.1309 32.8472 52.4804 33.1859C53.5235 34.1951 53.2858 35.156 51.8808 35.6278C51.7353 35.6762 51.5916 35.7332 51.4479 35.7868C51.455 35.8335 51.4444 35.8888 51.4692 35.9147C52.5336 37.0518 52.5478 37.1555 51.8134 38.526C50.49 40.9921 49.1701 43.46 47.8432 45.9244C47.1336 47.2447 46.1898 47.8046 44.8362 47.6404C43.5022 47.478 42.7997 46.645 42.397 45.4353C42.0209 44.3033 41.7921 43.1714 41.8222 41.9806C41.8488 40.9161 41.8275 39.8515 41.8275 38.7627H41.8187Z" fill="#CEFF5A"/>
<path d="M27.0851 21.719C28.0005 21.2179 27.8142 22.0802 28.0537 21.9852C28.4262 21.8365 28.5504 21.1332 28.923 20.9828C29.1518 20.8895 29.3469 20.9171 29.535 21.0813C30.2357 21.6983 30.1843 21.5462 29.9732 22.4103C29.9306 22.5883 29.9625 22.457 29.9182 22.635C29.8791 22.7957 28.4883 23.2986 29.5332 23.4144C29.7124 23.4334 29.6414 23.7669 29.6006 23.9398C29.5598 24.1178 29.4729 24.2491 29.3186 24.3459C28.8396 24.6466 28.3641 24.949 27.8887 25.2549C27.7184 25.3638 27.5463 25.4191 27.3547 25.3188C27.1561 25.2152 27.1046 25.0389 27.1099 24.8298C26.9946 23.9985 28.1956 24.32 28.1601 24.0711C28.1229 23.7998 26.9645 23.7099 26.9272 23.3591C26.9041 23.1379 26.8846 22.9149 26.8758 22.7076C26.8562 22.2064 26.897 21.7933 27.0833 21.719H27.0851Z" fill="#CEFF5A"/>
<path d="M27.2671 40.4762C25.7272 39.4964 23.8521 39.5102 22.2981 38.551C22.1118 38.437 21.9504 38.2607 21.7996 38.0913L22.142 37.4899L22.5092 37.5124V37.1097L21.8901 36.93L20.6412 37.8131C20.5206 37.8442 20.4088 37.8045 20.258 37.7301C19.0109 37.1115 18.6614 35.798 17.7247 34.8233C18.4326 34.7853 18.9967 34.8596 19.5147 34.4397C20.5081 33.6309 21.4785 32.7875 22.5216 32.041C22.7682 31.863 22.2023 30.807 22.4595 30.6411C22.6298 30.5322 23.6197 31.3117 23.7936 31.2097C24.0792 31.0421 24.3719 30.8848 24.6735 30.7396C25.2749 30.4493 25.3742 29.8703 24.9999 29.326C24.4695 28.5552 23.9266 27.7896 23.3661 27.0396C22.8658 26.3708 22.1136 26.4174 21.6471 27.126C21.3774 27.5356 20.6181 27.3852 20.329 27.8363C20.0611 27.5459 20.329 27.8363 20.07 27.5891C19.8571 27.3869 19.8181 27.2539 20.1072 27.0811C20.4336 26.8858 20.7228 26.6317 21.0421 26.4209C22.5482 25.422 22.4383 25.2561 21.6701 23.7647C21.3543 23.1512 20.8239 22.9922 20.2119 23.3101C20.0646 23.3862 19.9139 23.4622 19.7808 23.559C19.5289 23.7405 19.3036 23.737 19.002 23.616C16.8555 22.7519 14.7302 21.8516 12.7434 20.6643C12.1544 20.3117 11.8706 20.3601 11.333 20.7853C10.9818 21.0618 10.6465 21.359 10.2828 21.62C9.91739 21.8827 9.69387 22.2145 9.53776 22.6292C9.23618 23.4328 8.59399 25.4842 8.59399 25.7123C8.95057 26.1876 9.4331 26.35 10.0274 26.3086C10.4602 26.2774 10.8984 26.3327 11.333 26.3189C11.6098 26.3103 11.7446 26.4001 11.8475 26.6576C12.2129 27.584 12.6085 28.4982 12.9917 29.4158C13.0609 29.5817 13.0964 29.7494 13.0822 29.9377C13.0059 30.8969 12.9545 31.8595 12.8782 32.8186C12.8534 33.1453 12.9367 33.4235 13.1177 33.6948C13.6392 34.4725 14.1643 35.2467 14.6557 36.0434C14.913 36.4599 15.2571 36.7036 15.7148 36.8799C17.0152 37.3811 18.3652 37.7647 19.5999 38.4353C20.0168 38.6616 20.0647 38.8327 19.7613 39.1594C19.2504 39.7089 19.2468 40.2758 19.6708 40.891C19.9582 41.3075 20.1675 41.7758 20.4319 42.2096C20.5915 42.4723 20.6501 42.7367 20.6359 43.0426C20.5738 44.4943 20.5348 45.946 20.4798 47.3976C20.4673 47.7156 20.4886 48.0181 20.6944 48.279C20.9995 48.6679 21.3029 49.0567 21.6187 49.4369C21.9114 49.7894 22.2892 49.9208 22.7363 49.7549C23.1816 49.589 23.3696 49.2451 23.3643 48.794C23.359 48.4017 23.3714 48.0077 23.3253 47.6206C23.2862 47.2905 23.4086 47.0762 23.6481 46.8584C24.6753 45.9218 25.6847 44.9661 26.7047 44.0225C26.914 43.8272 27.0968 43.6215 27.1731 43.3433C27.3363 42.7454 27.5012 42.1491 27.6591 41.5494C27.7744 41.1088 27.6609 40.7303 27.2653 40.478L27.2671 40.4762Z" fill="#CEFF5A"/>
<path d="M30.3623 22.7344L30.1866 23.6382C30.1458 23.8439 30.3392 24.0219 30.5485 23.9717L31.1003 23.8404C31.3486 23.7816 31.448 23.4896 31.2847 23.2977L30.7295 22.6445C30.6159 22.5114 30.3942 22.5667 30.3605 22.7361L30.3623 22.7344Z" fill="#CEFF5A"/>
</g>
<path d="M21.5821 20.75C15.9071 23.4926 12.0078 29.1939 12.0078 35.7835C12.0078 40.1057 13.686 44.046 16.4428 47.0202" stroke="black" stroke-width="0.732178" stroke-miterlimit="10"/>
<path d="M41.3859 47.6401C44.501 44.6054 46.4276 40.4128 46.4276 35.7813C46.4276 29.8035 43.2166 24.555 38.3843 21.5859" stroke="black" stroke-width="0.732178" stroke-miterlimit="10"/>
<path d="M32.3118 55.391L34.1213 48.8394L51.6034 41.0859L38.9442 51.4427L32.3118 55.391Z" fill="#405FF4"/>
<path d="M28.5425 45.3827L34.1207 48.8394L51.6027 41.0859L28.5425 45.3827Z" fill="#D1E5D8"/>
<path d="M44.983 54.6601L38.9543 51.4427L51.6135 41.0859L44.983 54.6601Z" fill="#D1E5D8"/>
<path d="M51.6027 41.0859L38.9436 51.4427L32.3111 55.391L34.1207 48.8394L28.5425 45.3827L51.6027 41.0859Z" stroke="black" stroke-width="0.621167" stroke-miterlimit="10"/>
<path d="M38.9543 51.4453L44.983 54.6627L46.2023 52.1649" stroke="black" stroke-width="0.621167" stroke-miterlimit="10"/>
<rect width="29.4915" height="16" rx="4" fill="#405FF4"/>
<path d="M6.47385 12.144C5.64185 12.144 4.91385 11.96 4.28985 11.592C3.66585 11.224 3.17785 10.716 2.82585 10.068C2.47385 9.412 2.29785 8.656 2.29785 7.8C2.29785 6.944 2.47385 6.192 2.82585 5.544C3.17785 4.888 3.66585 4.376 4.28985 4.008C4.91385 3.64 5.64185 3.456 6.47385 3.456C7.30585 3.456 8.03385 3.64 8.65785 4.008C9.28185 4.376 9.76585 4.888 10.1098 5.544C10.4619 6.192 10.6379 6.944 10.6379 7.8C10.6379 8.624 10.4739 9.356 10.1459 9.996C9.82585 10.636 9.37785 11.14 8.80185 11.508L10.8298 13.572H9.22185L7.72185 11.988C7.32985 12.092 6.91385 12.144 6.47385 12.144ZM6.47385 11.004C7.04985 11.004 7.54985 10.876 7.97385 10.62C8.40585 10.364 8.74185 9.996 8.98185 9.516C9.22185 9.036 9.34185 8.464 9.34185 7.8C9.34185 7.136 9.22185 6.564 8.98185 6.084C8.74185 5.604 8.40585 5.236 7.97385 4.98C7.54985 4.724 7.04985 4.596 6.47385 4.596C5.89785 4.596 5.39385 4.724 4.96185 4.98C4.52985 5.236 4.19385 5.604 3.95385 6.084C3.72185 6.564 3.60585 7.136 3.60585 7.8C3.60585 8.464 3.72185 9.036 3.95385 9.516C4.19385 9.996 4.52985 10.364 4.96185 10.62C5.39385 10.876 5.89785 11.004 6.47385 11.004ZM14.9946 12.144C14.4026 12.144 13.8906 12.04 13.4586 11.832C13.0266 11.616 12.6826 11.324 12.4266 10.956C12.1786 10.58 12.0266 10.156 11.9706 9.684H13.2186C13.2986 10.084 13.4986 10.416 13.8186 10.68C14.1386 10.936 14.5346 11.064 15.0066 11.064C15.3586 11.064 15.6626 10.98 15.9186 10.812C16.1746 10.636 16.3746 10.404 16.5186 10.116C16.6626 9.828 16.7346 9.504 16.7346 9.144C16.7346 8.576 16.5746 8.124 16.2546 7.788C15.9346 7.444 15.5306 7.272 15.0426 7.272C14.6266 7.272 14.2706 7.372 13.9746 7.572C13.6786 7.764 13.4626 8.008 13.3266 8.304H12.1146L12.8346 3.6H17.3706V4.716H13.7946L13.3626 6.96C13.5466 6.752 13.7986 6.58 14.1186 6.444C14.4466 6.3 14.8146 6.228 15.2226 6.228C15.7906 6.228 16.2786 6.36 16.6866 6.624C17.0946 6.88 17.4066 7.228 17.6226 7.668C17.8466 8.108 17.9586 8.596 17.9586 9.132C17.9586 9.692 17.8386 10.2 17.5986 10.656C17.3586 11.112 17.0146 11.476 16.5666 11.748C16.1266 12.012 15.6026 12.144 14.9946 12.144ZM22.8211 12.144C22.0611 12.144 21.4051 11.964 20.8531 11.604C20.3091 11.236 19.8891 10.728 19.5931 10.08C19.3051 9.424 19.1611 8.664 19.1611 7.8C19.1611 6.936 19.3051 6.18 19.5931 5.532C19.8891 4.876 20.3091 4.368 20.8531 4.008C21.4051 3.64 22.0611 3.456 22.8211 3.456C23.5811 3.456 24.2331 3.64 24.7771 4.008C25.3211 4.368 25.7371 4.876 26.0251 5.532C26.3211 6.18 26.4691 6.936 26.4691 7.8C26.4691 8.664 26.3211 9.424 26.0251 10.08C25.7371 10.728 25.3211 11.236 24.7771 11.604C24.2331 11.964 23.5811 12.144 22.8211 12.144ZM22.8211 11.004C23.2771 11.004 23.6811 10.876 24.0331 10.62C24.3931 10.364 24.6731 9.996 24.8731 9.516C25.0731 9.036 25.1731 8.464 25.1731 7.8C25.1731 7.136 25.0731 6.564 24.8731 6.084C24.6731 5.604 24.3931 5.236 24.0331 4.98C23.6811 4.724 23.2771 4.596 22.8211 4.596C22.3571 4.596 21.9491 4.724 21.5971 4.98C21.2451 5.236 20.9691 5.604 20.7691 6.084C20.5691 6.564 20.4691 7.136 20.4691 7.8C20.4691 8.464 20.5691 9.036 20.7691 9.516C20.9691 9.996 21.2451 10.364 21.5971 10.62C21.9491 10.876 22.3571 11.004 22.8211 11.004Z" fill="white"/>
</svg>
