<svg width="307" height="243" viewBox="0 0 307 243" fill="none" xmlns="http://www.w3.org/2000/svg">
<path d="M197.924 72.7223C176.003 50.186 160.621 24.6195 152.332 0C144.134 24.6195 128.659 50.186 106.738 72.7223C84.8163 95.2586 59.9479 111.072 36 119.594C59.9479 128.021 84.8163 143.929 106.738 166.466C128.659 189.002 144.042 214.568 152.332 239.188C160.621 214.568 176.003 189.002 197.924 166.466C219.846 143.929 244.716 128.116 268.663 119.594C244.716 111.167 219.846 95.2586 197.924 72.7223Z" fill="#FAF4E7"/>
<mask id="mask0_15565_229566" style="mask-type:alpha" maskUnits="userSpaceOnUse" x="0" y="22" width="307" height="221">
<rect y="22.2734" width="306.367" height="219.728" fill="#D9D9D9"/>
</mask>
<g mask="url(#mask0_15565_229566)">
<path d="M61.7006 29.6562L60.6023 34.2353L56 32.8757L59.5075 36.0916L56 39.3111L60.6023 37.9514L61.7006 42.5305L62.7953 37.9514L67.4012 39.3111L63.8937 36.0916L67.4012 32.8757L62.7953 34.2353L61.7006 29.6562Z" fill="#F5009E"/>
<path d="M297.169 56.3457L296.424 58.7163L294 59.4454L296.424 60.178L297.169 62.5486L297.918 60.178L300.342 59.4454L297.918 58.7163L297.169 56.3457Z" fill="#D1E5D8"/>
<path d="M47 70.5675C47 69.8102 47.6266 69.1973 48.4008 69.1973C49.1751 69.1973 49.8017 69.8102 49.8017 70.5675C49.8017 71.3248 49.1751 71.9377 48.4008 71.9377C47.6266 71.9377 47 71.3248 47 70.5675Z" fill="white"/>
<path d="M262 45.8546C262 45.0973 262.627 44.4844 263.401 44.4844C264.175 44.4844 264.802 45.0973 264.802 45.8546C264.802 46.6119 264.175 47.2248 263.401 47.2248C262.627 47.2248 262 46.6119 262 45.8546Z" fill="white"/>
<path d="M10.7657 75.8556C11.6228 75.0172 12.2241 74.0662 12.5482 73.1504C12.8687 74.0662 13.4737 75.0172 14.3308 75.8556C15.1879 76.6939 16.1602 77.2821 17.0965 77.5991C16.1602 77.9126 15.1879 78.5044 14.3308 79.3427C13.4737 80.181 12.8723 81.1321 12.5482 82.0479C12.2241 81.1321 11.6228 80.181 10.7657 79.3427C9.90862 78.5044 8.93629 77.9162 8 77.5991C8.93629 77.2857 9.90862 76.6939 10.7657 75.8556Z" fill="#CEFF5A"/>
</g>
<path d="M19.0443 42.8935C18.7678 42.6161 18.5732 42.3023 18.4683 42C18.3643 42.3023 18.1697 42.6161 17.8933 42.8935C17.6168 43.17 17.3031 43.3647 17 43.4688C17.3022 43.5728 17.6159 43.7675 17.8933 44.0449C18.1697 44.3214 18.3643 44.6352 18.4683 44.9375C18.5723 44.6352 18.767 44.3214 19.0443 44.0449C19.3207 43.7684 19.6344 43.5737 19.9375 43.4688C19.6353 43.3647 19.3216 43.17 19.0443 42.8935Z" fill="#F3019C"/>
<path d="M248.22 79.7186C247.379 78.8746 246.787 77.9197 246.467 77C246.151 77.9197 245.559 78.8746 244.718 79.7186C243.877 80.5599 242.922 81.1523 242 81.4688C242.919 81.7853 243.874 82.3777 244.718 83.2216C245.559 84.0629 246.151 85.0178 246.467 85.9375C246.784 85.0178 247.376 84.0629 248.22 83.2216C249.061 82.3804 250.015 81.788 250.938 81.4688C250.018 81.1523 249.063 80.5599 248.22 79.7186Z" fill="#405FF4"/>
<path d="M216.707 13L218.382 20.2274L225.417 18.0817L220.061 23.1598L225.417 28.238L218.382 26.0922L216.707 33.3196L215.031 26.0922L208 28.238L213.356 23.1598L208 18.0817L215.031 20.2274L216.707 13Z" fill="#CEFF5A"/>
<path d="M228.196 242.035L225.022 202.674L155.271 204.239L152.469 242.035H228.196Z" fill="#C7FF5A"/>
<path d="M179.735 226.101L179.687 225.579C179.687 225.484 178.549 216.759 178.644 203.15V202.629H179.687V203.15C179.592 216.712 180.683 225.342 180.683 225.437L180.778 225.958L179.735 226.101Z" fill="black"/>
<path d="M180.103 223.4L179.629 223.163C175.835 221.076 174.128 215.054 174.318 204.148V203.674H175.361V204.195C175.171 214.675 176.689 220.412 180.15 222.262L180.577 222.499L180.103 223.4Z" fill="black"/>
<path d="M222.294 240.916L215.292 200.542L216.335 200.447L223.337 240.822L222.294 240.916Z" fill="black"/>
<path d="M221.311 223.588L220.837 223.446C216.569 222.213 212.681 219.653 209.836 216.286C206.99 212.919 205.141 208.604 204.62 204.242L204.525 203.72L205.568 203.578L205.615 204.1C206.137 208.32 207.891 212.398 210.594 215.622C213.344 218.847 217.043 221.265 221.121 222.45L221.595 222.593L221.311 223.588Z" fill="black"/>
<path d="M225.012 202.676L222.357 109.879L184.233 104.379L142.695 114.479L155.26 204.241C165.408 212.492 225.012 202.676 225.012 202.676Z" fill="white"/>
<path d="M238.989 220.467C239.605 227.01 233.915 229.428 233.915 229.428C235.527 231.183 232.967 239.102 227.229 234.218C224.906 236.257 223.151 234.644 223.151 234.644C221.349 236.873 218.504 234.644 218.504 234.644C215.517 236.541 210.823 227.674 211.724 222.98C212.577 218.285 225.522 215.013 225.522 215.013C225.522 215.013 231.734 171.579 231.876 169.445C231.924 168.402 229.932 163.897 227.846 159.582C225.712 155.077 223.531 150.762 223.531 150.762L238.373 141.231L240.032 140.141L240.696 140.283L246.054 141.279C246.054 141.279 254.305 158.634 255.206 170.061C256.154 181.489 238.989 220.467 238.989 220.467Z" fill="#EF8D64"/>
<path d="M227.181 234.64L226.754 234.355C223.719 232.364 223.482 229.614 223.482 229.519L223.435 228.997L224.478 228.902V229.424C224.525 229.519 224.715 231.795 227.323 233.454L227.75 233.739L227.181 234.64Z" fill="black"/>
<path d="M223.16 235.07L222.733 234.833C220.979 233.837 219.604 230.47 219.509 230.328L219.319 229.854L220.315 229.475L220.505 229.949C220.836 230.85 222.022 233.268 223.207 233.932L223.682 234.169L223.16 235.07Z" fill="black"/>
<path d="M218.269 235.109L217.937 234.682C216.799 233.307 215.993 230.415 215.993 230.272L215.851 229.798L216.847 229.514L216.989 230.035C216.989 230.035 217.748 232.833 218.744 234.018L219.075 234.398L218.269 235.109Z" fill="black"/>
<path d="M230.454 230.8L230.407 229.756L230.928 229.709C231.782 229.662 232.636 229.424 233.394 229.093L233.868 228.855L234.295 229.756L233.868 229.993C232.967 230.42 231.972 230.705 230.976 230.752L230.454 230.8Z" fill="black"/>
<path d="M246.063 141.28C231.316 146.685 227.997 159.915 227.902 159.631C227.902 159.631 227.886 159.615 227.855 159.583C225.721 155.078 223.54 150.763 223.54 150.763L238.381 141.232L240.705 140.284L243.408 139.193L246.063 141.28Z" fill="black"/>
<path d="M222.363 109.883C232.794 111.4 246.071 141.273 246.071 141.273C237.584 142.886 222.363 153.128 222.363 153.128V109.883Z" fill="white"/>
<path d="M224.261 176.223C224.072 176.223 223.929 176.08 223.929 175.891L222.459 131.555C222.459 131.365 222.602 131.176 222.791 131.176C222.981 131.176 223.123 131.318 223.171 131.508L224.593 175.891C224.641 176.08 224.451 176.223 224.261 176.223Z" fill="black"/>
<path d="M162.582 200.877C170.027 241.277 163.796 209.231 171.087 242.039H92.1039C101.303 189.832 93.9209 238.764 97.2401 200.877H162.582Z" fill="#EE0197"/>
<path d="M135.344 226.1L134.301 225.958L134.348 225.436C134.395 225.389 135.249 218.276 132.688 204.619L132.594 204.098L133.589 203.908L133.684 204.43C136.292 218.276 135.439 225.294 135.391 225.578L135.344 226.1Z" fill="black"/>
<path d="M134.987 219.652L134.323 218.846L134.703 218.514C134.75 218.514 138.543 215.1 136.931 204.81L136.836 204.289L137.88 204.146L137.927 204.668C139.634 215.574 135.556 219.178 135.414 219.32L134.987 219.652Z" fill="black"/>
<path d="M94.8485 238.148L94.0898 237.437L94.4692 237.057C94.5166 237.01 99.4481 231.367 100.491 215.008L100.539 214.486L101.534 214.534V215.055C100.444 231.889 95.4176 237.531 95.2279 237.768L94.8485 238.148Z" fill="black"/>
<path d="M163.668 199.781L96.3816 202.674C96.3816 202.674 94.5323 208.316 95.4806 209.834C96.3816 211.351 125.069 209.786 132.941 209.644C140.86 209.502 164.521 210.023 165.944 208.838C167.414 207.605 163.668 199.781 163.668 199.781Z" fill="#C7FF5A"/>
<path d="M98.7538 111.384C83.3904 108.776 94.3439 105.789 94.3439 105.789C86.2355 92.7017 96.5726 95.4045 96.5726 95.4045C96.0036 89.7143 117.436 94.3138 117.436 94.3138C117.436 94.3138 126.636 78.9505 136.498 79.5669C146.361 80.1833 140.719 89.335 140.719 89.335C140.719 89.335 145.081 86.8218 147.926 87.9598C150.724 89.0979 147.12 94.3138 147.12 94.3138L98.7538 111.384Z" fill="#C7FF5A"/>
<path d="M92.0706 161.277C92.0706 161.277 93.8251 189.111 93.7303 191.577C89.5575 195.133 90.8852 201.345 97.3814 204.332C103.925 207.272 158.408 203.811 164.43 200.871C170.452 197.884 166.991 189.111 165.142 187.072C161.158 173.795 161.158 125.05 161.158 125.05L173.724 109.307L174.862 84.0332L119.241 101.673C119.241 101.673 95.3425 106.272 84.0096 118.221C72.7242 130.123 55.3692 164.928 55.6537 179.248C55.9856 193.521 66.465 220.881 77.7978 221.972C88.941 218.7 93.7303 209.643 94.0148 205.47C94.3467 201.25 92.4974 188.495 85.1476 178.822L92.0706 161.277Z" fill="#3664FF"/>
<path d="M92.065 161.27L91.4011 139.695L85.9955 176.634L92.065 161.27Z" fill="black"/>
<path d="M110.639 175.27C127.71 171.572 144.116 172.805 144.116 172.805C145.444 180.771 154.216 187.077 154.216 187.077V196.988C121.688 203.105 103.005 199.738 103.005 199.738V192.388C107.083 190.254 110.639 175.27 110.639 175.27Z" fill="#C7FF5A"/>
<path d="M94.4384 213.34L83.7219 224.009C86.8515 233.587 95.7187 236.195 95.7187 236.195C98.3741 231.975 99.7966 225.716 100.698 218.698L94.4384 213.34Z" fill="#EF8D64"/>
<path d="M92.3502 208.374C90.4061 207.71 78.3619 218.048 78.5042 220.134C78.6939 222.268 81.0648 224.639 82.8666 224.734C84.6211 224.828 95.1479 214.776 95.1953 212.974C95.2427 211.172 93.1089 208.659 92.3502 208.374Z" fill="#C7FF5A"/>
<path d="M110.28 106.909L108.81 90.6926L102.931 69.2597L126.023 60.3926C131.286 71.678 133.231 89.0804 125.312 90.2658L129.485 101.931L121.945 111.414L110.28 106.909Z" fill="#EF8D64"/>
<path d="M101.567 68.2596C99.2911 72.1004 96.9202 75.9887 96.1141 80.3511C95.9719 81.1098 95.9245 82.0108 96.446 82.5798C96.9202 83.054 97.6315 83.1014 98.2953 83.054C100.002 82.9591 101.615 82.3901 103.037 81.4892C103.037 82.3427 102.753 83.1014 102.658 83.9075C102.563 84.7136 102.658 85.6145 103.179 86.2309C103.701 86.8474 104.554 87.037 105.361 86.9896C106.167 86.8948 106.878 86.5629 107.684 86.3732L104.128 73.9023C106.214 73.2385 108.158 71.9582 109.533 70.2512C110.908 68.5441 111.762 66.4103 111.904 64.1816L101.567 68.2596Z" fill="#3664FF"/>
<path d="M126.557 75.7685L126.66 75.813V75.7082L126.662 75.7032C126.665 75.6942 126.67 75.6813 126.676 75.6642C126.682 75.6473 126.69 75.6281 126.698 75.6062C126.707 75.5827 126.717 75.5559 126.728 75.5254C126.772 75.4099 126.828 75.2526 126.882 75.0757C126.989 74.7252 127.089 74.2846 127.039 73.935L127.039 73.935L127.039 73.9342C127.012 73.7569 126.88 73.562 126.709 73.3726C126.535 73.1802 126.311 72.9818 126.081 72.7969C125.723 72.5079 125.344 72.2471 125.118 72.0917C125.056 72.0485 125.005 72.0135 124.97 71.9882L124.903 71.9403L124.862 72.0119L124.672 72.3438L124.637 72.406L124.697 72.4439C125.074 72.6794 125.522 72.9976 125.887 73.2977C126.069 73.4478 126.23 73.5924 126.35 73.719C126.41 73.7823 126.459 73.8401 126.495 73.8911C126.53 73.9396 126.551 73.9785 126.56 74.0075C126.58 74.2295 126.525 74.5349 126.443 74.8264C126.361 75.1193 126.256 75.3874 126.187 75.5245L126.152 75.5951L126.225 75.6262L126.557 75.7685ZM126.659 75.7117L126.659 75.7117C126.659 75.7124 126.659 75.7128 126.659 75.7128C126.659 75.7128 126.659 75.7125 126.659 75.7117Z" fill="#010000" stroke="black" stroke-width="0.148959"/>
<path d="M128.092 77.8291C125.152 77.592 121.501 78.8249 121.501 78.8249C123.066 83.2347 128.471 82.808 128.092 77.8291Z" fill="white"/>
<path d="M111.43 115.434L110.955 115.244C110.861 115.244 103.843 112.447 94.454 111.024L93.9324 110.929L94.0746 109.934L94.5962 109.981C104.08 111.451 111.287 114.249 111.335 114.296L111.809 114.486L111.43 115.434Z" fill="black"/>
<path d="M140.531 107.132L139.582 106.706L139.819 106.231C139.867 106.137 143.328 98.3127 147.311 93.0967L147.596 92.6699L148.449 93.3338L148.117 93.7131C144.229 98.8343 140.815 106.563 140.768 106.658L140.531 107.132Z" fill="black"/>
<path d="M158.603 128.758L157.797 128.094L173.634 108.605L174.441 109.269L158.603 128.758Z" fill="black"/>
<path d="M85.0953 179.644L84.716 179.264C83.3883 177.889 81.8709 176.751 80.1165 175.945L79.6897 175.708L80.1165 174.76L80.5906 174.997C82.4399 175.898 84.0521 177.083 85.4747 178.553L85.854 178.885L85.0953 179.644Z" fill="black"/>
<path d="M120.949 153.942L120.807 153.42C118.009 140.712 117.108 127.672 118.104 114.68L118.151 114.158L119.195 114.253L119.147 114.775C118.151 127.672 119.052 140.57 121.85 153.183L121.945 153.705L120.949 153.942Z" fill="black"/>
<path d="M137.686 147.685L137.639 147.163C136.548 135.451 132.66 124.023 126.306 114.113L126.069 113.686L126.922 113.117L127.207 113.544C133.608 123.597 137.591 135.214 138.682 147.068L138.729 147.59L137.686 147.685Z" fill="black"/>
<path d="M121.946 111.927C121.883 111.927 121.82 111.911 121.757 111.88L108.954 106.901L109.333 105.952L121.804 110.789L129.77 100.736L130.576 101.353L122.373 111.737C122.278 111.88 122.136 111.927 121.946 111.927Z" fill="black"/>
<path d="M122.134 153.566C122.134 154.04 121.802 154.419 121.328 154.419C120.901 154.419 120.522 154.04 120.522 153.566C120.522 153.139 120.901 152.76 121.328 152.76C121.802 152.76 122.134 153.139 122.134 153.566Z" fill="#C7FF5A"/>
<path d="M138.958 147.353C138.958 147.827 138.579 148.159 138.152 148.159C137.678 148.159 137.346 147.827 137.346 147.353C137.346 146.926 137.678 146.547 138.152 146.547C138.579 146.547 138.958 146.926 138.958 147.353Z" fill="#C7FF5A"/>
<path d="M195.001 164.557L201.307 154.125C202.777 151.659 202.018 148.482 199.553 147.012L175.038 132.123C172.572 130.653 169.395 131.459 167.925 133.877L161.571 144.309C160.101 146.775 160.907 149.952 163.325 151.422L187.888 166.311C190.354 167.781 193.531 166.975 195.001 164.557Z" fill="#4C6700"/>
<path d="M174.218 134.566C172.811 133.713 170.979 134.163 170.126 135.57L164.109 145.505C163.257 146.912 163.706 148.744 165.113 149.597L188.658 163.864C190.065 164.716 191.897 164.267 192.75 162.859L198.767 152.924C199.62 151.517 199.17 149.685 197.763 148.833L174.218 134.566Z" fill="#FAF4E7"/>
<path d="M176.754 148.774C176.422 147.399 175.853 146.261 175.094 145.36C176.232 145.597 177.512 145.597 178.888 145.265C180.215 144.933 181.353 144.364 182.254 143.605C182.017 144.743 182.017 146.024 182.349 147.399C182.681 148.727 183.25 149.912 184.009 150.766C182.871 150.528 181.59 150.529 180.215 150.86C178.888 151.192 177.749 151.809 176.849 152.52C177.086 151.382 177.086 150.102 176.754 148.774Z" fill="black"/>
<path d="M204.494 62.5642C203.925 61.1417 202.502 60.0985 200.985 60.0511C201.554 58.9605 201.411 57.5379 200.7 56.5421C199.989 55.5464 198.566 54.7877 197.333 54.9299C197.95 53.46 198.566 51.9426 198.661 50.3304C198.756 48.7656 198.234 47.0112 196.954 46.0628C196.243 45.5886 195.389 45.3515 194.583 45.2093C192.402 44.8299 190.173 45.067 188.087 45.8257C188.182 44.6877 188.182 43.4074 187.471 42.5065C186.664 41.5581 185.242 41.3684 184.056 41.7003C182.871 42.0323 181.78 42.791 180.785 43.5496C179.836 42.6961 178.509 42.3168 177.276 42.5065C176.043 42.7436 174.905 43.5022 174.288 44.5928C172.439 42.6961 169.262 42.2219 166.939 43.5022C164.615 44.7825 163.335 47.675 163.904 50.2355C162.718 50.5675 161.96 51.7529 161.723 52.9858C161.485 54.1713 161.77 55.4041 162.007 56.637C160.016 56.7792 158.214 58.1543 157.36 59.9562C156.554 61.7581 156.649 63.9393 157.645 65.6938C158.593 67.4482 160.347 68.7285 162.292 69.1553C161.723 69.9614 161.675 71.0046 162.055 71.8581C162.481 72.7116 163.382 73.2807 164.331 73.3281C163.524 73.9445 163.524 75.3196 164.283 76.0309C164.994 76.7421 166.132 76.8844 167.128 76.5525C168.077 76.2205 168.883 75.5093 169.499 74.7032L188.514 81.5787C190.695 81.8633 192.924 80.4407 193.587 78.4018C194.583 79.1605 196.148 78.8285 197.001 77.8802C197.808 76.9318 198.045 75.6041 197.95 74.3713C198.566 74.798 199.515 74.6557 200.178 74.1816C200.795 73.66 201.079 72.8539 201.127 72.0952C201.174 71.2891 201.079 70.483 200.795 69.7717C202.17 69.2027 203.403 68.2069 204.162 66.8792C204.92 65.5989 205.063 63.9393 204.494 62.5642Z" fill="#D8FE74"/>
<path d="M173.719 109.32L174.62 91.3012C166.274 89.3571 168.124 66.5965 168.503 60.3848L191.074 61.096L195.863 107.992C193.018 113.92 178.84 115.674 173.719 109.32Z" fill="#EF8D64"/>
<path d="M194.199 60.143C192.112 57.8196 189.172 56.4445 186.185 55.7806C180.21 54.5003 173.761 55.828 168.783 59.337L167.976 59.0524C166.744 59.4792 165.985 60.8543 166.175 62.1346C166.364 63.4623 167.55 64.5055 168.877 64.5529C170.158 64.6478 171.438 63.6994 171.77 62.4191C172.292 63.1304 173.382 63.2252 174.188 62.8933C174.994 62.5614 175.611 61.8975 176.227 61.2337C176.227 62.0398 176.891 62.751 177.65 62.8458C178.408 62.9881 179.262 62.5139 179.499 61.7553C180.021 63.2252 181.822 63.9365 183.34 63.652C184.857 63.3675 186.09 62.2769 187.086 61.044C186.801 61.8975 186.944 62.8933 187.418 63.652C187.892 64.4107 188.698 64.9323 189.599 65.0271C188.082 66.3548 187.702 68.7731 188.745 70.4802C189.789 72.1872 192.207 72.8984 194.009 71.9975C195.242 71.3337 196.048 70.0534 196.475 68.7257C197.328 65.7383 196.285 62.4191 194.199 60.143Z" fill="#D8FE74"/>
<path d="M174.615 91.2951C177.84 91.7219 182.297 91.1529 183.435 90.252C180.163 94.7092 174.425 95.4679 174.425 95.4679L174.615 91.2951Z" fill="black"/>
<path d="M179.025 73.7774L179.148 73.8302L179.201 73.707C179.466 73.0877 180.043 72.6415 180.712 72.5062C181.383 72.4181 182.091 72.6437 182.531 73.171L182.62 73.2785L182.724 73.1844L183.246 72.7102L183.343 72.6222L183.257 72.5232C182.608 71.7742 181.565 71.429 180.575 71.5775C179.581 71.7266 178.689 72.4204 178.291 73.3152L178.236 73.4394L178.361 73.4929L179.025 73.7774Z" fill="#010000" stroke="black" stroke-width="0.268126"/>
<path d="M166.499 70.5982L166.61 70.6582L166.677 70.5505C167.037 69.9657 167.668 69.5142 168.389 69.3791C169.106 69.2446 169.872 69.4691 170.412 69.9193L170.516 70.0059L170.602 69.9012L171.029 69.3796L171.111 69.2788L171.013 69.1934C170.272 68.5517 169.189 68.2544 168.246 68.4515C167.256 68.6014 166.372 69.243 165.833 70.0754L165.755 70.1974L165.882 70.2663L166.499 70.5982Z" fill="#010000" stroke="black" stroke-width="0.268126"/>
<path d="M178.346 69.8796L178.457 69.9443L178.527 69.8363C178.933 69.2049 179.564 68.7985 180.288 68.6627L180.288 68.6627L180.29 68.6624C180.956 68.5291 181.723 68.7509 182.315 69.2062L182.423 69.289L182.504 69.1804L182.931 68.6114L183.012 68.5041L182.904 68.4237C182.12 67.8358 181.088 67.5381 180.098 67.735C179.111 67.884 178.222 68.4765 177.728 69.3668L177.664 69.4815L177.777 69.5477L178.346 69.8796Z" fill="#010000" stroke="black" stroke-width="0.268126"/>
<path d="M168.381 75.7136L168.503 75.7791L168.565 75.6555C168.827 75.1301 169.402 74.7288 170.024 74.6384C170.653 74.5948 171.319 74.8217 171.712 75.2584L171.802 75.3586L171.902 75.268L172.423 74.7938L172.523 74.7026L172.431 74.6034C171.787 73.9091 170.843 73.5599 169.897 73.7082C168.998 73.8092 168.157 74.4058 167.712 75.1979L167.645 75.3169L167.765 75.3817L168.381 75.7136Z" fill="#010000" stroke="black" stroke-width="0.268126"/>
<path d="M205.244 138.665L191.398 135.535C191.398 135.535 184.475 145.872 184.855 150.756C185.234 155.593 188.364 163.038 191.256 161.757C193.342 165.361 195.476 163.701 195.476 163.701C197.563 165.74 199.08 164.081 199.08 164.081C199.08 164.081 200.882 165.74 201.403 165.171C202.352 164.176 199.744 155.972 199.744 155.972C204.533 152.938 206.003 148.622 205.244 138.665Z" fill="#EF8D64"/>
<path d="M190.839 162.228L190.649 161.753C189.796 159.809 189.132 157.818 188.515 155.874C188.326 155.273 188.136 154.672 187.946 154.072L187.757 153.598L188.752 153.266L188.895 153.74C189.116 154.34 189.321 154.941 189.511 155.542C190.128 157.533 190.744 159.43 191.598 161.327L191.787 161.801L190.839 162.228Z" fill="black"/>
<path d="M195.056 164.031L194.819 163.605C193.776 161.376 192.969 159.147 192.211 156.966C191.958 156.302 191.721 155.623 191.499 154.927L191.31 154.453L192.258 154.121L192.448 154.595C192.701 155.259 192.938 155.923 193.159 156.587C193.965 158.863 194.771 160.997 195.767 163.13L196.004 163.605L195.056 164.031Z" fill="black"/>
<path d="M198.514 164.365L198.325 163.844C198.104 163.18 197.882 162.516 197.661 161.852C197.045 159.956 196.333 158.011 195.907 156.067L195.764 155.593L196.807 155.309L196.902 155.83C197.377 157.68 197.993 159.624 198.657 161.52C198.878 162.216 199.099 162.88 199.321 163.512L199.463 164.033L198.514 164.365Z" fill="black"/>
<path d="M193.156 81.4247C201.975 80.2392 217.765 79.5754 221.891 95.4603C225.969 111.393 217.481 137.473 212.17 139.322C206.859 141.171 190.453 135.671 188.698 130.976C186.991 126.282 194.388 93.8007 194.388 93.8007L193.156 81.4247Z" fill="#3664FF"/>
<path d="M191.062 130.938C189.639 131.413 188.975 135.728 189.687 136.676C190.35 137.577 204.813 143.457 206.188 143.22C207.563 142.935 208.559 138.857 208.559 137.909C208.511 136.96 196.278 129.374 191.062 130.938Z" fill="#C7FF5A"/>
<path d="M191.826 108.748L190.783 108.559L190.878 108.084C193.296 92.6261 195.904 88.643 197.469 86.3195L197.896 85.7031L198.749 86.2721L198.37 86.8886C196.805 89.1646 194.245 93.0055 191.921 108.227L191.826 108.748Z" fill="black"/>
<path d="M190.448 137.954C190.416 137.954 190.4 137.938 190.4 137.906C190.306 137.906 190.306 137.812 190.306 137.764L192.582 130.272C192.582 130.225 192.676 130.177 192.724 130.225C192.819 130.225 192.819 130.32 192.819 130.367L190.543 137.859C190.543 137.906 190.495 137.954 190.448 137.954Z" fill="black"/>
<path d="M193.397 139.421C193.302 139.421 193.254 139.326 193.302 139.279L195.91 131.075C195.957 131.028 196.005 130.98 196.099 130.98C196.147 131.028 196.194 131.075 196.147 131.17L193.539 139.326C193.539 139.421 193.492 139.421 193.397 139.421Z" fill="black"/>
<path d="M196.817 141.272C196.817 141.272 196.801 141.272 196.77 141.272C196.722 141.225 196.675 141.177 196.722 141.082L200.231 132.073C200.279 132.025 200.326 131.978 200.421 132.026C200.468 132.026 200.516 132.12 200.468 132.168L196.959 141.177C196.928 141.24 196.88 141.272 196.817 141.272Z" fill="black"/>
<path d="M200.646 143.171C200.615 143.171 200.599 143.171 200.599 143.171C200.504 143.123 200.504 143.028 200.504 142.981L201.357 140.942C201.405 140.895 201.452 140.847 201.547 140.895C201.594 140.895 201.642 140.989 201.594 141.037L200.741 143.076C200.709 143.139 200.678 143.171 200.646 143.171Z" fill="black"/>
<path d="M201.46 141.136C201.46 141.136 201.444 141.136 201.412 141.136C201.365 141.089 201.317 141.041 201.365 140.946L204.115 134.308C204.163 134.213 204.21 134.213 204.305 134.213C204.352 134.26 204.4 134.308 204.352 134.403L201.602 141.041C201.57 141.104 201.523 141.136 201.46 141.136Z" fill="black"/>
<path d="M203.684 143.65C203.653 143.65 203.637 143.65 203.637 143.65C203.542 143.602 203.542 143.508 203.542 143.46L207.383 136.253C207.383 136.205 207.478 136.158 207.525 136.205C207.62 136.205 207.62 136.3 207.573 136.347L203.779 143.602C203.748 143.634 203.716 143.65 203.684 143.65Z" fill="black"/>
<path d="M127.429 71.4106L127.547 71.465L127.605 71.3488C127.775 71.0098 128.116 70.7505 128.504 70.6624C128.844 70.6222 129.267 70.7527 129.517 71.0442L129.607 71.149L129.709 71.0561L130.231 70.582L130.335 70.4874L130.235 70.388C129.733 69.8856 129.028 69.6325 128.32 69.7336C127.611 69.8348 126.999 70.291 126.744 70.9562L126.698 71.0734L126.812 71.1261L127.429 71.4106Z" fill="#010000" stroke="black" stroke-width="0.268126"/>
<path d="M114.901 68.2695L115.021 68.3492L115.092 68.2245C115.45 67.5983 116.125 67.1465 116.799 67.0101C117.526 66.9204 118.291 67.1042 118.826 67.5497L118.924 67.6319L119.011 67.5369L119.485 67.0153L119.58 66.9104L119.47 66.8211C118.68 66.179 117.645 65.9339 116.663 66.0813C115.672 66.2299 114.784 66.8722 114.291 67.7106L114.227 67.8198L114.332 67.8901L114.901 68.2695Z" fill="#010000" stroke="black" stroke-width="0.268126"/>
<path d="M126.804 67.5201L126.915 67.5801L126.982 67.4723C127.342 66.8876 127.973 66.4361 128.694 66.3009C129.411 66.1665 130.177 66.391 130.718 66.8412L130.821 66.9278L130.907 66.8231L131.334 66.3015L131.416 66.2007L131.318 66.1153C130.577 65.4736 129.494 65.1763 128.551 65.3734C127.561 65.5232 126.677 66.1649 126.139 66.9973L126.06 67.1193L126.188 67.1881L126.804 67.5201Z" fill="#010000" stroke="black" stroke-width="0.268126"/>
<path d="M116.911 73.4584L116.975 73.3404C117.288 72.7584 117.867 72.3634 118.432 72.3199L118.432 72.3202L118.441 72.319C119.063 72.2301 119.732 72.4531 120.176 72.8975L120.271 72.9923L120.366 72.8975L120.84 72.4233L120.931 72.3322L120.844 72.2375C120.244 71.5877 119.252 71.2425 118.359 71.3417L118.359 71.3416L118.353 71.3426C117.416 71.4906 116.571 72.0345 116.122 72.8822L116.06 72.9999L116.177 73.063L116.793 73.3949L116.911 73.4584Z" fill="#010000" stroke="black" stroke-width="0.268126"/>
<path d="M111.124 52.2216C111.267 52.6957 110.84 53.2173 110.129 53.4544C109.417 53.6915 108.706 53.5018 108.564 53.075C108.422 52.6483 108.896 52.0793 109.607 51.8422C110.318 51.6525 110.982 51.7948 111.124 52.2216Z" fill="#010000"/>
<path d="M114.823 50.8005L104.818 54.0723C100.693 55.4474 97.2313 59.0512 97.5158 63.6033L98.1322 70.9057L126.63 61.5644L124.781 55.8742C123.453 51.7489 118.949 49.4728 114.823 50.8005Z" fill="#C6F75A"/>
<path d="M97.9833 66.9704C84.1847 71.4751 85.0856 75.1263 85.0856 75.1263C85.0856 75.1263 92.388 72.7554 93.6682 72.3761L116.998 64.7418C116.998 64.7418 112.066 62.3709 97.9833 66.9704Z" fill="#C6F75A"/>
<path d="M98.0823 67.1996L97.8926 66.7254C97.94 66.7254 101.354 65.54 105.385 64.639C110.838 63.4536 114.773 63.4061 117.097 64.4968L116.907 64.9709C111.549 62.4578 98.1771 67.1522 98.0823 67.1996Z" fill="#010000"/>
<path d="M85.1795 75.356L85.0372 74.8818L126.575 61.3203L126.718 61.7945L85.1795 75.356Z" fill="#010000"/>
<path d="M124.44 61.1784L122.781 61.7C122.496 61.7948 122.212 61.6525 122.117 61.368L121.974 60.9413C121.88 60.6568 122.022 60.3723 122.306 60.2775L123.966 59.7558C124.203 59.661 124.535 59.8033 124.582 60.0878L124.725 60.5145C124.819 60.7991 124.677 61.0835 124.44 61.1784Z" fill="#010000"/>
<path d="M172.081 79.3093L172.081 79.3093L172.083 79.3121C172.382 79.8769 172.805 80.2379 173.354 80.3752C173.488 80.4085 173.61 80.4266 173.719 80.4266C174.076 80.4266 174.391 80.3248 174.622 80.2187C174.738 80.1655 174.834 80.1106 174.905 80.0653C174.972 80.0224 175.024 79.9833 175.046 79.9605L175.128 79.8792L175.06 79.7864L174.538 79.0752L174.462 78.9718L174.356 79.0429C174.294 79.0843 174.173 79.1502 174.03 79.1997C173.89 79.2484 173.739 79.277 173.605 79.2601C173.434 79.208 173.255 79.0533 173.077 78.7569C172.981 78.5722 172.966 78.2818 173.032 77.9031C173.097 77.5278 173.237 77.09 173.422 76.6322C173.792 75.7172 174.333 74.741 174.779 74.0594L174.854 73.9448L174.738 73.8722L173.979 73.398L173.86 73.3232L173.791 73.4466C173.772 73.4815 173.737 73.5402 173.69 73.6195C173.461 74.0041 172.943 74.8723 172.523 75.8473C172.269 76.436 172.047 77.0707 171.943 77.6697C171.839 78.2662 171.849 78.8453 172.081 79.3093Z" fill="#010000" stroke="black" stroke-width="0.268126"/>
<path d="M175.668 82.9961V83.133L175.805 83.1301C176.979 83.1056 177.751 82.6635 178.228 82.1052C178.701 81.5515 178.876 80.8917 178.876 80.4355V80.3015H178.742H177.889H177.755V80.4355C177.755 80.4869 177.724 80.8605 177.466 81.2232C177.213 81.5775 176.732 81.9384 175.799 81.9611L175.668 81.9643V82.0952V82.9961Z" fill="#010000" stroke="black" stroke-width="0.268126"/>
<path d="M78.3577 126.476L77.4568 125.955L77.6939 125.528C86.5136 109.595 109.653 103.668 109.891 103.573L110.365 103.479L110.649 104.474L110.128 104.617C109.891 104.664 87.1774 110.496 78.5948 126.002L78.3577 126.476Z" fill="black"/>
<path d="M94.8962 111.113L94.3746 111.018C91.3873 110.401 89.9647 109.595 89.9173 108.505C89.8699 108.078 90.107 106.75 93.5211 105.517C93.0943 104.948 92.383 103.763 91.7666 102.388C90.4863 99.6849 90.2492 97.646 91.0553 96.3183C91.8614 94.9432 93.7582 94.469 96.6032 94.8958L97.1248 94.9432L96.9826 95.9863L96.461 95.9389C94.0427 95.5596 92.5253 95.8915 91.9089 96.8399C90.676 98.9263 93.4737 103.715 94.6591 105.375L94.754 105.517C94.8488 105.66 94.8488 105.802 94.8014 105.991C94.7539 106.134 94.6117 106.276 94.4694 106.323C92.7624 106.845 90.9131 107.841 90.9605 108.457C90.9605 108.505 91.1028 109.263 94.5643 109.975L95.0859 110.117L94.8962 111.113Z" fill="black"/>
<path d="M125.338 90.2477C123.015 90.8168 119.648 90.6745 118.795 90.1055C121.545 93.9463 126.097 92.4764 126.097 92.4764L125.338 90.2477Z" fill="black"/>
</svg>
