<svg width="61" height="65" viewBox="0 0 61 65" fill="none" xmlns="http://www.w3.org/2000/svg">
<mask id="mask0_14182_15295" style="mask-type:alpha" maskUnits="userSpaceOnUse" x="3" y="9" width="56" height="56">
<circle cx="31" cy="37" r="28" fill="#EAECF0"/>
</mask>
<g mask="url(#mask0_14182_15295)">
<circle cx="31" cy="37" r="28" fill="#D1E5D8"/>
</g>
<rect width="29" height="16" rx="4" fill="#829C8B"/>
<path d="M8.228 12.144C7.396 12.144 6.668 11.96 6.044 11.592C5.42 11.224 4.932 10.716 4.58 10.068C4.228 9.412 4.052 8.656 4.052 7.8C4.052 6.944 4.228 6.192 4.58 5.544C4.932 4.888 5.42 4.376 6.044 4.008C6.668 3.64 7.396 3.456 8.228 3.456C9.06 3.456 9.788 3.64 10.412 4.008C11.036 4.376 11.52 4.888 11.864 5.544C12.216 6.192 12.392 6.944 12.392 7.8C12.392 8.624 12.228 9.356 11.9 9.996C11.58 10.636 11.132 11.14 10.556 11.508L12.584 13.572H10.976L9.476 11.988C9.084 12.092 8.668 12.144 8.228 12.144ZM8.228 11.004C8.804 11.004 9.304 10.876 9.728 10.62C10.16 10.364 10.496 9.996 10.736 9.516C10.976 9.036 11.096 8.464 11.096 7.8C11.096 7.136 10.976 6.564 10.736 6.084C10.496 5.604 10.16 5.236 9.728 4.98C9.304 4.724 8.804 4.596 8.228 4.596C7.652 4.596 7.148 4.724 6.716 4.98C6.284 5.236 5.948 5.604 5.708 6.084C5.476 6.564 5.36 7.136 5.36 7.8C5.36 8.464 5.476 9.036 5.708 9.516C5.948 9.996 6.284 10.364 6.716 10.62C7.148 10.876 7.652 11.004 8.228 11.004ZM14.6848 12V5.04L13.3288 5.352V4.416L15.1888 3.6H16.0048V12H14.6848ZM21.0714 12.144C20.3114 12.144 19.6554 11.964 19.1034 11.604C18.5594 11.236 18.1394 10.728 17.8434 10.08C17.5554 9.424 17.4114 8.664 17.4114 7.8C17.4114 6.936 17.5554 6.18 17.8434 5.532C18.1394 4.876 18.5594 4.368 19.1034 4.008C19.6554 3.64 20.3114 3.456 21.0714 3.456C21.8314 3.456 22.4834 3.64 23.0274 4.008C23.5714 4.368 23.9874 4.876 24.2754 5.532C24.5714 6.18 24.7194 6.936 24.7194 7.8C24.7194 8.664 24.5714 9.424 24.2754 10.08C23.9874 10.728 23.5714 11.236 23.0274 11.604C22.4834 11.964 21.8314 12.144 21.0714 12.144ZM21.0714 11.004C21.5274 11.004 21.9314 10.876 22.2834 10.62C22.6434 10.364 22.9234 9.996 23.1234 9.516C23.3234 9.036 23.4234 8.464 23.4234 7.8C23.4234 7.136 23.3234 6.564 23.1234 6.084C22.9234 5.604 22.6434 5.236 22.2834 4.98C21.9314 4.724 21.5274 4.596 21.0714 4.596C20.6074 4.596 20.1994 4.724 19.8474 4.98C19.4954 5.236 19.2194 5.604 19.0194 6.084C18.8194 6.564 18.7194 7.136 18.7194 7.8C18.7194 8.464 18.8194 9.036 19.0194 9.516C19.2194 9.996 19.4954 10.364 19.8474 10.62C20.1994 10.876 20.6074 11.004 21.0714 11.004Z" fill="white"/>
<path d="M26.0609 41.511L37.3491 40.0864C37.3491 40.0864 37.1719 46.9407 37.1719 49.8751C37.1719 52.6991 25.9854 53.4715 25.9854 50.1911C25.9854 48.7239 26.0583 41.5135 26.0583 41.5135L26.0609 41.511Z" fill="#FB8E65"/>
<path d="M25.9883 48.1143L26.0586 45.8872L29.6025 46.0176L25.9883 48.1143Z" fill="black"/>
<path d="M33.8123 43.3025C33.8123 43.3025 31.17 46.8613 25.651 46.5854C24.7025 46.5377 23.9052 46.2769 23.2485 45.9108C21.4557 44.9151 20.5046 42.9413 20.7339 40.96C21.0987 37.835 21.844 31.4974 22.2088 28.6759C22.7013 24.8537 39.1411 20.9739 38.8805 33.8248L38.0649 41.9506" fill="#FB8E65"/>
<path d="M37.37 41.4502L37.2735 44.2942L36.0488 41.548L37.37 41.4502Z" fill="black"/>
<path d="M22.2145 28.1935C22.1598 25.061 24.6405 23.19 28.3433 22.9944C28.3433 22.9944 33.104 21.2865 36.5254 22.1743C39.9468 23.0621 40.5409 25.8209 40.4679 27.4862L40.236 34.2527C40.2334 34.3505 40.1605 34.4333 40.0614 34.4509C39.4621 34.5612 37.4583 35.0979 37.3384 37.3426C37.3332 37.4504 37.2472 37.5382 37.1378 37.5457C36.2362 37.6134 34.9411 37.1344 35.0714 35.5368C35.2251 33.6659 35.1001 31.208 34.4434 30.6137C33.4402 29.7058 31.8871 26.2121 27.6892 27.2454C24.062 28.1383 22.2145 28.2486 22.2119 28.1909L22.2145 28.1935Z" fill="black"/>
<path d="M26.1531 34.5381C26.1531 34.5381 23.1252 37.3295 23.5187 38.7841C23.9121 40.2362 25.3271 39.6167 25.3271 39.6167" stroke="black" stroke-width="0.816012" stroke-miterlimit="10"/>
<path d="M22.9181 36.3317C22.7956 36.0007 22.4934 35.7398 22.139 35.6571C21.7846 35.5768 21.3911 35.6771 21.1279 35.9204" stroke="black" stroke-width="0.816012" stroke-miterlimit="10"/>
<path d="M30.4739 33.1684C30.1169 32.7345 29.5618 32.4612 28.9886 32.4336C28.4153 32.4085 27.8342 32.6292 27.4355 33.0305" stroke="black" stroke-width="0.816012" stroke-miterlimit="10"/>
<path d="M23.0383 33.5932C22.6813 33.1593 22.1263 32.886 21.553 32.8584C20.9798 32.8333 20.3987 33.054 20 33.4553" stroke="black" stroke-width="0.816012" stroke-miterlimit="10"/>
<path d="M30.2324 36.365C29.8728 36.0013 29.3282 35.8182 28.8123 35.886C28.2963 35.9537 27.8221 36.2722 27.5771 36.7161" stroke="black" stroke-width="0.816012" stroke-miterlimit="10"/>
<path d="M25.8486 42.0731C26.2942 42.3665 26.8883 42.4367 27.3965 42.2587C27.9046 42.0806 28.3111 41.6592 28.457 41.1602" stroke="black" stroke-width="0.816012" stroke-miterlimit="10"/>
<path d="M23.8351 30.0495C25.1145 30.0495 26.1516 29.0513 26.1516 27.8199C26.1516 26.5886 25.1145 25.5903 23.8351 25.5903C22.5557 25.5903 21.5186 26.5886 21.5186 27.8199C21.5186 29.0513 22.5557 30.0495 23.8351 30.0495Z" fill="black"/>
<path d="M24.338 26.135C25.6174 26.135 26.6546 25.1367 26.6546 23.9054C26.6546 22.674 25.6174 21.6758 24.338 21.6758C23.0586 21.6758 22.0215 22.674 22.0215 23.9054C22.0215 25.1367 23.0586 26.135 24.338 26.135Z" fill="black"/>
<path d="M22.5909 27.82C23.8703 27.82 24.9075 26.8218 24.9075 25.5904C24.9075 24.3591 23.8703 23.3608 22.5909 23.3608C21.3116 23.3608 20.2744 24.3591 20.2744 25.5904C20.2744 26.8218 21.3116 27.82 22.5909 27.82Z" fill="black"/>
<path d="M27.4327 24.4387C28.7121 24.4387 29.7493 23.4405 29.7493 22.2091C29.7493 20.9777 28.7121 19.9795 27.4327 19.9795C26.1534 19.9795 25.1162 20.9777 25.1162 22.2091C25.1162 23.4405 26.1534 24.4387 27.4327 24.4387Z" fill="black"/>
<path d="M31.1495 23.7092C32.4289 23.7092 33.4661 22.711 33.4661 21.4796C33.4661 20.2482 32.4289 19.25 31.1495 19.25C29.8701 19.25 28.833 20.2482 28.833 21.4796C28.833 22.711 29.8701 23.7092 31.1495 23.7092Z" fill="black"/>
<path d="M35.0558 24.0798C36.3352 24.0798 37.3723 23.0816 37.3723 21.8502C37.3723 20.6188 36.3352 19.6206 35.0558 19.6206C33.7764 19.6206 32.7393 20.6188 32.7393 21.8502C32.7393 23.0816 33.7764 24.0798 35.0558 24.0798Z" fill="black"/>
<path d="M38.1818 25.9416C39.4612 25.9416 40.4983 24.9434 40.4983 23.712C40.4983 22.4806 39.4612 21.4824 38.1818 21.4824C36.9024 21.4824 35.8652 22.4806 35.8652 23.712C35.8652 24.9434 36.9024 25.9416 38.1818 25.9416Z" fill="black"/>
<path d="M39.7579 28.8938C41.0373 28.8938 42.0745 27.8955 42.0745 26.6642C42.0745 25.4328 41.0373 24.4346 39.7579 24.4346C38.4786 24.4346 37.4414 25.4328 37.4414 26.6642C37.4414 27.8955 38.4786 28.8938 39.7579 28.8938Z" fill="black"/>
<path d="M39.7579 31.8947C41.0373 31.8947 42.0745 30.8965 42.0745 29.6651C42.0745 28.4338 41.0373 27.4355 39.7579 27.4355C38.4786 27.4355 37.4414 28.4338 37.4414 29.6651C37.4414 30.8965 38.4786 31.8947 39.7579 31.8947Z" fill="black"/>
<path d="M39.8614 34.5012C41.1408 34.5012 42.178 33.503 42.178 32.2716C42.178 31.0402 41.1408 30.042 39.8614 30.042C38.5821 30.042 37.5449 31.0402 37.5449 32.2716C37.5449 33.503 38.5821 34.5012 39.8614 34.5012Z" fill="black"/>
<path d="M27.4327 29.6672C28.7121 29.6672 29.7493 28.669 29.7493 27.4376C29.7493 26.2062 28.7121 25.208 27.4327 25.208C26.1534 25.208 25.1162 26.2062 25.1162 27.4376C25.1162 28.669 26.1534 29.6672 27.4327 29.6672Z" fill="black"/>
<path d="M31.3292 29.448C32.6086 29.448 33.6457 28.4497 33.6457 27.2184C33.6457 25.987 32.6086 24.9888 31.3292 24.9888C30.0498 24.9888 29.0127 25.987 29.0127 27.2184C29.0127 28.4497 30.0498 29.448 31.3292 29.448Z" fill="black"/>
<path d="M34.3937 31.6804C35.6731 31.6804 36.7102 30.6822 36.7102 29.4508C36.7102 28.2194 35.6731 27.2212 34.3937 27.2212C33.1143 27.2212 32.0771 28.2194 32.0771 29.4508C32.0771 30.6822 33.1143 31.6804 34.3937 31.6804Z" fill="black"/>
<path d="M35.8652 41.714C41.7386 44.0213 43.3151 39.2211 43.2839 37.7639C43.2552 36.3068 42.2937 34.8246 40.8318 34.4333C39.4325 34.0596 37.7284 35.0403 37.2254 37.1771" fill="#FB8E65"/>
<path d="M38.9795 39.1137L40.5273 36.9092" stroke="black" stroke-width="0.816012" stroke-miterlimit="10"/>
<path d="M39.9883 37.9761C39.9883 37.9761 41.1557 38.3874 40.5772 39.4583" stroke="black" stroke-width="0.816012" stroke-miterlimit="10"/>
<path d="M49.6623 62.0929C55.4051 62.0929 60.116 57.6041 60.116 51.9998C60.116 46.3955 55.4051 41.9068 49.6623 41.9068C43.9195 41.9068 39.2085 46.3955 39.2085 51.9998C39.2085 57.6041 43.9195 62.0929 49.6623 62.0929Z" fill="#CEFF5A" stroke="#EEFAF2" stroke-width="1.68452" stroke-miterlimit="10"/>
<path d="M47.2508 50.0979C48.3997 48.9884 49.2105 47.7347 49.6446 46.5254C50.0788 47.7347 50.8857 48.9884 52.0346 50.0979C53.1835 51.2036 54.4899 51.9839 55.7464 52.3981C54.4899 52.816 53.1835 53.5927 52.0346 54.7021C50.8857 55.8079 50.075 57.0653 49.6446 58.2746C49.2105 57.0653 48.4035 55.8116 47.2508 54.7021C46.1019 53.5964 44.7955 52.816 43.5391 52.3981C44.7955 51.9802 46.1019 51.2036 47.2508 50.0979Z" fill="black"/>
</svg>
