<svg width="80" height="80" viewBox="0 0 80 80" fill="none" xmlns="http://www.w3.org/2000/svg">
<path fill-rule="evenodd" clip-rule="evenodd" d="M35.5069 69.6055L35.5069 39.0554L66 39.0554C66 39.0648 66 39.0743 66 39.0837C66 55.9309 52.3504 69.59 35.5069 69.6055Z" fill="#FAF4E7"/>
<path fill-rule="evenodd" clip-rule="evenodd" d="M35.3935 8.50782L35.3935 39.0579L4.9004 39.0579C4.90039 39.0485 4.90039 39.039 4.90039 39.0296C4.90039 22.1824 18.55 8.52328 35.3935 8.50782Z" fill="#FAF4E7"/>
<path fill-rule="evenodd" clip-rule="evenodd" d="M4.95502 39.065L35.505 39.0571L35.5129 69.5507C35.5035 69.5507 35.4941 69.5507 35.4847 69.5507C18.6373 69.5551 4.97457 55.9087 4.95502 39.065Z" fill="#FAF4E7"/>
<path fill-rule="evenodd" clip-rule="evenodd" d="M65.9424 39.0483L35.3924 39.0562L35.3845 8.56258C35.394 8.56257 35.4034 8.56257 35.4128 8.56256C52.2601 8.55822 65.9229 22.2045 65.9424 39.0483Z" fill="#FAF4E7"/>
<path fill-rule="evenodd" clip-rule="evenodd" d="M35.5059 39.0547L65.9722 39.0547L65.9723 39.083C65.9723 47.4901 62.5732 55.1033 57.0744 60.6233L35.5059 39.0547Z" fill="#405FF4"/>
<path fill-rule="evenodd" clip-rule="evenodd" d="M13.7972 17.4515C8.29872 22.9715 4.89991 30.5844 4.8999 38.9912L4.89992 39.0195L35.3652 39.0195L13.7972 17.4515Z" fill="#405FF4"/>
<path fill-rule="evenodd" clip-rule="evenodd" d="M35.5068 39.0547L35.5147 69.5205L35.4864 69.5205C27.0795 69.5226 19.4656 66.1257 13.9442 60.6285L35.5068 39.0547Z" fill="#F5009E"/>
<path fill-rule="evenodd" clip-rule="evenodd" d="M35.5146 39.0352L35.5068 8.56902L35.535 8.569C43.9421 8.56683 51.5561 11.9639 57.0775 17.4612L35.5146 39.0352Z" fill="#A2DC1C"/>
<circle cx="35" cy="39" r="30.3249" stroke="#C3E56A" stroke-width="1.35027"/>
<circle cx="35" cy="39" r="30.6906" stroke="#071B7C" stroke-width="0.618875"/>
<path d="M29.1605 60.8979C30.0469 60.0115 31.0502 59.3891 32.0177 59.0572C31.0502 58.7234 30.0469 58.101 29.1605 57.2165C28.2742 56.3302 27.6518 55.3269 27.3199 54.3594C26.9861 55.3269 26.3637 56.3302 25.4792 57.2165C24.5929 58.1029 23.5895 58.7253 22.6221 59.0572C23.5895 59.391 24.5929 60.0134 25.4792 60.8979C26.3656 61.7842 26.988 62.7875 27.3199 63.755C27.6537 62.7875 28.2761 61.7842 29.1605 60.8979Z" fill="#C8FF5A"/>
<path d="M16.6713 32.2064C17.5577 31.3201 18.561 30.6977 19.5285 30.3658C18.561 30.032 17.5577 29.4096 16.6713 28.5251C15.7849 27.6388 15.1626 26.6354 14.8306 25.668C14.4968 26.6354 13.8745 27.6388 12.99 28.5251C12.1036 29.4115 11.1003 30.0339 10.1328 30.3658C11.1003 30.6996 12.1036 31.322 12.99 32.2064C13.8764 33.0928 14.4987 34.0961 14.8306 35.0636C15.1644 34.0961 15.7868 33.0928 16.6713 32.2064Z" fill="#C8FF5A"/>
<path d="M45.5326 20.39C46.419 19.5037 47.4223 18.8813 48.3898 18.5494C47.4223 18.2156 46.419 17.5932 45.5326 16.7087C44.6462 15.8223 44.0239 14.819 43.692 13.8516C43.3582 14.819 42.7358 15.8223 41.8513 16.7087C40.9649 17.5951 39.9616 18.2175 38.9941 18.5494C39.9616 18.8832 40.9649 19.5055 41.8513 20.39C42.7377 21.2764 43.36 22.2797 43.692 23.2472C44.0258 22.2797 44.6481 21.2764 45.5326 20.39Z" fill="black"/>
<path d="M57.2914 49.0814C58.1778 48.1951 59.1811 47.5727 60.1486 47.2408C59.1811 46.907 58.1778 46.2846 57.2914 45.4001C56.405 44.5138 55.7827 43.5104 55.4508 42.543C55.1169 43.5104 54.4946 44.5138 53.6101 45.4001C52.7237 46.2865 51.7204 46.9089 50.7529 47.2408C51.7204 47.5746 52.7237 48.197 53.6101 49.0814C54.4965 49.9678 55.1188 50.9711 55.4508 51.9386C55.7846 50.9711 56.4069 49.9678 57.2914 49.0814Z" fill="#C8FF5A"/>
<path d="M35.4809 17.1328L30.6943 8.84211L35.2408 8.24134L40.2676 8.84211L35.4809 17.1328Z" fill="#687083"/>
<path d="M35.7007 16.8906L30.914 8.59993L35.4605 7.99915L40.4873 8.59993L35.7007 16.8906Z" fill="#071B7C"/>
<path d="M27.7705 64.4939L31.4584 52.5586L37.7613 54.2349L31.4584 67.176L27.7705 64.4939Z" fill="#FB8E65"/>
<path d="M64.6176 44.7499L45.5293 50.1135L53.3011 39.3033L55.5356 34.4398L65.9247 28.2812L64.6176 44.7499Z" fill="#FB8E65"/>
<path d="M65.0759 41.359L47.7959 47.3372L53.376 39.25L43.4155 41.35C43.4155 41.35 35.1883 41.8687 31.6798 51.4627C31.5576 51.7981 31.4413 52.1424 31.3311 52.5001L37.1467 55.3245L31.3311 68.2898H67.6603L71.1539 45.1805L65.0774 41.359H65.0759Z" fill="#071B7C"/>
<path d="M40.9342 46.8789L37.0397 55.5637L34.2422 61.7968" stroke="black" stroke-width="0.425938" stroke-miterlimit="10"/>
<path d="M64.0888 53.8906L64.0771 53.9023" stroke="black" stroke-width="0.631183" stroke-miterlimit="10"/>
<path d="M65.4416 39.2539L67.1124 42.6447L52.5256 50.6022L50.9725 47.0489L47.7949 47.3411L65.4416 39.2539Z" fill="#071B7C"/>
<path d="M47.794 47.3426L47.0935 46.5765L44.5225 47.4394L50.517 39.8575L53.4874 38.543L53.3741 39.2554L47.794 47.3426Z" fill="#071B7C"/>
<path d="M67.1126 42.6445L52.5257 50.602L50.9727 47.0488" stroke="black" stroke-width="0.425938" stroke-miterlimit="10"/>
<path d="M47.0935 46.5744L44.5225 47.4374L50.517 39.8555" stroke="black" stroke-width="0.425938" stroke-miterlimit="10"/>
<path d="M56.9797 31.1548L54.524 36.7432L64.1794 29.9038L56.9797 31.1548Z" fill="black"/>
<path d="M65.4089 29.6051C63.934 31.669 61.6125 33.953 59.1622 34.4555C52.6373 35.7918 51.3776 30.4726 51.8627 26.6609C52.6282 20.6466 55.5859 16.0298 55.5859 16.0298C55.5859 16.0298 68.0918 11.4342 68.9213 21.8142C69.3912 24.9652 66.9165 27.4988 65.4086 29.6073L65.4089 29.6051Z" fill="#FB8E65"/>
<path d="M60.3024 25.6533C60.0499 25.2432 59.597 24.9702 59.1234 24.9436C58.6501 24.9148 58.1652 25.1316 57.8633 25.51" stroke="black" stroke-width="0.467693" stroke-miterlimit="10"/>
<path d="M53.4927 24.2903C53.445 23.9553 53.223 23.6532 52.9228 23.5104C52.6223 23.3699 52.2511 23.3964 51.9695 23.5777" stroke="black" stroke-width="0.467693" stroke-miterlimit="10"/>
<path d="M54.119 21.7119C53.8827 21.2368 53.4358 20.8769 52.9287 20.7488C52.4216 20.6206 51.8603 20.7273 51.4302 21.0353" stroke="black" stroke-width="0.467693" stroke-miterlimit="10"/>
<path d="M61.12 22.6611C60.8837 22.186 60.4368 21.8262 59.9297 21.698C59.4226 21.5699 58.8613 21.6766 58.4311 21.9845" stroke="black" stroke-width="0.467693" stroke-miterlimit="10"/>
<path d="M55.7785 23.6408C55.7785 23.6408 53.3693 27.0361 54.0082 28.4448C54.6472 29.8534 55.8976 28.964 55.8976 28.964" stroke="black" stroke-width="0.467693" stroke-miterlimit="10"/>
<path d="M59.3066 30.4376C59.3066 30.4376 58.9267 32.1915 56.8387 31.8298" stroke="black" stroke-width="0.467693" stroke-miterlimit="10"/>
<path d="M66.5164 51.7009L56.1663 65.1632L32.757 58.3135L29.584 66.01L49.4156 76.798C56.0889 79.849 63.4088 78.6902 68.0752 71.8993L74.8159 62.8212C77.6816 57.7605 77.4059 55.376 76.2359 52.7483C74.4649 48.7735 69.1242 48.2427 66.5144 51.703L66.5164 51.7009Z" fill="#FB8E65"/>
<path d="M63.3002 55.8828L56.1688 65.1595L39.2861 60.2203" stroke="black" stroke-width="0.369146" stroke-miterlimit="10"/>
<path d="M74.8164 62.815C77.6821 57.7543 77.4064 55.3698 76.2363 52.7422" stroke="black" stroke-width="0.22756" stroke-miterlimit="10"/>
<path d="M29.584 66.0039L49.4156 76.7919" stroke="black" stroke-width="0.369146" stroke-miterlimit="10"/>
<path d="M25.7813 61.8245H31.7586C32.538 61.8245 33.0218 61.1803 32.8434 60.3841L29.9896 47.7646C29.8091 46.9685 29.0337 46.3242 28.2543 46.3242H22.2771C21.4977 46.3242 21.0138 46.9685 21.1923 47.7646L24.0461 60.3841C24.2265 61.1803 25.0019 61.8245 25.7813 61.8245Z" fill="black"/>
<path d="M31.8075 60.5685L28.9537 47.9491C28.8586 47.5237 28.3985 47.1367 27.9919 47.1367H21.8203" stroke="#CEFF5A" stroke-width="0.22756" stroke-miterlimit="10"/>
<path d="M34.9187 62.0971C34.9187 62.0971 35.0754 60.6628 34.6728 58.8698C34.0521 56.1085 33.0526 55.2981 31.5493 54.6681L31.8944 56.9006L27.6623 54.2305L24.2295 61.7527C24.2295 61.7527 28.6143 66.856 31.5831 66.1388C36.2078 65.0225 34.9187 62.0971 34.9187 62.0971Z" fill="#FB8E65"/>
<path d="M34.6737 58.869C34.0531 56.1081 33.0537 55.2979 31.5508 54.668" stroke="black" stroke-width="0.425938" stroke-miterlimit="10"/>
<path d="M27.7773 57.2111C26.3256 56.0057 22.6826 52.7743 21.9349 53.8541C20.7847 55.5154 23.1704 56.8343 26.4228 59.4031C26.6846 58.9736 27.5374 57.5697 27.7773 57.2111Z" fill="#FB8E65"/>
<path d="M27.2769 58.8586C24.8673 57.0171 22.7672 55.0317 21.8827 56.5329C20.8534 58.2752 23.9709 59.4178 26.0057 61.1033C26.2516 60.6637 27.0508 59.2273 27.2769 58.8586Z" fill="#FB8E65"/>
<path d="M27.2505 61.4046C24.2896 59.01 23.1335 57.5979 22.3699 58.7912C21.4815 60.179 23.4984 61.1048 26.1498 63.1935C26.362 62.843 27.0562 61.6984 27.2505 61.4067V61.4046Z" fill="#FB8E65"/>
<path d="M28.8367 54.9713C28.8367 54.9713 22.2883 49.9896 21.1539 51.3024C19.8351 52.8279 27.4247 56.977 27.4247 56.977L28.8367 54.9713Z" fill="#FB8E65"/>
<path d="M22.6631 53.8516L27.0173 56.7461" stroke="black" stroke-width="0.425938" stroke-miterlimit="10"/>
<path d="M22.7402 56.5195L26.6107 59.092" stroke="black" stroke-width="0.425938" stroke-miterlimit="10"/>
<path d="M22.7402 58.9297L26.0059 61.1031" stroke="black" stroke-width="0.425938" stroke-miterlimit="10"/>
<path d="M30.2705 55.8164L32.3921 57.208" stroke="black" stroke-width="0.22756" stroke-miterlimit="10"/>
<path d="M71.0288 44.982L56.6699 57.9831L63.5036 67.4921L67.5367 65.8795L65.1117 69.7278L67.5367 73.1022C67.5367 73.1022 88.124 58.5599 71.0302 44.9805L71.0288 44.982Z" fill="#071B7C"/>
<path d="M63.6373 67.3711L56.8037 57.8621L70.0194 45.6523" stroke="black" stroke-width="0.425938" stroke-miterlimit="10"/>
<path d="M59.2979 11.6126C59.2979 11.6126 58.5377 9.97222 57.5749 9.16707C57.1301 8.79545 56.4526 9.08073 56.4094 9.65879L56.3325 10.6948C56.3325 10.6948 52.8079 7.67311 50.9254 10.0454C50.4881 10.5972 50.5538 11.393 51.0587 11.8828C52.1979 12.9864 53.8514 14.3302 53.8514 14.3302C53.8514 14.3302 52.729 13.5588 51.7062 14.3677C51.2876 14.6981 51.3496 15.3568 51.8169 15.614C53.3052 16.4304 54.7841 17.4607 54.7841 17.4607C54.7841 17.4607 55.4072 16.1301 56.9143 16.5186" fill="black"/>
<path d="M54.9669 14.1351C54.9669 14.1351 56.0366 17.8306 59.6345 17.5884C63.2323 17.3445 64.1444 18.4236 64.822 19.3489C65.2649 19.9551 64.9815 24.6695 64.5611 26.2385C64.1763 27.678 65.3437 28.2673 66.102 28.2673C66.5636 25.8838 68.8724 26.2385 68.8724 26.2385L70.2459 17.5978C70.5687 16.1921 70.1108 14.7207 69.0485 13.7447L66.5205 11.4231C66.2239 11.1509 65.7472 11.3705 65.7585 11.7722L65.7773 12.3465L57.5925 10.8281" fill="black"/>
<path d="M65.6264 31.71L65.442 34.3235L64.5957 31.5664L65.6264 31.71Z" fill="black"/>
<path d="M68.1746 25.9244C69.3764 26.3458 70.1181 27.5755 70.0824 28.712C70.0467 29.8486 68.4185 33.8599 64.4482 31.447L65.0511 27.7659C65.5588 26.1452 67.0224 25.5192 68.1746 25.9244Z" fill="#FB8E65"/>
<path d="M66.25 29.37L68.1793 27.8164" stroke="black" stroke-width="0.425938" stroke-miterlimit="10"/>
<path d="M67.4248 28.6289C67.4248 28.6289 68.2968 29.3193 67.5061 30.123" stroke="black" stroke-width="0.425938" stroke-miterlimit="10"/>
<path d="M12.8328 9.14075L12.2878 6.60145L10 7.35606L11.7428 5.57137L10 3.78469L12.2878 4.53929L12.8328 2L13.3778 4.53929L15.6656 3.78469L13.9228 5.57137L15.6656 7.35606L13.3778 6.60145L12.8328 9.14075Z" fill="#CEFF5A"/>
<path d="M4.76228 66.8456L3 64.9219L4.76228 62.9982L6.52456 64.9219L4.76228 66.8456Z" fill="#F5009E"/>
<path d="M72.9959 37L72.5264 38.5104L71 38.975L72.5264 39.4418L72.9959 40.9522L73.4677 39.4418L74.9941 38.975L73.4677 38.5104L72.9959 37Z" fill="white"/>
</svg>
