<svg width="271" height="265" viewBox="0 0 271 265" fill="none" xmlns="http://www.w3.org/2000/svg">
<path fill-rule="evenodd" clip-rule="evenodd" d="M134.889 223.654L126.133 123.036L226.562 114.297C226.565 114.328 226.568 114.359 226.571 114.391C231.399 169.877 190.359 218.776 134.889 223.654Z" fill="#FAF4E7"/>
<path fill-rule="evenodd" clip-rule="evenodd" d="M117.002 22.4514L125.758 123.07L25.3292 131.809C25.3264 131.778 25.3237 131.746 25.321 131.715C20.4925 76.2287 61.5326 27.3301 117.002 22.4514Z" fill="#FAF4E7"/>
<path fill-rule="evenodd" clip-rule="evenodd" d="M25.5137 131.819L126.13 123.037L134.896 223.466C134.864 223.469 134.833 223.472 134.801 223.475C79.3152 228.318 30.4054 187.289 25.5137 131.819Z" fill="#FAF4E7"/>
<path fill-rule="evenodd" clip-rule="evenodd" d="M226.375 114.287L125.759 123.069L116.993 22.6392C117.024 22.6365 117.056 22.6337 117.087 22.631C172.573 17.7881 221.483 58.817 226.375 114.287Z" fill="#FAF4E7"/>
<path fill-rule="evenodd" clip-rule="evenodd" d="M126.127 123.031L226.474 114.298L226.482 114.393C228.891 142.082 219.878 168.132 203.348 187.888L126.127 123.031Z" fill="#405FF4"/>
<path fill-rule="evenodd" clip-rule="evenodd" d="M125.662 122.962L25.3201 131.694L25.3118 131.599C22.9023 103.911 31.915 77.8625 48.4431 58.1062L125.662 122.962Z" fill="#405FF4"/>
<path fill-rule="evenodd" clip-rule="evenodd" d="M126.129 123.038L134.886 223.37L134.792 223.379C107.105 225.795 81.0566 216.791 61.2966 200.27L126.129 123.038Z" fill="#F5009E"/>
<path fill-rule="evenodd" clip-rule="evenodd" d="M126.148 122.962L117.391 22.6227L117.485 22.6144C145.173 20.1978 171.223 29.2035 190.984 45.7262L126.148 122.962Z" fill="#A2DC1C"/>
<circle cx="124.448" cy="122.997" r="100.253" transform="rotate(-4.97342 124.448 122.997)" stroke="#C3E56A" stroke-width="4.46396"/>
<circle cx="124.448" cy="122.997" r="101.462" transform="rotate(-4.97342 124.448 122.997)" stroke="#071B7C" stroke-width="2.04598"/>
<path d="M111.494 196.792C114.159 193.618 117.285 191.281 120.376 189.91C117.094 189.088 113.611 187.326 110.438 184.667C107.265 182.002 104.928 178.876 103.557 175.784C102.735 179.067 100.973 182.549 98.314 185.722C95.6487 188.895 92.5227 191.233 89.4314 192.603C92.7135 193.425 96.1963 195.188 99.3691 197.847C102.542 200.512 104.88 203.638 106.25 206.729C107.072 203.447 108.834 199.964 111.494 196.792Z" fill="#C8FF5A"/>
<path d="M62.1342 105.869C64.7995 102.696 67.9255 100.359 71.0168 98.9883C67.7347 98.1662 64.2519 96.404 61.0791 93.7449C57.9057 91.0796 55.5685 87.9536 54.198 84.8623C53.3759 88.1444 51.6137 91.6272 48.9546 94.8C46.2893 97.9734 43.1633 100.311 40.072 101.681C43.3541 102.503 46.8369 104.265 50.0097 106.924C53.1831 109.59 55.5204 112.716 56.8908 115.807C57.713 112.525 59.4751 109.042 62.1342 105.869Z" fill="#C8FF5A"/>
<path d="M153.804 58.6852C156.469 55.5119 159.595 53.1746 162.687 51.8041C159.405 50.982 155.922 49.2198 152.749 46.5607C149.576 43.8955 147.238 40.7694 145.868 37.6781C145.046 40.9602 143.284 44.443 140.625 47.6158C137.959 50.7892 134.833 53.1265 131.742 54.497C135.024 55.3191 138.507 57.0812 141.68 59.7403C144.853 62.4056 147.19 65.5316 148.561 68.6229C149.383 65.3408 151.145 61.858 153.804 58.6852Z" fill="black"/>
<path d="M200.752 149.817C203.418 146.644 206.544 144.307 209.635 142.936C206.353 142.114 202.87 140.352 199.697 137.693C196.524 135.028 194.187 131.902 192.816 128.81C191.994 132.092 190.232 135.575 187.573 138.748C184.908 141.921 181.781 144.259 178.69 145.629C181.972 146.451 185.455 148.213 188.628 150.873C191.801 153.538 194.139 156.664 195.509 159.755C196.331 156.473 198.093 152.99 200.752 149.817Z" fill="#C8FF5A"/>
<path d="M126.037 50.7034L110.212 23.2946L125.243 21.3084L141.861 23.2946L126.037 50.7034Z" fill="#687083"/>
<path d="M126.767 49.9091L110.943 22.5003L125.973 20.5141L142.592 22.5003L126.767 49.9091Z" fill="#071B7C"/>
<path d="M113.89 213.299L124.422 179.212L142.423 183.999L124.422 220.959L113.89 213.299Z" fill="#FB8E65"/>
<path d="M219.12 156.911L164.604 172.229L186.8 141.355L193.182 127.465L222.853 109.877L219.12 156.911Z" fill="#FB8E65"/>
<path d="M220.434 147.231L171.082 164.305L187.019 141.208L158.572 147.206C158.572 147.206 135.076 148.687 125.056 176.087C124.707 177.045 124.375 178.028 124.06 179.05L140.669 187.116L124.06 224.145H227.815L237.792 158.145L220.438 147.231H220.434Z" fill="#0F28A4"/>
<mask id="mask0_14964_28176" style="mask-type:luminance" maskUnits="userSpaceOnUse" x="124" y="141" width="114" height="84">
<path d="M220.414 147.238L171.063 164.312L187 141.215L158.553 147.213C158.553 147.213 135.056 148.694 125.036 176.094C124.687 177.052 124.355 178.035 124.04 179.057L140.649 187.123L124.04 224.152H227.795L237.773 158.152L220.419 147.238H220.414Z" fill="white"/>
</mask>
<g mask="url(#mask0_14964_28176)">
<path d="M224.011 133.006C226.199 130.818 227.735 128.34 228.557 125.948C229.378 128.336 230.915 130.818 233.103 133.006C235.291 135.194 237.768 136.73 240.16 137.552C237.772 138.373 235.291 139.91 233.103 142.098C230.915 144.286 229.378 146.763 228.557 149.155C227.735 146.767 226.199 144.286 224.011 142.098C221.823 139.91 219.345 138.373 216.953 137.552C219.341 136.73 221.823 135.194 224.011 133.006Z" fill="#CEFF5A"/>
<path d="M197.509 133.006C199.697 130.818 201.233 128.34 202.055 125.948C202.876 128.336 204.413 130.818 206.601 133.006C208.789 135.194 211.266 136.73 213.658 137.552C211.27 138.373 208.789 139.91 206.601 142.098C204.413 144.286 202.876 146.763 202.055 149.155C201.233 146.767 199.697 144.286 197.509 142.098C195.321 139.91 192.843 138.373 190.451 137.552C192.839 136.73 195.321 135.194 197.509 133.006Z" fill="#CEFF5A"/>
<path d="M171.002 133.006C173.19 130.818 174.726 128.34 175.548 125.948C176.369 128.336 177.906 130.818 180.094 133.006C182.282 135.194 184.759 136.73 187.151 137.552C184.763 138.373 182.282 139.91 180.094 142.098C177.906 144.286 176.369 146.763 175.548 149.155C174.726 146.767 173.19 144.286 171.002 142.098C168.814 139.91 166.337 138.373 163.944 137.552C166.332 136.73 168.814 135.194 171.002 133.006Z" fill="#CEFF5A"/>
<path d="M224.011 162.461C226.199 160.274 227.735 157.796 228.557 155.404C229.378 157.792 230.915 160.274 233.103 162.461C235.291 164.649 237.768 166.186 240.16 167.008C237.772 167.829 235.291 169.366 233.103 171.554C230.915 173.742 229.378 176.219 228.557 178.611C227.735 176.223 226.199 173.742 224.011 171.554C221.823 169.366 219.345 167.829 216.953 167.008C219.341 166.186 221.823 164.649 224.011 162.461Z" fill="#CEFF5A"/>
<path d="M197.509 162.461C199.697 160.274 201.233 157.796 202.055 155.404C202.876 157.792 204.413 160.274 206.601 162.461C208.789 164.649 211.266 166.186 213.658 167.008C211.27 167.829 208.789 169.366 206.601 171.554C204.413 173.742 202.876 176.219 202.055 178.611C201.233 176.223 199.697 173.742 197.509 171.554C195.321 169.366 192.843 167.829 190.451 167.008C192.839 166.186 195.321 164.649 197.509 162.461Z" fill="#CEFF5A"/>
<path d="M171.002 162.461C173.19 160.274 174.726 157.796 175.548 155.404C176.369 157.792 177.906 160.274 180.094 162.461C182.282 164.649 184.759 166.186 187.151 167.008C184.763 167.829 182.282 169.366 180.094 171.554C177.906 173.742 176.369 176.219 175.548 178.611C174.726 176.223 173.19 173.742 171.002 171.554C168.814 169.366 166.337 167.829 163.944 167.008C166.332 166.186 168.814 164.649 171.002 162.461Z" fill="#CEFF5A"/>
<path d="M224.011 191.92C226.199 189.732 227.735 187.255 228.557 184.862C229.378 187.25 230.915 189.732 233.103 191.92C235.291 194.108 237.768 195.644 240.16 196.466C237.772 197.287 235.291 198.824 233.103 201.012C230.915 203.2 229.378 205.677 228.557 208.07C227.735 205.682 226.199 203.2 224.011 201.012C221.823 198.824 219.345 197.287 216.953 196.466C219.341 195.644 221.823 194.108 224.011 191.92Z" fill="#CEFF5A"/>
<path d="M197.509 191.92C199.697 189.732 201.233 187.255 202.055 184.862C202.876 187.25 204.413 189.732 206.601 191.92C208.789 194.108 211.266 195.644 213.658 196.466C211.27 197.287 208.789 198.824 206.601 201.012C204.413 203.2 202.876 205.677 202.055 208.07C201.233 205.682 199.697 203.2 197.509 201.012C195.321 198.824 192.843 197.287 190.451 196.466C192.839 195.644 195.321 194.108 197.509 191.92Z" fill="#CEFF5A"/>
<path d="M171.002 191.92C173.19 189.732 174.726 187.255 175.548 184.862C176.369 187.25 177.906 189.732 180.094 191.92C182.282 194.108 184.759 195.644 187.151 196.466C184.763 197.287 182.282 198.824 180.094 201.012C177.906 203.2 176.369 205.677 175.548 208.07C174.726 205.682 173.19 203.2 171.002 201.012C168.814 198.824 166.337 197.287 163.944 196.466C166.332 195.644 168.814 194.108 171.002 191.92Z" fill="#CEFF5A"/>
<path d="M224.011 221.378C226.199 219.19 227.735 216.713 228.557 214.321C229.378 216.709 230.915 219.19 233.103 221.378C235.291 223.566 237.768 225.103 240.16 225.924C237.772 226.746 235.291 228.283 233.103 230.47C230.915 232.658 229.378 235.136 228.557 237.528C227.735 235.14 226.199 232.658 224.011 230.47C221.823 228.283 219.345 226.746 216.953 225.924C219.341 225.103 221.823 223.566 224.011 221.378Z" fill="#CEFF5A"/>
<path d="M197.509 221.378C199.697 219.19 201.233 216.713 202.055 214.321C202.876 216.709 204.413 219.19 206.601 221.378C208.789 223.566 211.266 225.103 213.658 225.924C211.27 226.746 208.789 228.283 206.601 230.47C204.413 232.658 202.876 235.136 202.055 237.528C201.233 235.14 199.697 232.658 197.509 230.47C195.321 228.283 192.843 226.746 190.451 225.924C192.839 225.103 195.321 223.566 197.509 221.378Z" fill="#CEFF5A"/>
<path d="M171.002 221.376C173.19 219.188 174.726 216.71 175.548 214.318C176.369 216.706 177.906 219.188 180.094 221.376C182.282 223.564 184.759 225.1 187.151 225.922C184.763 226.743 182.282 228.28 180.094 230.468C177.906 232.656 176.369 235.133 175.548 237.525C174.726 235.137 173.19 232.656 171.002 230.468C168.814 228.28 166.337 226.743 163.944 225.922C166.332 225.1 168.814 223.564 171.002 221.376Z" fill="#CEFF5A"/>
<path d="M144.152 133.006C146.34 130.818 147.877 128.34 148.698 125.948C149.52 128.336 151.056 130.818 153.244 133.006C155.432 135.194 157.91 136.73 160.302 137.552C157.914 138.373 155.432 139.91 153.244 142.098C151.056 144.286 149.52 146.763 148.698 149.155C147.877 146.767 146.34 144.286 144.152 142.098C141.964 139.91 139.487 138.373 137.095 137.552C139.483 136.73 141.964 135.194 144.152 133.006Z" fill="#CEFF5A"/>
<path d="M144.152 162.461C146.34 160.274 147.877 157.796 148.698 155.404C149.52 157.792 151.056 160.274 153.244 162.461C155.432 164.649 157.91 166.186 160.302 167.008C157.914 167.829 155.432 169.366 153.244 171.554C151.056 173.742 149.52 176.219 148.698 178.611C147.877 176.223 146.34 173.742 144.152 171.554C141.964 169.366 139.487 167.829 137.095 167.008C139.483 166.186 141.964 164.649 144.152 162.461Z" fill="#CEFF5A"/>
<path d="M144.152 191.925C146.34 189.737 147.877 187.26 148.698 184.867C149.52 187.255 151.056 189.737 153.244 191.925C155.432 194.113 157.91 195.65 160.302 196.471C157.914 197.293 155.432 198.829 153.244 201.017C151.056 203.205 149.52 205.682 148.698 208.075C147.877 205.687 146.34 203.205 144.152 201.017C141.964 198.829 139.487 197.293 137.095 196.471C139.483 195.65 141.964 194.113 144.152 191.925Z" fill="#CEFF5A"/>
<path d="M144.152 221.371C146.34 219.183 147.877 216.705 148.698 214.313C149.52 216.701 151.056 219.183 153.244 221.371C155.432 223.559 157.91 225.095 160.302 225.917C157.914 226.738 155.432 228.275 153.244 230.463C151.056 232.651 149.52 235.128 148.698 237.52C147.877 235.132 146.34 232.651 144.152 230.463C141.964 228.275 139.487 226.738 137.095 225.917C139.483 225.095 141.964 223.559 144.152 221.371Z" fill="#CEFF5A"/>
<path d="M117.262 133.006C119.449 130.818 120.986 128.34 121.808 125.948C122.629 128.336 124.166 130.818 126.354 133.006C128.542 135.194 131.019 136.73 133.411 137.552C131.023 138.373 128.542 139.91 126.354 142.098C124.166 144.286 122.629 146.763 121.808 149.155C120.986 146.767 119.449 144.286 117.262 142.098C115.074 139.91 112.596 138.373 110.204 137.552C112.592 136.73 115.074 135.194 117.262 133.006Z" fill="#CEFF5A"/>
<path d="M117.262 162.461C119.449 160.274 120.986 157.796 121.808 155.404C122.629 157.792 124.166 160.274 126.354 162.461C128.542 164.649 131.019 166.186 133.411 167.008C131.023 167.829 128.542 169.366 126.354 171.554C124.166 173.742 122.629 176.219 121.808 178.611C120.986 176.223 119.449 173.742 117.262 171.554C115.074 169.366 112.596 167.829 110.204 167.008C112.592 166.186 115.074 164.649 117.262 162.461Z" fill="#CEFF5A"/>
<path d="M117.262 191.92C119.449 189.732 120.986 187.255 121.808 184.862C122.629 187.25 124.166 189.732 126.354 191.92C128.542 194.108 131.019 195.644 133.411 196.466C131.023 197.287 128.542 198.824 126.354 201.012C124.166 203.2 122.629 205.677 121.808 208.07C120.986 205.682 119.449 203.2 117.262 201.012C115.074 198.824 112.596 197.287 110.204 196.466C112.592 195.644 115.074 194.108 117.262 191.92Z" fill="#CEFF5A"/>
<path d="M117.262 221.376C119.449 219.188 120.986 216.71 121.808 214.318C122.629 216.706 124.166 219.188 126.354 221.376C128.542 223.564 131.019 225.1 133.411 225.922C131.023 226.743 128.542 228.28 126.354 230.468C124.166 232.656 122.629 235.133 121.808 237.525C120.986 235.137 119.449 232.656 117.262 230.468C115.074 228.28 112.596 226.743 110.204 225.922C112.592 225.1 115.074 223.564 117.262 221.376Z" fill="#CEFF5A"/>
</g>
<path d="M151.486 162.993L140.364 187.796L132.374 205.597" stroke="black" stroke-width="1.21646" stroke-miterlimit="10"/>
<path d="M217.61 183.012L217.58 183.042" stroke="black" stroke-width="1.80264" stroke-miterlimit="10"/>
<path d="M221.473 141.211L226.244 150.895L184.585 173.621L180.149 163.473L171.074 164.307L221.473 141.211Z" fill="#0F28A4"/>
<path d="M171.073 164.31L169.072 162.122L161.729 164.587L178.85 142.933L187.333 139.179L187.01 141.214L171.073 164.31Z" fill="#0F28A4"/>
<path d="M226.247 150.894L184.588 173.62L180.152 163.472" stroke="black" stroke-width="1.21646" stroke-miterlimit="10"/>
<path d="M169.072 162.124L161.729 164.589L178.85 142.935" stroke="black" stroke-width="1.21646" stroke-miterlimit="10"/>
<path d="M197.311 118.079L190.298 134.039L217.874 114.506L197.311 118.079Z" fill="black"/>
<path d="M221.382 113.66C217.169 119.554 210.539 126.077 203.541 127.512C184.906 131.328 181.309 116.137 182.694 105.251C184.88 88.0742 193.327 74.889 193.327 74.889C193.327 74.889 229.044 61.7642 231.413 91.4089C232.755 100.408 225.687 107.644 221.381 113.666L221.382 113.66Z" fill="#FB8E65"/>
<path d="M206.797 102.369C206.076 101.198 204.782 100.418 203.43 100.343C202.078 100.26 200.693 100.879 199.831 101.96" stroke="black" stroke-width="1.33572" stroke-miterlimit="10"/>
<path d="M187.351 98.4765C187.214 97.5198 186.581 96.6571 185.723 96.2493C184.865 95.8478 183.805 95.9237 183.001 96.4413" stroke="black" stroke-width="1.33572" stroke-miterlimit="10"/>
<path d="M189.143 91.1184C188.468 89.7614 187.192 88.7337 185.744 88.3677C184.296 88.0017 182.693 88.3064 181.464 89.1859" stroke="black" stroke-width="1.33572" stroke-miterlimit="10"/>
<path d="M209.134 93.8267C208.459 92.4697 207.183 91.442 205.734 91.076C204.286 90.7101 202.683 91.0148 201.454 91.8943" stroke="black" stroke-width="1.33572" stroke-miterlimit="10"/>
<path d="M193.878 96.6217C193.878 96.6217 186.998 106.318 188.822 110.342C190.647 114.365 194.218 111.825 194.218 111.825" stroke="black" stroke-width="1.33572" stroke-miterlimit="10"/>
<path d="M203.953 116.038C203.953 116.038 202.868 121.047 196.905 120.014" stroke="black" stroke-width="1.33572" stroke-miterlimit="10"/>
<path d="M224.544 176.753L194.984 215.201L128.129 195.639L119.066 217.619L175.705 248.43C194.764 257.143 215.669 253.834 228.996 234.439L248.247 208.512C256.431 194.059 255.644 187.249 252.303 179.745C247.245 168.393 231.992 166.877 224.538 176.759L224.544 176.753Z" fill="#FB8E65"/>
<path d="M215.358 188.699L194.991 215.193L146.774 201.087" stroke="black" stroke-width="1.05427" stroke-miterlimit="10"/>
<path d="M248.251 208.504C256.435 194.051 255.648 187.241 252.306 179.737" stroke="black" stroke-width="0.649904" stroke-miterlimit="10"/>
<path d="M119.071 217.612L175.71 248.422" stroke="black" stroke-width="1.05427" stroke-miterlimit="10"/>
<path d="M108.205 205.669H125.276C127.502 205.669 128.884 203.829 128.374 201.555L120.224 165.514C119.708 163.24 117.494 161.4 115.268 161.4H98.197C95.9711 161.4 94.5892 163.24 95.0989 165.514L103.249 201.555C103.765 203.829 105.979 205.669 108.205 205.669Z" fill="black"/>
<path d="M125.415 202.08L117.264 166.039C116.993 164.824 115.679 163.719 114.517 163.719H96.8916" stroke="#CEFF5A" stroke-width="0.649904" stroke-miterlimit="10"/>
<path d="M134.302 206.451C134.302 206.451 134.749 202.355 133.599 197.234C131.826 189.348 128.972 187.033 124.679 185.234L125.664 191.61L113.578 183.984L103.773 205.467C103.773 205.467 116.296 220.042 124.775 217.994C137.983 214.806 134.302 206.451 134.302 206.451Z" fill="#FB8E65"/>
<path d="M133.598 197.23C131.825 189.345 128.971 187.031 124.679 185.232" stroke="black" stroke-width="1.21646" stroke-miterlimit="10"/>
<path d="M113.904 192.488C109.758 189.046 99.3538 179.817 97.2186 182.901C93.9335 187.646 100.747 191.412 110.036 198.749C110.783 197.522 113.219 193.513 113.904 192.488Z" fill="#FB8E65"/>
<path d="M112.477 197.2C105.595 191.941 99.597 186.27 97.071 190.558C94.1314 195.534 103.035 198.797 108.846 203.611C109.548 202.355 111.831 198.253 112.477 197.2Z" fill="#FB8E65"/>
<path d="M112.398 204.465C103.942 197.626 100.64 193.593 98.4591 197.001C95.9217 200.965 101.682 203.609 109.254 209.574C109.86 208.573 111.843 205.304 112.398 204.471V204.465Z" fill="#FB8E65"/>
<path d="M116.93 186.096C116.93 186.096 98.2281 171.868 94.9884 175.617C91.222 179.974 112.897 191.824 112.897 191.824L116.93 186.096Z" fill="#FB8E65"/>
<path d="M99.2969 182.9L111.732 191.167" stroke="black" stroke-width="1.21646" stroke-miterlimit="10"/>
<path d="M99.5195 190.515L110.573 197.862" stroke="black" stroke-width="1.21646" stroke-miterlimit="10"/>
<path d="M99.5195 197.4L108.846 203.607" stroke="black" stroke-width="1.21646" stroke-miterlimit="10"/>
<path d="M121.029 188.515L127.089 192.489" stroke="black" stroke-width="0.649904" stroke-miterlimit="10"/>
<path d="M237.437 157.572L196.429 194.703L215.945 221.861L227.464 217.255L220.538 228.246L227.464 237.883C227.464 237.883 286.261 196.35 237.441 157.568L237.437 157.572Z" fill="#0F28A4"/>
<mask id="mask1_14964_28176" style="mask-type:luminance" maskUnits="userSpaceOnUse" x="196" y="157" width="61" height="81">
<path d="M237.439 157.569L196.431 194.7L215.947 221.858L227.466 217.252L220.54 228.243L227.466 237.88C227.466 237.88 286.262 196.347 237.443 157.565L237.439 157.569Z" fill="white"/>
</mask>
<g mask="url(#mask1_14964_28176)">
<path d="M250.195 161.883C252.383 159.695 253.92 157.218 254.741 154.826C255.563 157.214 257.099 159.695 259.287 161.883C261.475 164.071 263.953 165.608 266.345 166.429C263.957 167.251 261.475 168.787 259.287 170.975C257.099 173.163 255.563 175.641 254.741 178.033C253.92 175.645 252.383 173.163 250.195 170.975C248.007 168.787 245.53 167.251 243.138 166.429C245.526 165.608 248.007 164.071 250.195 161.883Z" fill="#CEFF5A"/>
<path d="M223.686 161.883C225.874 159.695 227.411 157.218 228.232 154.826C229.054 157.214 230.591 159.695 232.779 161.883C234.966 164.071 237.444 165.608 239.836 166.429C237.448 167.251 234.966 168.787 232.779 170.975C230.591 173.163 229.054 175.641 228.232 178.033C227.411 175.645 225.874 173.163 223.686 170.975C221.498 168.787 219.021 167.251 216.629 166.429C219.017 165.608 221.498 164.071 223.686 161.883Z" fill="#CEFF5A"/>
<path d="M197.174 161.883C199.362 159.695 200.898 157.218 201.72 154.826C202.541 157.214 204.078 159.695 206.266 161.883C208.454 164.071 210.931 165.608 213.323 166.429C210.935 167.251 208.454 168.787 206.266 170.975C204.078 173.163 202.541 175.641 201.72 178.033C200.898 175.645 199.362 173.163 197.174 170.975C194.986 168.787 192.508 167.251 190.116 166.429C192.504 165.608 194.986 164.071 197.174 161.883Z" fill="#CEFF5A"/>
<path d="M250.195 191.342C252.383 189.154 253.92 186.676 254.741 184.284C255.563 186.672 257.099 189.154 259.287 191.342C261.475 193.529 263.953 195.066 266.345 195.888C263.957 196.709 261.475 198.246 259.287 200.434C257.099 202.622 255.563 205.099 254.741 207.491C253.92 205.103 252.383 202.622 250.195 200.434C248.007 198.246 245.53 196.709 243.138 195.888C245.526 195.066 248.007 193.529 250.195 191.342Z" fill="#CEFF5A"/>
<path d="M223.686 191.342C225.874 189.154 227.411 186.676 228.232 184.284C229.054 186.672 230.591 189.154 232.779 191.342C234.966 193.529 237.444 195.066 239.836 195.888C237.448 196.709 234.966 198.246 232.779 200.434C230.591 202.622 229.054 205.099 228.232 207.491C227.411 205.103 225.874 202.622 223.686 200.434C221.498 198.246 219.021 196.709 216.629 195.888C219.017 195.066 221.498 193.529 223.686 191.342Z" fill="#CEFF5A"/>
<path d="M197.174 191.339C199.362 189.151 200.898 186.674 201.72 184.281C202.541 186.669 204.078 189.151 206.266 191.339C208.454 193.527 210.931 195.064 213.323 195.885C210.935 196.707 208.454 198.243 206.266 200.431C204.078 202.619 202.541 205.097 201.72 207.489C200.898 205.101 199.362 202.619 197.174 200.431C194.986 198.243 192.508 196.707 190.116 195.885C192.504 195.064 194.986 193.527 197.174 191.339Z" fill="#CEFF5A"/>
<path d="M250.195 220.79C252.383 218.602 253.92 216.124 254.741 213.732C255.563 216.12 257.099 218.602 259.287 220.79C261.475 222.978 263.953 224.514 266.345 225.336C263.957 226.157 261.475 227.694 259.287 229.882C257.099 232.07 255.563 234.547 254.741 236.94C253.92 234.552 252.383 232.07 250.195 229.882C248.007 227.694 245.53 226.157 243.138 225.336C245.526 224.514 248.007 222.978 250.195 220.79Z" fill="#CEFF5A"/>
<path d="M223.686 220.79C225.874 218.602 227.411 216.124 228.232 213.732C229.054 216.12 230.591 218.602 232.779 220.79C234.966 222.978 237.444 224.514 239.836 225.336C237.448 226.157 234.966 227.694 232.779 229.882C230.591 232.07 229.054 234.547 228.232 236.94C227.411 234.552 225.874 232.07 223.686 229.882C221.498 227.694 219.021 226.157 216.629 225.336C219.017 224.514 221.498 222.978 223.686 220.79Z" fill="#CEFF5A"/>
<path d="M197.174 220.792C199.362 218.604 200.898 216.127 201.72 213.735C202.541 216.123 204.078 218.604 206.266 220.792C208.454 222.98 210.931 224.517 213.323 225.338C210.935 226.16 208.454 227.697 206.266 229.885C204.078 232.072 202.541 234.55 201.72 236.942C200.898 234.554 199.362 232.072 197.174 229.885C194.986 227.697 192.508 226.16 190.116 225.338C192.504 224.517 194.986 222.98 197.174 220.792Z" fill="#CEFF5A"/>
</g>
<path d="M216.327 221.513L196.811 194.355L234.554 159.485" stroke="black" stroke-width="1.21646" stroke-miterlimit="10"/>
<path d="M203.934 62.2701C203.934 62.2701 201.763 57.5854 199.013 55.2859C197.743 54.2246 195.808 55.0393 195.684 56.6902L195.465 59.649C195.465 59.649 185.398 51.0192 180.022 57.7944C178.773 59.3703 178.961 61.643 180.403 63.042C183.656 66.1938 188.379 70.0316 188.379 70.0316C188.379 70.0316 185.173 67.8286 182.252 70.1388C181.057 71.0822 181.234 72.9636 182.568 73.698C186.819 76.0296 191.043 78.9724 191.043 78.9724C191.043 78.9724 192.822 75.172 197.126 76.2816" fill="black"/>
<path d="M191.566 69.4778C191.566 69.4778 194.621 80.0319 204.897 79.3404C215.172 78.6436 217.777 81.7257 219.712 84.3682C220.977 86.0996 220.168 99.5636 218.967 104.045C217.868 108.156 221.202 109.839 223.368 109.839C224.686 103.032 231.28 104.045 231.28 104.045L235.203 79.3672C236.125 75.3525 234.817 71.1501 231.783 68.3629L224.563 61.7324C223.716 60.9551 222.355 61.5823 222.387 62.7294L222.44 64.3696L199.065 60.0332" fill="black"/>
<path d="M222.004 119.667L221.478 127.131L219.061 119.257L222.004 119.667Z" fill="black"/>
<path d="M229.283 103.147C232.715 104.351 234.834 107.863 234.732 111.109C234.63 114.355 229.98 125.811 218.641 118.92L220.362 108.407C221.812 103.778 225.992 101.99 229.283 103.147Z" fill="#FB8E65"/>
<path d="M223.794 112.986L229.304 108.549" stroke="black" stroke-width="1.21646" stroke-miterlimit="10"/>
<path d="M227.148 110.868C227.148 110.868 229.639 112.84 227.381 115.135" stroke="black" stroke-width="1.21646" stroke-miterlimit="10"/>
<path d="M32.1138 41.7356L29.547 31.1656L18.7715 34.3067L26.9801 26.8778L18.7715 19.4406L29.547 22.5817L32.1138 12.0117L34.6806 22.5817L45.456 19.4406L37.2474 26.8778L45.456 34.3067L34.6806 31.1656L32.1138 41.7356Z" fill="white"/>
<path d="M7.32277 208.829L0 200.914L7.32277 192.999L14.6455 200.914L7.32277 208.829Z" fill="#F5009E"/>
<path d="M247.79 53L245.722 59.5861L239 61.6118L245.722 63.6473L247.79 70.2335L249.868 63.6473L256.59 61.6118L249.868 59.5861L247.79 53Z" fill="#CEFF5A"/>
</svg>
