<svg width="293" height="243" viewBox="0 0 293 243" fill="none" xmlns="http://www.w3.org/2000/svg">
<path d="M24.2663 61.7479C23.3085 61.7479 22.5669 61.4492 22.0417 60.8519C21.5267 60.2545 21.2692 59.3791 21.2692 58.2256V53.9H23.2312V58.0402C23.2312 58.6994 23.3651 59.204 23.6329 59.5542C23.9007 59.9043 24.3229 60.0794 24.8997 60.0794C25.4455 60.0794 25.8935 59.8837 26.2437 59.4924C26.6042 59.101 26.7844 58.5552 26.7844 57.8548V53.9H28.7618V61.5625H27.0161L26.8617 60.2648C26.6248 60.718 26.2798 61.0784 25.8266 61.3462C25.3837 61.614 24.8636 61.7479 24.2663 61.7479Z" fill="white"/>
<path d="M52.4349 61.7479C51.7758 61.7479 51.2351 61.6449 50.8128 61.4389C50.3906 61.2226 50.0764 60.9394 49.8705 60.5892C49.6645 60.2391 49.5615 59.8529 49.5615 59.4306C49.5615 58.72 49.8396 58.1432 50.3957 57.7003C50.9519 57.2575 51.7861 57.036 52.8984 57.036H54.8449V56.8507C54.8449 56.3254 54.6956 55.9392 54.3969 55.692C54.0982 55.4448 53.7275 55.3213 53.2846 55.3213C52.883 55.3213 52.5328 55.4191 52.2341 55.6148C51.9354 55.8002 51.7501 56.0782 51.678 56.449H49.7469C49.7984 55.8928 49.9838 55.4088 50.303 54.9968C50.6326 54.5849 51.0549 54.2707 51.5698 54.0545C52.0848 53.8279 52.6615 53.7146 53.3001 53.7146C54.3918 53.7146 55.2517 53.9875 55.88 54.5334C56.5082 55.0792 56.8224 55.8517 56.8224 56.8507V61.5625H55.1385L54.9531 60.3266C54.7265 60.7386 54.4072 61.0784 53.9953 61.3462C53.5936 61.614 53.0735 61.7479 52.4349 61.7479ZM52.883 60.203C53.4494 60.203 53.8871 60.0176 54.1961 59.6469C54.5154 59.2761 54.7162 58.8178 54.7986 58.2719H53.1147C52.5894 58.2719 52.2135 58.3698 51.9869 58.5655C51.7604 58.7508 51.6471 58.9826 51.6471 59.2607C51.6471 59.5593 51.7604 59.7911 51.9869 59.9558C52.2135 60.1206 52.5122 60.203 52.883 60.203Z" fill="white"/>
<path d="M38.3718 61.7479C37.5994 61.7479 36.9145 61.5831 36.3171 61.2535C35.7198 60.924 35.2512 60.4605 34.9113 59.8631C34.5714 59.2658 34.4015 58.5758 34.4015 57.793C34.4015 57 34.5663 56.2945 34.8959 55.6766C35.2357 55.0586 35.6992 54.5797 36.2862 54.2398C36.8836 53.8897 37.5839 53.7146 38.3873 53.7146C39.1391 53.7146 39.8034 53.8794 40.3801 54.2089C40.9569 54.5385 41.4049 54.9917 41.7242 55.5684C42.0537 56.1349 42.2185 56.7683 42.2185 57.4686C42.2185 57.5819 42.2134 57.7003 42.2031 57.8239C42.2031 57.9475 42.1979 58.0763 42.1876 58.2101H36.3635C36.4047 58.8075 36.6107 59.2761 36.9814 59.616C37.3625 59.9558 37.8208 60.1258 38.3564 60.1258C38.758 60.1258 39.0928 60.0382 39.3605 59.8631C39.6386 59.6778 39.8446 59.4409 39.9785 59.1525H41.9868C41.8426 59.6366 41.6006 60.0794 41.2607 60.4811C40.9311 60.8725 40.5192 61.1814 40.0248 61.408C39.5408 61.6346 38.9898 61.7479 38.3718 61.7479ZM38.3873 55.3213C37.9032 55.3213 37.4758 55.4603 37.105 55.7384C36.7343 56.0061 36.4974 56.4181 36.3944 56.9743H40.2102C40.1793 56.4696 39.9939 56.0679 39.6541 55.7693C39.3142 55.4706 38.8919 55.3213 38.3873 55.3213Z" fill="white"/>
<path d="M31.2804 61.6388L30.3269 50.5567L32.2968 50.3849L33.2503 61.467L31.2804 61.6388Z" fill="white"/>
<path d="M46.9043 61.3421C46.104 61.4119 45.4459 61.2729 44.9302 60.925C44.4144 60.5772 44.1137 59.9056 44.028 58.9102L43.742 55.5856L42.4338 55.6997L42.2921 54.0528L43.6003 53.9387L43.655 51.8715L45.3941 51.7198L45.5702 53.7669L47.6325 53.587L47.7742 55.2339L45.7119 55.4138L45.9993 58.7538C46.0311 59.1232 46.1301 59.373 46.2964 59.5033C46.472 59.6223 46.7548 59.6649 47.1447 59.6309L48.0989 59.5476L48.2432 61.2253L46.9043 61.3421Z" fill="white"/>
<path d="M11.9598 60.3048L13.486 49.599L17.4155 50.1669C18.2717 50.2906 18.954 50.5401 19.4623 50.9153C19.9822 51.2818 20.3442 51.7347 20.5482 52.2741C20.7536 52.8033 20.8134 53.3687 20.7277 53.9702C20.6347 54.6228 20.3763 55.1942 19.9527 55.6845C19.5393 56.1763 18.9533 56.4922 18.1947 56.6324L19.7729 61.4339L17.5253 61.1091L16.1394 56.6007L14.5187 56.3665L13.9169 60.5876L11.9598 60.3048ZM14.7236 54.9288L16.5737 55.1962C17.2261 55.2905 17.7277 55.2017 18.0785 54.9298C18.4294 54.6579 18.6419 54.262 18.716 53.742C18.7887 53.2322 18.6939 52.8022 18.4317 52.4522C18.1797 52.1036 17.7174 51.8806 17.0446 51.7834L15.2098 51.5183L14.7236 54.9288Z" fill="white"/>
<path fill-rule="evenodd" clip-rule="evenodd" d="M42.7398 39.9178C39.9156 39.9178 38.4393 38.3265 38.4393 35.7185H38.4386C38.4386 32.6929 40.1227 30.9974 43.8014 30.9974C45.7698 30.9974 47.6616 31.6499 48.7494 32.2496V27.3457C47.7134 26.6417 45.8222 26.0156 43.2057 26.0156C38.3095 26.0156 33.5948 28.5458 33.5948 31.832C33.5948 33.736 35.6412 35.1188 37.2217 35.6664C35.6936 36.084 33.621 37.6489 33.621 39.3702C33.621 42.5258 38.0251 44.8474 42.481 44.8474C45.3301 44.8474 47.6623 44.065 48.75 43.2561V34.8312H43.9318V39.7351C43.6205 39.8393 43.2064 39.9178 42.7398 39.9178ZM25.8216 26.3047H12.2987V30.9473H18.2833L11.418 44.5625H26.0031V39.8678H19.3455L25.8216 26.3047ZM28.7265 35.6685C30.6176 34.9902 32.6385 33.9465 32.6385 31.0516V26.3047H27.1466V44.5625H32.6385V40.3111C32.6385 37.2855 30.6176 36.3467 28.7265 35.6685ZM50.2798 26.4062H55.3575V44.6641H50.2798V26.4062Z" fill="white"/>
<path d="M9.40168 60.8414C8.30241 61.6395 7.20278 62.4363 6.10352 63.2344" stroke="#CEFF5A" stroke-width="1.42018" stroke-miterlimit="10"/>
<path d="M7.85866 56.7252C6.05421 56.9105 4.24977 57.0958 2.44532 57.2811" stroke="#CEFF5A" stroke-width="1.42018" stroke-miterlimit="10"/>
<path d="M8.46997 52.53C6.79631 51.8084 5.12266 51.0867 3.45031 50.3647" stroke="#CEFF5A" stroke-width="1.42018" stroke-miterlimit="10"/>
<path d="M11.1018 49.0494C10.2755 47.9549 9.4491 46.8603 8.62405 45.7654" stroke="#CEFF5A" stroke-width="1.42018" stroke-miterlimit="10"/>
<path d="M58.7557 33.7589C60.0227 34.2434 61.2897 34.7265 62.5566 35.2109" stroke="#CEFF5A" stroke-width="1.42018" stroke-miterlimit="10"/>
<path d="M59.1888 29.3828C60.9794 29.0916 62.77 28.8003 64.5605 28.5091" stroke="#CEFF5A" stroke-width="1.42018" stroke-miterlimit="10"/>
<path d="M57.5166 25.4766C58.9477 24.3434 60.3788 23.2102 61.8086 22.077" stroke="#CEFF5A" stroke-width="1.42018" stroke-miterlimit="10"/>
<path d="M54.0817 22.8203C54.5986 21.5477 55.1154 20.2751 55.6309 19.0025" stroke="#CEFF5A" stroke-width="1.42018" stroke-miterlimit="10"/>
<path d="M273.476 218.724L270.927 208.154L260.225 211.295L268.378 203.866L260.225 196.429L270.927 199.57L273.476 189L276.026 199.57L286.728 196.429L278.575 203.866L286.728 211.295L276.026 208.154L273.476 218.724Z" fill="#F5009E"/>
<path d="M122.951 9L120.897 15.5861L114.221 17.6118L120.897 19.6473L122.951 26.2335L125.015 19.6473L131.691 17.6118L125.015 15.5861L122.951 9Z" fill="#CEFF5A"/>
<path d="M13.6971 122L11.6435 128.586L4.9668 130.612L11.6435 132.647L13.6971 139.233L15.7607 132.647L22.4374 130.612L15.7607 128.586L13.6971 122Z" fill="#CEFF5A"/>
<path d="M17.2245 224.724L14.6751 214.154L3.97266 217.295L12.1257 209.866L3.97266 202.429L14.6751 205.57L17.2245 195L19.7739 205.57L30.4764 202.429L22.3234 209.866L30.4764 217.295L19.7739 214.154L17.2245 224.724Z" fill="#F5009E"/>
<path fill-rule="evenodd" clip-rule="evenodd" d="M207.051 190.136L206.892 118.242L278.159 118.083C278.159 118.106 278.159 118.13 278.159 118.154C278.247 157.797 246.417 190.011 207.051 190.136Z" fill="#FAF4E7"/>
<path fill-rule="evenodd" clip-rule="evenodd" d="M206.462 46.3558L206.621 118.25L135.354 118.41C135.354 118.386 135.354 118.362 135.354 118.338C135.266 78.6947 167.096 46.4815 206.462 46.3558Z" fill="#FAF4E7"/>
<path fill-rule="evenodd" clip-rule="evenodd" d="M135.485 118.428L206.888 118.25L207.065 190.009C207.043 190.009 207.02 190.009 206.998 190.009C167.621 190.108 135.617 158.066 135.485 118.428Z" fill="#FAF4E7"/>
<path fill-rule="evenodd" clip-rule="evenodd" d="M278.025 118.056L206.621 118.235L206.444 46.4756C206.467 46.4755 206.489 46.4754 206.512 46.4754C245.889 46.3768 277.893 78.4189 278.025 118.056Z" fill="#FAF4E7"/>
<path fill-rule="evenodd" clip-rule="evenodd" d="M257.411 168.885C270.236 155.866 278.142 137.931 278.099 118.146L278.098 118.075L206.879 118.234L257.411 168.885Z" fill="#405FF4"/>
<path fill-rule="evenodd" clip-rule="evenodd" d="M156.032 67.5243C143.212 80.5421 135.31 98.4723 135.354 118.252L135.354 118.324L206.553 118.164L156.032 67.5243Z" fill="#405FF4"/>
<path fill-rule="evenodd" clip-rule="evenodd" d="M206.889 118.242L207.066 189.935L206.998 189.935C187.349 189.984 169.536 182.03 156.603 169.123L206.889 118.242Z" fill="#F5009E"/>
<path fill-rule="evenodd" clip-rule="evenodd" d="M206.906 118.172L206.729 46.5099L206.797 46.5097C226.438 46.4605 244.245 54.408 257.177 67.3059L206.906 118.172Z" fill="#A2DC1C"/>
<path d="M276.57 117.955C276.657 157.375 244.99 189.385 205.863 189.473C166.735 189.56 134.927 157.693 134.84 118.272C134.753 78.8516 166.419 46.8421 205.547 46.7544C244.674 46.6666 276.482 78.5338 276.57 117.955Z" stroke="#C3E56A" stroke-width="3.17741"/>
<path d="M277.43 117.953C277.518 157.843 245.473 190.244 205.864 190.333C166.256 190.422 134.068 158.165 133.979 118.274C133.891 78.3838 165.937 45.9826 205.545 45.8938C245.153 45.805 277.342 78.0621 277.43 117.953Z" stroke="#071B7C" stroke-width="1.45631"/>
<path d="M192.171 169.688C194.238 167.597 196.58 166.128 198.84 165.341C196.577 164.561 194.228 163.102 192.152 161.025C190.076 158.944 188.616 156.586 187.835 154.311C187.06 156.59 185.611 158.954 183.548 161.044C181.481 163.135 179.139 164.605 176.88 165.391C179.143 166.171 181.491 167.63 183.567 169.707C185.644 171.788 187.103 174.146 187.884 176.421C188.659 174.142 190.109 171.778 192.171 169.688Z" fill="#C8FF5A"/>
<path d="M162.831 102.242C164.899 100.152 167.24 98.6822 169.5 97.8961C167.237 97.1157 164.889 95.6564 162.812 93.5797C160.736 91.4986 159.276 89.1409 158.495 86.866C157.72 89.1444 156.271 91.5086 154.208 93.599C152.141 95.6894 149.8 97.1592 147.54 97.9453C149.803 98.7258 152.151 100.185 154.227 102.262C156.304 104.343 157.764 106.701 158.544 108.975C159.319 106.697 160.769 104.333 162.831 102.242Z" fill="#C8FF5A"/>
<path d="M230.224 74.2737C232.291 72.1832 234.633 70.7135 236.892 69.9273C234.629 69.1469 232.281 67.6877 230.205 65.611C228.129 63.5298 226.669 61.1721 225.888 58.8973C225.113 61.1756 223.664 63.5398 221.601 65.6303C219.534 67.7207 217.192 69.1905 214.933 69.9766C217.196 70.757 219.544 72.2162 221.62 74.293C223.696 76.3741 225.156 78.7318 225.937 81.0067C226.712 78.7283 228.161 76.3641 230.224 74.2737Z" fill="black"/>
<path d="M257.855 141.719C259.922 139.629 262.264 138.159 264.523 137.373C262.26 136.592 259.912 135.133 257.836 133.056C255.759 130.975 254.3 128.617 253.519 126.343C252.744 128.621 251.294 130.985 249.232 133.076C247.165 135.166 244.823 136.636 242.564 137.422C244.826 138.202 247.175 139.662 249.251 141.738C251.327 143.819 252.787 146.177 253.568 148.452C254.343 146.174 255.792 143.809 257.855 141.719Z" fill="#C8FF5A"/>
<path d="M270.858 50.2805C271.433 50.8602 271.839 51.517 272.055 52.1509C272.27 51.517 272.676 50.8602 273.251 50.2805C273.827 49.7008 274.48 49.2925 275.109 49.0755C274.48 48.8584 273.827 48.4501 273.251 47.8704C272.676 47.2907 272.27 46.6339 272.055 46C271.839 46.6339 271.433 47.2907 270.858 47.8704C270.282 48.4501 269.63 48.8584 269 49.0755C269.63 49.2925 270.282 49.7008 270.858 50.2805Z" fill="#405FF4"/>
<path d="M207.056 195.172C207.056 195.172 206.778 187.667 215.647 189.995L216.892 195.172" fill="#FB8E65"/>
<path d="M101.027 198.791C58.2625 197.329 23.7826 159.035 34.8722 115.739C41.3473 88.3423 63.8669 75.4093 90.4536 74.8325C102.621 74.6497 116.07 76.4973 127.049 82.1371C122.25 89.1562 121.479 90.4269 116.904 97.9857C103.548 94.1192 85.5299 94.8159 73.4419 101.589C67.3809 104.985 63.1096 110.23 61.3993 116.895C56.1438 136.713 65.6849 154.649 84.5542 161.742C89.8977 163.741 95.6098 164.601 101.027 164.261V198.788V198.791Z" fill="#FB8E65"/>
<path d="M152.8 164.102H148.098L169.653 233.941H199.13L185.72 188.788C181.369 174.139 167.985 164.102 152.797 164.102H152.8Z" fill="#CEFF5A"/>
<mask id="mask0_15079_237618" style="mask-type:luminance" maskUnits="userSpaceOnUse" x="148" y="164" width="52" height="70">
<path d="M152.812 164.109H148.109L169.665 233.949H199.141L185.732 188.796C181.381 174.147 167.997 164.109 152.809 164.109H152.812Z" fill="white"/>
</mask>
<g mask="url(#mask0_15079_237618)">
<path d="M201.408 166.277C202.741 164.935 203.68 163.413 204.182 161.945C204.684 163.413 205.62 164.935 206.956 166.277C208.289 167.619 209.8 168.565 211.258 169.07C209.8 169.575 208.289 170.518 206.956 171.863C205.623 173.205 204.684 174.727 204.182 176.195C203.68 174.727 202.744 173.205 201.408 171.863C200.075 170.521 198.563 169.575 197.105 169.07C198.563 168.565 200.075 167.622 201.408 166.277Z" fill="white"/>
<path d="M185.252 166.277C186.585 164.935 187.524 163.413 188.026 161.945C188.528 163.413 189.464 164.935 190.799 166.277C192.132 167.619 193.644 168.565 195.102 169.07C193.644 169.575 192.132 170.518 190.799 171.863C189.466 173.205 188.528 174.727 188.026 176.195C187.524 174.727 186.588 173.205 185.252 171.863C183.919 170.521 182.407 169.575 180.949 169.07C182.407 168.565 183.919 167.622 185.252 166.277Z" fill="white"/>
<path d="M169.086 166.277C170.419 164.935 171.358 163.413 171.86 161.945C172.362 163.413 173.298 164.935 174.633 166.277C175.966 167.619 177.478 168.565 178.936 169.07C177.478 169.575 175.966 170.518 174.633 171.863C173.3 173.205 172.362 174.727 171.86 176.195C171.358 174.727 170.422 173.205 169.086 171.863C167.753 170.521 166.241 169.575 164.783 169.07C166.241 168.565 167.753 167.622 169.086 166.277Z" fill="white"/>
<path d="M152.924 166.277C154.257 164.935 155.195 163.413 155.697 161.945C156.199 163.413 157.135 164.935 158.471 166.277C159.804 167.619 161.316 168.565 162.774 169.07C161.316 169.575 159.804 170.518 158.471 171.863C157.138 173.205 156.199 174.727 155.697 176.195C155.195 174.727 154.26 173.205 152.924 171.863C151.591 170.521 150.079 169.575 148.621 169.07C150.079 168.565 151.591 167.622 152.924 166.277Z" fill="white"/>
<path d="M201.408 184.355C202.741 183.013 203.68 181.491 204.182 180.023C204.684 181.491 205.62 183.013 206.956 184.355C208.289 185.697 209.8 186.643 211.258 187.148C209.8 187.654 208.289 188.596 206.956 189.941C205.623 191.283 204.684 192.805 204.182 194.273C203.68 192.805 202.744 191.283 201.408 189.941C200.075 188.599 198.563 187.654 197.105 187.148C198.563 186.643 200.075 185.7 201.408 184.355Z" fill="white"/>
<path d="M185.252 184.355C186.585 183.013 187.524 181.491 188.026 180.023C188.528 181.491 189.464 183.013 190.799 184.355C192.132 185.697 193.644 186.643 195.102 187.148C193.644 187.654 192.132 188.596 190.799 189.941C189.466 191.283 188.528 192.805 188.026 194.273C187.524 192.805 186.588 191.283 185.252 189.941C183.919 188.599 182.407 187.654 180.949 187.148C182.407 186.643 183.919 185.7 185.252 184.355Z" fill="white"/>
<path d="M169.086 184.355C170.419 183.013 171.358 181.491 171.86 180.023C172.362 181.491 173.298 183.013 174.633 184.355C175.966 185.697 177.478 186.643 178.936 187.148C177.478 187.654 175.966 188.596 174.633 189.941C173.3 191.283 172.362 192.805 171.86 194.273C171.358 192.805 170.422 191.283 169.086 189.941C167.753 188.599 166.241 187.654 164.783 187.148C166.241 186.643 167.753 185.7 169.086 184.355Z" fill="white"/>
<path d="M152.924 184.355C154.257 183.013 155.195 181.491 155.697 180.023C156.199 181.491 157.135 183.013 158.471 184.355C159.804 185.697 161.316 186.643 162.774 187.148C161.316 187.654 159.804 188.596 158.471 189.941C157.138 191.283 156.199 192.805 155.697 194.273C155.195 192.805 154.26 191.283 152.924 189.941C151.591 188.599 150.079 187.654 148.621 187.148C150.079 186.643 151.591 185.7 152.924 184.355Z" fill="white"/>
<path d="M201.408 202.441C202.741 201.099 203.68 199.577 204.182 198.109C204.684 199.577 205.62 201.099 206.956 202.441C208.289 203.783 209.8 204.729 211.258 205.234C209.8 205.74 208.289 206.682 206.956 208.027C205.623 209.369 204.684 210.891 204.182 212.359C203.68 210.891 202.744 209.369 201.408 208.027C200.075 206.685 198.563 205.74 197.105 205.234C198.563 204.729 200.075 203.786 201.408 202.441Z" fill="white"/>
<path d="M185.252 202.441C186.585 201.099 187.524 199.577 188.026 198.109C188.528 199.577 189.464 201.099 190.799 202.441C192.132 203.783 193.644 204.729 195.102 205.234C193.644 205.74 192.132 206.682 190.799 208.027C189.466 209.369 188.528 210.891 188.026 212.359C187.524 210.891 186.588 209.369 185.252 208.027C183.919 206.685 182.407 205.74 180.949 205.234C182.407 204.729 183.919 203.786 185.252 202.441Z" fill="white"/>
<path d="M169.086 202.441C170.419 201.099 171.358 199.577 171.86 198.109C172.362 199.577 173.298 201.099 174.633 202.441C175.966 203.783 177.478 204.729 178.936 205.234C177.478 205.74 175.966 206.682 174.633 208.027C173.3 209.369 172.362 210.891 171.86 212.359C171.358 210.891 170.422 209.369 169.086 208.027C167.753 206.685 166.241 205.74 164.783 205.234C166.241 204.729 167.753 203.786 169.086 202.441Z" fill="white"/>
<path d="M152.924 202.441C154.257 201.099 155.195 199.577 155.697 198.109C156.199 199.577 157.135 201.099 158.471 202.441C159.804 203.783 161.316 204.729 162.774 205.234C161.316 205.74 159.804 206.682 158.471 208.027C157.138 209.369 156.199 210.891 155.697 212.359C155.195 210.891 154.26 209.369 152.924 208.027C151.591 206.685 150.079 205.74 148.621 205.234C150.079 204.729 151.591 203.786 152.924 202.441Z" fill="white"/>
<path d="M201.408 220.527C202.741 219.185 203.68 217.663 204.182 216.195C204.684 217.663 205.62 219.185 206.956 220.527C208.289 221.869 209.8 222.815 211.258 223.32C209.8 223.825 208.289 224.768 206.956 226.113C205.623 227.455 204.684 228.977 204.182 230.445C203.68 228.977 202.744 227.455 201.408 226.113C200.075 224.771 198.563 223.825 197.105 223.32C198.563 222.815 200.075 221.872 201.408 220.527Z" fill="white"/>
<path d="M185.252 220.527C186.585 219.185 187.524 217.663 188.026 216.195C188.528 217.663 189.464 219.185 190.799 220.527C192.132 221.869 193.644 222.815 195.102 223.32C193.644 223.825 192.132 224.768 190.799 226.113C189.466 227.455 188.528 228.977 188.026 230.445C187.524 228.977 186.588 227.455 185.252 226.113C183.919 224.771 182.407 223.825 180.949 223.32C182.407 222.815 183.919 221.872 185.252 220.527Z" fill="white"/>
<path d="M169.086 220.527C170.419 219.185 171.358 217.663 171.86 216.195C172.362 217.663 173.298 219.185 174.633 220.527C175.966 221.869 177.478 222.815 178.936 223.32C177.478 223.825 175.966 224.768 174.633 226.113C173.3 227.455 172.362 228.977 171.86 230.445C171.358 228.977 170.422 227.455 169.086 226.113C167.753 224.771 166.241 223.825 164.783 223.32C166.241 222.815 167.753 221.872 169.086 220.527Z" fill="white"/>
<path d="M152.924 220.527C154.257 219.185 155.195 217.663 155.697 216.195C156.199 217.663 157.135 219.185 158.471 220.527C159.804 221.869 161.316 222.815 162.774 223.32C161.316 223.825 159.804 224.768 158.471 226.113C157.138 227.455 156.199 228.977 155.697 230.445C155.195 228.977 154.26 227.455 152.924 226.113C151.591 224.771 150.079 223.825 148.621 223.32C150.079 222.815 151.591 221.872 152.924 220.527Z" fill="white"/>
</g>
<path d="M169.664 233.949L207.054 195.173L222.838 193L210.004 227.764C202.686 244.989 173.623 245.811 169.664 233.946V233.949Z" fill="#FB8E65"/>
<path d="M159.406 193.12L152.741 164.113H94.5529C91.1834 163.753 87.7998 162.962 84.5524 161.749C67.6315 155.386 58.2152 140.306 60.2403 122.967L38.1121 105.953C36.7876 108.983 35.6985 112.244 34.8703 115.742C24.8273 154.949 52.1571 190.053 89.164 197.421L95 242H166L159.406 193.123V193.12Z" fill="#CEFF5A"/>
<mask id="mask1_15079_237618" style="mask-type:luminance" maskUnits="userSpaceOnUse" x="33" y="106" width="133" height="136">
<path d="M159.633 195.294L153 164L94.7803 164.581C91.4109 164.2 88.0273 163.362 84.7798 162.077C67.8589 155.341 57.9749 141.359 59.9999 123L37.9999 106C36.6754 109.208 36.3282 109.796 35.5 113.5C25.457 155.013 51.493 189.199 88.5 197L94.7544 242H165.5L159.633 195.297V195.294Z" fill="white"/>
</mask>
<g mask="url(#mask1_15079_237618)">
<path d="M169.31 145.238C170.643 143.896 171.582 142.374 172.084 140.906C172.586 142.374 173.522 143.896 174.858 145.238C176.191 146.58 177.703 147.526 179.161 148.031C177.703 148.536 176.191 149.479 174.858 150.824C173.525 152.166 172.586 153.688 172.084 155.156C171.582 153.688 170.646 152.166 169.31 150.824C167.977 149.482 166.466 148.536 165.008 148.031C166.466 147.526 167.977 146.583 169.31 145.238Z" fill="white"/>
<path d="M153.142 145.238C154.475 143.896 155.414 142.374 155.916 140.906C156.418 142.374 157.354 143.896 158.69 145.238C160.023 146.58 161.535 147.526 162.993 148.031C161.535 148.536 160.023 149.479 158.69 150.824C157.357 152.166 156.418 153.688 155.916 155.156C155.414 153.688 154.478 152.166 153.142 150.824C151.809 149.482 150.298 148.536 148.84 148.031C150.298 147.526 151.809 146.583 153.142 145.238Z" fill="white"/>
<path d="M136.98 145.238C138.313 143.896 139.252 142.374 139.754 140.906C140.256 142.374 141.192 143.896 142.528 145.238C143.861 146.58 145.373 147.526 146.83 148.031C145.373 148.536 143.861 149.479 142.528 150.824C141.195 152.166 140.256 153.688 139.754 155.156C139.252 153.688 138.316 152.166 136.98 150.824C135.647 149.482 134.136 148.536 132.678 148.031C134.136 147.526 135.647 146.583 136.98 145.238Z" fill="white"/>
<path d="M120.828 145.238C122.161 143.896 123.1 142.374 123.602 140.906C124.104 142.374 125.04 143.896 126.376 145.238C127.709 146.58 129.22 147.526 130.678 148.031C129.22 148.536 127.709 149.479 126.376 150.824C125.043 152.166 124.104 153.688 123.602 155.156C123.1 153.688 122.164 152.166 120.828 150.824C119.495 149.482 117.983 148.536 116.525 148.031C117.983 147.526 119.495 146.583 120.828 145.238Z" fill="white"/>
<path d="M104.666 145.238C105.999 143.896 106.938 142.374 107.44 140.906C107.942 142.374 108.878 143.896 110.213 145.238C111.546 146.58 113.058 147.526 114.516 148.031C113.058 148.536 111.546 149.479 110.213 150.824C108.88 152.166 107.942 153.688 107.44 155.156C106.938 153.688 106.002 152.166 104.666 150.824C103.333 149.482 101.821 148.536 100.363 148.031C101.821 147.526 103.333 146.583 104.666 145.238Z" fill="white"/>
<path d="M169.306 163.34C170.639 161.998 171.578 160.476 172.08 159.008C172.582 160.476 173.518 161.998 174.854 163.34C176.187 164.682 177.699 165.627 179.157 166.133C177.699 166.638 176.187 167.58 174.854 168.925C173.521 170.267 172.582 171.789 172.08 173.257C171.578 171.789 170.642 170.267 169.306 168.925C167.973 167.583 166.462 166.638 165.004 166.133C166.462 165.627 167.973 164.685 169.306 163.34Z" fill="white"/>
<path d="M153.142 163.34C154.475 161.998 155.414 160.476 155.916 159.008C156.418 160.476 157.354 161.998 158.69 163.34C160.023 164.682 161.535 165.627 162.993 166.133C161.535 166.638 160.023 167.58 158.69 168.925C157.357 170.267 156.418 171.789 155.916 173.257C155.414 171.789 154.478 170.267 153.142 168.925C151.809 167.583 150.298 166.638 148.84 166.133C150.298 165.627 151.809 164.685 153.142 163.34Z" fill="white"/>
<path d="M136.98 163.34C138.313 161.998 139.252 160.476 139.754 159.008C140.256 160.476 141.192 161.998 142.528 163.34C143.861 164.682 145.373 165.627 146.83 166.133C145.373 166.638 143.861 167.58 142.528 168.925C141.195 170.267 140.256 171.789 139.754 173.257C139.252 171.789 138.316 170.267 136.98 168.925C135.647 167.583 134.136 166.638 132.678 166.133C134.136 165.627 135.647 164.685 136.98 163.34Z" fill="white"/>
<path d="M120.828 163.34C122.161 161.998 123.1 160.476 123.602 159.008C124.104 160.476 125.04 161.998 126.376 163.34C127.709 164.682 129.22 165.627 130.678 166.133C129.22 166.638 127.709 167.58 126.376 168.925C125.043 170.267 124.104 171.789 123.602 173.257C123.1 171.789 122.164 170.267 120.828 168.925C119.495 167.583 117.983 166.638 116.525 166.133C117.983 165.627 119.495 164.685 120.828 163.34Z" fill="white"/>
<path d="M104.666 163.34C105.999 161.998 106.938 160.476 107.44 159.008C107.942 160.476 108.878 161.998 110.213 163.34C111.546 164.682 113.058 165.627 114.516 166.133C113.058 166.638 111.546 167.58 110.213 168.925C108.88 170.267 107.942 171.789 107.44 173.257C106.938 171.789 106.002 170.267 104.666 168.925C103.333 167.583 101.821 166.638 100.363 166.133C101.821 165.627 103.333 164.685 104.666 163.34Z" fill="white"/>
<path d="M169.31 181.418C170.643 180.076 171.582 178.554 172.084 177.086C172.586 178.554 173.522 180.076 174.858 181.418C176.191 182.76 177.703 183.705 179.161 184.211C177.703 184.716 176.191 185.658 174.858 187.003C173.525 188.346 172.586 189.868 172.084 191.335C171.582 189.868 170.646 188.346 169.31 187.003C167.977 185.661 166.466 184.716 165.008 184.211C166.466 183.705 167.977 182.763 169.31 181.418Z" fill="white"/>
<path d="M153.142 181.418C154.475 180.076 155.414 178.554 155.916 177.086C156.418 178.554 157.354 180.076 158.69 181.418C160.023 182.76 161.535 183.705 162.993 184.211C161.535 184.716 160.023 185.658 158.69 187.003C157.357 188.346 156.418 189.868 155.916 191.335C155.414 189.868 154.478 188.346 153.142 187.003C151.809 185.661 150.298 184.716 148.84 184.211C150.298 183.705 151.809 182.763 153.142 181.418Z" fill="white"/>
<path d="M136.98 181.418C138.313 180.076 139.252 178.554 139.754 177.086C140.256 178.554 141.192 180.076 142.528 181.418C143.861 182.76 145.373 183.705 146.83 184.211C145.373 184.716 143.861 185.658 142.528 187.003C141.195 188.346 140.256 189.868 139.754 191.335C139.252 189.868 138.316 188.346 136.98 187.003C135.647 185.661 134.136 184.716 132.678 184.211C134.136 183.705 135.647 182.763 136.98 181.418Z" fill="white"/>
<path d="M120.828 181.426C122.161 180.084 123.1 178.562 123.602 177.094C124.104 178.562 125.04 180.084 126.376 181.426C127.709 182.768 129.22 183.713 130.678 184.218C129.22 184.724 127.709 185.666 126.376 187.011C125.043 188.353 124.104 189.875 123.602 191.343C123.1 189.875 122.164 188.353 120.828 187.011C119.495 185.669 117.983 184.724 116.525 184.218C117.983 183.713 119.495 182.771 120.828 181.426Z" fill="white"/>
<path d="M104.666 181.426C105.999 180.084 106.938 178.562 107.44 177.094C107.942 178.562 108.878 180.084 110.213 181.426C111.546 182.768 113.058 183.713 114.516 184.218C113.058 184.724 111.546 185.666 110.213 187.011C108.88 188.353 107.942 189.875 107.44 191.343C106.938 189.875 106.002 188.353 104.666 187.011C103.333 185.669 101.821 184.724 100.363 184.218C101.821 183.713 103.333 182.771 104.666 181.426Z" fill="white"/>
<path d="M169.31 199.504C170.643 198.162 171.582 196.64 172.084 195.172C172.586 196.64 173.522 198.162 174.858 199.504C176.191 200.846 177.703 201.791 179.161 202.297C177.703 202.802 176.191 203.744 174.858 205.089C173.525 206.431 172.586 207.954 172.084 209.421C171.582 207.954 170.646 206.431 169.31 205.089C167.977 203.747 166.466 202.802 165.008 202.297C166.466 201.791 167.977 200.849 169.31 199.504Z" fill="white"/>
<path d="M153.142 199.504C154.475 198.162 155.414 196.64 155.916 195.172C156.418 196.64 157.354 198.162 158.69 199.504C160.023 200.846 161.535 201.791 162.993 202.297C161.535 202.802 160.023 203.744 158.69 205.089C157.357 206.431 156.418 207.954 155.916 209.421C155.414 207.954 154.478 206.431 153.142 205.089C151.809 203.747 150.298 202.802 148.84 202.297C150.298 201.791 151.809 200.849 153.142 199.504Z" fill="white"/>
<path d="M136.98 199.504C138.313 198.162 139.252 196.64 139.754 195.172C140.256 196.64 141.192 198.162 142.528 199.504C143.861 200.846 145.373 201.791 146.83 202.297C145.373 202.802 143.861 203.744 142.528 205.089C141.195 206.431 140.256 207.954 139.754 209.421C139.252 207.954 138.316 206.431 136.98 205.089C135.647 203.747 134.136 202.802 132.678 202.297C134.136 201.791 135.647 200.849 136.98 199.504Z" fill="white"/>
<path d="M120.828 199.504C122.161 198.162 123.1 196.64 123.602 195.172C124.104 196.64 125.04 198.162 126.376 199.504C127.709 200.846 129.22 201.791 130.678 202.297C129.22 202.802 127.709 203.744 126.376 205.089C125.043 206.431 124.104 207.954 123.602 209.421C123.1 207.954 122.164 206.431 120.828 205.089C119.495 203.747 117.983 202.802 116.525 202.297C117.983 201.791 119.495 200.849 120.828 199.504Z" fill="white"/>
<path d="M104.666 199.504C105.999 198.162 106.938 196.64 107.44 195.172C107.942 196.64 108.878 198.162 110.213 199.504C111.546 200.846 113.058 201.791 114.516 202.297C113.058 202.802 111.546 203.744 110.213 205.089C108.88 206.431 107.942 207.954 107.44 209.421C106.938 207.954 106.002 206.431 104.666 205.089C103.333 203.747 101.821 202.802 100.363 202.297C101.821 201.791 103.333 200.849 104.666 199.504Z" fill="white"/>
<path d="M169.31 217.59C170.643 216.248 171.582 214.726 172.084 213.258C172.586 214.726 173.522 216.248 174.858 217.59C176.191 218.932 177.703 219.877 179.161 220.383C177.703 220.888 176.191 221.83 174.858 223.175C173.525 224.517 172.586 226.039 172.084 227.507C171.582 226.039 170.646 224.517 169.31 223.175C167.977 221.833 166.466 220.888 165.008 220.383C166.466 219.877 167.977 218.935 169.31 217.59Z" fill="white"/>
<path d="M153.142 217.59C154.475 216.248 155.414 214.726 155.916 213.258C156.418 214.726 157.354 216.248 158.69 217.59C160.023 218.932 161.535 219.877 162.993 220.383C161.535 220.888 160.023 221.83 158.69 223.175C157.357 224.517 156.418 226.039 155.916 227.507C155.414 226.039 154.478 224.517 153.142 223.175C151.809 221.833 150.298 220.888 148.84 220.383C150.298 219.877 151.809 218.935 153.142 217.59Z" fill="white"/>
<path d="M136.98 217.59C138.313 216.248 139.252 214.726 139.754 213.258C140.256 214.726 141.192 216.248 142.528 217.59C143.861 218.932 145.373 219.877 146.83 220.383C145.373 220.888 143.861 221.83 142.528 223.175C141.195 224.517 140.256 226.039 139.754 227.507C139.252 226.039 138.316 224.517 136.98 223.175C135.647 221.833 134.136 220.888 132.678 220.383C134.136 219.877 135.647 218.935 136.98 217.59Z" fill="white"/>
<path d="M120.828 217.59C122.161 216.248 123.1 214.726 123.602 213.258C124.104 214.726 125.04 216.248 126.376 217.59C127.709 218.932 129.22 219.877 130.678 220.383C129.22 220.888 127.709 221.83 126.376 223.175C125.043 224.517 124.104 226.039 123.602 227.507C123.1 226.039 122.164 224.517 120.828 223.175C119.495 221.833 117.983 220.888 116.525 220.383C117.983 219.877 119.495 218.935 120.828 217.59Z" fill="white"/>
<path d="M104.666 217.59C105.999 216.248 106.938 214.726 107.44 213.258C107.942 214.726 108.878 216.248 110.213 217.59C111.546 218.932 113.058 219.877 114.516 220.383C113.058 220.888 111.546 221.83 110.213 223.175C108.88 224.517 107.942 226.039 107.44 227.507C106.938 226.039 106.002 224.517 104.666 223.175C103.333 221.833 101.821 220.888 100.363 220.383C101.821 219.877 103.333 218.935 104.666 217.59Z" fill="white"/>
<path d="M169.31 235.676C170.643 234.334 171.582 232.812 172.084 231.344C172.586 232.812 173.522 234.334 174.858 235.676C176.191 237.018 177.703 237.963 179.161 238.468C177.703 238.974 176.191 239.916 174.858 241.261C173.525 242.603 172.586 244.125 172.084 245.593C171.582 244.125 170.646 242.603 169.31 241.261C167.977 239.919 166.466 238.974 165.008 238.468C166.466 237.963 167.977 237.021 169.31 235.676Z" fill="white"/>
<path d="M153.142 235.676C154.475 234.334 155.414 232.812 155.916 231.344C156.418 232.812 157.354 234.334 158.69 235.676C160.023 237.018 161.535 237.963 162.993 238.468C161.535 238.974 160.023 239.916 158.69 241.261C157.357 242.603 156.418 244.125 155.916 245.593C155.414 244.125 154.478 242.603 153.142 241.261C151.809 239.919 150.298 238.974 148.84 238.468C150.298 237.963 151.809 237.021 153.142 235.676Z" fill="white"/>
<path d="M136.98 235.676C138.313 234.334 139.252 232.812 139.754 231.344C140.256 232.812 141.192 234.334 142.528 235.676C143.861 237.018 145.373 237.963 146.83 238.468C145.373 238.974 143.861 239.916 142.528 241.261C141.195 242.603 140.256 244.125 139.754 245.593C139.252 244.125 138.316 242.603 136.98 241.261C135.647 239.919 134.136 238.974 132.678 238.468C134.136 237.963 135.647 237.021 136.98 235.676Z" fill="white"/>
<path d="M120.828 235.676C122.161 234.334 123.1 232.812 123.602 231.344C124.104 232.812 125.04 234.334 126.376 235.676C127.709 237.018 129.22 237.963 130.678 238.468C129.22 238.974 127.709 239.916 126.376 241.261C125.043 242.603 124.104 244.125 123.602 245.593C123.1 244.125 122.164 242.603 120.828 241.261C119.495 239.919 117.983 238.974 116.525 238.468C117.983 237.963 119.495 237.021 120.828 235.676Z" fill="white"/>
<path d="M104.666 235.676C105.999 234.334 106.938 232.812 107.44 231.344C107.942 232.812 108.878 234.334 110.213 235.676C111.546 237.018 113.058 237.963 114.516 238.468C113.058 238.974 111.546 239.916 110.213 241.261C108.88 242.603 107.942 244.125 107.44 245.593C106.938 244.125 106.002 242.603 104.666 241.261C103.333 239.919 101.821 238.974 100.363 238.468C101.821 237.963 103.333 237.021 104.666 235.676Z" fill="white"/>
<path d="M88.2713 145.238C89.6043 143.896 90.5431 142.374 91.0451 140.906C91.5471 142.374 92.4831 143.896 93.8189 145.238C95.152 146.58 96.6637 147.526 98.1215 148.031C96.6637 148.536 95.152 149.479 93.8189 150.824C92.4859 152.166 91.5471 153.688 91.0451 155.156C90.5431 153.688 89.6072 152.166 88.2713 150.824C86.9383 149.482 85.4266 148.536 83.9688 148.031C85.4266 147.526 86.9383 146.583 88.2713 145.238Z" fill="white"/>
<path d="M88.2733 163.34C89.6063 161.998 90.5451 160.476 91.0471 159.008C91.5491 160.476 92.485 161.998 93.8209 163.34C95.1539 164.682 96.6656 165.627 98.1234 166.133C96.6656 166.638 95.1539 167.58 93.8209 168.925C92.4879 170.267 91.5491 171.789 91.0471 173.257C90.5451 171.789 89.6091 170.267 88.2733 168.925C86.9402 167.583 85.4285 166.638 83.9707 166.133C85.4285 165.627 86.9402 164.685 88.2733 163.34Z" fill="white"/>
<path d="M88.2733 181.426C89.6063 180.084 90.5451 178.562 91.0471 177.094C91.5491 178.562 92.485 180.084 93.8209 181.426C95.1539 182.768 96.6656 183.713 98.1234 184.218C96.6656 184.724 95.1539 185.666 93.8209 187.011C92.4879 188.353 91.5491 189.875 91.0471 191.343C90.5451 189.875 89.6091 188.353 88.2733 187.011C86.9402 185.669 85.4285 184.724 83.9707 184.218C85.4285 183.713 86.9402 182.771 88.2733 181.426Z" fill="white"/>
<path d="M88.2733 199.504C89.6063 198.162 90.5451 196.64 91.0471 195.172C91.5491 196.64 92.485 198.162 93.8209 199.504C95.1539 200.846 96.6656 201.791 98.1234 202.297C96.6656 202.802 95.1539 203.744 93.8209 205.089C92.4879 206.431 91.5491 207.954 91.0471 209.421C90.5451 207.954 89.6091 206.431 88.2733 205.089C86.9402 203.747 85.4285 202.802 83.9707 202.297C85.4285 201.791 86.9402 200.849 88.2733 199.504Z" fill="white"/>
<path d="M88.2733 217.59C89.6063 216.248 90.5451 214.726 91.0471 213.258C91.5491 214.726 92.485 216.248 93.8209 217.59C95.1539 218.932 96.6656 219.877 98.1234 220.383C96.6656 220.888 95.1539 221.83 93.8209 223.175C92.4879 224.517 91.5491 226.039 91.0471 227.507C90.5451 226.039 89.6091 224.517 88.2733 223.175C86.9402 221.833 85.4285 220.888 83.9707 220.383C85.4285 219.877 86.9402 218.935 88.2733 217.59Z" fill="white"/>
<path d="M88.2733 235.676C89.6063 234.334 90.5451 232.812 91.0471 231.344C91.5491 232.812 92.485 234.334 93.8209 235.676C95.1539 237.018 96.6656 237.963 98.1234 238.468C96.6656 238.974 95.1539 239.916 93.8209 241.261C92.4879 242.603 91.5491 244.125 91.0471 245.593C90.5451 244.125 89.6091 242.603 88.2733 241.261C86.9402 239.919 85.4285 238.974 83.9707 238.468C85.4285 237.963 86.9402 237.021 88.2733 235.676Z" fill="white"/>
<path d="M71.8787 145.238C73.2117 143.896 74.1505 142.374 74.6525 140.906C75.1545 142.374 76.0905 143.896 77.4264 145.238C78.7594 146.58 80.2711 147.526 81.7289 148.031C80.2711 148.536 78.7594 149.479 77.4264 150.824C76.0933 152.166 75.1545 153.688 74.6525 155.156C74.1505 153.688 73.2146 152.166 71.8787 150.824C70.5457 149.482 69.034 148.536 67.5762 148.031C69.034 147.526 70.5457 146.583 71.8787 145.238Z" fill="white"/>
<path d="M71.8807 163.34C73.2137 161.998 74.1525 160.476 74.6545 159.008C75.1565 160.476 76.0925 161.998 77.4283 163.34C78.7613 164.682 80.273 165.627 81.7309 166.133C80.273 166.638 78.7613 167.58 77.4283 168.925C76.0953 170.267 75.1565 171.789 74.6545 173.257C74.1525 171.789 73.2165 170.267 71.8807 168.925C70.5476 167.583 69.0359 166.638 67.5781 166.133C69.0359 165.627 70.5476 164.685 71.8807 163.34Z" fill="white"/>
<path d="M71.8768 181.418C73.2098 180.076 74.1486 178.554 74.6506 177.086C75.1526 178.554 76.0885 180.076 77.4244 181.418C78.7574 182.76 80.2691 183.705 81.727 184.211C80.2691 184.716 78.7574 185.658 77.4244 187.003C76.0914 188.346 75.1526 189.868 74.6506 191.335C74.1486 189.868 73.2126 188.346 71.8768 187.003C70.5437 185.661 69.032 184.716 67.5742 184.211C69.032 183.705 70.5437 182.763 71.8768 181.418Z" fill="white"/>
<path d="M71.8768 199.504C73.2098 198.162 74.1486 196.64 74.6506 195.172C75.1526 196.64 76.0885 198.162 77.4244 199.504C78.7574 200.846 80.2691 201.791 81.727 202.297C80.2691 202.802 78.7574 203.744 77.4244 205.089C76.0914 206.431 75.1526 207.954 74.6506 209.421C74.1486 207.954 73.2126 206.431 71.8768 205.089C70.5437 203.747 69.032 202.802 67.5742 202.297C69.032 201.791 70.5437 200.849 71.8768 199.504Z" fill="white"/>
<path d="M71.8768 217.59C73.2098 216.248 74.1486 214.726 74.6506 213.258C75.1526 214.726 76.0885 216.248 77.4244 217.59C78.7574 218.932 80.2691 219.877 81.727 220.383C80.2691 220.888 78.7574 221.83 77.4244 223.175C76.0914 224.517 75.1526 226.039 74.6506 227.507C74.1486 226.039 73.2126 224.517 71.8768 223.175C70.5437 221.833 69.032 220.888 67.5742 220.383C69.032 219.877 70.5437 218.935 71.8768 217.59Z" fill="white"/>
<path d="M71.8768 235.676C73.2098 234.334 74.1486 232.812 74.6506 231.344C75.1526 232.812 76.0885 234.334 77.4244 235.676C78.7574 237.018 80.2691 237.963 81.727 238.468C80.2691 238.974 78.7574 239.916 77.4244 241.261C76.0914 242.603 75.1526 244.125 74.6506 245.593C74.1486 244.125 73.2126 242.603 71.8768 241.261C70.5437 239.919 69.032 238.974 67.5742 238.468C69.032 237.963 70.5437 237.021 71.8768 235.676Z" fill="white"/>
<path d="M55.5057 145.238C56.8387 143.896 57.7775 142.374 58.2795 140.906C58.7815 142.374 59.7175 143.896 61.0533 145.238C62.3863 146.58 63.898 147.526 65.3559 148.031C63.898 148.536 62.3863 149.479 61.0533 150.824C59.7203 152.166 58.7815 153.688 58.2795 155.156C57.7775 153.688 56.8415 152.166 55.5057 150.824C54.1726 149.482 52.6609 148.536 51.2031 148.031C52.6609 147.526 54.1726 146.583 55.5057 145.238Z" fill="white"/>
<path d="M55.5037 163.34C56.8367 161.998 57.7755 160.476 58.2775 159.008C58.7795 160.476 59.7155 161.998 61.0514 163.34C62.3844 164.682 63.8961 165.627 65.3539 166.133C63.8961 166.638 62.3844 167.58 61.0514 168.925C59.7183 170.267 58.7795 171.789 58.2775 173.257C57.7755 171.789 56.8396 170.267 55.5037 168.925C54.1707 167.583 52.659 166.638 51.2012 166.133C52.659 165.627 54.1707 164.685 55.5037 163.34Z" fill="white"/>
<path d="M55.3045 180.332C56.6375 178.99 57.5763 177.468 58.0783 176C58.5803 177.468 59.5163 178.99 60.8521 180.332C62.1852 181.674 63.6969 182.619 65.1547 183.125C63.6969 183.63 62.1852 184.573 60.8521 185.917C59.5191 187.26 58.5803 188.782 58.0783 190.249C57.5763 188.782 56.6404 187.26 55.3045 185.917C53.9715 184.575 52.4598 183.63 51.002 183.125C52.4598 182.619 53.9715 181.677 55.3045 180.332Z" fill="white"/>
<path d="M55.5037 199.504C56.8367 198.162 57.7755 196.64 58.2775 195.172C58.7795 196.64 59.7155 198.162 61.0514 199.504C62.3844 200.846 63.8961 201.791 65.3539 202.297C63.8961 202.802 62.3844 203.744 61.0514 205.089C59.7183 206.431 58.7795 207.954 58.2775 209.421C57.7755 207.954 56.8396 206.431 55.5037 205.089C54.1707 203.747 52.659 202.802 51.2012 202.297C52.659 201.791 54.1707 200.849 55.5037 199.504Z" fill="white"/>
<path d="M55.5037 217.59C56.8367 216.248 57.7755 214.726 58.2775 213.258C58.7795 214.726 59.7155 216.248 61.0514 217.59C62.3844 218.932 63.8961 219.877 65.3539 220.383C63.8961 220.888 62.3844 221.83 61.0514 223.175C59.7183 224.517 58.7795 226.039 58.2775 227.507C57.7755 226.039 56.8396 224.517 55.5037 223.175C54.1707 221.833 52.659 220.888 51.2012 220.383C52.659 219.877 54.1707 218.935 55.5037 217.59Z" fill="white"/>
<path d="M55.5037 235.676C56.8367 234.334 57.7755 232.812 58.2775 231.344C58.7795 232.812 59.7155 234.334 61.0514 235.676C62.3844 237.018 63.8961 237.963 65.3539 238.468C63.8961 238.974 62.3844 239.916 61.0514 241.261C59.7183 242.603 58.7795 244.125 58.2775 245.593C57.7755 244.125 56.8396 242.603 55.5037 241.261C54.1707 239.919 52.659 238.974 51.2012 238.468C52.659 237.963 54.1707 237.021 55.5037 235.676Z" fill="white"/>
<path d="M39.115 145.238C40.4481 143.896 41.3869 142.374 41.8889 140.906C42.3909 142.374 43.3268 143.896 44.6627 145.238C45.9957 146.58 47.5074 147.526 48.9652 148.031C47.5074 148.536 45.9957 149.479 44.6627 150.824C43.3297 152.166 42.3909 153.688 41.8889 155.156C41.3869 153.688 40.4509 152.166 39.115 150.824C37.782 149.482 36.2703 148.536 34.8125 148.031C36.2703 147.526 37.782 146.583 39.115 145.238Z" fill="white"/>
<path d="M39.117 163.34C40.45 161.998 41.3888 160.476 41.8908 159.008C42.3928 160.476 43.3288 161.998 44.6646 163.34C45.9977 164.682 47.5094 165.627 48.9672 166.133C47.5094 166.638 45.9977 167.58 44.6646 168.925C43.3316 170.267 42.3928 171.789 41.8908 173.257C41.3888 171.789 40.4529 170.267 39.117 168.925C37.784 167.583 36.2723 166.638 34.8145 166.133C36.2723 165.627 37.784 164.685 39.117 163.34Z" fill="white"/>
<path d="M39.117 181.426C40.45 180.084 41.3888 178.562 41.8908 177.094C42.3928 178.562 43.3288 180.084 44.6646 181.426C45.9977 182.768 47.5094 183.713 48.9672 184.218C47.5094 184.724 45.9977 185.666 44.6646 187.011C43.3316 188.353 42.3928 189.875 41.8908 191.343C41.3888 189.875 40.4529 188.353 39.117 187.011C37.784 185.669 36.2723 184.724 34.8145 184.218C36.2723 183.713 37.784 182.771 39.117 181.426Z" fill="white"/>
<path d="M39.117 199.504C40.45 198.162 41.3888 196.64 41.8908 195.172C42.3928 196.64 43.3288 198.162 44.6646 199.504C45.9977 200.846 47.5094 201.791 48.9672 202.297C47.5094 202.802 45.9977 203.744 44.6646 205.089C43.3316 206.431 42.3928 207.954 41.8908 209.421C41.3888 207.954 40.4529 206.431 39.117 205.089C37.784 203.747 36.2723 202.802 34.8145 202.297C36.2723 201.791 37.784 200.849 39.117 199.504Z" fill="white"/>
<path d="M39.117 217.59C40.45 216.248 41.3888 214.726 41.8908 213.258C42.3928 214.726 43.3288 216.248 44.6646 217.59C45.9977 218.932 47.5094 219.877 48.9672 220.383C47.5094 220.888 45.9977 221.83 44.6646 223.175C43.3316 224.517 42.3928 226.039 41.8908 227.507C41.3888 226.039 40.4529 224.517 39.117 223.175C37.784 221.833 36.2723 220.888 34.8145 220.383C36.2723 219.877 37.784 218.935 39.117 217.59Z" fill="white"/>
<path d="M39.117 235.676C40.45 234.334 41.3888 232.812 41.8908 231.344C42.3928 232.812 43.3288 234.334 44.6646 235.676C45.9977 237.018 47.5094 237.963 48.9672 238.468C47.5094 238.974 45.9977 239.916 44.6646 241.261C43.3316 242.603 42.3928 244.125 41.8908 245.593C41.3888 244.125 40.4529 242.603 39.117 241.261C37.784 239.919 36.2723 238.974 34.8145 238.468C36.2723 237.963 37.784 237.021 39.117 235.676Z" fill="white"/>
<path d="M169.31 127.277C170.643 125.935 171.582 124.413 172.084 122.945C172.586 124.413 173.522 125.935 174.858 127.277C176.191 128.619 177.703 129.565 179.161 130.07C177.703 130.575 176.191 131.518 174.858 132.863C173.525 134.205 172.586 135.727 172.084 137.195C171.582 135.727 170.646 134.205 169.31 132.863C167.977 131.521 166.466 130.575 165.008 130.07C166.466 129.565 167.977 128.622 169.31 127.277Z" fill="white"/>
<path d="M153.142 127.277C154.475 125.935 155.414 124.413 155.916 122.945C156.418 124.413 157.354 125.935 158.69 127.277C160.023 128.619 161.535 129.565 162.993 130.07C161.535 130.575 160.023 131.518 158.69 132.863C157.357 134.205 156.418 135.727 155.916 137.195C155.414 135.727 154.478 134.205 153.142 132.863C151.809 131.521 150.298 130.575 148.84 130.07C150.298 129.565 151.809 128.622 153.142 127.277Z" fill="white"/>
<path d="M136.98 127.277C138.313 125.935 139.252 124.413 139.754 122.945C140.256 124.413 141.192 125.935 142.528 127.277C143.861 128.619 145.373 129.565 146.83 130.07C145.373 130.575 143.861 131.518 142.528 132.863C141.195 134.205 140.256 135.727 139.754 137.195C139.252 135.727 138.316 134.205 136.98 132.863C135.647 131.521 134.136 130.575 132.678 130.07C134.136 129.565 135.647 128.622 136.98 127.277Z" fill="white"/>
<path d="M120.828 127.277C122.161 125.935 123.1 124.413 123.602 122.945C124.104 124.413 125.04 125.935 126.376 127.277C127.709 128.619 129.22 129.565 130.678 130.07C129.22 130.575 127.709 131.518 126.376 132.863C125.043 134.205 124.104 135.727 123.602 137.195C123.1 135.727 122.164 134.205 120.828 132.863C119.495 131.521 117.983 130.575 116.525 130.07C117.983 129.565 119.495 128.622 120.828 127.277Z" fill="white"/>
<path d="M104.666 127.277C105.999 125.935 106.938 124.413 107.44 122.945C107.942 124.413 108.878 125.935 110.213 127.277C111.546 128.619 113.058 129.565 114.516 130.07C113.058 130.575 111.546 131.518 110.213 132.863C108.88 134.205 107.942 135.727 107.44 137.195C106.938 135.727 106.002 134.205 104.666 132.863C103.333 131.521 101.821 130.575 100.363 130.07C101.821 129.565 103.333 128.622 104.666 127.277Z" fill="white"/>
<path d="M88.2733 127.277C89.6063 125.935 90.5451 124.413 91.0471 122.945C91.5491 124.413 92.485 125.935 93.8209 127.277C95.1539 128.619 96.6656 129.565 98.1234 130.07C96.6656 130.575 95.1539 131.518 93.8209 132.863C92.4879 134.205 91.5491 135.727 91.0471 137.195C90.5451 135.727 89.6091 134.205 88.2733 132.863C86.9402 131.521 85.4285 130.575 83.9707 130.07C85.4285 129.565 86.9402 128.622 88.2733 127.277Z" fill="white"/>
<path d="M71.8768 127.277C73.2098 125.935 74.1486 124.413 74.6506 122.945C75.1526 124.413 76.0885 125.935 77.4244 127.277C78.7574 128.619 80.2691 129.565 81.727 130.07C80.2691 130.575 78.7574 131.518 77.4244 132.863C76.0914 134.205 75.1526 135.727 74.6506 137.195C74.1486 135.727 73.2126 134.205 71.8768 132.863C70.5437 131.521 69.032 130.575 67.5742 130.07C69.032 129.565 70.5437 128.622 71.8768 127.277Z" fill="white"/>
<path d="M55.5037 127.277C56.8367 125.935 57.7755 124.413 58.2775 122.945C58.7795 124.413 59.7155 125.935 61.0514 127.277C62.3844 128.619 63.8961 129.565 65.3539 130.07C63.8961 130.575 62.3844 131.518 61.0514 132.863C59.7183 134.205 58.7795 135.727 58.2775 137.195C57.7755 135.727 56.8396 134.205 55.5037 132.863C54.1707 131.521 52.659 130.575 51.2012 130.07C52.659 129.565 54.1707 128.622 55.5037 127.277Z" fill="white"/>
<path d="M39.117 127.277C40.45 125.935 41.3888 124.413 41.8908 122.945C42.3928 124.413 43.3288 125.935 44.6646 127.277C45.9977 128.619 47.5094 129.565 48.9672 130.07C47.5094 130.575 45.9977 131.518 44.6646 132.863C43.3316 134.205 42.3928 135.727 41.8908 137.195C41.3888 135.727 40.4529 134.205 39.117 132.863C37.784 131.521 36.2723 130.575 34.8145 130.07C36.2723 129.565 37.784 128.622 39.117 127.277Z" fill="white"/>
<path d="M169.31 109.324C170.643 107.982 171.582 106.46 172.084 104.992C172.586 106.46 173.522 107.982 174.858 109.324C176.191 110.666 177.703 111.611 179.161 112.117C177.703 112.622 176.191 113.565 174.858 114.91C173.525 116.252 172.586 117.774 172.084 119.242C171.582 117.774 170.646 116.252 169.31 114.91C167.977 113.568 166.466 112.622 165.008 112.117C166.466 111.611 167.977 110.669 169.31 109.324Z" fill="white"/>
<path d="M153.142 109.324C154.475 107.982 155.414 106.46 155.916 104.992C156.418 106.46 157.354 107.982 158.69 109.324C160.023 110.666 161.535 111.611 162.993 112.117C161.535 112.622 160.023 113.565 158.69 114.91C157.357 116.252 156.418 117.774 155.916 119.242C155.414 117.774 154.478 116.252 153.142 114.91C151.809 113.568 150.298 112.622 148.84 112.117C150.298 111.611 151.809 110.669 153.142 109.324Z" fill="white"/>
<path d="M136.98 109.324C138.313 107.982 139.252 106.46 139.754 104.992C140.256 106.46 141.192 107.982 142.528 109.324C143.861 110.666 145.373 111.611 146.83 112.117C145.373 112.622 143.861 113.565 142.528 114.91C141.195 116.252 140.256 117.774 139.754 119.242C139.252 117.774 138.316 116.252 136.98 114.91C135.647 113.568 134.136 112.622 132.678 112.117C134.136 111.611 135.647 110.669 136.98 109.324Z" fill="white"/>
<path d="M120.828 109.324C122.161 107.982 123.1 106.46 123.602 104.992C124.104 106.46 125.04 107.982 126.376 109.324C127.709 110.666 129.22 111.611 130.678 112.117C129.22 112.622 127.709 113.565 126.376 114.91C125.043 116.252 124.104 117.774 123.602 119.242C123.1 117.774 122.164 116.252 120.828 114.91C119.495 113.568 117.983 112.622 116.525 112.117C117.983 111.611 119.495 110.669 120.828 109.324Z" fill="white"/>
<path d="M104.666 109.324C105.999 107.982 106.938 106.46 107.44 104.992C107.942 106.46 108.878 107.982 110.213 109.324C111.546 110.666 113.058 111.611 114.516 112.117C113.058 112.622 111.546 113.565 110.213 114.91C108.88 116.252 107.942 117.774 107.44 119.242C106.938 117.774 106.002 116.252 104.666 114.91C103.333 113.568 101.821 112.622 100.363 112.117C101.821 111.611 103.333 110.669 104.666 109.324Z" fill="white"/>
<path d="M88.2713 109.324C89.6043 107.982 90.5431 106.46 91.0451 104.992C91.5471 106.46 92.4831 107.982 93.8189 109.324C95.152 110.666 96.6637 111.611 98.1215 112.117C96.6637 112.622 95.152 113.565 93.8189 114.91C92.4859 116.252 91.5471 117.774 91.0451 119.242C90.5431 117.774 89.6072 116.252 88.2713 114.91C86.9383 113.568 85.4266 112.622 83.9688 112.117C85.4266 111.611 86.9383 110.669 88.2713 109.324Z" fill="white"/>
<path d="M71.8787 109.324C73.2117 107.982 74.1505 106.46 74.6525 104.992C75.1545 106.46 76.0905 107.982 77.4264 109.324C78.7594 110.666 80.2711 111.611 81.7289 112.117C80.2711 112.622 78.7594 113.565 77.4264 114.91C76.0933 116.252 75.1545 117.774 74.6525 119.242C74.1505 117.774 73.2146 116.252 71.8787 114.91C70.5457 113.568 69.034 112.622 67.5762 112.117C69.034 111.611 70.5457 110.669 71.8787 109.324Z" fill="white"/>
<path d="M55.5057 109.324C56.8387 107.982 57.7775 106.46 58.2795 104.992C58.7815 106.46 59.7175 107.982 61.0533 109.324C62.3863 110.666 63.898 111.611 65.3559 112.117C63.898 112.622 62.3863 113.565 61.0533 114.91C59.7203 116.252 58.7815 117.774 58.2795 119.242C57.7775 117.774 56.8415 116.252 55.5057 114.91C54.1726 113.568 52.6609 112.622 51.2031 112.117C52.6609 111.611 54.1726 110.669 55.5057 109.324Z" fill="white"/>
<path d="M39.115 109.324C40.4481 107.982 41.3869 106.46 41.8889 104.992C42.3909 106.46 43.3268 107.982 44.6627 109.324C45.9957 110.666 47.5074 111.611 48.9652 112.117C47.5074 112.622 45.9957 113.565 44.6627 114.91C43.3297 116.252 42.3909 117.774 41.8889 119.242C41.3869 117.774 40.4509 116.252 39.115 114.91C37.782 113.568 36.2703 112.622 34.8125 112.117C36.2703 111.611 37.782 110.669 39.115 109.324Z" fill="white"/>
</g>
<path d="M127.051 82.1406L138.507 88.9626L130.432 108.309L116.906 97.9892L119.215 92.5093C120.222 90.1163 121.646 87.9232 123.415 86.0299L127.054 82.1406H127.051Z" fill="#FB8E65"/>
<path d="M116.738 95.9453C116.738 95.9453 114.625 105.146 123.301 109.529C123.301 109.529 127.763 111.097 131.512 105.946" fill="#FB8E65"/>
<path d="M125.139 105.025L142.647 115.919C142.647 115.919 146.839 118.955 148.492 116.676C150.146 114.397 146.271 111.57 146.271 111.57L133.616 101.695" fill="#FB8E65"/>
<path d="M124.783 98.1143L139.543 106.684C140.882 107.461 142.586 107.132 143.542 105.907C144.688 104.442 144.024 102.672 142.456 101.681L132.872 95.6328" fill="#FB8E65"/>
<path d="M124.607 92.1881L139.367 100.758C140.706 101.534 142.41 101.206 143.366 99.981C144.512 98.5161 143.843 96.6143 142.274 95.6263L132.691 89.5781" fill="#FB8E65"/>
<path d="M127.055 88.5653L139.171 95.3103C140.271 95.9214 141.65 95.6301 142.41 94.6221C143.32 93.417 142.989 91.6837 141.701 90.9012L133.666 86.0781" fill="#FB8E65"/>
<path d="M123.91 104.039L139.282 113.951" stroke="black" stroke-width="1.14223" stroke-miterlimit="10"/>
<path d="M212.271 195.163C212.271 195.163 213.746 187.61 222.229 188.493L226.668 185.934C226.668 185.934 230.781 178.558 234.082 180.474L230.035 188.927L221.784 195.846" fill="#FB8E65"/>
<path d="M212.271 195.163C212.271 195.163 213.746 187.61 222.229 188.493L226.668 185.934C226.668 185.934 230.781 178.558 234.082 180.474" stroke="black" stroke-width="1.14223" stroke-miterlimit="10"/>
<path d="M88 191L95 242" stroke="black" stroke-width="1.14223" stroke-miterlimit="10"/>
<path d="M160 196L166 242" stroke="black" stroke-width="1.14223" stroke-miterlimit="10"/>
<path d="M109.162 164.102C109.162 164.102 113.082 170.307 123.936 170.307C132.592 170.307 136.319 164.102 136.319 164.102" stroke="black" stroke-width="1.14223" stroke-miterlimit="10"/>
<path d="M112.671 153.999V164.122L111.783 164.128C111.783 164.128 115.626 168.123 123.42 168.123C131.214 168.123 133.679 164.125 133.679 164.125H130.176L128.194 153.18L112.668 154.002L112.671 153.999Z" fill="#FB8E65"/>
<path d="M124.693 157.47L129.384 159.774L128.8 156.539L124.693 157.47Z" fill="black"/>
<path d="M115.897 154.78C115.897 154.78 120.614 160.689 133.323 156.208C139.897 153.889 139.489 148.892 138.213 146.108C136.196 141.713 132.058 136.025 129.253 131.644C123.788 123.12 95.3233 128.206 104.399 146.159L109.638 154.992" fill="#FB8E65"/>
<path d="M127.131 140.078C127.131 140.078 131.181 142.4 131.36 145.104C131.538 147.808 128.869 147.523 128.869 147.523" stroke="black" stroke-width="1.14223" stroke-miterlimit="10"/>
<path d="M121.043 144.002C121.202 143.399 121.63 142.874 122.186 142.597C122.742 142.323 123.417 142.3 123.99 142.543" stroke="black" stroke-width="1.14223" stroke-miterlimit="10"/>
<path d="M131.371 139.471C131.53 138.868 131.958 138.343 132.514 138.066C133.07 137.792 133.745 137.769 134.318 138.012" stroke="black" stroke-width="1.14223" stroke-miterlimit="10"/>
<path d="M127.61 140.389C128.834 141.345 132.38 142.802 134.031 142.142C138.07 140.529 135.401 134.82 135.401 134.82L114.461 143.187C114.461 143.187 116.736 149.138 121.413 147.271C125.213 145.752 125.372 142.619 125.295 141.497C125.27 141.094 125.363 140.683 125.613 140.366C125.959 139.932 126.503 139.657 127.61 140.389Z" stroke="#80FF00" stroke-width="1.14223" stroke-miterlimit="10"/>
<path d="M114.465 143.18L102.511 148.979C102.511 148.979 99.5867 150.813 102.517 154.448" stroke="#80FF00" stroke-width="1.14223" stroke-miterlimit="10"/>
<path d="M114.842 154.488C107.754 160.602 103.239 154.328 102.578 152.184C101.917 150.042 102.544 147.426 104.396 146.175C106.168 144.976 109.022 145.613 110.752 148.5" fill="#FB8E65"/>
<path d="M109.24 152.147L106.016 149.648" stroke="black" stroke-width="1.14223" stroke-miterlimit="10"/>
<path d="M107.286 150.953C107.286 150.953 105.856 152.098 107.178 153.392" stroke="black" stroke-width="1.14223" stroke-miterlimit="10"/>
<path d="M199.99 202.5L182.365 220.779" stroke="black" stroke-width="1.14223" stroke-miterlimit="10"/>
<path d="M90.5078 231.125V235.865L94.5835 238.236L98.6619 235.865V231.125L94.5835 228.758L90.5078 231.125Z" fill="#405FF4"/>
<path d="M78.1793 217.64C79.1348 217.64 79.9094 216.86 79.9094 215.898C79.9094 214.936 79.1348 214.156 78.1793 214.156C77.2238 214.156 76.4492 214.936 76.4492 215.898C76.4492 216.86 77.2238 217.64 78.1793 217.64Z" fill="#F5009E"/>
<path d="M201.73 23.4838C202.686 23.4838 203.46 22.7039 203.46 21.7419C203.46 20.7799 202.686 20 201.73 20C200.775 20 200 20.7799 200 21.7419C200 22.7039 200.775 23.4838 201.73 23.4838Z" fill="#F5009E"/>
<path d="M94.5549 164.123C91.1855 163.763 87.8019 162.972 84.5544 161.758C67.6335 155.396 58.2173 140.316 60.2423 122.977" stroke="black" stroke-width="1.14223" stroke-miterlimit="10"/>
<path d="M122.164 122.591C122.164 122.591 123.543 119.596 125.289 118.125C126.096 117.447 127.324 117.968 127.403 119.023L127.542 120.915C127.542 120.915 133.935 115.397 137.349 119.729C138.142 120.737 138.023 122.19 137.107 123.085C135.041 125.1 132.042 127.554 132.042 127.554C132.042 127.554 134.078 126.145 135.933 127.622C136.692 128.225 136.58 129.428 135.732 129.898C133.033 131.389 130.351 133.27 130.351 133.27C130.351 133.27 129.22 130.84 126.487 131.55" fill="black"/>
<path d="M129.153 128.063C129.153 128.063 127.147 135.039 120.401 134.582C113.655 134.121 111.945 136.159 110.675 137.905C109.844 139.05 111.369 144.028 112.157 146.99C112.879 149.708 110.69 150.82 109.268 150.82C108.403 146.321 103.909 146.675 103.909 146.675L100.505 134.6C99.8999 131.946 100.759 129.168 102.75 127.326L107.49 122.943C108.046 122.43 108.94 122.844 108.919 123.602L108.884 124.687L124.23 121.82" fill="black"/>
<path d="M130.152 152.783C130.152 152.783 126.846 154.942 124.153 151.121" stroke="black" stroke-width="1.14" stroke-miterlimit="10"/>
<path d="M206.314 73.0937L191.691 47.5926L205.58 45.7447L220.938 47.5926L206.314 73.0937Z" fill="#687083"/>
<path d="M206.99 72.3516L192.367 46.8504L206.094 45.5L221.613 46.8504L206.99 72.3516Z" fill="#071B7C"/>
</svg>
