<svg width="59" height="66" viewBox="0 0 59 66" fill="none" xmlns="http://www.w3.org/2000/svg">
<mask id="mask0_19205_88033" style="mask-type:alpha" maskUnits="userSpaceOnUse" x="3" y="9" width="56" height="57">
<circle cx="31" cy="37.625" r="28" fill="#EAECF0"/>
</mask>
<g mask="url(#mask0_19205_88033)">
<circle cx="31" cy="37.625" r="28" fill="#F1F1F1"/>
<path d="M32.8942 23.9612C33.9806 21.691 34.6765 19.8187 34.8846 18.3539C34.9855 17.6203 34.9734 16.9962 34.8322 16.4804C34.6911 15.9682 34.4247 15.5692 34.0354 15.3076C33.6461 15.046 33.1716 14.9475 32.6266 15.0266C32.0815 15.1069 31.4599 15.3599 30.8078 15.8198C29.5012 16.7274 28.0157 18.4294 26.7578 21.0572C26.1409 22.3772 25.6178 23.8468 25.2796 25.3408C24.9463 26.8396 24.8039 28.3664 24.8818 29.7242C24.9098 30.0697 24.945 30.3982 24.9864 30.7108C25.0302 31.0223 25.1093 31.3337 25.1774 31.6135C25.3051 32.1707 25.5412 32.6756 25.748 33.0576C25.8477 33.2498 25.9864 33.4226 26.1093 33.5625C26.2346 33.7048 26.3599 33.818 26.4828 33.9032C26.7298 34.0747 26.9682 34.1343 27.1969 34.0881C27.4257 34.043 27.6373 33.8971 27.8344 33.6878C27.9318 33.5844 28.0267 33.464 28.1155 33.3301C28.2067 33.1963 28.2797 33.0576 28.3855 32.8946C28.4829 32.7352 28.579 32.5649 28.6702 32.3873C28.7542 32.2133 28.8625 32.0187 28.9671 31.8179C29.0766 31.616 29.1605 31.4128 29.2761 31.1926C29.3929 30.9724 29.506 30.7449 29.6167 30.5125C30.1046 29.5429 30.6423 28.4747 31.1922 27.3834C31.7652 26.2678 32.3626 25.1011 32.8954 23.9624L32.8942 23.9612Z" fill="white"/>
<path d="M28.2088 29.1933C28.9302 26.4877 29.8086 24.372 30.2538 22.8269C30.7186 21.2855 30.7855 20.3037 30.2234 19.9667C30.0422 19.8573 29.7672 19.8938 29.4302 20.0738C29.0932 20.2514 28.6917 20.5677 28.2805 21.0337C27.4472 21.9534 26.5396 23.4584 25.997 25.4888C25.5627 27.1154 25.3778 29.0413 25.5882 30.545C25.6223 30.9136 25.7123 31.2676 25.7963 31.573C25.8826 31.8784 25.9678 32.1399 26.0943 32.3577C26.3279 32.7896 26.5712 33.0074 26.8024 32.9769C27.2683 32.9161 27.4995 32.6983 27.6151 32.1412C27.7039 31.8589 27.7477 31.4903 27.828 31.0073C27.8754 30.764 27.9253 30.4951 27.9776 30.1934C28.0348 29.8929 28.1224 29.5608 28.2063 29.1946L28.2088 29.1933Z" fill="#C7FF5A"/>
<path d="M41.4886 25.5043C42.3146 25.8072 42.9947 26.1783 43.5482 26.5615C43.8366 26.7501 44.0775 26.9484 44.322 27.1394C44.5471 27.3353 44.7721 27.5275 44.9607 27.7209C45.7369 28.491 46.2406 29.2258 46.5593 29.884C47.1944 31.2028 47.1116 32.2101 46.5143 32.8038C45.9096 33.4048 44.8926 33.4705 43.6322 33.0849C43.0032 32.8926 42.3037 32.5946 41.5737 32.2478C41.3912 32.1566 41.2075 32.08 41.0214 31.9826C40.8365 31.9036 40.6503 31.8026 40.4666 31.7247C40.0956 31.5459 39.7355 31.3987 39.4118 31.2807C39.0858 31.1627 38.8291 31.097 38.6271 31.0568C38.424 31.0167 38.2488 30.9863 37.9787 31.0264C37.7123 31.0653 37.3692 31.1821 36.9993 31.3719C36.6307 31.5666 36.2414 31.816 35.8606 32.0739C35.1039 32.6031 34.3825 33.1506 33.7681 33.4985C33.1513 33.8464 32.6245 33.9937 32.2461 33.7978C31.8727 33.6044 31.6829 33.0837 31.6938 32.3209C31.7048 31.5581 31.9116 30.5544 32.4408 29.4108C32.7133 28.8414 33.071 28.2355 33.5649 27.6248C34.0662 27.019 34.7231 26.4009 35.5918 25.9082C35.8059 25.7841 36.0443 25.6771 36.2767 25.5688C36.5176 25.4702 36.7694 25.3826 37.0225 25.3023C37.2816 25.2379 37.5432 25.1685 37.8084 25.1284C38.0736 25.0968 38.3449 25.0493 38.6065 25.0493C39.6734 25.0006 40.6637 25.2087 41.4886 25.5067V25.5043Z" fill="white"/>
<path d="M34.3082 29.4973C34.7778 28.9766 35.2924 28.5167 35.8545 28.1639C36.4141 27.8099 37.0236 27.5702 37.6161 27.4643C37.7658 27.4437 37.9105 27.4157 38.0541 27.4072C38.1977 27.4011 38.3388 27.3962 38.4775 27.3901C38.7536 27.4047 39.0176 27.4218 39.2609 27.4765C39.5079 27.513 39.7293 27.5957 39.9434 27.6578C40.1491 27.7417 40.3474 27.8123 40.5177 27.9096C41.216 28.2734 41.6552 28.6894 41.8912 29.0544C42.1309 29.4145 42.1613 29.7369 42.0141 29.9863C41.918 30.1542 41.6929 30.243 41.3815 30.2856C41.07 30.3294 40.6722 30.3087 40.2403 30.2856C39.8096 30.2564 39.3473 30.2223 38.9422 30.2406C38.8911 30.2442 38.8412 30.2455 38.7913 30.243C38.7439 30.2479 38.6965 30.2552 38.6478 30.2576C38.5492 30.2552 38.4604 30.2856 38.3619 30.2832C38.1745 30.316 37.9787 30.3477 37.7475 30.4061C37.3777 30.5058 36.9105 30.7175 36.4226 31.018C35.936 31.3161 35.4348 31.6835 34.981 32.0229C34.0649 32.703 33.3082 33.2407 32.9493 33.0023C32.5989 32.7711 32.4992 32.4974 32.6865 31.9669C32.734 31.8355 32.7984 31.6871 32.8812 31.5192C32.9688 31.355 33.077 31.1701 33.2011 30.9633C33.4639 30.5581 33.7997 30.0605 34.307 29.496L34.3082 29.4973Z" fill="#C7FF5A"/>
<path d="M19.8463 39.9957C20.3038 35.5747 25.2735 30.3543 30.6776 30.9151C36.0817 31.476 39.8738 37.6015 39.4151 42.025" fill="white"/>
<path d="M32.3477 40.5869L31.8854 40.1064C32.5314 39.4847 33.4803 39.1988 34.3623 39.3594C34.3721 39.3618 34.3818 39.3631 34.3915 39.3655C35.2614 39.5346 36.0352 40.1319 36.4159 40.9325L35.8137 41.2196C35.523 40.6076 34.9305 40.1502 34.265 40.02C34.2577 40.0188 34.2504 40.0176 34.2419 40.0164C33.5667 39.8935 32.8416 40.1125 32.3477 40.5882V40.5869Z" fill="#010000"/>
<path d="M23.0932 38.9278L22.6309 38.4472C23.2769 37.8255 24.2258 37.5396 25.1078 37.7002C25.1176 37.7027 25.1273 37.7039 25.137 37.7063C26.0069 37.8754 26.7806 38.4728 27.1614 39.2733L26.5592 39.5604C26.2685 38.9485 25.676 38.491 25.0105 38.3608C25.0032 38.3596 24.9959 38.3584 24.9874 38.3572C24.3122 38.2343 23.5871 38.4533 23.0932 38.929V38.9278Z" fill="#010000"/>
<path d="M33.9636 32.0044C33.9636 32.0044 39.6439 35.0799 39.4139 42.0242" stroke="black" stroke-width="0.243318" stroke-miterlimit="10"/>
<path d="M17.4162 33.8845H41.6883C43.5728 33.8845 45.1033 35.415 45.1033 37.2995H14C14 35.415 15.5305 33.8845 17.415 33.8845H17.4162Z" fill="black"/>
<path d="M41.012 58.8957H18.2631L19.0198 37.3013H40.0899L41.012 58.8957Z" fill="black"/>
<path d="M40.3673 43.7881H18.7924L19.0199 37.3013H40.0899L40.3673 43.7881Z" fill="#EC0195"/>
<path d="M18.9712 38.7125L19.0199 37.3013H40.0899L40.1508 38.7283L18.9712 38.7125Z" fill="#C10081"/>
<path opacity="0.13" d="M37.4598 37.3013H31.0216V58.8969H37.4598V37.3013Z" fill="white"/>
</g>
<rect y="0.375" width="29" height="16" rx="4" fill="#677AEC"/>
<path d="M10.728 12.519C9.896 12.519 9.168 12.335 8.544 11.967C7.92 11.599 7.432 11.091 7.08 10.443C6.728 9.787 6.552 9.031 6.552 8.175C6.552 7.319 6.728 6.567 7.08 5.919C7.432 5.263 7.92 4.751 8.544 4.383C9.168 4.015 9.896 3.831 10.728 3.831C11.56 3.831 12.288 4.015 12.912 4.383C13.536 4.751 14.02 5.263 14.364 5.919C14.716 6.567 14.892 7.319 14.892 8.175C14.892 8.999 14.728 9.731 14.4 10.371C14.08 11.011 13.632 11.515 13.056 11.883L15.084 13.947H13.476L11.976 12.363C11.584 12.467 11.168 12.519 10.728 12.519ZM10.728 11.379C11.304 11.379 11.804 11.251 12.228 10.995C12.66 10.739 12.996 10.371 13.236 9.891C13.476 9.411 13.596 8.839 13.596 8.175C13.596 7.511 13.476 6.939 13.236 6.459C12.996 5.979 12.66 5.611 12.228 5.355C11.804 5.099 11.304 4.971 10.728 4.971C10.152 4.971 9.648 5.099 9.216 5.355C8.784 5.611 8.448 5.979 8.208 6.459C7.976 6.939 7.86 7.511 7.86 8.175C7.86 8.839 7.976 9.411 8.208 9.891C8.448 10.371 8.784 10.739 9.216 10.995C9.648 11.251 10.152 11.379 10.728 11.379ZM19.2488 12.519C18.6568 12.519 18.1448 12.415 17.7128 12.207C17.2808 11.991 16.9368 11.699 16.6808 11.331C16.4328 10.955 16.2808 10.531 16.2248 10.059H17.4728C17.5528 10.459 17.7528 10.791 18.0728 11.055C18.3928 11.311 18.7888 11.439 19.2608 11.439C19.6128 11.439 19.9168 11.355 20.1728 11.187C20.4288 11.011 20.6288 10.779 20.7728 10.491C20.9168 10.203 20.9888 9.879 20.9888 9.519C20.9888 8.951 20.8288 8.499 20.5088 8.163C20.1888 7.819 19.7848 7.647 19.2968 7.647C18.8808 7.647 18.5248 7.747 18.2288 7.947C17.9328 8.139 17.7168 8.383 17.5808 8.679H16.3688L17.0888 3.975H21.6248V5.091H18.0488L17.6168 7.335C17.8008 7.127 18.0528 6.955 18.3728 6.819C18.7008 6.675 19.0688 6.603 19.4768 6.603C20.0448 6.603 20.5328 6.735 20.9408 6.999C21.3488 7.255 21.6608 7.603 21.8768 8.043C22.1008 8.483 22.2128 8.971 22.2128 9.507C22.2128 10.067 22.0928 10.575 21.8528 11.031C21.6128 11.487 21.2688 11.851 20.8208 12.123C20.3808 12.387 19.8568 12.519 19.2488 12.519Z" fill="white"/>
</svg>
