<svg width="299" height="233" viewBox="0 0 299 233" fill="none" xmlns="http://www.w3.org/2000/svg">
<mask id="mask0_15570_29189" style="mask-type:alpha" maskUnits="userSpaceOnUse" x="23" y="1" width="254" height="232">
<rect x="23.9932" y="1.5415" width="252.014" height="231.012" fill="#D9D9D9"/>
</mask>
<g mask="url(#mask0_15570_29189)">
<path d="M193.593 71.7652C172.668 50.0032 157.986 25.3151 150.073 1.5415C142.249 25.3151 127.477 50.0032 106.552 71.7652C85.6272 93.5272 61.8894 108.797 39.0301 117.026C61.8894 125.164 85.6272 140.526 106.552 162.288C127.477 184.05 142.161 208.738 150.073 232.511C157.986 208.738 172.668 184.05 193.593 162.288C214.519 140.526 238.257 125.256 261.117 117.026C238.257 108.889 214.519 93.5272 193.593 71.7652Z" fill="#FAF4E7"/>
<mask id="mask1_15570_29189" style="mask-type:alpha" maskUnits="userSpaceOnUse" x="0" y="13" width="307" height="223">
<rect x="0.191895" y="13.0713" width="306.367" height="222.284" fill="#D9D9D9"/>
</mask>
<g mask="url(#mask1_15570_29189)">
<path d="M137.545 80.376L137.358 79.9626C136.385 78.4411 135.852 77.4826 135.474 75.7686C135.168 74.3682 135.093 72.9286 135.208 71.5033L135.607 66.5253L149.454 65.271L147.326 80.6147L137.548 80.376H137.545Z" fill="#FB8E65"/>
<path d="M137.546 80.3744L133.203 77.2529C129.804 74.5554 126.736 72.2464 127.535 71.3413C127.953 70.8674 130.023 69.8447 133.592 72.9127C136.347 69.8661 140.499 72.4923 140.499 72.4923" fill="#FB8E65"/>
<path d="M127.538 71.3413C127.956 70.8674 130.026 69.8447 133.595 72.9127C136.35 69.8661 140.502 72.4923 140.502 72.4923" stroke="black" stroke-width="0.712667" stroke-miterlimit="10"/>
<path d="M135.471 68.1795C135.471 68.1795 135.604 57.0227 137.873 56.9942C140.142 56.9657 138.568 67.9087 138.568 67.9087" fill="#FB8E65"/>
<path d="M138.83 66.924C138.83 66.924 139.687 55.0795 142.168 55.1828C144.649 55.2861 142.651 67.2661 142.651 67.2661" fill="#FB8E65"/>
<path d="M142.731 66.8941C142.731 66.8941 144.002 56.931 146.353 57.1768C148.709 57.4227 146.249 67.849 146.249 67.849" fill="#FB8E65"/>
<path d="M146.354 67.4092C146.354 67.4092 147.294 60.1043 149.235 60.336C151.18 60.5676 148.63 70.9119 148.63 70.9119" fill="#FB8E65"/>
<path d="M137.565 65.9259C137.565 65.9259 142.351 65.2418 147.328 67.2052" stroke="black" stroke-width="0.712667" stroke-miterlimit="10"/>
<path d="M136.847 78.8781L122.839 109.754L102.806 119.226C93.2589 123.252 88.3254 131.95 91.2387 136.843L102.168 149.682L134.917 124.239C137.654 122.112 139.534 119.09 140.218 115.712L147.37 80.3961L136.851 78.8745L136.847 78.8781Z" fill="#FB8E65"/>
<path d="M112.399 114.69L102.806 119.227C93.2589 123.253 88.3254 131.951 91.2387 136.844L102.168 149.682L123.959 132.753L112.399 114.69Z" fill="#829C8B"/>
<path d="M116.724 257.674C112.665 226.057 108.085 185.324 108.128 184.75L85.2283 188.136L78.6779 213.279L86.7768 257.674H116.724Z" fill="#CEFF5A"/>
<path d="M57.3992 192.241C57.3992 192.241 55.7679 208.009 61.9006 218.513L48.7853 310.95C48.7853 310.95 59.8191 316.516 62.2427 307.579L97.9804 216.628V187.295L57.3956 192.234L57.3992 192.241Z" fill="#FB8E65"/>
<path d="M57.3952 192.237C57.3952 192.237 53.4448 208.005 59.5811 218.51L53.8445 257.674H87.4034L97.9764 216.628V187.295L57.3916 192.234L57.3952 192.237Z" fill="#CEFF5A"/>
<path d="M68.3066 196.681L70.3413 217.911L63.1066 253.89" stroke="black" stroke-width="0.712667" stroke-miterlimit="10"/>
<path d="M77.2531 197.586C77.2531 197.586 79.2878 215.998 70.339 217.912" stroke="black" stroke-width="0.712667" stroke-miterlimit="10"/>
<path d="M87.4054 257.671L97.9783 216.628V187.295" stroke="black" stroke-width="0.712667" stroke-miterlimit="10"/>
<path d="M96.4043 121.498V127.755L80.7682 121.498V101.39H96.4043V121.498Z" fill="#FB8E65"/>
<path d="M96.4042 108.434V113.772L93.6241 108.78L96.4042 108.434Z" fill="black"/>
<path d="M80.7781 103.098V107.673L83.5617 103.443L80.7781 103.098Z" fill="black"/>
<path d="M83.5597 103.443C86.066 106.572 89.9517 109.992 93.9381 110.609C104.561 112.248 106.283 103.824 105.274 97.8877C103.683 88.5161 98.6304 81.4892 98.6304 81.4892C98.6304 81.4892 81.0389 69.3275 77.4233 91.4772C76.8508 96.4481 80.9992 100.243 83.5597 103.443Z" fill="#FB8E65"/>
<path d="M91.5773 96.8928C91.9626 96.2336 92.6756 95.7739 93.4427 95.6991C94.2061 95.6207 95.0019 95.9272 95.5133 96.4973" stroke="black" stroke-width="0.712667" stroke-miterlimit="10"/>
<path d="M102.498 94.2889C102.555 93.7615 102.894 93.2698 103.373 93.0275C103.852 92.7852 104.453 92.7994 104.918 93.0667" stroke="black" stroke-width="0.712667" stroke-miterlimit="10"/>
<path d="M101.337 90.2864C101.69 89.5239 102.388 88.9288 103.202 88.6936C104.016 88.4584 104.927 88.5867 105.64 89.0393" stroke="black" stroke-width="0.712667" stroke-miterlimit="10"/>
<path d="M90.0797 92.2615C90.4326 91.499 91.1312 90.9039 91.9451 90.6687C92.759 90.4335 93.67 90.5618 94.3831 91.0144" stroke="black" stroke-width="0.712667" stroke-miterlimit="10"/>
<path d="M97.4351 77.4746C97.4351 77.4746 83.8588 70.6187 73.1671 82.5808C71.1829 84.8008 70.6355 88.8701 71.8815 91.564L74.0638 96.289L77.3804 95.6868L80.8303 99.1575C81.5577 99.888 85.2957 98.7726 84.0317 95.3198C83.1962 93.0285 82.6741 91.6139 82.9586 88.9948C83.1242 87.4697 87.3628 84.2235 92.2891 82.8802C92.2819 82.8873 92.2747 82.898 92.2639 82.9051C91.6481 83.518 91.1367 84.3091 91.6553 84.9611C92.1775 85.6132 94.3021 85.6702 95.4185 84.5514C95.5121 84.4587 95.5985 84.3661 95.6814 84.277C97.7988 87.3308 103.701 80.703 97.4243 77.4746H97.4351Z" fill="#405FF4"/>
<path d="M98.7676 93.4243C98.7676 93.4243 102.862 98.5769 101.915 100.829C100.968 103.081 98.8936 101.773 98.8936 101.773" stroke="black" stroke-width="0.712667" stroke-miterlimit="10"/>
<path d="M75.2828 95.3141C73.3166 96.4152 72.4199 98.7385 72.8484 100.648C73.277 102.558 77.4075 108.816 83.5654 103.446L81.3327 97.4165C79.9247 94.8402 77.1698 94.2594 75.2864 95.3141H75.2828Z" fill="#FB8E65"/>
<path d="M79.7442 100.516L75.8766 98.5137" stroke="black" stroke-width="0.712667" stroke-miterlimit="10"/>
<path d="M77.4599 99.6426C77.4599 99.6426 76.1599 101.096 77.7984 102.197" stroke="black" stroke-width="0.712667" stroke-miterlimit="10"/>
<path d="M91.8458 189.547L96.16 216.632H100.341H104.806" stroke="black" stroke-width="0.712667" stroke-miterlimit="10"/>
<path d="M97.9814 216.636H86.7098" stroke="black" stroke-width="0.712667" stroke-miterlimit="10"/>
<path d="M109.926 191.923C109.926 191.923 108.446 149.391 108.446 138.962C108.446 130.944 103.721 124.648 101.46 122.082C101.028 121.59 100.541 121.148 100.016 120.756L96.3785 118.055L95.5106 126.158L80.7784 117.079L69.9894 120.45C63.1112 123.058 55.909 132.291 56.3447 147.923C57.1225 175.799 57.1621 193.516 57.1621 193.516C57.1621 193.516 54.1264 200.13 55.0411 206.366C55.0411 206.366 97.2931 210.346 111.766 204.741C111.766 204.741 110.808 197.586 109.926 191.923Z" fill="#829C8B"/>
<path d="M108.44 138.96C108.44 130.943 103.716 124.646 101.454 122.081C101.022 121.589 100.536 121.147 100.01 120.755L96.3729 118.054" stroke="black" stroke-width="0.712667" stroke-miterlimit="10"/>
<path d="M129.626 157.526L131.827 152.84C133.93 150.306 135.831 147.417 136.854 148.001C137.39 148.307 138.381 148.45 136.087 152.395C139.544 154.426 137.783 158.844 137.783 158.844" fill="#FB8E65"/>
<path d="M140.625 167.329H149.639C150.815 167.329 151.545 166.377 151.275 165.202L146.971 146.571C146.699 145.396 145.53 144.445 144.354 144.445H135.34C134.164 144.445 133.434 145.396 133.704 146.571L138.008 165.202C138.28 166.377 139.449 167.329 140.625 167.329Z" fill="black"/>
<path d="M149.712 165.473L145.408 146.842C145.265 146.214 144.571 145.643 143.958 145.643H134.65" stroke="#CEFF5A" stroke-width="0.598189" stroke-miterlimit="10"/>
<path d="M129.626 157.528L129.99 157.271C131.276 156.067 132.1 155.383 133.685 154.709C134.978 154.157 136.353 153.818 137.75 153.658L139.522 153.341L141.132 166.119L135.709 166.557L129.626 157.528Z" fill="#FB8E65"/>
<path d="M137.198 153.707C137.198 153.707 147.861 151.768 148.304 153.885C148.75 155.998 138.095 156.846 138.095 156.846" fill="#FB8E65"/>
<path d="M139.399 160.236C139.399 160.236 151.189 159.887 150.829 157.553C150.469 155.219 139.017 156.605 139.017 156.605" fill="#FB8E65"/>
<path d="M139.766 160.247C139.766 160.247 149.5 159.591 149.698 161.832C149.896 164.074 139.507 163.707 139.507 163.707" fill="#FB8E65"/>
<path d="M139.948 163.722C139.948 163.722 147.085 163.248 147.226 165.104C147.366 166.961 137.074 166.437 137.074 166.437" fill="#FB8E65"/>
<path d="M136.095 155.286C135.256 159.11 135.051 162.178 136.858 165.342" stroke="black" stroke-width="0.712667" stroke-miterlimit="10"/>
<path d="M135.706 166.554L129.623 157.524L96.7089 156.181L88.1634 138.82C83.7844 129.513 74.8356 124.916 69.9885 127.956L65.4222 150.579L83.3019 170.99C86.316 175.284 91.7033 177.272 96.8205 175.982L135.702 166.554H135.706Z" fill="#FB8E65"/>
<path d="M93.6443 149.956L88.1634 138.82C83.7844 129.513 74.8356 124.916 69.9885 127.956L65.4222 150.579L78.498 165.503L93.6443 149.952V149.956Z" fill="#829C8B"/>
<path d="M96.7093 156.181L88.1638 138.82C83.7848 129.513 74.836 124.916 69.9889 127.956" stroke="black" stroke-width="0.712667" stroke-miterlimit="10"/>
<path d="M96.8252 175.984C91.708 177.274 86.3171 175.282 83.3066 170.991L68.8552 154.493" stroke="black" stroke-width="0.712667" stroke-miterlimit="10"/>
<path d="M92.3198 156.058L109.929 156.767" stroke="black" stroke-width="0.712667" stroke-miterlimit="10"/>
<path d="M109.924 115.859L128.874 107.04" stroke="black" stroke-width="0.712667" stroke-miterlimit="10"/>
<path d="M122.837 109.749L136.507 79.625" stroke="black" stroke-width="0.712667" stroke-miterlimit="10"/>
<path d="M65.4185 185.602C65.4185 185.602 82.8335 204.719 103.706 198.555" stroke="black" stroke-width="0.712667" stroke-miterlimit="10"/>
<path d="M232.36 131.307C230.202 127.391 227.3 123.735 226.439 119.355C225.661 115.386 226.666 111.313 226.846 107.276C227.091 101.827 227.015 95.1781 223.126 91.547C223.126 91.547 214.588 90.6134 209.298 92.7193C204.004 94.8253 200.266 99.8745 198.844 105.341C197.339 111.12 198.124 117.374 196.1 122.997C194.803 126.592 192.412 129.76 191.379 133.438C190.14 137.842 191.141 142.941 194.404 146.18C197.396 149.148 201.782 150.257 205.992 150.734C212.01 151.418 218.146 151.076 224.048 149.726C227.804 148.867 231.787 147.349 233.692 144.031C235.917 140.154 234.517 135.219 232.36 131.307Z" fill="#405FF4"/>
<path d="M201.4 129.523V135.535L216.423 129.523V110.207H201.4V124.635V129.523Z" fill="#FB8E65"/>
<path d="M201.4 116.979V122.103L204.072 117.31L201.4 116.979Z" fill="black"/>
<path d="M216.41 111.845V116.239L213.738 112.177L216.41 111.845Z" fill="black"/>
<path d="M213.738 112.178C211.329 115.185 207.598 118.471 203.767 119.062C193.561 120.637 191.908 112.545 192.877 106.843C194.407 97.8388 199.258 91.0899 199.258 91.0899C199.258 91.0899 216.158 79.4093 219.63 100.686C220.181 105.461 216.194 109.11 213.735 112.181L213.738 112.178Z" fill="#FB8E65"/>
<path d="M223.723 92.1406C213.452 80.6489 200.409 87.2339 200.409 87.2339C198.788 88.0677 197.312 89.2971 197.625 90.5371C197.625 90.5371 198.958 99.0856 205.825 99.2388C207.827 99.2851 208.796 98.4121 209.174 97.1578C209.603 99.0143 210.719 101.619 213.585 103.536C213.492 103.803 213.391 104.081 213.283 104.374C212.069 107.691 215.663 108.76 216.358 108.062L219.675 104.726L222.862 105.307L224.958 100.767C226.153 98.1805 225.628 94.2679 223.723 92.1371V92.1406Z" fill="#405FF4"/>
<path d="M217.085 99.9915C217.25 106.295 216.969 107.446 216.415 112.691C219.472 109.801 221.046 110.628 222.421 106.673C223.801 102.717 227.362 97.8927 230.438 98.1671C228.144 83.1298 207.239 82.9623 204.942 85.7809C211.395 84.7654 216.829 90.4133 217.081 99.9915H217.085Z" fill="#F5009E"/>
<path d="M206.039 105.885C205.671 105.251 204.983 104.813 204.249 104.738C203.514 104.663 202.751 104.959 202.261 105.504" stroke="black" stroke-width="0.712667" stroke-miterlimit="10"/>
<path d="M195.547 103.384C195.493 102.878 195.165 102.404 194.708 102.173C194.247 101.941 193.671 101.955 193.224 102.212" stroke="black" stroke-width="0.712667" stroke-miterlimit="10"/>
<path d="M196.661 99.5395C196.319 98.8091 195.649 98.2354 194.868 98.0109C194.087 97.7864 193.211 97.9075 192.524 98.3423" stroke="black" stroke-width="0.712667" stroke-miterlimit="10"/>
<path d="M207.475 101.44C207.133 100.71 206.463 100.136 205.682 99.9117C204.901 99.6873 204.025 99.8084 203.338 100.243" stroke="black" stroke-width="0.712667" stroke-miterlimit="10"/>
<path d="M199.127 102.559C199.127 102.559 195.195 107.508 196.106 109.671C197.017 111.834 199.009 110.58 199.009 110.58" stroke="black" stroke-width="0.712667" stroke-miterlimit="10"/>
<path d="M221.697 104.374C223.584 105.433 224.448 107.663 224.038 109.498C223.627 111.334 219.659 117.345 213.745 112.185L215.892 106.391C217.242 103.915 219.889 103.355 221.7 104.371L221.697 104.374Z" fill="#FB8E65"/>
<path d="M217.405 109.373L221.122 107.449" stroke="black" stroke-width="0.712667" stroke-miterlimit="10"/>
<path d="M219.603 108.538C219.603 108.538 220.853 109.935 219.279 110.993" stroke="black" stroke-width="0.712667" stroke-miterlimit="10"/>
<path d="M204.216 113.023C204.216 113.023 203.529 115.639 200.306 114.955" stroke="black" stroke-width="0.712667" stroke-miterlimit="10"/>
<path d="M100.259 105.459C100.259 105.459 98.4469 107.467 95.8981 105.379" stroke="black" stroke-width="0.712667" stroke-miterlimit="10"/>
<path d="M148.826 73.4945C149.15 70.5512 149.6 64.6004 147.958 64.6182C145.775 64.6431 145.649 75.3617 145.649 75.3617H145.653L145.397 78.5509C145.39 78.6364 145.34 79.3526 145.333 79.4381C143.528 79.1602 138.429 77.9415 138.026 78.3976C137.259 79.2671 140.205 81.487 143.471 84.074L147.641 87.0744L157.033 87.3024L159.078 72.5644L148.822 73.4945H148.826Z" fill="#FB8E65"/>
<path d="M148.88 74.1498C148.88 74.1498 149.705 62.7685 152.089 62.8718C154.473 62.9751 152.55 74.4776 152.55 74.4776" fill="#FB8E65"/>
<path d="M152.628 74.1185C152.628 74.1185 153.849 64.5474 156.11 64.7861C158.372 65.0249 156.009 75.0378 156.009 75.0378" fill="#FB8E65"/>
<path d="M156.105 74.6119C156.105 74.6119 157.006 67.5957 158.875 67.8166C160.744 68.0376 158.295 77.9757 158.295 77.9757" fill="#FB8E65"/>
<path d="M147.67 73.1998C147.67 73.1998 152.269 72.5406 157.047 74.4291" stroke="black" stroke-width="0.712667" stroke-miterlimit="10"/>
<path d="M157.257 85.7217L171.326 115.294L190.571 124.395C199.743 128.264 204.482 136.617 201.684 141.32L191.186 153.657L159.727 129.212C157.098 127.17 155.294 124.266 154.635 121.024L147.764 87.0971L157.257 85.7252V85.7217Z" fill="#FB8E65"/>
<path d="M181.358 120.032L190.573 124.39C199.746 128.26 204.485 136.612 201.687 141.316L191.189 153.652L170.256 137.389L181.362 120.036L181.358 120.032Z" fill="#CEFF5A"/>
<mask id="mask2_15570_29189" style="mask-type:luminance" maskUnits="userSpaceOnUse" x="170" y="120" width="33" height="34">
<path d="M181.361 120.038L190.576 124.396C199.748 128.266 204.487 136.618 201.689 141.322L191.192 153.658L170.258 137.395L181.364 120.042L181.361 120.038Z" fill="white"/>
</mask>
<g mask="url(#mask2_15570_29189)">
<path d="M198.941 148.476C200.259 149.78 201.753 150.696 203.19 151.188C201.75 151.68 200.259 152.595 198.941 153.9C197.623 155.204 196.697 156.683 196.2 158.104C195.703 156.679 194.778 155.204 193.46 153.9C192.142 152.595 190.647 151.68 189.211 151.188C190.651 150.696 192.142 149.78 193.46 148.476C194.778 147.172 195.703 145.693 196.2 144.271C196.697 145.697 197.623 147.172 198.941 148.476Z" fill="white"/>
<path d="M198.941 132.674C200.259 133.979 201.753 134.894 203.19 135.386C201.75 135.878 200.259 136.794 198.941 138.098C197.623 139.402 196.697 140.881 196.2 142.303C195.703 140.877 194.778 139.402 193.46 138.098C192.142 136.794 190.647 135.878 189.211 135.386C190.651 134.894 192.142 133.979 193.46 132.674C194.778 131.37 195.703 129.891 196.2 128.47C196.697 129.895 197.623 131.37 198.941 132.674Z" fill="white"/>
<path d="M181.191 148.476C182.509 149.78 184.004 150.696 185.441 151.188C184 151.68 182.509 152.595 181.191 153.9C179.873 155.204 178.948 156.683 178.451 158.104C177.954 156.679 177.029 155.204 175.711 153.9C174.392 152.595 172.898 151.68 171.461 151.188C172.902 150.696 174.392 149.78 175.711 148.476C177.029 147.172 177.954 145.693 178.451 144.271C178.948 145.697 179.873 147.172 181.191 148.476Z" fill="white"/>
<path d="M181.191 132.674C182.509 133.979 184.004 134.894 185.441 135.386C184 135.878 182.509 136.794 181.191 138.098C179.873 139.402 178.948 140.881 178.451 142.303C177.954 140.877 177.029 139.402 175.711 138.098C174.392 136.794 172.898 135.878 171.461 135.386C172.902 134.894 174.392 133.979 175.711 132.674C177.029 131.37 177.954 129.891 178.451 128.47C178.948 129.895 179.873 131.37 181.191 132.674Z" fill="white"/>
<path d="M198.941 116.66C200.259 117.964 201.753 118.88 203.19 119.372C201.75 119.864 200.259 120.78 198.941 122.084C197.623 123.388 196.697 124.867 196.2 126.288C195.703 124.863 194.778 123.388 193.46 122.084C192.142 120.78 190.647 119.864 189.211 119.372C190.651 118.88 192.142 117.964 193.46 116.66C194.778 115.356 195.703 113.877 196.2 112.456C196.697 113.881 197.623 115.356 198.941 116.66Z" fill="white"/>
<path d="M181.191 116.66C182.509 117.964 184.004 118.88 185.441 119.372C184 119.864 182.509 120.78 181.191 122.084C179.873 123.388 178.948 124.867 178.451 126.288C177.954 124.863 177.029 123.388 175.711 122.084C174.392 120.78 172.898 119.864 171.461 119.372C172.902 118.88 174.392 117.964 175.711 116.66C177.029 115.356 177.954 113.877 178.451 112.456C178.948 113.881 179.873 115.356 181.191 116.66Z" fill="white"/>
</g>
<path d="M143.473 84.074C140.207 81.4834 137.261 79.267 138.028 78.3976C138.432 77.9415 143.531 79.1601 145.335 79.4381C145.342 79.3526 145.393 78.6363 145.4 78.5508L145.655 75.3616H145.652C145.652 75.3616 145.782 64.6431 147.96 64.6182" stroke="black" stroke-width="0.712667" stroke-miterlimit="10"/>
<path d="M183.737 121.16L165.533 112.686" stroke="black" stroke-width="0.712667" stroke-miterlimit="10"/>
<path d="M171.327 115.297L157.254 85.7217" stroke="black" stroke-width="0.712667" stroke-miterlimit="10"/>
<path d="M191.589 133.222C190.4 134.84 190.692 137.114 192.287 138.339C193.681 139.412 196.061 140.367 200.113 140.531C221.752 141.632 221.122 128.116 221.122 128.116L213.008 124.731L196.749 126.21L191.589 133.222Z" fill="#FB8E65"/>
<path d="M221.764 199.286L189.829 311.182C189.829 311.182 179.62 316.512 176.664 307.953L185.159 197.907L221.761 199.286H221.764Z" fill="#405FF4"/>
<path d="M234.196 197.476C234.196 197.476 235.762 212.624 229.871 222.715L242.471 311.517C242.471 311.517 231.873 316.862 229.543 308.282L195.21 220.912V192.733L234.196 197.48V197.476Z" fill="#405FF4"/>
<path d="M229.543 308.277L195.21 220.907V192.729" stroke="black" stroke-width="0.712667" stroke-miterlimit="10"/>
<path d="M201.101 194.892L196.956 220.911H192.941H188.648" stroke="black" stroke-width="0.712667" stroke-miterlimit="10"/>
<path d="M195.21 220.911H206.039" stroke="black" stroke-width="0.712667" stroke-miterlimit="10"/>
<path d="M222.102 128.512L218.937 127.087C218.937 127.087 214.868 141.807 195.547 138.721C185.994 137.196 199.588 125.954 199.588 125.954L197.319 126.15C195.411 126.314 193.682 127.329 192.62 128.904C192.202 129.521 191.737 130.233 191.244 131.014L191.215 130.725C191.215 130.725 173.519 149.023 179.202 158.968C180.776 161.722 182.763 163.283 184.784 164.121C184.362 179.158 183.736 197.17 183.736 197.17C182.889 202.612 234.688 197.477 234.688 197.477C235.567 191.483 234.425 187.614 234.425 187.614C234.425 187.614 234.461 181.684 235.21 154.906C235.628 139.89 228.714 131.017 222.102 128.512Z" fill="#CEFF5A"/>
<mask id="mask3_15570_29189" style="mask-type:luminance" maskUnits="userSpaceOnUse" x="178" y="125" width="58" height="75">
<path d="M222.105 128.512L218.939 127.087C218.939 127.087 214.87 141.807 195.55 138.721C185.996 137.196 199.59 125.954 199.59 125.954L197.321 126.15C195.413 126.314 193.684 127.329 192.622 128.904C192.204 129.521 191.74 130.233 191.246 131.014L191.218 130.725C191.218 130.725 173.522 149.023 179.204 158.968C180.778 161.722 182.766 163.283 184.786 164.121C184.365 179.158 183.738 197.17 183.738 197.17C182.892 202.612 234.69 197.477 234.69 197.477C235.569 191.483 234.428 187.614 234.428 187.614C234.428 187.614 234.464 181.684 235.213 154.906C235.63 139.89 228.716 131.017 222.105 128.512Z" fill="white"/>
</mask>
<g mask="url(#mask3_15570_29189)">
<path d="M234.434 195.867C235.752 197.171 237.247 198.087 238.684 198.579C237.243 199.07 235.752 199.986 234.434 201.29C233.116 202.594 232.191 204.073 231.694 205.495C231.197 204.07 230.271 202.594 228.953 201.29C227.635 199.986 226.141 199.07 224.704 198.579C226.145 198.087 227.635 197.171 228.953 195.867C230.271 194.563 231.197 193.084 231.694 191.662C232.191 193.087 233.116 194.563 234.434 195.867Z" fill="white"/>
<path d="M234.434 180.065C235.752 181.369 237.247 182.285 238.684 182.777C237.243 183.269 235.752 184.184 234.434 185.488C233.116 186.793 232.191 188.271 231.694 189.693C231.197 188.268 230.271 186.793 228.953 185.488C227.635 184.184 226.141 183.269 224.704 182.777C226.145 182.285 227.635 181.369 228.953 180.065C230.271 178.761 231.197 177.282 231.694 175.86C232.191 177.286 233.116 178.761 234.434 180.065Z" fill="white"/>
<path d="M234.434 164.269C235.752 165.573 237.247 166.489 238.684 166.98C237.243 167.472 235.752 168.388 234.434 169.692C233.116 170.996 232.191 172.475 231.694 173.897C231.197 172.472 230.271 170.996 228.953 169.692C227.635 168.388 226.141 167.472 224.704 166.98C226.145 166.489 227.635 165.573 228.953 164.269C230.271 162.965 231.197 161.486 231.694 160.064C232.191 161.489 233.116 162.965 234.434 164.269Z" fill="white"/>
<path d="M234.434 148.477C235.752 149.781 237.247 150.697 238.684 151.189C237.243 151.681 235.752 152.596 234.434 153.901C233.116 155.205 232.191 156.684 231.694 158.105C231.197 156.68 230.271 155.205 228.953 153.901C227.635 152.596 226.141 151.681 224.704 151.189C226.145 150.697 227.635 149.781 228.953 148.477C230.271 147.173 231.197 145.694 231.694 144.272C232.191 145.698 233.116 147.173 234.434 148.477Z" fill="white"/>
<path d="M234.434 132.675C235.752 133.98 237.247 134.895 238.684 135.387C237.243 135.879 235.752 136.795 234.434 138.099C233.116 139.403 232.191 140.882 231.694 142.304C231.197 140.878 230.271 139.403 228.953 138.099C227.635 136.795 226.141 135.879 224.704 135.387C226.145 134.895 227.635 133.98 228.953 132.675C230.271 131.371 231.197 129.892 231.694 128.471C232.191 129.896 233.116 131.371 234.434 132.675Z" fill="white"/>
<path d="M216.687 195.867C218.005 197.171 219.5 198.087 220.937 198.579C219.496 199.07 218.005 199.986 216.687 201.29C215.369 202.594 214.444 204.073 213.947 205.495C213.45 204.07 212.524 202.594 211.206 201.29C209.888 199.986 208.394 199.07 206.957 198.579C208.397 198.087 209.888 197.171 211.206 195.867C212.524 194.563 213.45 193.084 213.947 191.662C214.444 193.087 215.369 194.563 216.687 195.867Z" fill="white"/>
<path d="M216.687 180.065C218.005 181.369 219.5 182.285 220.937 182.777C219.496 183.269 218.005 184.184 216.687 185.488C215.369 186.793 214.444 188.271 213.947 189.693C213.45 188.268 212.524 186.793 211.206 185.488C209.888 184.184 208.394 183.269 206.957 182.777C208.397 182.285 209.888 181.369 211.206 180.065C212.524 178.761 213.45 177.282 213.947 175.86C214.444 177.286 215.369 178.761 216.687 180.065Z" fill="white"/>
<path d="M216.687 164.269C218.005 165.573 219.5 166.489 220.937 166.98C219.496 167.472 218.005 168.388 216.687 169.692C215.369 170.996 214.444 172.475 213.947 173.897C213.45 172.472 212.524 170.996 211.206 169.692C209.888 168.388 208.394 167.472 206.957 166.98C208.397 166.489 209.888 165.573 211.206 164.269C212.524 162.965 213.45 161.486 213.947 160.064C214.444 161.489 215.369 162.965 216.687 164.269Z" fill="white"/>
<path d="M216.687 148.477C218.005 149.781 219.5 150.697 220.937 151.189C219.496 151.681 218.005 152.596 216.687 153.901C215.369 155.205 214.444 156.684 213.947 158.105C213.45 156.68 212.524 155.205 211.206 153.901C209.888 152.596 208.394 151.681 206.957 151.189C208.397 150.697 209.888 149.781 211.206 148.477C212.524 147.173 213.45 145.694 213.947 144.272C214.444 145.698 215.369 147.173 216.687 148.477Z" fill="white"/>
<path d="M216.687 132.675C218.005 133.98 219.5 134.895 220.937 135.387C219.496 135.879 218.005 136.795 216.687 138.099C215.369 139.403 214.444 140.882 213.947 142.304C213.45 140.878 212.524 139.403 211.206 138.099C209.888 136.795 208.394 135.879 206.957 135.387C208.397 134.895 209.888 133.98 211.206 132.675C212.524 131.371 213.45 129.892 213.947 128.471C214.444 129.896 215.369 131.371 216.687 132.675Z" fill="white"/>
<path d="M198.945 195.867C200.263 197.171 201.758 198.087 203.195 198.579C201.754 199.07 200.263 199.986 198.945 201.29C197.627 202.594 196.702 204.073 196.205 205.495C195.708 204.07 194.782 202.594 193.464 201.29C192.146 199.986 190.652 199.07 189.215 198.579C190.656 198.087 192.146 197.171 193.464 195.867C194.782 194.563 195.708 193.084 196.205 191.662C196.702 193.087 197.627 194.563 198.945 195.867Z" fill="white"/>
<path d="M198.945 180.065C200.263 181.369 201.758 182.285 203.195 182.777C201.754 183.269 200.263 184.184 198.945 185.488C197.627 186.793 196.702 188.271 196.205 189.693C195.708 188.268 194.782 186.793 193.464 185.488C192.146 184.184 190.652 183.269 189.215 182.777C190.656 182.285 192.146 181.369 193.464 180.065C194.782 178.761 195.708 177.282 196.205 175.86C196.702 177.286 197.627 178.761 198.945 180.065Z" fill="white"/>
<path d="M198.945 164.269C200.263 165.573 201.758 166.489 203.195 166.98C201.754 167.472 200.263 168.388 198.945 169.692C197.627 170.996 196.702 172.475 196.205 173.897C195.708 172.472 194.782 170.996 193.464 169.692C192.146 168.388 190.652 167.472 189.215 166.98C190.656 166.489 192.146 165.573 193.464 164.269C194.782 162.965 195.708 161.486 196.205 160.064C196.702 161.489 197.627 162.965 198.945 164.269Z" fill="white"/>
<path d="M198.945 148.477C200.263 149.781 201.758 150.697 203.195 151.189C201.754 151.681 200.263 152.596 198.945 153.901C197.627 155.205 196.702 156.684 196.205 158.105C195.708 156.68 194.782 155.205 193.464 153.901C192.146 152.596 190.652 151.681 189.215 151.189C190.656 150.697 192.146 149.781 193.464 148.477C194.782 147.173 195.708 145.694 196.205 144.272C196.702 145.698 197.627 147.173 198.945 148.477Z" fill="white"/>
<path d="M198.945 132.675C200.263 133.98 201.758 134.895 203.195 135.387C201.754 135.879 200.263 136.795 198.945 138.099C197.627 139.403 196.702 140.882 196.205 142.304C195.708 140.878 194.782 139.403 193.464 138.099C192.146 136.795 190.652 135.879 189.215 135.387C190.656 134.895 192.146 133.98 193.464 132.675C194.782 131.371 195.708 129.892 196.205 128.471C196.702 129.896 197.627 131.371 198.945 132.675Z" fill="white"/>
<path d="M181.198 195.867C182.516 197.171 184.011 198.087 185.448 198.579C184.007 199.07 182.516 199.986 181.198 201.29C179.88 202.594 178.955 204.073 178.458 205.495C177.961 204.07 177.035 202.594 175.717 201.29C174.399 199.986 172.905 199.07 171.468 198.579C172.909 198.087 174.399 197.171 175.717 195.867C177.035 194.563 177.961 193.084 178.458 191.662C178.955 193.087 179.88 194.563 181.198 195.867Z" fill="white"/>
<path d="M181.198 180.065C182.516 181.369 184.011 182.285 185.448 182.777C184.007 183.269 182.516 184.184 181.198 185.488C179.88 186.793 178.955 188.271 178.458 189.693C177.961 188.268 177.035 186.793 175.717 185.488C174.399 184.184 172.905 183.269 171.468 182.777C172.909 182.285 174.399 181.369 175.717 180.065C177.035 178.761 177.961 177.282 178.458 175.86C178.955 177.286 179.88 178.761 181.198 180.065Z" fill="white"/>
<path d="M181.198 164.269C182.516 165.573 184.011 166.489 185.448 166.98C184.007 167.472 182.516 168.388 181.198 169.692C179.88 170.996 178.955 172.475 178.458 173.897C177.961 172.472 177.035 170.996 175.717 169.692C174.399 168.388 172.905 167.472 171.468 166.98C172.909 166.489 174.399 165.573 175.717 164.269C177.035 162.965 177.961 161.486 178.458 160.064C178.955 161.489 179.88 162.965 181.198 164.269Z" fill="white"/>
<path d="M181.198 148.477C182.516 149.781 184.011 150.697 185.448 151.189C184.007 151.681 182.516 152.596 181.198 153.901C179.88 155.205 178.955 156.684 178.458 158.105C177.961 156.68 177.035 155.205 175.717 153.901C174.399 152.596 172.905 151.681 171.468 151.189C172.909 150.697 174.399 149.781 175.717 148.477C177.035 147.173 177.961 145.694 178.458 144.272C178.955 145.698 179.88 147.173 181.198 148.477Z" fill="white"/>
<path d="M181.198 132.675C182.516 133.98 184.011 134.895 185.448 135.387C184.007 135.879 182.516 136.795 181.198 138.099C179.88 139.403 178.955 140.882 178.458 142.304C177.961 140.878 177.035 139.403 175.717 138.099C174.399 136.795 172.905 135.879 171.468 135.387C172.909 134.895 174.399 133.98 175.717 132.675C177.035 131.371 177.961 129.892 178.458 128.471C178.955 129.896 179.88 131.371 181.198 132.675Z" fill="white"/>
<path d="M234.434 116.661C235.752 117.965 237.247 118.881 238.684 119.373C237.243 119.865 235.752 120.78 234.434 122.085C233.116 123.389 232.191 124.868 231.694 126.289C231.197 124.864 230.271 123.389 228.953 122.085C227.635 120.78 226.141 119.865 224.704 119.373C226.145 118.881 227.635 117.965 228.953 116.661C230.271 115.357 231.197 113.878 231.694 112.457C232.191 113.882 233.116 115.357 234.434 116.661Z" fill="white"/>
<path d="M216.687 116.661C218.005 117.965 219.5 118.881 220.937 119.373C219.496 119.865 218.005 120.78 216.687 122.085C215.369 123.389 214.444 124.868 213.947 126.289C213.45 124.864 212.524 123.389 211.206 122.085C209.888 120.78 208.394 119.865 206.957 119.373C208.397 118.881 209.888 117.965 211.206 116.661C212.524 115.357 213.45 113.878 213.947 112.457C214.444 113.882 215.369 115.357 216.687 116.661Z" fill="white"/>
<path d="M198.945 116.661C200.263 117.965 201.758 118.881 203.195 119.373C201.754 119.865 200.263 120.78 198.945 122.085C197.627 123.389 196.702 124.868 196.205 126.289C195.708 124.864 194.782 123.389 193.464 122.085C192.146 120.78 190.652 119.865 189.215 119.373C190.656 118.881 192.146 117.965 193.464 116.661C194.782 115.357 195.708 113.878 196.205 112.457C196.702 113.882 197.627 115.357 198.945 116.661Z" fill="white"/>
<path d="M181.198 116.661C182.516 117.965 184.011 118.881 185.448 119.373C184.007 119.865 182.516 120.78 181.198 122.085C179.88 123.389 178.955 124.868 178.458 126.289C177.961 124.864 177.035 123.389 175.717 122.085C174.399 120.78 172.905 119.865 171.468 119.373C172.909 118.881 174.399 117.965 175.717 116.661C177.035 115.357 177.961 113.878 178.458 112.457C178.955 113.882 179.88 115.357 181.198 116.661Z" fill="white"/>
</g>
<path d="M191.215 130.726C191.215 130.726 173.519 149.023 179.202 158.969C181.183 162.432 183.811 164.018 186.339 164.638" stroke="black" stroke-width="0.712667" stroke-miterlimit="10"/>
<path d="M173.088 173.991L170.063 170.033C167.571 168.073 165.194 165.742 164.352 166.494C163.912 166.89 163.012 167.221 165.972 170.467C163.142 173.069 165.699 176.863 165.699 176.863" fill="#FB8E65"/>
<path d="M161.699 186.074H153.282C152.184 186.074 151.503 185.186 151.754 184.088L155.773 166.692C156.027 165.595 157.119 164.707 158.216 164.707H166.634C167.731 164.707 168.413 165.595 168.162 166.692L164.143 184.088C163.889 185.186 162.797 186.074 161.699 186.074Z" fill="black"/>
<path d="M153.212 184.341L157.23 166.945C157.365 166.359 158.012 165.825 158.585 165.825H167.276" stroke="#405FF4" stroke-width="0.558556" stroke-miterlimit="10"/>
<path d="M173.091 173.993L172.695 173.825C171.24 172.952 170.325 172.475 168.701 172.158C167.372 171.897 166.014 171.855 164.668 171.987L162.939 172.044L164.041 184.366L169.223 183.689L173.087 173.993H173.091Z" fill="#FB8E65"/>
<path d="M165.201 171.919C165.201 171.919 154.794 172.236 154.808 174.31C154.823 176.384 164.999 175.048 164.999 175.048" fill="#FB8E65"/>
<path d="M164.471 178.499C164.471 178.499 153.329 180.534 153.188 178.271C153.048 176.009 164.085 175.018 164.085 175.018" fill="#FB8E65"/>
<path d="M164.121 178.582C164.121 178.582 154.848 179.915 155.118 182.06C155.392 184.205 165.075 181.778 165.075 181.778" fill="#FB8E65"/>
<path d="M164.665 181.879C164.665 181.879 157.866 182.863 158.114 184.634C158.363 186.405 167.92 183.853 167.92 183.853" fill="#FB8E65"/>
<path d="M166.558 173.181C168.124 176.602 168.945 179.442 167.897 182.777" stroke="black" stroke-width="0.712667" stroke-miterlimit="10"/>
<path d="M169.222 183.687L173.086 173.991L203.721 166.138L208.194 148.122C210.405 138.504 217.863 132.397 223.041 134.282L231.958 154.614L219.339 177.362C217.387 181.998 212.735 184.945 207.664 184.76L169.222 183.691V183.687Z" fill="#FB8E65"/>
<path d="M205.325 159.678L208.195 148.122C210.406 138.504 217.864 132.397 223.043 134.282L231.959 154.614L222.733 171.248L205.329 159.678H205.325Z" fill="#CEFF5A"/>
<mask id="mask4_15570_29189" style="mask-type:luminance" maskUnits="userSpaceOnUse" x="205" y="133" width="27" height="39">
<path d="M205.333 159.685L208.203 148.129C210.414 138.512 217.872 132.404 223.05 134.289L231.967 154.622L222.741 171.255L205.336 159.685H205.333Z" fill="white"/>
</mask>
<g mask="url(#mask4_15570_29189)">
<path d="M234.44 164.274C235.758 165.578 237.253 166.494 238.69 166.985C237.249 167.477 235.758 168.393 234.44 169.697C233.122 171.001 232.197 172.48 231.7 173.902C231.203 172.476 230.277 171.001 228.959 169.697C227.641 168.393 226.147 167.477 224.71 166.985C226.15 166.494 227.641 165.578 228.959 164.274C230.277 162.969 231.203 161.491 231.7 160.069C232.197 161.494 233.122 162.969 234.44 164.274Z" fill="white"/>
<path d="M234.44 148.482C235.758 149.786 237.253 150.702 238.69 151.194C237.249 151.686 235.758 152.601 234.44 153.905C233.122 155.21 232.197 156.688 231.7 158.11C231.203 156.685 230.277 155.21 228.959 153.905C227.641 152.601 226.147 151.686 224.71 151.194C226.15 150.702 227.641 149.786 228.959 148.482C230.277 147.178 231.203 145.699 231.7 144.277C232.197 145.703 233.122 147.178 234.44 148.482Z" fill="white"/>
<path d="M234.44 132.681C235.758 133.985 237.253 134.901 238.69 135.393C237.249 135.884 235.758 136.8 234.44 138.104C233.122 139.408 232.197 140.887 231.7 142.309C231.203 140.884 230.277 139.408 228.959 138.104C227.641 136.8 226.147 135.884 224.71 135.393C226.15 134.901 227.641 133.985 228.959 132.681C230.277 131.377 231.203 129.898 231.7 128.476C232.197 129.901 233.122 131.377 234.44 132.681Z" fill="white"/>
<path d="M216.693 164.274C218.011 165.578 219.506 166.494 220.943 166.985C219.502 167.477 218.011 168.393 216.693 169.697C215.375 171.001 214.45 172.48 213.953 173.902C213.456 172.476 212.53 171.001 211.212 169.697C209.894 168.393 208.4 167.477 206.963 166.985C208.403 166.494 209.894 165.578 211.212 164.274C212.53 162.969 213.456 161.491 213.953 160.069C214.45 161.494 215.375 162.969 216.693 164.274Z" fill="white"/>
<path d="M216.693 148.482C218.011 149.786 219.506 150.702 220.943 151.194C219.502 151.686 218.011 152.601 216.693 153.905C215.375 155.21 214.45 156.688 213.953 158.11C213.456 156.685 212.53 155.21 211.212 153.905C209.894 152.601 208.4 151.686 206.963 151.194C208.403 150.702 209.894 149.786 211.212 148.482C212.53 147.178 213.456 145.699 213.953 144.277C214.45 145.703 215.375 147.178 216.693 148.482Z" fill="white"/>
<path d="M216.693 132.681C218.011 133.985 219.506 134.901 220.943 135.393C219.502 135.884 218.011 136.8 216.693 138.104C215.375 139.408 214.45 140.887 213.953 142.309C213.456 140.884 212.53 139.408 211.212 138.104C209.894 136.8 208.4 135.884 206.963 135.393C208.403 134.901 209.894 133.985 211.212 132.681C212.53 131.377 213.456 129.898 213.953 128.476C214.45 129.901 215.375 131.377 216.693 132.681Z" fill="white"/>
</g>
<path d="M203.721 166.138L208.194 148.122C210.405 138.504 217.863 132.397 223.041 134.282" stroke="black" stroke-width="0.712667" stroke-miterlimit="10"/>
<path d="M207.667 184.758C212.737 184.944 217.39 181.997 219.341 177.361L229.54 158.974" stroke="black" stroke-width="0.712667" stroke-miterlimit="10"/>
<path d="M207.821 165.142L191.432 169.333" stroke="black" stroke-width="0.712667" stroke-miterlimit="10"/>
<path d="M229.539 191.536C229.539 191.536 199.128 194.892 188.648 193.652" stroke="black" stroke-width="0.712667" stroke-miterlimit="10"/>
<path d="M137.502 52.0826C136.238 48.7545 134.977 45.4263 133.713 42.0981" stroke="#405FF4" stroke-width="1.41408" stroke-miterlimit="10"/>
<path d="M148.903 50.9468C149.663 46.2431 150.423 41.5395 151.183 36.8359" stroke="#405FF4" stroke-width="1.41408" stroke-miterlimit="10"/>
<path d="M159.111 55.3379C162.067 51.5786 165.024 47.8192 167.98 44.0635" stroke="#405FF4" stroke-width="1.41408" stroke-miterlimit="10"/>
<path d="M166.049 64.3599C169.369 63.0022 172.689 61.6446 176.009 60.2905" stroke="#405FF4" stroke-width="1.41408" stroke-miterlimit="10"/>
<path d="M93.1111 45.1587L92.0128 49.791L87.4105 48.4156L90.918 51.6689L87.4105 54.9258L92.0128 53.5504L93.1111 58.1827L94.2059 53.5504L98.8117 54.9258L95.3042 51.6689L98.8117 48.4156L94.2059 49.791L93.1111 45.1587Z" fill="#F5009E"/>
<path d="M247.703 94.8896L246.958 97.2878L244.534 98.0254L246.958 98.7666L247.703 101.165L248.452 98.7666L250.876 98.0254L248.452 97.2878L247.703 94.8896Z" fill="#D1E5D8"/>
<path d="M54.4363 60.9106C54.4363 60.1444 55.0629 59.5244 55.8371 59.5244C56.6114 59.5244 57.238 60.1444 57.238 60.9106C57.238 61.6767 56.6114 62.2967 55.8371 62.2967C55.0629 62.2967 54.4363 61.6767 54.4363 60.9106Z" fill="white"/>
<path d="M232.458 67.5172C232.825 67.1538 233.085 66.7404 233.222 66.3413C233.358 66.7404 233.618 67.1502 233.985 67.5172C234.352 67.8807 234.77 68.1372 235.173 68.2726C234.77 68.408 234.356 68.6646 233.985 69.0281C233.618 69.3915 233.358 69.8049 233.222 70.204C233.085 69.8049 232.825 69.3951 232.458 69.0281C232.091 68.6646 231.673 68.408 231.27 68.2726C231.673 68.1372 232.087 67.8807 232.458 67.5172Z" fill="#F5009E"/>
<path d="M46.888 100.394C47.7451 99.5458 48.3464 98.5837 48.6705 97.6572C48.991 98.5837 49.5961 99.5458 50.4531 100.394C51.3102 101.242 52.2825 101.837 53.2188 102.158C52.2825 102.475 51.3102 103.073 50.4531 103.922C49.5961 104.77 48.9946 105.732 48.6705 106.658C48.3464 105.732 47.7451 104.77 46.888 103.922C46.0309 103.073 45.0586 102.478 44.1223 102.158C45.0586 101.841 46.0309 101.242 46.888 100.394Z" fill="#CEFF5A"/>
<path d="M159.079 147.091C160.156 146.022 160.915 144.814 161.322 143.649C161.729 144.814 162.486 146.022 163.562 147.091C164.639 148.157 165.863 148.908 167.041 149.308C165.863 149.71 164.639 150.458 163.562 151.527C162.486 152.593 161.726 153.804 161.322 154.97C160.915 153.804 160.159 152.596 159.079 151.527C158.002 150.462 156.778 149.71 155.6 149.308C156.778 148.905 158.002 148.157 159.079 147.091Z" fill="black"/>
<path d="M233.648 32.9475L229.604 28.9463L225.56 32.9475L229.604 36.9487L233.648 32.9475Z" fill="#405FF4"/>
</g>
</g>
<path d="M274.942 62.1213C277.584 59.2379 280.574 57.2134 283.457 56.1336C280.574 55.0477 277.584 53.0232 274.942 50.1459C272.301 47.2625 270.446 43.9988 269.457 40.8516C268.462 43.9988 266.608 47.2625 263.972 50.1459C261.33 53.0294 258.34 55.0539 255.457 56.1336C258.34 57.2195 261.33 59.244 263.972 62.1213C266.613 65.0047 268.468 68.2685 269.457 71.4157C270.452 68.2685 272.306 65.0047 274.942 62.1213Z" fill="#CEFF5A"/>
<path d="M11.0673 57.6574L8.95111 47.7973L0.0673828 50.7274L6.83491 43.7974L0.0673828 36.8597L8.95111 39.7898L11.0673 29.9297L13.1835 39.7898L22.0672 36.8597L15.2997 43.7974L22.0672 50.7274L13.1835 47.7973L11.0673 57.6574Z" fill="#3664FF"/>
<path d="M292.954 122.714L291.896 117.668L287.454 119.167L290.838 115.621L287.454 112.07L291.896 113.57L292.954 108.523L294.012 113.57L298.454 112.07L295.07 115.621L298.454 119.167L294.012 117.668L292.954 122.714Z" fill="white"/>
<path d="M81.9074 8.8844L74.1907 0.460938L66.474 8.8844L74.1907 17.3079L81.9074 8.8844Z" fill="white"/>
</svg>
