<svg width="72" height="72" viewBox="0 0 72 72" fill="none" xmlns="http://www.w3.org/2000/svg">
<g clip-path="url(#clip0_19205_89628)">
<path d="M19.1376 36.003L19.1081 35.7667C19.1212 34.8239 19.0939 34.2518 18.792 33.3856C18.5448 32.6779 18.1838 32.0151 17.742 31.4091L16.203 29.2959L9.74536 32.4854L13.3701 36.9076L19.1387 36.0019L19.1376 36.003Z" fill="#FB8E65"/>
<path d="M19.1358 36.0023L20.1989 33.433C20.9624 31.3089 21.6853 29.4472 21.0849 29.2602C20.7699 29.1618 19.5765 29.2657 18.8404 31.602C16.7896 30.9873 15.675 33.2853 15.675 33.2853" fill="#FB8E65"/>
<path d="M20.1158 29.2261C19.6444 29.4798 19.0712 30.0858 18.649 31.4257C16.5982 30.811 15.4836 33.109 15.4836 33.109" stroke="black" stroke-width="0.295891" stroke-miterlimit="10"/>
<path d="M16.7169 29.9972C16.7169 29.9972 13.604 25.0532 12.5934 25.6559C11.5838 26.2586 15.2742 30.7158 15.2742 30.7158" fill="#FB8E65"/>
<path d="M14.8866 30.3474C14.8866 30.3474 11.2652 25.293 10.1987 26.0116C9.13229 26.7302 13.2941 31.5341 13.2941 31.5341" fill="#FB8E65"/>
<path d="M13.1526 31.3896C13.1526 31.3896 9.86471 27.2869 8.89235 28.035C7.92107 28.7832 11.8598 32.77 11.8598 32.77" fill="#FB8E65"/>
<path d="M11.6978 32.5991C11.6978 32.5991 9.28381 29.5923 8.48864 30.2223C7.69346 30.8523 11.6507 34.779 11.6507 34.779" fill="#FB8E65"/>
<path d="M15.1757 29.5608C15.1757 29.5608 12.8743 30.5518 11.2151 32.7754" stroke="black" stroke-width="0.295891" stroke-miterlimit="10"/>
<path d="M20.2235 42.5213L19.1362 36.0012L13.3677 36.9069L14.0513 43.3329L20.2235 42.5213Z" fill="#FB8E65"/>
<path d="M65.0812 60.1451L63.2403 48.1703C63.2403 46.3404 63.1255 41.4807 56.9107 40.1561L48.2753 38.3732L43.9243 38.4378L39.209 38.2781L35.6641 39.0831C32.1552 39.3751 25.8376 40.8364 22.2741 47.2996L21.1869 39.6475L12.2988 40.4328L13.0984 63.1858C13.3379 65.8973 15.73 67.9011 18.4426 67.6616L19.9137 67.5314C21.4122 67.399 22.6941 66.6082 23.5013 65.4696C23.5024 65.4674 23.5046 65.4663 23.5067 65.4641L29.0106 58.3086L31.394 71.935H54.9648C61.2387 71.935 66.036 66.3435 65.0834 60.1429L65.0812 60.1451Z" fill="#405FF4"/>
<mask id="mask0_19205_89628" style="mask-type:luminance" maskUnits="userSpaceOnUse" x="12" y="38" width="54" height="34">
<path d="M65.0829 60.1465L63.2421 48.1717C63.2421 46.3418 63.1272 41.4821 56.9124 40.1576L48.277 38.3747L43.926 38.4392L39.2107 38.2795L35.6658 39.0846C32.1569 39.3766 25.8393 40.8379 22.2758 47.3011L21.1886 39.649L12.3005 40.4343L13.1001 63.1872C13.3396 65.8987 15.7317 67.9026 18.4443 67.663L19.9154 67.5329C21.4139 67.4005 22.6958 66.6097 23.503 65.4711C23.5041 65.4689 23.5063 65.4678 23.5085 65.4656L29.0123 58.31L31.3957 71.9364H54.9665C61.2404 71.9364 66.0377 66.345 65.0851 60.1443L65.0829 60.1465Z" fill="white"/>
</mask>
<g mask="url(#mask0_19205_89628)">
<path d="M63.1237 47.188C63.5273 46.7843 63.8117 46.326 63.9638 45.8853C64.1158 46.326 64.3991 46.7843 64.8038 47.188C65.2074 47.5916 65.6657 47.8759 66.1065 48.028C65.6657 48.18 65.2074 48.4633 64.8038 48.868C64.4002 49.2716 64.1158 49.7299 63.9638 50.1707C63.8117 49.7299 63.5284 49.2716 63.1237 48.868C62.7201 48.4644 62.2618 48.18 61.821 48.028C62.2618 47.8759 62.7201 47.5927 63.1237 47.188Z" fill="#CEFF5A"/>
<path d="M58.2316 47.188C58.6352 46.7843 58.9196 46.326 59.0717 45.8853C59.2237 46.326 59.507 46.7843 59.9117 47.188C60.3153 47.5916 60.7736 47.8759 61.2144 48.028C60.7736 48.18 60.3153 48.4633 59.9117 48.868C59.5081 49.2716 59.2237 49.7299 59.0717 50.1707C58.9196 49.7299 58.6363 49.2716 58.2316 48.868C57.828 48.4644 57.3697 48.18 56.929 48.028C57.3697 47.8759 57.828 47.5927 58.2316 47.188Z" fill="#CEFF5A"/>
<path d="M53.3398 47.188C53.7434 46.7843 54.0278 46.326 54.1798 45.8853C54.3319 46.326 54.6151 46.7843 55.0198 47.188C55.4234 47.5916 55.8817 47.8759 56.3225 48.028C55.8817 48.18 55.4234 48.4633 55.0198 48.868C54.6162 49.2716 54.3319 49.7299 54.1798 50.1707C54.0278 49.7299 53.7445 49.2716 53.3398 48.868C52.9362 48.4644 52.4779 48.18 52.0371 48.028C52.4779 47.8759 52.9362 47.5927 53.3398 47.188Z" fill="#CEFF5A"/>
<path d="M48.4433 47.188C48.8469 46.7843 49.1313 46.326 49.2833 45.8853C49.4354 46.326 49.7187 46.7843 50.1234 47.188C50.527 47.5916 50.9852 47.8759 51.426 48.028C50.9852 48.18 50.527 48.4633 50.1234 48.868C49.7198 49.2716 49.4354 49.7299 49.2833 50.1707C49.1313 49.7299 48.848 49.2716 48.4433 48.868C48.0397 48.4644 47.5814 48.18 47.1406 48.028C47.5814 47.8759 48.0397 47.5927 48.4433 47.188Z" fill="#CEFF5A"/>
<path d="M43.5512 47.188C43.9548 46.7843 44.2392 46.326 44.3912 45.8853C44.5433 46.326 44.8266 46.7843 45.2313 47.188C45.6349 47.5916 46.0932 47.8759 46.5339 48.028C46.0932 48.18 45.6349 48.4633 45.2313 48.868C44.8277 49.2716 44.5433 49.7299 44.3912 50.1707C44.2392 49.7299 43.9559 49.2716 43.5512 48.868C43.1476 48.4644 42.6893 48.18 42.2485 48.028C42.6893 47.8759 43.1476 47.5927 43.5512 47.188Z" fill="#CEFF5A"/>
<path d="M38.6591 47.188C39.0627 46.7843 39.3471 46.326 39.4991 45.8853C39.6512 46.326 39.9345 46.7843 40.3392 47.188C40.7428 47.5916 41.2011 47.8759 41.6419 48.028C41.2011 48.18 40.7428 48.4633 40.3392 48.868C39.9356 49.2716 39.6512 49.7299 39.4991 50.1707C39.3471 49.7299 39.0638 49.2716 38.6591 48.868C38.2555 48.4644 37.7972 48.18 37.3564 48.028C37.7972 47.8759 38.2555 47.5927 38.6591 47.188Z" fill="#CEFF5A"/>
<path d="M33.7631 47.188C34.1667 46.7843 34.4511 46.326 34.6032 45.8853C34.7552 46.326 35.0385 46.7843 35.4432 47.188C35.8468 47.5916 36.3051 47.8759 36.7459 48.028C36.3051 48.18 35.8468 48.4633 35.4432 48.868C35.0396 49.2716 34.7552 49.7299 34.6032 50.1707C34.4511 49.7299 34.1678 49.2716 33.7631 48.868C33.3595 48.4644 32.9012 48.18 32.4604 48.028C32.9012 47.8759 33.3595 47.5927 33.7631 47.188Z" fill="#CEFF5A"/>
<path d="M63.1237 52.6267C63.5273 52.2231 63.8117 51.7648 63.9638 51.324C64.1158 51.7648 64.3991 52.2231 64.8038 52.6267C65.2074 53.0303 65.6657 53.3147 66.1065 53.4667C65.6657 53.6187 65.2074 53.902 64.8038 54.3067C64.4002 54.7103 64.1158 55.1686 63.9638 55.6094C63.8117 55.1686 63.5284 54.7103 63.1237 54.3067C62.7201 53.9031 62.2618 53.6187 61.821 53.4667C62.2618 53.3147 62.7201 53.0314 63.1237 52.6267Z" fill="#CEFF5A"/>
<path d="M58.2316 52.6264C58.6352 52.2228 58.9196 51.7645 59.0717 51.3237C59.2237 51.7645 59.507 52.2228 59.9117 52.6264C60.3153 53.03 60.7736 53.3144 61.2144 53.4665C60.7736 53.6185 60.3153 53.9018 59.9117 54.3065C59.5081 54.7101 59.2237 55.1684 59.0717 55.6092C58.9196 55.1684 58.6363 54.7101 58.2316 54.3065C57.828 53.9029 57.3697 53.6185 56.929 53.4665C57.3697 53.3144 57.828 53.0311 58.2316 52.6264Z" fill="#CEFF5A"/>
<path d="M53.3398 52.6284C53.7434 52.2248 54.0278 51.7665 54.1798 51.3257C54.3319 51.7665 54.6151 52.2248 55.0198 52.6284C55.4234 53.032 55.8817 53.3164 56.3225 53.4684C55.8817 53.6204 55.4234 53.9037 55.0198 54.3084C54.6162 54.712 54.3319 55.1703 54.1798 55.6111C54.0278 55.1703 53.7445 54.712 53.3398 54.3084C52.9362 53.9048 52.4779 53.6204 52.0371 53.4684C52.4779 53.3164 52.9362 53.0331 53.3398 52.6284Z" fill="#CEFF5A"/>
<path d="M48.4433 52.6294C48.8469 52.2257 49.1313 51.7675 49.2833 51.3267C49.4354 51.7675 49.7187 52.2257 50.1234 52.6294C50.527 53.033 50.9852 53.3173 51.426 53.4694C50.9852 53.6214 50.527 53.9047 50.1234 54.3094C49.7198 54.713 49.4354 55.1713 49.2833 55.6121C49.1313 55.1713 48.848 54.713 48.4433 54.3094C48.0397 53.9058 47.5814 53.6214 47.1406 53.4694C47.5814 53.3173 48.0397 53.0341 48.4433 52.6294Z" fill="#CEFF5A"/>
<path d="M43.5512 52.6264C43.9548 52.2228 44.2392 51.7645 44.3912 51.3237C44.5433 51.7645 44.8266 52.2228 45.2313 52.6264C45.6349 53.03 46.0932 53.3144 46.5339 53.4665C46.0932 53.6185 45.6349 53.9018 45.2313 54.3065C44.8277 54.7101 44.5433 55.1684 44.3912 55.6092C44.2392 55.1684 43.9559 54.7101 43.5512 54.3065C43.1476 53.9029 42.6893 53.6185 42.2485 53.4665C42.6893 53.3144 43.1476 53.0311 43.5512 52.6264Z" fill="#CEFF5A"/>
<path d="M38.6591 52.6294C39.0627 52.2257 39.3471 51.7675 39.4991 51.3267C39.6512 51.7675 39.9345 52.2257 40.3392 52.6294C40.7428 53.033 41.2011 53.3173 41.6419 53.4694C41.2011 53.6214 40.7428 53.9047 40.3392 54.3094C39.9356 54.713 39.6512 55.1713 39.4991 55.6121C39.3471 55.1713 39.0638 54.713 38.6591 54.3094C38.2555 53.9058 37.7972 53.6214 37.3564 53.4694C37.7972 53.3173 38.2555 53.0341 38.6591 52.6294Z" fill="#CEFF5A"/>
<path d="M33.7631 52.6294C34.1667 52.2257 34.4511 51.7675 34.6032 51.3267C34.7552 51.7675 35.0385 52.2257 35.4432 52.6294C35.8468 53.033 36.3051 53.3173 36.7459 53.4694C36.3051 53.6214 35.8468 53.9047 35.4432 54.3094C35.0396 54.713 34.7552 55.1713 34.6032 55.6121C34.4511 55.1713 34.1678 54.713 33.7631 54.3094C33.3595 53.9058 32.9012 53.6214 32.4604 53.4694C32.9012 53.3173 33.3595 53.0341 33.7631 52.6294Z" fill="#CEFF5A"/>
<path d="M63.1237 58.0681C63.5273 57.6645 63.8117 57.2062 63.9638 56.7654C64.1158 57.2062 64.3991 57.6645 64.8038 58.0681C65.2074 58.4717 65.6657 58.7561 66.1065 58.9081C65.6657 59.0601 65.2074 59.3434 64.8038 59.7481C64.4002 60.1517 64.1158 60.61 63.9638 61.0508C63.8117 60.61 63.5284 60.1517 63.1237 59.7481C62.7201 59.3445 62.2618 59.0601 61.821 58.9081C62.2618 58.7561 62.7201 58.4728 63.1237 58.0681Z" fill="#CEFF5A"/>
<path d="M58.2316 58.0681C58.6352 57.6645 58.9196 57.2062 59.0717 56.7654C59.2237 57.2062 59.507 57.6645 59.9117 58.0681C60.3153 58.4717 60.7736 58.7561 61.2144 58.9081C60.7736 59.0601 60.3153 59.3434 59.9117 59.7481C59.5081 60.1517 59.2237 60.61 59.0717 61.0508C58.9196 60.61 58.6363 60.1517 58.2316 59.7481C57.828 59.3445 57.3697 59.0601 56.929 58.9081C57.3697 58.7561 57.828 58.4728 58.2316 58.0681Z" fill="#CEFF5A"/>
<path d="M53.3398 58.0681C53.7434 57.6645 54.0278 57.2062 54.1798 56.7654C54.3319 57.2062 54.6151 57.6645 55.0198 58.0681C55.4234 58.4717 55.8817 58.7561 56.3225 58.9081C55.8817 59.0601 55.4234 59.3434 55.0198 59.7481C54.6162 60.1517 54.3319 60.61 54.1798 61.0508C54.0278 60.61 53.7445 60.1517 53.3398 59.7481C52.9362 59.3445 52.4779 59.0601 52.0371 58.9081C52.4779 58.7561 52.9362 58.4728 53.3398 58.0681Z" fill="#CEFF5A"/>
<path d="M48.4433 58.0681C48.8469 57.6645 49.1313 57.2062 49.2833 56.7654C49.4354 57.2062 49.7187 57.6645 50.1234 58.0681C50.527 58.4717 50.9852 58.7561 51.426 58.9081C50.9852 59.0601 50.527 59.3434 50.1234 59.7481C49.7198 60.1517 49.4354 60.61 49.2833 61.0508C49.1313 60.61 48.848 60.1517 48.4433 59.7481C48.0397 59.3445 47.5814 59.0601 47.1406 58.9081C47.5814 58.7561 48.0397 58.4728 48.4433 58.0681Z" fill="#CEFF5A"/>
<path d="M43.5512 58.0681C43.9548 57.6645 44.2392 57.2062 44.3912 56.7654C44.5433 57.2062 44.8266 57.6645 45.2313 58.0681C45.6349 58.4717 46.0932 58.7561 46.5339 58.9081C46.0932 59.0601 45.6349 59.3434 45.2313 59.7481C44.8277 60.1517 44.5433 60.61 44.3912 61.0508C44.2392 60.61 43.9559 60.1517 43.5512 59.7481C43.1476 59.3445 42.6893 59.0601 42.2485 58.9081C42.6893 58.7561 43.1476 58.4728 43.5512 58.0681Z" fill="#CEFF5A"/>
<path d="M38.6591 58.0681C39.0627 57.6645 39.3471 57.2062 39.4991 56.7654C39.6512 57.2062 39.9345 57.6645 40.3392 58.0681C40.7428 58.4717 41.2011 58.7561 41.6419 58.9081C41.2011 59.0601 40.7428 59.3434 40.3392 59.7481C39.9356 60.1517 39.6512 60.61 39.4991 61.0508C39.3471 60.61 39.0638 60.1517 38.6591 59.7481C38.2555 59.3445 37.7972 59.0601 37.3564 58.9081C37.7972 58.7561 38.2555 58.4728 38.6591 58.0681Z" fill="#CEFF5A"/>
<path d="M33.7631 58.0681C34.1667 57.6645 34.4511 57.2062 34.6032 56.7654C34.7552 57.2062 35.0385 57.6645 35.4432 58.0681C35.8468 58.4717 36.3051 58.7561 36.7459 58.9081C36.3051 59.0601 35.8468 59.3434 35.4432 59.7481C35.0396 60.1517 34.7552 60.61 34.6032 61.0508C34.4511 60.61 34.1678 60.1517 33.7631 59.7481C33.3595 59.3445 32.9012 59.0601 32.4604 58.9081C32.9012 58.7561 33.3595 58.4728 33.7631 58.0681Z" fill="#CEFF5A"/>
<path d="M63.1237 63.5068C63.5273 63.1032 63.8117 62.6449 63.9638 62.2041C64.1158 62.6449 64.3991 63.1032 64.8038 63.5068C65.2074 63.9104 65.6657 64.1948 66.1065 64.3468C65.6657 64.4989 65.2074 64.7822 64.8038 65.1869C64.4002 65.5905 64.1158 66.0488 63.9638 66.4896C63.8117 66.0488 63.5284 65.5905 63.1237 65.1869C62.7201 64.7833 62.2618 64.4989 61.821 64.3468C62.2618 64.1948 62.7201 63.9115 63.1237 63.5068Z" fill="#CEFF5A"/>
<path d="M58.2316 63.5068C58.6352 63.1032 58.9196 62.6449 59.0717 62.2041C59.2237 62.6449 59.507 63.1032 59.9117 63.5068C60.3153 63.9104 60.7736 64.1948 61.2144 64.3468C60.7736 64.4989 60.3153 64.7822 59.9117 65.1869C59.5081 65.5905 59.2237 66.0488 59.0717 66.4896C58.9196 66.0488 58.6363 65.5905 58.2316 65.1869C57.828 64.7833 57.3697 64.4989 56.929 64.3468C57.3697 64.1948 57.828 63.9115 58.2316 63.5068Z" fill="#CEFF5A"/>
<path d="M53.3398 63.5073C53.7434 63.1037 54.0278 62.6454 54.1798 62.2046C54.3319 62.6454 54.6151 63.1037 55.0198 63.5073C55.4234 63.9109 55.8817 64.1953 56.3225 64.3473C55.8817 64.4994 55.4234 64.7826 55.0198 65.1873C54.6162 65.591 54.3319 66.0493 54.1798 66.4901C54.0278 66.0493 53.7445 65.591 53.3398 65.1873C52.9362 64.7837 52.4779 64.4994 52.0371 64.3473C52.4779 64.1953 52.9362 63.912 53.3398 63.5073Z" fill="#CEFF5A"/>
<path d="M48.4433 63.5068C48.8469 63.1032 49.1313 62.6449 49.2833 62.2041C49.4354 62.6449 49.7187 63.1032 50.1234 63.5068C50.527 63.9104 50.9852 64.1948 51.426 64.3468C50.9852 64.4989 50.527 64.7822 50.1234 65.1869C49.7198 65.5905 49.4354 66.0488 49.2833 66.4896C49.1313 66.0488 48.848 65.5905 48.4433 65.1869C48.0397 64.7833 47.5814 64.4989 47.1406 64.3468C47.5814 64.1948 48.0397 63.9115 48.4433 63.5068Z" fill="#CEFF5A"/>
<path d="M43.5512 63.5068C43.9548 63.1032 44.2392 62.6449 44.3912 62.2041C44.5433 62.6449 44.8266 63.1032 45.2313 63.5068C45.6349 63.9104 46.0932 64.1948 46.5339 64.3468C46.0932 64.4989 45.6349 64.7822 45.2313 65.1869C44.8277 65.5905 44.5433 66.0488 44.3912 66.4896C44.2392 66.0488 43.9559 65.5905 43.5512 65.1869C43.1476 64.7833 42.6893 64.4989 42.2485 64.3468C42.6893 64.1948 43.1476 63.9115 43.5512 63.5068Z" fill="#CEFF5A"/>
<path d="M38.6591 63.5068C39.0627 63.1032 39.3471 62.6449 39.4991 62.2041C39.6512 62.6449 39.9345 63.1032 40.3392 63.5068C40.7428 63.9104 41.2011 64.1948 41.6419 64.3468C41.2011 64.4989 40.7428 64.7822 40.3392 65.1869C39.9356 65.5905 39.6512 66.0488 39.4991 66.4896C39.3471 66.0488 39.0638 65.5905 38.6591 65.1869C38.2555 64.7833 37.7972 64.4989 37.3564 64.3468C37.7972 64.1948 38.2555 63.9115 38.6591 63.5068Z" fill="#CEFF5A"/>
<path d="M33.7631 63.5068C34.1667 63.1032 34.4511 62.6449 34.6032 62.2041C34.7552 62.6449 35.0385 63.1032 35.4432 63.5068C35.8468 63.9104 36.3051 64.1948 36.7459 64.3468C36.3051 64.4989 35.8468 64.7822 35.4432 65.1869C35.0396 65.5905 34.7552 66.0488 34.6032 66.4896C34.4511 66.0488 34.1678 65.5905 33.7631 65.1869C33.3595 64.7833 32.9012 64.4989 32.4604 64.3468C32.9012 64.1948 33.3595 63.9115 33.7631 63.5068Z" fill="#CEFF5A"/>
<path d="M63.1237 68.9458C63.5273 68.5422 63.8117 68.0839 63.9638 67.6431C64.1158 68.0839 64.3991 68.5422 64.8038 68.9458C65.2074 69.3494 65.6657 69.6338 66.1065 69.7858C65.6657 69.9378 65.2074 70.2211 64.8038 70.6258C64.4002 71.0294 64.1158 71.4877 63.9638 71.9285C63.8117 71.4877 63.5284 71.0294 63.1237 70.6258C62.7201 70.2222 62.2618 69.9378 61.821 69.7858C62.2618 69.6338 62.7201 69.3505 63.1237 68.9458Z" fill="#CEFF5A"/>
<path d="M58.2316 68.9455C58.6352 68.5419 58.9196 68.0836 59.0717 67.6428C59.2237 68.0836 59.507 68.5419 59.9117 68.9455C60.3153 69.3491 60.7736 69.6335 61.2144 69.7855C60.7736 69.9376 60.3153 70.2209 59.9117 70.6256C59.5081 71.0292 59.2237 71.4875 59.0717 71.9283C58.9196 71.4875 58.6363 71.0292 58.2316 70.6256C57.828 70.222 57.3697 69.9376 56.929 69.7855C57.3697 69.6335 57.828 69.3502 58.2316 68.9455Z" fill="#CEFF5A"/>
<path d="M53.3398 68.9455C53.7434 68.5419 54.0278 68.0836 54.1798 67.6428C54.3319 68.0836 54.6151 68.5419 55.0198 68.9455C55.4234 69.3491 55.8817 69.6335 56.3225 69.7855C55.8817 69.9376 55.4234 70.2209 55.0198 70.6256C54.6162 71.0292 54.3319 71.4875 54.1798 71.9283C54.0278 71.4875 53.7445 71.0292 53.3398 70.6256C52.9362 70.222 52.4779 69.9376 52.0371 69.7855C52.4779 69.6335 52.9362 69.3502 53.3398 68.9455Z" fill="#CEFF5A"/>
<path d="M48.4433 68.9458C48.8469 68.5422 49.1313 68.0839 49.2833 67.6431C49.4354 68.0839 49.7187 68.5422 50.1234 68.9458C50.527 69.3494 50.9852 69.6338 51.426 69.7858C50.9852 69.9378 50.527 70.2211 50.1234 70.6258C49.7198 71.0294 49.4354 71.4877 49.2833 71.9285C49.1313 71.4877 48.848 71.0294 48.4433 70.6258C48.0397 70.2222 47.5814 69.9378 47.1406 69.7858C47.5814 69.6338 48.0397 69.3505 48.4433 68.9458Z" fill="#CEFF5A"/>
<path d="M43.5512 68.9455C43.9548 68.5419 44.2392 68.0836 44.3912 67.6428C44.5433 68.0836 44.8266 68.5419 45.2313 68.9455C45.6349 69.3491 46.0932 69.6335 46.5339 69.7855C46.0932 69.9376 45.6349 70.2209 45.2313 70.6256C44.8277 71.0292 44.5433 71.4875 44.3912 71.9283C44.2392 71.4875 43.9559 71.0292 43.5512 70.6256C43.1476 70.222 42.6893 69.9376 42.2485 69.7855C42.6893 69.6335 43.1476 69.3502 43.5512 68.9455Z" fill="#CEFF5A"/>
<path d="M38.6591 68.9455C39.0627 68.5419 39.3471 68.0836 39.4991 67.6428C39.6512 68.0836 39.9345 68.5419 40.3392 68.9455C40.7428 69.3491 41.2011 69.6335 41.6419 69.7855C41.2011 69.9376 40.7428 70.2209 40.3392 70.6256C39.9356 71.0292 39.6512 71.4875 39.4991 71.9283C39.3471 71.4875 39.0638 71.0292 38.6591 70.6256C38.2555 70.222 37.7972 69.9376 37.3564 69.7855C37.7972 69.6335 38.2555 69.3502 38.6591 68.9455Z" fill="#CEFF5A"/>
<path d="M33.7631 68.9458C34.1667 68.5422 34.4511 68.0839 34.6032 67.6431C34.7552 68.0839 35.0385 68.5422 35.4432 68.9458C35.8468 69.3494 36.3051 69.6338 36.7459 69.7858C36.3051 69.9378 35.8468 70.2211 35.4432 70.6258C35.0396 71.0294 34.7552 71.4877 34.6032 71.9285C34.4511 71.4877 34.1678 71.0294 33.7631 70.6258C33.3595 70.2222 32.9012 69.9378 32.4604 69.7858C32.9012 69.6338 33.3595 69.3505 33.7631 68.9458Z" fill="#CEFF5A"/>
<path d="M28.8039 47.188C29.2075 46.7843 29.4919 46.326 29.6439 45.8853C29.796 46.326 30.0792 46.7843 30.4839 47.188C30.8876 47.5916 31.3458 47.8759 31.7866 48.028C31.3458 48.18 30.8876 48.4633 30.4839 48.868C30.0803 49.2716 29.796 49.7299 29.6439 50.1707C29.4919 49.7299 29.2086 49.2716 28.8039 48.868C28.4003 48.4644 27.942 48.18 27.5012 48.028C27.942 47.8759 28.4003 47.5927 28.8039 47.188Z" fill="#CEFF5A"/>
<path d="M28.8039 52.6267C29.2075 52.2231 29.4919 51.7648 29.6439 51.324C29.796 51.7648 30.0792 52.2231 30.4839 52.6267C30.8876 53.0303 31.3458 53.3147 31.7866 53.4667C31.3458 53.6187 30.8876 53.902 30.4839 54.3067C30.0803 54.7103 29.796 55.1686 29.6439 55.6094C29.4919 55.1686 29.2086 54.7103 28.8039 54.3067C28.4003 53.9031 27.942 53.6187 27.5012 53.4667C27.942 53.3147 28.4003 53.0314 28.8039 52.6267Z" fill="#CEFF5A"/>
<path d="M28.8044 58.0683C29.208 57.6647 29.4924 57.2064 29.6444 56.7656C29.7965 57.2064 30.0797 57.6647 30.4844 58.0683C30.888 58.4719 31.3463 58.7563 31.7871 58.9084C31.3463 59.0604 30.888 59.3437 30.4844 59.7484C30.0808 60.152 29.7965 60.6103 29.6444 61.0511C29.4924 60.6103 29.2091 60.152 28.8044 59.7484C28.4008 59.3448 27.9425 59.0604 27.5017 58.9084C27.9425 58.7563 28.4008 58.473 28.8044 58.0683Z" fill="#CEFF5A"/>
<path d="M28.8044 63.5075C29.208 63.1039 29.4924 62.6456 29.6444 62.2048C29.7965 62.6456 30.0797 63.1039 30.4844 63.5075C30.888 63.9111 31.3463 64.1955 31.7871 64.3476C31.3463 64.4996 30.888 64.7829 30.4844 65.1876C30.0808 65.5912 29.7965 66.0495 29.6444 66.4903C29.4924 66.0495 29.2091 65.5912 28.8044 65.1876C28.4008 64.784 27.9425 64.4996 27.5017 64.3476C27.9425 64.1955 28.4008 63.9122 28.8044 63.5075Z" fill="#CEFF5A"/>
<path d="M28.8044 68.9453C29.208 68.5417 29.4924 68.0834 29.6444 67.6426C29.7965 68.0834 30.0797 68.5417 30.4844 68.9453C30.888 69.3489 31.3463 69.6333 31.7871 69.7853C31.3463 69.9373 30.888 70.2206 30.4844 70.6253C30.0808 71.0289 29.7965 71.4872 29.6444 71.928C29.4924 71.4872 29.2091 71.0289 28.8044 70.6253C28.4008 70.2217 27.9425 69.9373 27.5017 69.7853C27.9425 69.6333 28.4008 69.35 28.8044 68.9453Z" fill="#CEFF5A"/>
<path d="M23.8398 47.188C24.2434 46.7843 24.5278 46.326 24.6798 45.8853C24.8319 46.326 25.1151 46.7843 25.5198 47.188C25.9234 47.5916 26.3817 47.8759 26.8225 48.028C26.3817 48.18 25.9234 48.4633 25.5198 48.868C25.1162 49.2716 24.8319 49.7299 24.6798 50.1707C24.5278 49.7299 24.2445 49.2716 23.8398 48.868C23.4362 48.4644 22.9779 48.18 22.5371 48.028C22.9779 47.8759 23.4362 47.5927 23.8398 47.188Z" fill="#CEFF5A"/>
<path d="M23.8398 52.6267C24.2434 52.2231 24.5278 51.7648 24.6798 51.324C24.8319 51.7648 25.1151 52.2231 25.5198 52.6267C25.9234 53.0303 26.3817 53.3147 26.8225 53.4667C26.3817 53.6187 25.9234 53.902 25.5198 54.3067C25.1162 54.7103 24.8319 55.1686 24.6798 55.6094C24.5278 55.1686 24.2445 54.7103 23.8398 54.3067C23.4362 53.9031 22.9779 53.6187 22.5371 53.4667C22.9779 53.3147 23.4362 53.0314 23.8398 52.6267Z" fill="#CEFF5A"/>
<path d="M23.8398 58.0681C24.2434 57.6645 24.5278 57.2062 24.6798 56.7654C24.8319 57.2062 25.1151 57.6645 25.5198 58.0681C25.9234 58.4717 26.3817 58.7561 26.8225 58.9081C26.3817 59.0601 25.9234 59.3434 25.5198 59.7481C25.1162 60.1517 24.8319 60.61 24.6798 61.0508C24.5278 60.61 24.2445 60.1517 23.8398 59.7481C23.4362 59.3445 22.9779 59.0601 22.5371 58.9081C22.9779 58.7561 23.4362 58.4728 23.8398 58.0681Z" fill="#CEFF5A"/>
<path d="M23.8398 63.5068C24.2434 63.1032 24.5278 62.6449 24.6798 62.2041C24.8319 62.6449 25.1151 63.1032 25.5198 63.5068C25.9234 63.9104 26.3817 64.1948 26.8225 64.3468C26.3817 64.4989 25.9234 64.7822 25.5198 65.1869C25.1162 65.5905 24.8319 66.0488 24.6798 66.4896C24.5278 66.0488 24.2445 65.5905 23.8398 65.1869C23.4362 64.7833 22.9779 64.4989 22.5371 64.3468C22.9779 64.1948 23.4362 63.9115 23.8398 63.5068Z" fill="#CEFF5A"/>
<path d="M23.8398 68.9458C24.2434 68.5422 24.5278 68.0839 24.6798 67.6431C24.8319 68.0839 25.1151 68.5422 25.5198 68.9458C25.9234 69.3494 26.3817 69.6338 26.8225 69.7858C26.3817 69.9378 25.9234 70.2211 25.5198 70.6258C25.1162 71.0294 24.8319 71.4877 24.6798 71.9285C24.5278 71.4877 24.2445 71.0294 23.8398 70.6258C23.4362 70.2222 22.9779 69.9378 22.5371 69.7858C22.9779 69.6338 23.4362 69.3505 23.8398 68.9458Z" fill="#CEFF5A"/>
<path d="M18.8811 47.188C19.2847 46.7843 19.569 46.326 19.7211 45.8853C19.8731 46.326 20.1564 46.7843 20.5611 47.188C20.9647 47.5916 21.423 47.8759 21.8638 48.028C21.423 48.18 20.9647 48.4633 20.5611 48.868C20.1575 49.2716 19.8731 49.7299 19.7211 50.1707C19.569 49.7299 19.2858 49.2716 18.8811 48.868C18.4775 48.4644 18.0192 48.18 17.5784 48.028C18.0192 47.8759 18.4775 47.5927 18.8811 47.188Z" fill="#CEFF5A"/>
<path d="M18.8808 52.6284C19.2844 52.2248 19.5688 51.7665 19.7208 51.3257C19.8729 51.7665 20.1562 52.2248 20.5609 52.6284C20.9645 53.032 21.4227 53.3164 21.8635 53.4684C21.4227 53.6204 20.9645 53.9037 20.5609 54.3084C20.1572 54.712 19.8729 55.1703 19.7208 55.6111C19.5688 55.1703 19.2855 54.712 18.8808 54.3084C18.4772 53.9048 18.0189 53.6204 17.5781 53.4684C18.0189 53.3164 18.4772 53.0331 18.8808 52.6284Z" fill="#CEFF5A"/>
<path d="M18.8808 58.0681C19.2844 57.6645 19.5688 57.2062 19.7208 56.7654C19.8729 57.2062 20.1562 57.6645 20.5609 58.0681C20.9645 58.4717 21.4227 58.7561 21.8635 58.9081C21.4227 59.0601 20.9645 59.3434 20.5609 59.7481C20.1572 60.1517 19.8729 60.61 19.7208 61.0508C19.5688 60.61 19.2855 60.1517 18.8808 59.7481C18.4772 59.3445 18.0189 59.0601 17.5781 58.9081C18.0189 58.7561 18.4772 58.4728 18.8808 58.0681Z" fill="#CEFF5A"/>
<path d="M18.8808 63.5075C19.2844 63.1039 19.5688 62.6456 19.7208 62.2048C19.8729 62.6456 20.1562 63.1039 20.5609 63.5075C20.9645 63.9111 21.4227 64.1955 21.8635 64.3476C21.4227 64.4996 20.9645 64.7829 20.5609 65.1876C20.1572 65.5912 19.8729 66.0495 19.7208 66.4903C19.5688 66.0495 19.2855 65.5912 18.8808 65.1876C18.4772 64.784 18.0189 64.4996 17.5781 64.3476C18.0189 64.1955 18.4772 63.9122 18.8808 63.5075Z" fill="#CEFF5A"/>
<path d="M18.8808 68.9458C19.2844 68.5422 19.5688 68.0839 19.7208 67.6431C19.8729 68.0839 20.1562 68.5422 20.5609 68.9458C20.9645 69.3494 21.4227 69.6338 21.8635 69.7858C21.4227 69.9378 20.9645 70.2211 20.5609 70.6258C20.1572 71.0294 19.8729 71.4877 19.7208 71.9285C19.5688 71.4877 19.2855 71.0294 18.8808 70.6258C18.4772 70.2222 18.0189 69.9378 17.5781 69.7858C18.0189 69.6338 18.4772 69.3505 18.8808 68.9458Z" fill="#CEFF5A"/>
<path d="M13.9165 47.188C14.3201 46.7843 14.6044 46.326 14.7565 45.8853C14.9085 46.326 15.1918 46.7843 15.5965 47.188C16.0001 47.5916 16.4584 47.8759 16.8992 48.028C16.4584 48.18 16.0001 48.4633 15.5965 48.868C15.1929 49.2716 14.9085 49.7299 14.7565 50.1707C14.6044 49.7299 14.3212 49.2716 13.9165 48.868C13.5129 48.4644 13.0546 48.18 12.6138 48.028C13.0546 47.8759 13.5129 47.5927 13.9165 47.188Z" fill="#CEFF5A"/>
<path d="M13.9165 52.6264C14.3201 52.2228 14.6044 51.7645 14.7565 51.3237C14.9085 51.7645 15.1918 52.2228 15.5965 52.6264C16.0001 53.03 16.4584 53.3144 16.8992 53.4665C16.4584 53.6185 16.0001 53.9018 15.5965 54.3065C15.1929 54.7101 14.9085 55.1684 14.7565 55.6092C14.6044 55.1684 14.3212 54.7101 13.9165 54.3065C13.5129 53.9029 13.0546 53.6185 12.6138 53.4665C13.0546 53.3144 13.5129 53.0311 13.9165 52.6264Z" fill="#CEFF5A"/>
<path d="M13.9165 58.0681C14.3201 57.6645 14.6044 57.2062 14.7565 56.7654C14.9085 57.2062 15.1918 57.6645 15.5965 58.0681C16.0001 58.4717 16.4584 58.7561 16.8992 58.9081C16.4584 59.0601 16.0001 59.3434 15.5965 59.7481C15.1929 60.1517 14.9085 60.61 14.7565 61.0508C14.6044 60.61 14.3212 60.1517 13.9165 59.7481C13.5129 59.3445 13.0546 59.0601 12.6138 58.9081C13.0546 58.7561 13.5129 58.4728 13.9165 58.0681Z" fill="#CEFF5A"/>
<path d="M13.9165 63.5068C14.3201 63.1032 14.6044 62.6449 14.7565 62.2041C14.9085 62.6449 15.1918 63.1032 15.5965 63.5068C16.0001 63.9104 16.4584 64.1948 16.8992 64.3468C16.4584 64.4989 16.0001 64.7822 15.5965 65.1869C15.1929 65.5905 14.9085 66.0488 14.7565 66.4896C14.6044 66.0488 14.3212 65.5905 13.9165 65.1869C13.5129 64.7833 13.0546 64.4989 12.6138 64.3468C13.0546 64.1948 13.5129 63.9115 13.9165 63.5068Z" fill="#CEFF5A"/>
<path d="M13.9165 68.9455C14.3201 68.5419 14.6044 68.0836 14.7565 67.6428C14.9085 68.0836 15.1918 68.5419 15.5965 68.9455C16.0001 69.3491 16.4584 69.6335 16.8992 69.7855C16.4584 69.9376 16.0001 70.2209 15.5965 70.6256C15.1929 71.0292 14.9085 71.4875 14.7565 71.9283C14.6044 71.4875 14.3212 71.0292 13.9165 70.6256C13.5129 70.222 13.0546 69.9376 12.6138 69.7855C13.0546 69.6335 13.5129 69.3502 13.9165 68.9455Z" fill="#CEFF5A"/>
<path d="M63.1237 41.7878C63.5273 41.3842 63.8117 40.9259 63.9638 40.4851C64.1158 40.9259 64.3991 41.3842 64.8038 41.7878C65.2074 42.1914 65.6657 42.4758 66.1065 42.6278C65.6657 42.7799 65.2074 43.0632 64.8038 43.4679C64.4002 43.8715 64.1158 44.3298 63.9638 44.7706C63.8117 44.3298 63.5284 43.8715 63.1237 43.4679C62.7201 43.0643 62.2618 42.7799 61.821 42.6278C62.2618 42.4758 62.7201 42.1925 63.1237 41.7878Z" fill="#CEFF5A"/>
<path d="M58.2316 41.7878C58.6352 41.3842 58.9196 40.9259 59.0717 40.4851C59.2237 40.9259 59.507 41.3842 59.9117 41.7878C60.3153 42.1914 60.7736 42.4758 61.2144 42.6278C60.7736 42.7799 60.3153 43.0632 59.9117 43.4679C59.5081 43.8715 59.2237 44.3298 59.0717 44.7706C58.9196 44.3298 58.6363 43.8715 58.2316 43.4679C57.828 43.0643 57.3697 42.7799 56.929 42.6278C57.3697 42.4758 57.828 42.1925 58.2316 41.7878Z" fill="#CEFF5A"/>
<path d="M53.3398 41.7881C53.7434 41.3844 54.0278 40.9261 54.1798 40.4854C54.3319 40.9261 54.6151 41.3844 55.0198 41.7881C55.4234 42.1917 55.8817 42.476 56.3225 42.6281C55.8817 42.7801 55.4234 43.0634 55.0198 43.4681C54.6162 43.8717 54.3319 44.33 54.1798 44.7708C54.0278 44.33 53.7445 43.8717 53.3398 43.4681C52.9362 43.0645 52.4779 42.7801 52.0371 42.6281C52.4779 42.476 52.9362 42.1928 53.3398 41.7881Z" fill="#CEFF5A"/>
<path d="M48.4433 41.7878C48.8469 41.3842 49.1313 40.9259 49.2833 40.4851C49.4354 40.9259 49.7187 41.3842 50.1234 41.7878C50.527 42.1914 50.9852 42.4758 51.426 42.6278C50.9852 42.7799 50.527 43.0632 50.1234 43.4679C49.7198 43.8715 49.4354 44.3298 49.2833 44.7706C49.1313 44.3298 48.848 43.8715 48.4433 43.4679C48.0397 43.0643 47.5814 42.7799 47.1406 42.6278C47.5814 42.4758 48.0397 42.1925 48.4433 41.7878Z" fill="#CEFF5A"/>
<path d="M43.5512 41.7878C43.9548 41.3842 44.2392 40.9259 44.3912 40.4851C44.5433 40.9259 44.8266 41.3842 45.2313 41.7878C45.6349 42.1914 46.0932 42.4758 46.5339 42.6278C46.0932 42.7799 45.6349 43.0632 45.2313 43.4679C44.8277 43.8715 44.5433 44.3298 44.3912 44.7706C44.2392 44.3298 43.9559 43.8715 43.5512 43.4679C43.1476 43.0643 42.6893 42.7799 42.2485 42.6278C42.6893 42.4758 43.1476 42.1925 43.5512 41.7878Z" fill="#CEFF5A"/>
<path d="M38.6591 41.7878C39.0627 41.3842 39.3471 40.9259 39.4991 40.4851C39.6512 40.9259 39.9345 41.3842 40.3392 41.7878C40.7428 42.1914 41.2011 42.4758 41.6419 42.6278C41.2011 42.7799 40.7428 43.0632 40.3392 43.4679C39.9356 43.8715 39.6512 44.3298 39.4991 44.7706C39.3471 44.3298 39.0638 43.8715 38.6591 43.4679C38.2555 43.0643 37.7972 42.7799 37.3564 42.6278C37.7972 42.4758 38.2555 42.1925 38.6591 41.7878Z" fill="#CEFF5A"/>
<path d="M33.7631 41.7878C34.1667 41.3842 34.4511 40.9259 34.6032 40.4851C34.7552 40.9259 35.0385 41.3842 35.4432 41.7878C35.8468 42.1914 36.3051 42.4758 36.7459 42.6278C36.3051 42.7799 35.8468 43.0632 35.4432 43.4679C35.0396 43.8715 34.7552 44.3298 34.6032 44.7706C34.4511 44.3298 34.1678 43.8715 33.7631 43.4679C33.3595 43.0643 32.9012 42.7799 32.4604 42.6278C32.9012 42.4758 33.3595 42.1925 33.7631 41.7878Z" fill="#CEFF5A"/>
<path d="M28.8044 41.7876C29.208 41.384 29.4924 40.9257 29.6444 40.4849C29.7965 40.9257 30.0797 41.384 30.4844 41.7876C30.888 42.1912 31.3463 42.4756 31.7871 42.6276C31.3463 42.7796 30.888 43.0629 30.4844 43.4676C30.0808 43.8712 29.7965 44.3295 29.6444 44.7703C29.4924 44.3295 29.2091 43.8712 28.8044 43.4676C28.4008 43.064 27.9425 42.7796 27.5017 42.6276C27.9425 42.4756 28.4008 42.1923 28.8044 41.7876Z" fill="#CEFF5A"/>
<path d="M23.8398 41.7878C24.2434 41.3842 24.5278 40.9259 24.6798 40.4851C24.8319 40.9259 25.1151 41.3842 25.5198 41.7878C25.9234 42.1914 26.3817 42.4758 26.8225 42.6278C26.3817 42.7799 25.9234 43.0632 25.5198 43.4679C25.1162 43.8715 24.8319 44.3298 24.6798 44.7706C24.5278 44.3298 24.2445 43.8715 23.8398 43.4679C23.4362 43.0643 22.9779 42.7799 22.5371 42.6278C22.9779 42.4758 23.4362 42.1925 23.8398 41.7878Z" fill="#CEFF5A"/>
<path d="M18.8808 41.7881C19.2844 41.3844 19.5688 40.9261 19.7208 40.4854C19.8729 40.9261 20.1562 41.3844 20.5609 41.7881C20.9645 42.1917 21.4227 42.476 21.8635 42.6281C21.4227 42.7801 20.9645 43.0634 20.5609 43.4681C20.1572 43.8717 19.8729 44.33 19.7208 44.7708C19.5688 44.33 19.2855 43.8717 18.8808 43.4681C18.4772 43.0645 18.0189 42.7801 17.5781 42.6281C18.0189 42.476 18.4772 42.1928 18.8808 41.7881Z" fill="#CEFF5A"/>
<path d="M13.9165 41.7878C14.3201 41.3842 14.6044 40.9259 14.7565 40.4851C14.9085 40.9259 15.1918 41.3842 15.5965 41.7878C16.0001 42.1914 16.4584 42.4758 16.8992 42.6278C16.4584 42.7799 16.0001 43.0632 15.5965 43.4679C15.1929 43.8715 14.9085 44.3298 14.7565 44.7706C14.6044 44.3298 14.3212 43.8715 13.9165 43.4679C13.5129 43.0643 13.0546 42.7799 12.6138 42.6278C13.0546 42.4758 13.5129 42.1925 13.9165 41.7878Z" fill="#CEFF5A"/>
<path d="M63.1237 36.3877C63.5273 35.9841 63.8117 35.5258 63.9638 35.085C64.1158 35.5258 64.3991 35.9841 64.8038 36.3877C65.2074 36.7913 65.6657 37.0757 66.1065 37.2277C65.6657 37.3797 65.2074 37.663 64.8038 38.0677C64.4002 38.4713 64.1158 38.9296 63.9638 39.3704C63.8117 38.9296 63.5284 38.4713 63.1237 38.0677C62.7201 37.6641 62.2618 37.3797 61.821 37.2277C62.2618 37.0757 62.7201 36.7924 63.1237 36.3877Z" fill="#CEFF5A"/>
<path d="M58.2316 36.3877C58.6352 35.9841 58.9196 35.5258 59.0717 35.085C59.2237 35.5258 59.507 35.9841 59.9117 36.3877C60.3153 36.7913 60.7736 37.0757 61.2144 37.2277C60.7736 37.3797 60.3153 37.663 59.9117 38.0677C59.5081 38.4713 59.2237 38.9296 59.0717 39.3704C58.9196 38.9296 58.6363 38.4713 58.2316 38.0677C57.828 37.6641 57.3697 37.3797 56.929 37.2277C57.3697 37.0757 57.828 36.7924 58.2316 36.3877Z" fill="#CEFF5A"/>
<path d="M53.3398 36.3879C53.7434 35.9843 54.0278 35.526 54.1798 35.0852C54.3319 35.526 54.6151 35.9843 55.0198 36.3879C55.4234 36.7915 55.8817 37.0759 56.3225 37.2279C55.8817 37.38 55.4234 37.6633 55.0198 38.068C54.6162 38.4716 54.3319 38.9299 54.1798 39.3707C54.0278 38.9299 53.7445 38.4716 53.3398 38.068C52.9362 37.6644 52.4779 37.38 52.0371 37.2279C52.4779 37.0759 52.9362 36.7926 53.3398 36.3879Z" fill="#CEFF5A"/>
<path d="M48.4433 36.3877C48.8469 35.9841 49.1313 35.5258 49.2833 35.085C49.4354 35.5258 49.7187 35.9841 50.1234 36.3877C50.527 36.7913 50.9852 37.0757 51.426 37.2277C50.9852 37.3797 50.527 37.663 50.1234 38.0677C49.7198 38.4713 49.4354 38.9296 49.2833 39.3704C49.1313 38.9296 48.848 38.4713 48.4433 38.0677C48.0397 37.6641 47.5814 37.3797 47.1406 37.2277C47.5814 37.0757 48.0397 36.7924 48.4433 36.3877Z" fill="#CEFF5A"/>
<path d="M43.5512 36.3877C43.9548 35.9841 44.2392 35.5258 44.3912 35.085C44.5433 35.5258 44.8266 35.9841 45.2313 36.3877C45.6349 36.7913 46.0932 37.0757 46.5339 37.2277C46.0932 37.3797 45.6349 37.663 45.2313 38.0677C44.8277 38.4713 44.5433 38.9296 44.3912 39.3704C44.2392 38.9296 43.9559 38.4713 43.5512 38.0677C43.1476 37.6641 42.6893 37.3797 42.2485 37.2277C42.6893 37.0757 43.1476 36.7924 43.5512 36.3877Z" fill="#CEFF5A"/>
<path d="M38.6591 36.3877C39.0627 35.9841 39.3471 35.5258 39.4991 35.085C39.6512 35.5258 39.9345 35.9841 40.3392 36.3877C40.7428 36.7913 41.2011 37.0757 41.6419 37.2277C41.2011 37.3797 40.7428 37.663 40.3392 38.0677C39.9356 38.4713 39.6512 38.9296 39.4991 39.3704C39.3471 38.9296 39.0638 38.4713 38.6591 38.0677C38.2555 37.6641 37.7972 37.3797 37.3564 37.2277C37.7972 37.0757 38.2555 36.7924 38.6591 36.3877Z" fill="#CEFF5A"/>
<path d="M33.7631 36.3877C34.1667 35.9841 34.4511 35.5258 34.6032 35.085C34.7552 35.5258 35.0385 35.9841 35.4432 36.3877C35.8468 36.7913 36.3051 37.0757 36.7459 37.2277C36.3051 37.3797 35.8468 37.663 35.4432 38.0677C35.0396 38.4713 34.7552 38.9296 34.6032 39.3704C34.4511 38.9296 34.1678 38.4713 33.7631 38.0677C33.3595 37.6641 32.9012 37.3797 32.4604 37.2277C32.9012 37.0757 33.3595 36.7924 33.7631 36.3877Z" fill="#CEFF5A"/>
<path d="M28.8044 36.3881C29.208 35.9845 29.4924 35.5262 29.6444 35.0854C29.7965 35.5262 30.0797 35.9845 30.4844 36.3881C30.888 36.7918 31.3463 37.0761 31.7871 37.2282C31.3463 37.3802 30.888 37.6635 30.4844 38.0682C30.0808 38.4718 29.7965 38.9301 29.6444 39.3709C29.4924 38.9301 29.2091 38.4718 28.8044 38.0682C28.4008 37.6646 27.9425 37.3802 27.5017 37.2282C27.9425 37.0761 28.4008 36.7929 28.8044 36.3881Z" fill="#CEFF5A"/>
<path d="M23.8398 36.3877C24.2434 35.9841 24.5278 35.5258 24.6798 35.085C24.8319 35.5258 25.1151 35.9841 25.5198 36.3877C25.9234 36.7913 26.3817 37.0757 26.8225 37.2277C26.3817 37.3797 25.9234 37.663 25.5198 38.0677C25.1162 38.4713 24.8319 38.9296 24.6798 39.3704C24.5278 38.9296 24.2445 38.4713 23.8398 38.0677C23.4362 37.6641 22.9779 37.3797 22.5371 37.2277C22.9779 37.0757 23.4362 36.7924 23.8398 36.3877Z" fill="#CEFF5A"/>
<path d="M18.8808 36.3881C19.2844 35.9845 19.5688 35.5262 19.7208 35.0854C19.8729 35.5262 20.1562 35.9845 20.5609 36.3881C20.9645 36.7918 21.4227 37.0761 21.8635 37.2282C21.4227 37.3802 20.9645 37.6635 20.5609 38.0682C20.1572 38.4718 19.8729 38.9301 19.7208 39.3709C19.5688 38.9301 19.2855 38.4718 18.8808 38.0682C18.4772 37.6646 18.0189 37.3802 17.5781 37.2282C18.0189 37.0761 18.4772 36.7929 18.8808 36.3881Z" fill="#CEFF5A"/>
<path d="M13.9165 36.3877C14.3201 35.9841 14.6044 35.5258 14.7565 35.085C14.9085 35.5258 15.1918 35.9841 15.5965 36.3877C16.0001 36.7913 16.4584 37.0757 16.8992 37.2277C16.4584 37.3797 16.0001 37.663 15.5965 38.0677C15.1929 38.4713 14.9085 38.9296 14.7565 39.3704C14.6044 38.9296 14.3212 38.4713 13.9165 38.0677C13.5129 37.6641 13.0546 37.3797 12.6138 37.2277C13.0546 37.0757 13.5129 36.7924 13.9165 36.3877Z" fill="#CEFF5A"/>
</g>
<path d="M34.6449 66.2754L29.1279 68.417C29.1279 68.417 18.2295 69.8105 18.2295 71.9379H34.7411" fill="#FB8E65"/>
<path d="M51.2794 59.7014L31.8408 63.8294L32.2904 71.9409L55.0562 71.9999C57.7753 71.8632 59.8677 69.5477 59.731 66.8285" fill="#405FF4"/>
<mask id="mask1_19205_89628" style="mask-type:luminance" maskUnits="userSpaceOnUse" x="31" y="59" width="29" height="13">
<path d="M51.2794 59.699L31.8408 63.8269L32.2904 71.9384L55.0562 71.9975C57.7753 71.8608 59.8677 69.5452 59.731 66.8261" fill="white"/>
</mask>
<g mask="url(#mask1_19205_89628)">
<path d="M58.2373 58.0654C58.6409 57.6618 58.9252 57.2035 59.0773 56.7627C59.2293 57.2035 59.5126 57.6618 59.9173 58.0654C60.3209 58.469 60.7792 58.7534 61.22 58.9054C60.7792 59.0575 60.3209 59.3408 59.9173 59.7455C59.5137 60.1491 59.2293 60.6074 59.0773 61.0481C58.9252 60.6074 58.642 60.1491 58.2373 59.7455C57.8337 59.3418 57.3754 59.0575 56.9346 58.9054C57.3754 58.7534 57.8337 58.4701 58.2373 58.0654Z" fill="#CEFF5A"/>
<path d="M53.3447 58.0649C53.7483 57.6613 54.0327 57.203 54.1847 56.7622C54.3367 57.203 54.62 57.6613 55.0247 58.0649C55.4283 58.4685 55.8866 58.7529 56.3274 58.9049C55.8866 59.057 55.4283 59.3403 55.0247 59.745C54.6211 60.1486 54.3367 60.6069 54.1847 61.0477C54.0327 60.6069 53.7494 60.1486 53.3447 59.745C52.9411 59.3414 52.4828 59.057 52.042 58.9049C52.4828 58.7529 52.9411 58.4696 53.3447 58.0649Z" fill="#CEFF5A"/>
<path d="M48.4482 58.0654C48.8518 57.6618 49.1362 57.2035 49.2882 56.7627C49.4403 57.2035 49.7235 57.6618 50.1282 58.0654C50.5318 58.469 50.9901 58.7534 51.4309 58.9054C50.9901 59.0575 50.5318 59.3408 50.1282 59.7455C49.7246 60.1491 49.4403 60.6074 49.2882 61.0481C49.1362 60.6074 48.8529 60.1491 48.4482 59.7455C48.0446 59.3418 47.5863 59.0575 47.1455 58.9054C47.5863 58.7534 48.0446 58.4701 48.4482 58.0654Z" fill="#CEFF5A"/>
<path d="M43.5561 58.0654C43.9597 57.6618 44.2441 57.2035 44.3961 56.7627C44.5482 57.2035 44.8315 57.6618 45.2361 58.0654C45.6398 58.469 46.098 58.7534 46.5388 58.9054C46.098 59.0575 45.6398 59.3408 45.2361 59.7455C44.8325 60.1491 44.5482 60.6074 44.3961 61.0481C44.2441 60.6074 43.9608 60.1491 43.5561 59.7455C43.1525 59.3418 42.6942 59.0575 42.2534 58.9054C42.6942 58.7534 43.1525 58.4701 43.5561 58.0654Z" fill="#CEFF5A"/>
<path d="M38.6625 58.0649C39.0662 57.6613 39.3505 57.203 39.5026 56.7622C39.6546 57.203 39.9379 57.6613 40.3426 58.0649C40.7462 58.4685 41.2045 58.7529 41.6453 58.9049C41.2045 59.057 40.7462 59.3403 40.3426 59.745C39.939 60.1486 39.6546 60.6069 39.5026 61.0477C39.3505 60.6069 39.0672 60.1486 38.6625 59.745C38.2589 59.3414 37.8007 59.057 37.3599 58.9049C37.8007 58.7529 38.2589 58.4696 38.6625 58.0649Z" fill="#CEFF5A"/>
<path d="M33.768 58.0656C34.1716 57.662 34.456 57.2037 34.608 56.7629C34.7601 57.2037 35.0434 57.662 35.4481 58.0656C35.8517 58.4692 36.31 58.7536 36.7507 58.9057C36.31 59.0577 35.8517 59.341 35.4481 59.7457C35.0445 60.1493 34.7601 60.6076 34.608 61.0484C34.456 60.6076 34.1727 60.1493 33.768 59.7457C33.3644 59.3421 32.9061 59.0577 32.4653 58.9057C32.9061 58.7536 33.3644 58.4703 33.768 58.0656Z" fill="#CEFF5A"/>
<path d="M58.2373 63.5041C58.6409 63.1005 58.9252 62.6422 59.0773 62.2014C59.2293 62.6422 59.5126 63.1005 59.9173 63.5041C60.3209 63.9077 60.7792 64.1921 61.22 64.3441C60.7792 64.4962 60.3209 64.7795 59.9173 65.1842C59.5137 65.5878 59.2293 66.0461 59.0773 66.4869C58.9252 66.0461 58.642 65.5878 58.2373 65.1842C57.8337 64.7806 57.3754 64.4962 56.9346 64.3441C57.3754 64.1921 57.8337 63.9088 58.2373 63.5041Z" fill="#CEFF5A"/>
<path d="M53.3447 63.5044C53.7483 63.1008 54.0327 62.6425 54.1847 62.2017C54.3367 62.6425 54.62 63.1008 55.0247 63.5044C55.4283 63.908 55.8866 64.1924 56.3274 64.3444C55.8866 64.4964 55.4283 64.7797 55.0247 65.1844C54.6211 65.588 54.3367 66.0463 54.1847 66.4871C54.0327 66.0463 53.7494 65.588 53.3447 65.1844C52.9411 64.7808 52.4828 64.4964 52.042 64.3444C52.4828 64.1924 52.9411 63.9091 53.3447 63.5044Z" fill="#CEFF5A"/>
<path d="M48.4482 63.5041C48.8518 63.1005 49.1362 62.6422 49.2882 62.2014C49.4403 62.6422 49.7235 63.1005 50.1282 63.5041C50.5318 63.9077 50.9901 64.1921 51.4309 64.3441C50.9901 64.4962 50.5318 64.7795 50.1282 65.1842C49.7246 65.5878 49.4403 66.0461 49.2882 66.4869C49.1362 66.0461 48.8529 65.5878 48.4482 65.1842C48.0446 64.7806 47.5863 64.4962 47.1455 64.3441C47.5863 64.1921 48.0446 63.9088 48.4482 63.5041Z" fill="#CEFF5A"/>
<path d="M43.5561 63.5041C43.9597 63.1005 44.2441 62.6422 44.3961 62.2014C44.5482 62.6422 44.8315 63.1005 45.2361 63.5041C45.6398 63.9077 46.098 64.1921 46.5388 64.3441C46.098 64.4962 45.6398 64.7795 45.2361 65.1842C44.8325 65.5878 44.5482 66.0461 44.3961 66.4869C44.2441 66.0461 43.9608 65.5878 43.5561 65.1842C43.1525 64.7806 42.6942 64.4962 42.2534 64.3441C42.6942 64.1921 43.1525 63.9088 43.5561 63.5041Z" fill="#CEFF5A"/>
<path d="M38.6625 63.5044C39.0662 63.1008 39.3505 62.6425 39.5026 62.2017C39.6546 62.6425 39.9379 63.1008 40.3426 63.5044C40.7462 63.908 41.2045 64.1924 41.6453 64.3444C41.2045 64.4964 40.7462 64.7797 40.3426 65.1844C39.939 65.588 39.6546 66.0463 39.5026 66.4871C39.3505 66.0463 39.0672 65.588 38.6625 65.1844C38.2589 64.7808 37.8007 64.4964 37.3599 64.3444C37.8007 64.1924 38.2589 63.9091 38.6625 63.5044Z" fill="#CEFF5A"/>
<path d="M33.768 63.5041C34.1716 63.1005 34.456 62.6422 34.608 62.2014C34.7601 62.6422 35.0434 63.1005 35.4481 63.5041C35.8517 63.9077 36.31 64.1921 36.7507 64.3441C36.31 64.4962 35.8517 64.7795 35.4481 65.1842C35.0445 65.5878 34.7601 66.0461 34.608 66.4869C34.456 66.0461 34.1727 65.5878 33.768 65.1842C33.3644 64.7806 32.9061 64.4962 32.4653 64.3441C32.9061 64.1921 33.3644 63.9088 33.768 63.5041Z" fill="#CEFF5A"/>
<path d="M58.2373 68.9431C58.6409 68.5395 58.9252 68.0812 59.0773 67.6404C59.2293 68.0812 59.5126 68.5395 59.9173 68.9431C60.3209 69.3467 60.7792 69.6311 61.22 69.7831C60.7792 69.9351 60.3209 70.2184 59.9173 70.6231C59.5137 71.0267 59.2293 71.485 59.0773 71.9258C58.9252 71.485 58.642 71.0267 58.2373 70.6231C57.8337 70.2195 57.3754 69.9351 56.9346 69.7831C57.3754 69.6311 57.8337 69.3478 58.2373 68.9431Z" fill="#CEFF5A"/>
<path d="M53.3447 68.9426C53.7483 68.539 54.0327 68.0807 54.1847 67.6399C54.3367 68.0807 54.62 68.539 55.0247 68.9426C55.4283 69.3462 55.8866 69.6306 56.3274 69.7826C55.8866 69.9347 55.4283 70.2179 55.0247 70.6226C54.6211 71.0263 54.3367 71.4846 54.1847 71.9253C54.0327 71.4846 53.7494 71.0263 53.3447 70.6226C52.9411 70.219 52.4828 69.9347 52.042 69.7826C52.4828 69.6306 52.9411 69.3473 53.3447 68.9426Z" fill="#CEFF5A"/>
<path d="M48.4482 68.9431C48.8518 68.5395 49.1362 68.0812 49.2882 67.6404C49.4403 68.0812 49.7235 68.5395 50.1282 68.9431C50.5318 69.3467 50.9901 69.6311 51.4309 69.7831C50.9901 69.9351 50.5318 70.2184 50.1282 70.6231C49.7246 71.0267 49.4403 71.485 49.2882 71.9258C49.1362 71.485 48.8529 71.0267 48.4482 70.6231C48.0446 70.2195 47.5863 69.9351 47.1455 69.7831C47.5863 69.6311 48.0446 69.3478 48.4482 68.9431Z" fill="#CEFF5A"/>
<path d="M43.5561 68.9431C43.9597 68.5395 44.2441 68.0812 44.3961 67.6404C44.5482 68.0812 44.8315 68.5395 45.2361 68.9431C45.6398 69.3467 46.098 69.6311 46.5388 69.7831C46.098 69.9351 45.6398 70.2184 45.2361 70.6231C44.8325 71.0267 44.5482 71.485 44.3961 71.9258C44.2441 71.485 43.9608 71.0267 43.5561 70.6231C43.1525 70.2195 42.6942 69.9351 42.2534 69.7831C42.6942 69.6311 43.1525 69.3478 43.5561 68.9431Z" fill="#CEFF5A"/>
<path d="M38.6625 68.9426C39.0662 68.539 39.3505 68.0807 39.5026 67.6399C39.6546 68.0807 39.9379 68.539 40.3426 68.9426C40.7462 69.3462 41.2045 69.6306 41.6453 69.7826C41.2045 69.9347 40.7462 70.2179 40.3426 70.6226C39.939 71.0263 39.6546 71.4846 39.5026 71.9253C39.3505 71.4846 39.0672 71.0263 38.6625 70.6226C38.2589 70.219 37.8007 69.9347 37.3599 69.7826C37.8007 69.6306 38.2589 69.3473 38.6625 68.9426Z" fill="#CEFF5A"/>
<path d="M33.768 68.9431C34.1716 68.5395 34.456 68.0812 34.608 67.6404C34.7601 68.0812 35.0434 68.5395 35.4481 68.9431C35.8517 69.3467 36.31 69.6311 36.7507 69.7831C36.31 69.9351 35.8517 70.2184 35.4481 70.6231C35.0445 71.0267 34.7601 71.485 34.608 71.9258C34.456 71.485 34.1727 71.0267 33.768 70.6231C33.3644 70.2195 32.9061 69.9351 32.4653 69.7831C32.9061 69.6311 33.3644 69.3478 33.768 68.9431Z" fill="#CEFF5A"/>
</g>
<path d="M47.8593 30.8098L47.6121 38.2333L48.276 38.3755C48.276 38.3755 48.0912 41.2719 43.7642 41.2719C39.4372 41.2719 39.2097 38.2815 39.2097 38.2815L40.088 38.0299L40.2411 31.6859L47.8593 30.8098Z" fill="#FB8E65"/>
<path d="M40.1177 36.3039L40.1899 34.7463L42.5754 34.8754L40.1177 36.3039Z" fill="black"/>
<path d="M45.44 33.0258C45.44 33.0258 43.621 35.4868 39.9076 35.2353C39.2689 35.1915 38.7362 35.0001 38.2965 34.7365C37.0999 34.0201 36.4808 32.6288 36.6591 31.2451C36.9402 29.0619 37.5123 24.6365 37.789 22.6666C38.1631 19.9966 49.278 17.4579 48.9586 26.4478L47.8419 32.0939" fill="#FB8E65"/>
<path d="M48.3698 20.1724L40.1172 20.9457C40.1172 20.9457 37.4386 24.3867 41.502 23.3968C44.337 22.7067 45.6474 23.6156 46.3124 24.2609C46.9774 24.9074 46.5443 29.1688 46.5443 29.1688L47.7463 28.9664C47.7944 27.0031 49.7315 26.8302 49.7315 26.8302L49.9689 23.2404C50.0367 22.0756 49.3487 20.8079 48.3698 20.1724Z" fill="#405FF4"/>
<path d="M46.8433 31.757L48.7694 28.1355L46.6737 25.926L45.3874 30.8087L40.4141 29.8473C40.4141 29.8473 38.8456 31.6126 38.3085 29.9883L36.7674 30.4084C36.728 30.7113 36.6919 30.9935 36.6591 31.2451C36.4808 32.6277 37.0999 34.019 38.2965 34.7365C38.7362 35.0001 39.2722 35.1532 39.9076 35.2352C46.0076 36.0173 46.8422 31.757 46.8422 31.757H46.8433Z" fill="black"/>
<path d="M46.8413 31.7554C50.7712 33.4322 51.8858 30.0907 51.8814 29.0702C51.8781 28.0497 51.247 27.0018 50.2681 26.7141C49.3296 26.4385 48.1713 27.1057 47.8093 28.5955" fill="#FB8E65"/>
<path d="M48.967 29.9696L50.0335 28.4426" stroke="black" stroke-width="0.295891" stroke-miterlimit="10"/>
<path d="M49.6594 29.1848C49.6594 29.1848 50.4404 29.4845 50.039 30.2272" stroke="black" stroke-width="0.295891" stroke-miterlimit="10"/>
<path d="M38.0684 28.1734C38.0159 27.9349 37.8365 27.7293 37.609 27.6429C37.3804 27.5576 37.1102 27.5948 36.9133 27.7391" stroke="black" stroke-width="0.295891" stroke-miterlimit="10"/>
<path d="M43.3633 26.6146C43.1642 26.2854 42.8175 26.0492 42.439 25.9835C42.0606 25.9179 41.6548 26.0229 41.3562 26.2657" stroke="black" stroke-width="0.295891" stroke-miterlimit="10"/>
<path d="M38.3848 26.2904C38.1857 25.9612 37.839 25.7249 37.4605 25.6593C37.0821 25.5937 36.6763 25.6987 36.3777 25.9415" stroke="black" stroke-width="0.295891" stroke-miterlimit="10"/>
<path d="M39.7648 26.9419C39.7648 26.9419 38.0356 29.1743 38.4457 30.1412C38.857 31.1081 40.0623 30.3556 40.4123 29.8481" stroke="black" stroke-width="0.295891" stroke-miterlimit="10"/>
<path d="M42.9254 28.8031C42.7186 28.522 42.3719 28.3492 42.0219 28.3536C41.6719 28.358 41.3296 28.5384 41.1294 28.8239" stroke="black" stroke-width="0.295891" stroke-miterlimit="10"/>
<path d="M18.2273 71.9388C18.2273 71.9388 17.7778 70.1166 25.9559 70.3342" stroke="black" stroke-width="0.295891" stroke-miterlimit="10"/>
<path d="M19.5276 70.8583C19.5276 70.8583 21.0862 69.5064 26.6864 69.2876" stroke="black" stroke-width="0.295891" stroke-miterlimit="10"/>
<path d="M21.2991 40.418L23.0491 52.7351" stroke="black" stroke-width="0.295891" stroke-miterlimit="10"/>
<path d="M56.477 58.6335L31.8408 63.829L32.2904 71.9405" stroke="black" stroke-width="0.295891" stroke-miterlimit="10"/>
<path d="M53.1252 59.34V51.2766" stroke="black" stroke-width="0.295891" stroke-miterlimit="10"/>
<path d="M37.1885 23.2689C37.1513 21.0564 38.8377 19.735 41.3548 19.5968C41.3548 19.5968 44.5911 18.3905 46.9168 19.0176C49.2426 19.6447 49.6465 21.5932 49.5969 22.7694L49.4393 27.5485C49.4375 27.6176 49.3879 27.676 49.3206 27.6884C48.9132 27.7664 47.551 28.1454 47.4695 29.7308C47.466 29.807 47.4075 29.869 47.3331 29.8743C46.7202 29.9221 45.8399 29.5838 45.9284 28.4554C46.0329 27.134 45.9479 25.398 45.5015 24.9782C44.8196 24.337 43.7638 21.8695 40.9102 22.5993C38.4444 23.2299 37.1885 23.3078 37.1868 23.2671L37.1885 23.2689Z" fill="black"/>
<path d="M38.4217 24.6292C39.2914 24.6292 39.9964 23.9242 39.9964 23.0545C39.9964 22.1848 39.2914 21.4797 38.4217 21.4797C37.552 21.4797 36.8469 22.1848 36.8469 23.0545C36.8469 23.9242 37.552 24.6292 38.4217 24.6292Z" fill="black"/>
<path d="M38.7615 21.8658C39.6312 21.8658 40.3363 21.1608 40.3363 20.291C40.3363 19.4213 39.6312 18.7163 38.7615 18.7163C37.8918 18.7163 37.1868 19.4213 37.1868 20.291C37.1868 21.1608 37.8918 21.8658 38.7615 21.8658Z" fill="black"/>
<path d="M37.5747 23.0562C38.4444 23.0562 39.1495 22.3512 39.1495 21.4815C39.1495 20.6118 38.4444 19.9067 37.5747 19.9067C36.705 19.9067 36 20.6118 36 21.4815C36 22.3512 36.705 23.0562 37.5747 23.0562Z" fill="black"/>
<path d="M40.8677 20.6614C41.7374 20.6614 42.4424 19.9564 42.4424 19.0867C42.4424 18.217 41.7374 17.512 40.8677 17.512C39.998 17.512 39.293 18.217 39.293 19.0867C39.293 19.9564 39.998 20.6614 40.8677 20.6614Z" fill="black"/>
<path d="M43.3941 20.1495C44.2638 20.1495 44.9688 19.4444 44.9688 18.5747C44.9688 17.705 44.2638 17 43.3941 17C42.5244 17 41.8193 17.705 41.8193 18.5747C41.8193 19.4444 42.5244 20.1495 43.3941 20.1495Z" fill="black"/>
<path d="M46.0489 20.41C46.9186 20.41 47.6236 19.7049 47.6236 18.8352C47.6236 17.9655 46.9186 17.2605 46.0489 17.2605C45.1792 17.2605 44.4741 17.9655 44.4741 18.8352C44.4741 19.7049 45.1792 20.41 46.0489 20.41Z" fill="black"/>
<path d="M48.1746 21.7242C49.0443 21.7242 49.7493 21.0192 49.7493 20.1494C49.7493 19.2797 49.0443 18.5747 48.1746 18.5747C47.3049 18.5747 46.5999 19.2797 46.5999 20.1494C46.5999 21.0192 47.3049 21.7242 48.1746 21.7242Z" fill="black"/>
<path d="M49.2449 23.8091C50.1146 23.8091 50.8196 23.1041 50.8196 22.2344C50.8196 21.3647 50.1146 20.6597 49.2449 20.6597C48.3752 20.6597 47.6702 21.3647 47.6702 22.2344C47.6702 23.1041 48.3752 23.8091 49.2449 23.8091Z" fill="black"/>
<path d="M49.2449 25.9329C50.1146 25.9329 50.8196 25.2279 50.8196 24.3582C50.8196 23.4885 50.1146 22.7834 49.2449 22.7834C48.3752 22.7834 47.6702 23.4885 47.6702 24.3582C47.6702 25.2279 48.3752 25.9329 49.2449 25.9329Z" fill="black"/>
<path d="M48.7185 27.8851C49.5882 27.8851 50.2933 27.18 50.2933 26.3103C50.2933 25.4406 49.5882 24.7356 48.7185 24.7356C47.8488 24.7356 47.1438 25.4406 47.1438 26.3103C47.1438 27.18 47.8488 27.8851 48.7185 27.8851Z" fill="black"/>
<path d="M40.8677 24.3582C41.7374 24.3582 42.4424 23.6532 42.4424 22.7835C42.4424 21.9138 41.7374 21.2087 40.8677 21.2087C39.998 21.2087 39.293 21.9138 39.293 22.7835C39.293 23.6532 39.998 24.3582 40.8677 24.3582Z" fill="black"/>
<path d="M43.514 24.2042C44.3837 24.2042 45.0887 23.4991 45.0887 22.6294C45.0887 21.7597 44.3837 21.0547 43.514 21.0547C42.6442 21.0547 41.9392 21.7597 41.9392 22.6294C41.9392 23.4991 42.6442 24.2042 43.514 24.2042Z" fill="black"/>
<path d="M45.5989 25.7789C46.4686 25.7789 47.1737 25.0738 47.1737 24.2041C47.1737 23.3344 46.4686 22.6294 45.5989 22.6294C44.7292 22.6294 44.0242 23.3344 44.0242 24.2041C44.0242 25.0738 44.7292 25.7789 45.5989 25.7789Z" fill="black"/>
<path d="M16 25C22.0751 25 27 20.0751 27 14C27 7.92487 22.0751 3 16 3C9.92487 3 5 7.92487 5 14C5 20.0751 9.92487 25 16 25Z" fill="white"/>
<path d="M16 25C22.0751 25 27 20.0751 27 14C27 7.92487 22.0751 3 16 3C9.92487 3 5 7.92487 5 14C5 20.0751 9.92487 25 16 25Z" stroke="#D1E5D8" stroke-width="0.321911" stroke-miterlimit="10"/>
<path d="M9.0745 17.4897V16.4956L11.9458 12.9028C12.0568 12.7581 12.1325 12.6235 12.1729 12.4991C12.1998 12.3813 12.2132 12.2703 12.2132 12.166C12.2132 11.8902 12.1274 11.6496 11.9559 11.4444C11.7776 11.2392 11.5253 11.1332 11.199 11.1265C10.9096 11.1265 10.6691 11.219 10.4773 11.404C10.2789 11.5891 10.1611 11.8498 10.1241 12.1862H9.0745C9.10142 11.5739 9.30663 11.0676 9.69014 10.6673C10.077 10.2771 10.553 10.0786 11.1182 10.0718C11.7507 10.0786 12.2637 10.2804 12.6573 10.6774C13.0576 11.071 13.2612 11.5706 13.2679 12.1761C13.2679 12.6605 13.1199 13.0911 12.8238 13.4679L10.4572 16.4351H13.2679V17.4897H9.0745ZM15.5992 14.8153L13.8835 12.2518H15.1451L16.1846 13.9473L17.2291 12.2518H18.4907L16.775 14.8153L18.5613 17.4897H17.3048L16.1846 15.7438L15.0694 17.4897H13.8078L15.5992 14.8153ZM20.6757 11.2476L19.6311 12.0146V10.8944L20.6757 10.1324H21.7304V17.4897H20.6757V11.2476Z" fill="#405FF4"/>
<path d="M27.5 66C32.7467 66 37 61.7467 37 56.5C37 51.2533 32.7467 47 27.5 47C22.2533 47 18 51.2533 18 56.5C18 61.7467 22.2533 66 27.5 66Z" fill="white"/>
<path d="M27.5 66C32.7467 66 37 61.7467 37 56.5C37 51.2533 32.7467 47 27.5 47C22.2533 47 18 51.2533 18 56.5C18 61.7467 22.2533 66 27.5 66Z" stroke="#D1E5D8" stroke-width="0.321911" stroke-miterlimit="10"/>
<path d="M26.2076 58.5654L25.269 57.8186L25.9301 57.0566L26.7879 57.7379C26.8586 57.4889 26.8939 56.9759 26.8939 56.1988C26.8939 55.4755 26.8687 54.9826 26.8182 54.7202C26.7644 54.4713 26.6651 54.2678 26.5205 54.1096C26.4094 53.9583 26.2614 53.8321 26.0764 53.7312C25.8813 53.6336 25.6508 53.5815 25.3851 53.5747C25.1227 53.5815 24.8973 53.6336 24.7089 53.7312C24.5171 53.8321 24.3624 53.9583 24.2446 54.1096C24.1 54.2678 24.0041 54.4713 23.957 54.7202C23.9032 54.9826 23.8763 55.4755 23.8763 56.1988C23.8763 56.9221 23.9032 57.4115 23.957 57.6672C24.0041 57.9229 24.1 58.1298 24.2446 58.2879C24.3624 58.4393 24.5171 58.5621 24.7089 58.6563C24.8973 58.7673 25.1227 58.8228 25.3851 58.8228C25.7282 58.8228 26.0024 58.737 26.2076 58.5654ZM27.121 59.2971C26.687 59.7109 26.1084 59.9245 25.3851 59.938C24.8064 59.9245 24.3237 59.7832 23.9368 59.5141C23.5432 59.2551 23.2573 58.9557 23.079 58.6159C23.0251 58.5049 22.9764 58.3989 22.9326 58.298C22.8923 58.1937 22.8586 58.0625 22.8317 57.9044C22.7812 57.6083 22.756 57.0398 22.756 56.1988C22.756 55.3443 22.7812 54.7724 22.8317 54.4831C22.8855 54.1937 22.9679 53.9599 23.079 53.7816C23.2573 53.4419 23.5432 53.1391 23.9368 52.8733C24.3237 52.6042 24.8064 52.4663 25.3851 52.4595C25.9704 52.4663 26.4582 52.6042 26.8485 52.8733C27.2353 53.1391 27.5146 53.4419 27.6861 53.7816C27.8106 53.9599 27.8964 54.1937 27.9435 54.4831C27.9872 54.7724 28.0091 55.3443 28.0091 56.1988C28.0091 56.9624 27.9923 57.4956 27.9586 57.7984C27.9149 58.1012 27.8426 58.3367 27.7416 58.5049L28.7105 59.2769L28.0495 60.044L27.121 59.2971ZM30.5423 53.6353L29.4977 54.4023V53.2821L30.5423 52.5201H31.5969V59.8774H30.5423V53.6353Z" fill="#405FF4"/>
<path d="M63 39C67.9706 39 72 34.9706 72 30C72 25.0294 67.9706 21 63 21C58.0294 21 54 25.0294 54 30C54 34.9706 58.0294 39 63 39Z" fill="white"/>
<path d="M63 39C67.9706 39 72 34.9706 72 30C72 25.0294 67.9706 21 63 21C58.0294 21 54 25.0294 54 30C54 34.9706 58.0294 39 63 39Z" stroke="#D1E5D8" stroke-width="0.243489" stroke-miterlimit="10"/>
<path d="M57.2435 30.2759V27.0009H60.4728V27.8695H58.0623V29.241C58.3449 29.0194 58.6677 28.9085 59.0307 28.9085C59.2634 28.9141 59.4767 28.9556 59.6707 29.0332C59.8536 29.1191 60.0018 29.2244 60.1154 29.3491C60.2844 29.5153 60.4063 29.7079 60.4812 29.9268C60.5199 30.0459 60.5477 30.1914 60.5643 30.3632C60.5809 30.5378 60.5892 30.7525 60.5892 31.0074C60.5892 31.4009 60.5615 31.7029 60.5061 31.9134C60.4479 32.1213 60.3509 32.3055 60.2152 32.4662C60.096 32.6242 59.9228 32.7682 59.6956 32.8985C59.474 33.0342 59.2108 33.1049 58.906 33.1104C58.4959 33.1104 58.1205 32.9885 57.7797 32.7447C57.4333 32.4953 57.2186 32.0922 57.1354 31.5352H58.0041C58.0983 32.0007 58.3878 32.2362 58.8727 32.2418C59.0805 32.2418 59.2468 32.2002 59.3715 32.1171C59.4906 32.0367 59.5737 31.9315 59.6208 31.8012C59.6707 31.671 59.7012 31.5297 59.7123 31.3773C59.7178 31.2277 59.7206 31.0822 59.7206 30.9409C59.7261 30.5946 59.6721 30.3133 59.5585 30.0972C59.4975 29.9947 59.4075 29.913 59.2883 29.852C59.1692 29.8021 59.021 29.7772 58.8436 29.7772C58.6857 29.7772 58.5416 29.8132 58.4114 29.8852C58.2812 29.9601 58.1648 30.0903 58.0623 30.2759H57.2435ZM63.8019 31.315V28.7465C63.7853 28.1397 63.5013 27.8307 62.9499 27.8196C62.3958 27.8307 62.1131 28.1397 62.1021 28.7465V31.315C62.1131 31.9273 62.3958 32.2362 62.9499 32.2418C63.5013 32.2362 63.7853 31.9273 63.8019 31.315ZM61.2334 31.3648V28.6924C61.239 28.1327 61.4177 27.7019 61.7696 27.3999C62.0993 27.1006 62.4927 26.951 62.9499 26.951C63.4209 26.951 63.8213 27.1006 64.151 27.3999C64.4863 27.7019 64.6595 28.1327 64.6706 28.6924V31.3648C64.6595 31.9218 64.4863 32.3512 64.151 32.6532C63.8213 32.9525 63.4209 33.1049 62.9499 33.1104C62.4927 33.1049 62.0993 32.9525 61.7696 32.6532C61.4177 32.3512 61.239 31.9218 61.2334 31.3648ZM67.8666 31.7514V32.2085C67.8666 32.4884 67.9719 32.6283 68.1825 32.6283C68.3931 32.6283 68.4984 32.4884 68.4984 32.2085V31.7514C68.4984 31.4715 68.3931 31.3316 68.1825 31.3316C67.9719 31.3316 67.8666 31.4715 67.8666 31.7514ZM67.3804 32.2709V31.689C67.3859 31.3953 67.4718 31.1806 67.6381 31.0448C67.7904 30.9146 67.9719 30.8495 68.1825 30.8495C68.3986 30.8495 68.5857 30.9146 68.7436 31.0448C68.896 31.1806 68.975 31.3953 68.9805 31.689V32.2709C68.9805 32.4177 68.9611 32.5424 68.9223 32.6449C68.8835 32.753 68.8239 32.8403 68.7436 32.9068C68.5857 33.0425 68.3986 33.1104 68.1825 33.1104C67.9719 33.1104 67.7904 33.0425 67.6381 32.9068C67.4718 32.7765 67.3859 32.5646 67.3804 32.2709ZM65.4311 28.3724V27.7905C65.4367 27.4968 65.5226 27.2821 65.6888 27.1463C65.8412 27.0161 66.0227 26.951 66.2333 26.951C66.4494 26.951 66.6364 27.0161 66.7944 27.1463C66.9467 27.2821 67.0257 27.4968 67.0313 27.7905V28.3724C67.0313 28.5193 67.0119 28.6439 66.9731 28.7465C66.9343 28.8545 66.8747 28.9418 66.7944 29.0083C66.6364 29.1441 66.4494 29.2119 66.2333 29.2119C66.0227 29.2119 65.8412 29.1441 65.6888 29.0083C65.5226 28.8781 65.4367 28.6661 65.4311 28.3724ZM65.9174 27.8529V28.3101C65.9174 28.5899 66.0227 28.7298 66.2333 28.7298C66.4439 28.7298 66.5491 28.5899 66.5491 28.3101V27.8529C66.5491 27.573 66.4439 27.4331 66.2333 27.4331C66.0227 27.4331 65.9174 27.573 65.9174 27.8529ZM65.4935 33.0605L68.3612 27.0009H68.9223L66.0546 33.0605H65.4935Z" fill="#405FF4"/>
<path d="M34.0877 13.9125C33.8054 13.6292 33.6067 13.3087 33.4995 13C33.3933 13.3087 33.1946 13.6292 32.9123 13.9125C32.63 14.1949 32.3095 14.3938 32 14.5C32.3086 14.6062 32.629 14.8051 32.9123 15.0884C33.1946 15.3708 33.3933 15.6913 33.4995 16C33.6057 15.6913 33.8045 15.3708 34.0877 15.0884C34.37 14.806 34.6905 14.6071 35 14.5C34.6914 14.3938 34.371 14.1949 34.0877 13.9125Z" fill="#F3019C"/>
<path d="M25.9225 31L26.4849 33.426L28.8462 32.7057L27.0484 34.4103L28.8462 36.1148L26.4849 35.3946L25.9225 37.8206L25.3602 35.3946L23 36.1148L24.7978 34.4103L23 32.7057L25.3602 33.426L25.9225 31Z" fill="#405FF4"/>
<path d="M55.4997 13L55.7883 14.4227L57 14.0003L56.0774 15L57 15.9997L55.7883 15.5773L55.4997 17L55.2111 15.5773L54 15.9997L54.9226 15L54 14.0003L55.2111 14.4227L55.4997 13Z" fill="#405FF4"/>
<path d="M67.5202 46.4798C67.9915 46.951 68.3226 47.4856 68.5 48C68.6774 47.485 69.0085 46.951 69.4798 46.4798C69.951 46.0085 70.4856 45.6774 71 45.5C70.485 45.3226 69.951 44.9915 69.4798 44.5202C69.0085 44.049 68.6774 43.5144 68.5 43C68.3226 43.515 67.9915 44.049 67.5202 44.5202C67.049 44.9915 66.5144 45.3226 66 45.5C66.515 45.6774 67.049 46.0085 67.5202 46.4798Z" fill="#CEFF5A"/>
<path d="M39.2162 7.78382C39.5932 8.16083 39.8581 8.58846 40 9C40.1419 8.58798 40.4068 8.16083 40.7838 7.78382C41.1608 7.40681 41.5885 7.14191 42 7C41.588 6.85809 41.1608 6.59319 40.7838 6.21618C40.4068 5.83917 40.1419 5.41154 40 5C39.8581 5.41202 39.5932 5.83917 39.2162 6.21618C38.8392 6.59319 38.4115 6.85809 38 7C38.412 7.14191 38.8392 7.40681 39.2162 7.78382Z" fill="#CEFF5A"/>
</g>
<defs>
<clipPath id="clip0_19205_89628">
<rect width="72" height="72" fill="white"/>
</clipPath>
</defs>
</svg>
